G04 #@! TF.FileFunction,Legend,Top*
%FSLAX46Y46*%
G04 Gerber Fmt 4.6, Leading zero omitted, Abs format (unit mm)*
G04 Created by KiCad (PCBNEW 4.0.2+dfsg1-stable) date ven 19 lug 2019 14:22:53 CEST*
%MOMM*%
G01*
G04 APERTURE LIST*
%ADD10C,0.100000*%
%ADD11C,0.300000*%
%ADD12C,0.700000*%
%ADD13C,0.150000*%
%ADD14C,0.200000*%
%ADD15C,0.120000*%
G04 APERTURE END LIST*
D10*
D11*
X165428572Y-58678571D02*
X164571429Y-58678571D01*
X165000001Y-58678571D02*
X165000001Y-57178571D01*
X164857144Y-57392857D01*
X164714286Y-57535714D01*
X164571429Y-57607143D01*
X173928572Y-57178571D02*
X174071429Y-57178571D01*
X174214286Y-57250000D01*
X174285715Y-57321429D01*
X174357144Y-57464286D01*
X174428572Y-57750000D01*
X174428572Y-58107143D01*
X174357144Y-58392857D01*
X174285715Y-58535714D01*
X174214286Y-58607143D01*
X174071429Y-58678571D01*
X173928572Y-58678571D01*
X173785715Y-58607143D01*
X173714286Y-58535714D01*
X173642858Y-58392857D01*
X173571429Y-58107143D01*
X173571429Y-57750000D01*
X173642858Y-57464286D01*
X173714286Y-57321429D01*
X173785715Y-57250000D01*
X173928572Y-57178571D01*
D10*
X163267857Y-60821428D02*
X163303571Y-60857142D01*
X163339286Y-60964285D01*
X163339286Y-61035714D01*
X163303571Y-61142857D01*
X163232143Y-61214285D01*
X163160714Y-61250000D01*
X163017857Y-61285714D01*
X162910714Y-61285714D01*
X162767857Y-61250000D01*
X162696429Y-61214285D01*
X162625000Y-61142857D01*
X162589286Y-61035714D01*
X162589286Y-60964285D01*
X162625000Y-60857142D01*
X162660714Y-60821428D01*
X162946429Y-60250000D02*
X162946429Y-60500000D01*
X163339286Y-60500000D02*
X162589286Y-60500000D01*
X162589286Y-60142857D01*
X162625000Y-59464285D02*
X162589286Y-59535714D01*
X162589286Y-59642857D01*
X162625000Y-59750000D01*
X162696429Y-59821428D01*
X162767857Y-59857143D01*
X162910714Y-59892857D01*
X163017857Y-59892857D01*
X163160714Y-59857143D01*
X163232143Y-59821428D01*
X163303571Y-59750000D01*
X163339286Y-59642857D01*
X163339286Y-59571428D01*
X163303571Y-59464285D01*
X163267857Y-59428571D01*
X163017857Y-59428571D01*
X163017857Y-59571428D01*
X162660714Y-59142857D02*
X162625000Y-59107143D01*
X162589286Y-59035714D01*
X162589286Y-58857143D01*
X162625000Y-58785714D01*
X162660714Y-58750000D01*
X162732143Y-58714285D01*
X162803571Y-58714285D01*
X162910714Y-58750000D01*
X163339286Y-59178571D01*
X163339286Y-58714285D01*
X163267857Y-64821428D02*
X163303571Y-64857142D01*
X163339286Y-64964285D01*
X163339286Y-65035714D01*
X163303571Y-65142857D01*
X163232143Y-65214285D01*
X163160714Y-65250000D01*
X163017857Y-65285714D01*
X162910714Y-65285714D01*
X162767857Y-65250000D01*
X162696429Y-65214285D01*
X162625000Y-65142857D01*
X162589286Y-65035714D01*
X162589286Y-64964285D01*
X162625000Y-64857142D01*
X162660714Y-64821428D01*
X162946429Y-64250000D02*
X162946429Y-64500000D01*
X163339286Y-64500000D02*
X162589286Y-64500000D01*
X162589286Y-64142857D01*
X162625000Y-63464285D02*
X162589286Y-63535714D01*
X162589286Y-63642857D01*
X162625000Y-63750000D01*
X162696429Y-63821428D01*
X162767857Y-63857143D01*
X162910714Y-63892857D01*
X163017857Y-63892857D01*
X163160714Y-63857143D01*
X163232143Y-63821428D01*
X163303571Y-63750000D01*
X163339286Y-63642857D01*
X163339286Y-63571428D01*
X163303571Y-63464285D01*
X163267857Y-63428571D01*
X163017857Y-63428571D01*
X163017857Y-63571428D01*
X163339286Y-62714285D02*
X163339286Y-63142857D01*
X163339286Y-62928571D02*
X162589286Y-62928571D01*
X162696429Y-63000000D01*
X162767857Y-63071428D01*
X162803571Y-63142857D01*
X163267857Y-68821428D02*
X163303571Y-68857142D01*
X163339286Y-68964285D01*
X163339286Y-69035714D01*
X163303571Y-69142857D01*
X163232143Y-69214285D01*
X163160714Y-69250000D01*
X163017857Y-69285714D01*
X162910714Y-69285714D01*
X162767857Y-69250000D01*
X162696429Y-69214285D01*
X162625000Y-69142857D01*
X162589286Y-69035714D01*
X162589286Y-68964285D01*
X162625000Y-68857142D01*
X162660714Y-68821428D01*
X162946429Y-68250000D02*
X162946429Y-68500000D01*
X163339286Y-68500000D02*
X162589286Y-68500000D01*
X162589286Y-68142857D01*
X162625000Y-67464285D02*
X162589286Y-67535714D01*
X162589286Y-67642857D01*
X162625000Y-67750000D01*
X162696429Y-67821428D01*
X162767857Y-67857143D01*
X162910714Y-67892857D01*
X163017857Y-67892857D01*
X163160714Y-67857143D01*
X163232143Y-67821428D01*
X163303571Y-67750000D01*
X163339286Y-67642857D01*
X163339286Y-67571428D01*
X163303571Y-67464285D01*
X163267857Y-67428571D01*
X163017857Y-67428571D01*
X163017857Y-67571428D01*
X162589286Y-66964285D02*
X162589286Y-66892857D01*
X162625000Y-66821428D01*
X162660714Y-66785714D01*
X162732143Y-66750000D01*
X162875000Y-66714285D01*
X163053571Y-66714285D01*
X163196429Y-66750000D01*
X163267857Y-66785714D01*
X163303571Y-66821428D01*
X163339286Y-66892857D01*
X163339286Y-66964285D01*
X163303571Y-67035714D01*
X163267857Y-67071428D01*
X163196429Y-67107143D01*
X163053571Y-67142857D01*
X162875000Y-67142857D01*
X162732143Y-67107143D01*
X162660714Y-67071428D01*
X162625000Y-67035714D01*
X162589286Y-66964285D01*
D12*
X155452322Y-75017143D02*
X155827322Y-72017143D01*
X157059465Y-74160000D01*
X158827322Y-72017143D01*
X158452322Y-75017143D01*
X160791608Y-73445714D02*
X162291608Y-73445714D01*
X162738036Y-75017143D02*
X160595179Y-75017143D01*
X160970179Y-72017143D01*
X163113036Y-72017143D01*
X167380893Y-72160000D02*
X166970179Y-72017143D01*
X166327322Y-72017143D01*
X165666608Y-72160000D01*
X165202322Y-72445714D01*
X164952322Y-72731429D01*
X164666608Y-73302857D01*
X164613036Y-73731429D01*
X164755894Y-74302857D01*
X164934465Y-74588571D01*
X165327322Y-74874286D01*
X165952322Y-75017143D01*
X166380893Y-75017143D01*
X167041607Y-74874286D01*
X167273750Y-74731429D01*
X167398750Y-73731429D01*
X166541607Y-73731429D01*
X169059465Y-74160000D02*
X171202322Y-74160000D01*
X168523750Y-75017143D02*
X170398750Y-72017143D01*
X171523750Y-75017143D01*
X175595179Y-75017143D02*
X174273751Y-73588571D01*
X173023751Y-75017143D02*
X173398751Y-72017143D01*
X175113036Y-72017143D01*
X175523751Y-72160000D01*
X175720179Y-72302857D01*
X175898751Y-72588571D01*
X175845179Y-73017143D01*
X175595179Y-73302857D01*
X175363037Y-73445714D01*
X174916608Y-73588571D01*
X173202323Y-73588571D01*
X177416608Y-74160000D02*
X179559465Y-74160000D01*
X176880893Y-75017143D02*
X178755893Y-72017143D01*
X179880893Y-75017143D01*
X181380894Y-75017143D02*
X181755894Y-72017143D01*
X182988037Y-74160000D01*
X184755894Y-72017143D01*
X184380894Y-75017143D01*
D13*
X196390477Y-97600000D02*
X196314286Y-97561905D01*
X196200001Y-97561905D01*
X196085715Y-97600000D01*
X196009524Y-97676190D01*
X195971429Y-97752381D01*
X195933334Y-97904762D01*
X195933334Y-98019048D01*
X195971429Y-98171429D01*
X196009524Y-98247619D01*
X196085715Y-98323810D01*
X196200001Y-98361905D01*
X196276191Y-98361905D01*
X196390477Y-98323810D01*
X196428572Y-98285714D01*
X196428572Y-98019048D01*
X196276191Y-98019048D01*
X196771429Y-98361905D02*
X196771429Y-97561905D01*
X197228572Y-98361905D01*
X197228572Y-97561905D01*
X197609524Y-98361905D02*
X197609524Y-97561905D01*
X197800000Y-97561905D01*
X197914286Y-97600000D01*
X197990477Y-97676190D01*
X198028572Y-97752381D01*
X198066667Y-97904762D01*
X198066667Y-98019048D01*
X198028572Y-98171429D01*
X197990477Y-98247619D01*
X197914286Y-98323810D01*
X197800000Y-98361905D01*
X197609524Y-98361905D01*
D11*
X202000000Y-114678571D02*
X201500000Y-113964286D01*
X201142857Y-114678571D02*
X201142857Y-113178571D01*
X201714285Y-113178571D01*
X201857143Y-113250000D01*
X201928571Y-113321429D01*
X202000000Y-113464286D01*
X202000000Y-113678571D01*
X201928571Y-113821429D01*
X201857143Y-113892857D01*
X201714285Y-113964286D01*
X201142857Y-113964286D01*
X202642857Y-114678571D02*
X202642857Y-113178571D01*
X204142857Y-113250000D02*
X204000000Y-113178571D01*
X203785714Y-113178571D01*
X203571429Y-113250000D01*
X203428571Y-113392857D01*
X203357143Y-113535714D01*
X203285714Y-113821429D01*
X203285714Y-114035714D01*
X203357143Y-114321429D01*
X203428571Y-114464286D01*
X203571429Y-114607143D01*
X203785714Y-114678571D01*
X203928571Y-114678571D01*
X204142857Y-114607143D01*
X204214286Y-114535714D01*
X204214286Y-114035714D01*
X203928571Y-114035714D01*
X204857143Y-114678571D02*
X204857143Y-113178571D01*
X204857143Y-113892857D02*
X205714286Y-113892857D01*
X205714286Y-114678571D02*
X205714286Y-113178571D01*
X206214286Y-113178571D02*
X207071429Y-113178571D01*
X206642858Y-114678571D02*
X206642858Y-113178571D01*
X87471429Y-112438571D02*
X86757143Y-112438571D01*
X86757143Y-110938571D01*
X87971429Y-111652857D02*
X88471429Y-111652857D01*
X88685715Y-112438571D02*
X87971429Y-112438571D01*
X87971429Y-110938571D01*
X88685715Y-110938571D01*
X89828572Y-111652857D02*
X89328572Y-111652857D01*
X89328572Y-112438571D02*
X89328572Y-110938571D01*
X90042858Y-110938571D01*
X90400000Y-110938571D02*
X91257143Y-110938571D01*
X90828572Y-112438571D02*
X90828572Y-110938571D01*
X88761429Y-58312857D02*
X88261429Y-58312857D01*
X88261429Y-59098571D02*
X88261429Y-57598571D01*
X88975715Y-57598571D01*
X90404286Y-59098571D02*
X89904286Y-58384286D01*
X89547143Y-59098571D02*
X89547143Y-57598571D01*
X90118571Y-57598571D01*
X90261429Y-57670000D01*
X90332857Y-57741429D01*
X90404286Y-57884286D01*
X90404286Y-58098571D01*
X90332857Y-58241429D01*
X90261429Y-58312857D01*
X90118571Y-58384286D01*
X89547143Y-58384286D01*
X91332857Y-57598571D02*
X91618571Y-57598571D01*
X91761429Y-57670000D01*
X91904286Y-57812857D01*
X91975714Y-58098571D01*
X91975714Y-58598571D01*
X91904286Y-58884286D01*
X91761429Y-59027143D01*
X91618571Y-59098571D01*
X91332857Y-59098571D01*
X91190000Y-59027143D01*
X91047143Y-58884286D01*
X90975714Y-58598571D01*
X90975714Y-58098571D01*
X91047143Y-57812857D01*
X91190000Y-57670000D01*
X91332857Y-57598571D01*
X92618572Y-59098571D02*
X92618572Y-57598571D01*
X93475715Y-59098571D01*
X93475715Y-57598571D01*
X93975715Y-57598571D02*
X94832858Y-57598571D01*
X94404287Y-59098571D02*
X94404287Y-57598571D01*
X167500001Y-114678571D02*
X167500001Y-113178571D01*
X167500001Y-114607143D02*
X167357144Y-114678571D01*
X167071430Y-114678571D01*
X166928572Y-114607143D01*
X166857144Y-114535714D01*
X166785715Y-114392857D01*
X166785715Y-113964286D01*
X166857144Y-113821429D01*
X166928572Y-113750000D01*
X167071430Y-113678571D01*
X167357144Y-113678571D01*
X167500001Y-113750000D01*
X168785715Y-114607143D02*
X168642858Y-114678571D01*
X168357144Y-114678571D01*
X168214287Y-114607143D01*
X168142858Y-114464286D01*
X168142858Y-113892857D01*
X168214287Y-113750000D01*
X168357144Y-113678571D01*
X168642858Y-113678571D01*
X168785715Y-113750000D01*
X168857144Y-113892857D01*
X168857144Y-114035714D01*
X168142858Y-114178571D01*
X169428572Y-114607143D02*
X169571429Y-114678571D01*
X169857144Y-114678571D01*
X170000001Y-114607143D01*
X170071429Y-114464286D01*
X170071429Y-114392857D01*
X170000001Y-114250000D01*
X169857144Y-114178571D01*
X169642858Y-114178571D01*
X169500001Y-114107143D01*
X169428572Y-113964286D01*
X169428572Y-113892857D01*
X169500001Y-113750000D01*
X169642858Y-113678571D01*
X169857144Y-113678571D01*
X170000001Y-113750000D01*
X170714287Y-114678571D02*
X170714287Y-113678571D01*
X170714287Y-113178571D02*
X170642858Y-113250000D01*
X170714287Y-113321429D01*
X170785715Y-113250000D01*
X170714287Y-113178571D01*
X170714287Y-113321429D01*
X172071430Y-113678571D02*
X172071430Y-114892857D01*
X172000001Y-115035714D01*
X171928573Y-115107143D01*
X171785716Y-115178571D01*
X171571430Y-115178571D01*
X171428573Y-115107143D01*
X172071430Y-114607143D02*
X171928573Y-114678571D01*
X171642859Y-114678571D01*
X171500001Y-114607143D01*
X171428573Y-114535714D01*
X171357144Y-114392857D01*
X171357144Y-113964286D01*
X171428573Y-113821429D01*
X171500001Y-113750000D01*
X171642859Y-113678571D01*
X171928573Y-113678571D01*
X172071430Y-113750000D01*
X172785716Y-113678571D02*
X172785716Y-114678571D01*
X172785716Y-113821429D02*
X172857144Y-113750000D01*
X173000002Y-113678571D01*
X173214287Y-113678571D01*
X173357144Y-113750000D01*
X173428573Y-113892857D01*
X173428573Y-114678571D01*
X174714287Y-114607143D02*
X174571430Y-114678571D01*
X174285716Y-114678571D01*
X174142859Y-114607143D01*
X174071430Y-114464286D01*
X174071430Y-113892857D01*
X174142859Y-113750000D01*
X174285716Y-113678571D01*
X174571430Y-113678571D01*
X174714287Y-113750000D01*
X174785716Y-113892857D01*
X174785716Y-114035714D01*
X174071430Y-114178571D01*
X176071430Y-114678571D02*
X176071430Y-113178571D01*
X176071430Y-114607143D02*
X175928573Y-114678571D01*
X175642859Y-114678571D01*
X175500001Y-114607143D01*
X175428573Y-114535714D01*
X175357144Y-114392857D01*
X175357144Y-113964286D01*
X175428573Y-113821429D01*
X175500001Y-113750000D01*
X175642859Y-113678571D01*
X175928573Y-113678571D01*
X176071430Y-113750000D01*
X177928573Y-114678571D02*
X177928573Y-113178571D01*
X177928573Y-113750000D02*
X178071430Y-113678571D01*
X178357144Y-113678571D01*
X178500001Y-113750000D01*
X178571430Y-113821429D01*
X178642859Y-113964286D01*
X178642859Y-114392857D01*
X178571430Y-114535714D01*
X178500001Y-114607143D01*
X178357144Y-114678571D01*
X178071430Y-114678571D01*
X177928573Y-114607143D01*
X179142859Y-113678571D02*
X179500002Y-114678571D01*
X179857144Y-113678571D02*
X179500002Y-114678571D01*
X179357144Y-115035714D01*
X179285716Y-115107143D01*
X179142859Y-115178571D01*
X182428573Y-114678571D02*
X181928573Y-113964286D01*
X181571430Y-114678571D02*
X181571430Y-113178571D01*
X182142858Y-113178571D01*
X182285716Y-113250000D01*
X182357144Y-113321429D01*
X182428573Y-113464286D01*
X182428573Y-113678571D01*
X182357144Y-113821429D01*
X182285716Y-113892857D01*
X182142858Y-113964286D01*
X181571430Y-113964286D01*
X183071430Y-114535714D02*
X183142858Y-114607143D01*
X183071430Y-114678571D01*
X183000001Y-114607143D01*
X183071430Y-114535714D01*
X183071430Y-114678571D01*
X184571430Y-113250000D02*
X184428573Y-113178571D01*
X184214287Y-113178571D01*
X184000002Y-113250000D01*
X183857144Y-113392857D01*
X183785716Y-113535714D01*
X183714287Y-113821429D01*
X183714287Y-114035714D01*
X183785716Y-114321429D01*
X183857144Y-114464286D01*
X184000002Y-114607143D01*
X184214287Y-114678571D01*
X184357144Y-114678571D01*
X184571430Y-114607143D01*
X184642859Y-114535714D01*
X184642859Y-114035714D01*
X184357144Y-114035714D01*
X185285716Y-114535714D02*
X185357144Y-114607143D01*
X185285716Y-114678571D01*
X185214287Y-114607143D01*
X185285716Y-114535714D01*
X185285716Y-114678571D01*
X187071430Y-113321429D02*
X187142859Y-113250000D01*
X187285716Y-113178571D01*
X187642859Y-113178571D01*
X187785716Y-113250000D01*
X187857145Y-113321429D01*
X187928573Y-113464286D01*
X187928573Y-113607143D01*
X187857145Y-113821429D01*
X187000002Y-114678571D01*
X187928573Y-114678571D01*
X188857144Y-113178571D02*
X189000001Y-113178571D01*
X189142858Y-113250000D01*
X189214287Y-113321429D01*
X189285716Y-113464286D01*
X189357144Y-113750000D01*
X189357144Y-114107143D01*
X189285716Y-114392857D01*
X189214287Y-114535714D01*
X189142858Y-114607143D01*
X189000001Y-114678571D01*
X188857144Y-114678571D01*
X188714287Y-114607143D01*
X188642858Y-114535714D01*
X188571430Y-114392857D01*
X188500001Y-114107143D01*
X188500001Y-113750000D01*
X188571430Y-113464286D01*
X188642858Y-113321429D01*
X188714287Y-113250000D01*
X188857144Y-113178571D01*
X190785715Y-114678571D02*
X189928572Y-114678571D01*
X190357144Y-114678571D02*
X190357144Y-113178571D01*
X190214287Y-113392857D01*
X190071429Y-113535714D01*
X189928572Y-113607143D01*
X191500000Y-114678571D02*
X191785715Y-114678571D01*
X191928572Y-114607143D01*
X192000000Y-114535714D01*
X192142858Y-114321429D01*
X192214286Y-114035714D01*
X192214286Y-113464286D01*
X192142858Y-113321429D01*
X192071429Y-113250000D01*
X191928572Y-113178571D01*
X191642858Y-113178571D01*
X191500000Y-113250000D01*
X191428572Y-113321429D01*
X191357143Y-113464286D01*
X191357143Y-113821429D01*
X191428572Y-113964286D01*
X191500000Y-114035714D01*
X191642858Y-114107143D01*
X191928572Y-114107143D01*
X192071429Y-114035714D01*
X192142858Y-113964286D01*
X192214286Y-113821429D01*
X189750000Y-69178571D02*
X189750000Y-67678571D01*
X189750000Y-68250000D02*
X189892857Y-68178571D01*
X190178571Y-68178571D01*
X190321428Y-68250000D01*
X190392857Y-68321429D01*
X190464286Y-68464286D01*
X190464286Y-68892857D01*
X190392857Y-69035714D01*
X190321428Y-69107143D01*
X190178571Y-69178571D01*
X189892857Y-69178571D01*
X189750000Y-69107143D01*
X190964286Y-68178571D02*
X191321429Y-69178571D01*
X191678571Y-68178571D02*
X191321429Y-69178571D01*
X191178571Y-69535714D01*
X191107143Y-69607143D01*
X190964286Y-69678571D01*
X194250000Y-69178571D02*
X193750000Y-68464286D01*
X193392857Y-69178571D02*
X193392857Y-67678571D01*
X193964285Y-67678571D01*
X194107143Y-67750000D01*
X194178571Y-67821429D01*
X194250000Y-67964286D01*
X194250000Y-68178571D01*
X194178571Y-68321429D01*
X194107143Y-68392857D01*
X193964285Y-68464286D01*
X193392857Y-68464286D01*
X194892857Y-68392857D02*
X195392857Y-68392857D01*
X195607143Y-69178571D02*
X194892857Y-69178571D01*
X194892857Y-67678571D01*
X195607143Y-67678571D01*
X196035714Y-67678571D02*
X196892857Y-67678571D01*
X196464286Y-69178571D02*
X196464286Y-67678571D01*
X198250000Y-69178571D02*
X197750000Y-68464286D01*
X197392857Y-69178571D02*
X197392857Y-67678571D01*
X197964285Y-67678571D01*
X198107143Y-67750000D01*
X198178571Y-67821429D01*
X198250000Y-67964286D01*
X198250000Y-68178571D01*
X198178571Y-68321429D01*
X198107143Y-68392857D01*
X197964285Y-68464286D01*
X197392857Y-68464286D01*
X199178571Y-67678571D02*
X199464285Y-67678571D01*
X199607143Y-67750000D01*
X199750000Y-67892857D01*
X199821428Y-68178571D01*
X199821428Y-68678571D01*
X199750000Y-68964286D01*
X199607143Y-69107143D01*
X199464285Y-69178571D01*
X199178571Y-69178571D01*
X199035714Y-69107143D01*
X198892857Y-68964286D01*
X198821428Y-68678571D01*
X198821428Y-68178571D01*
X198892857Y-67892857D01*
X199035714Y-67750000D01*
X199178571Y-67678571D01*
X200964286Y-68392857D02*
X201178572Y-68464286D01*
X201250000Y-68535714D01*
X201321429Y-68678571D01*
X201321429Y-68892857D01*
X201250000Y-69035714D01*
X201178572Y-69107143D01*
X201035714Y-69178571D01*
X200464286Y-69178571D01*
X200464286Y-67678571D01*
X200964286Y-67678571D01*
X201107143Y-67750000D01*
X201178572Y-67821429D01*
X201250000Y-67964286D01*
X201250000Y-68107143D01*
X201178572Y-68250000D01*
X201107143Y-68321429D01*
X200964286Y-68392857D01*
X200464286Y-68392857D01*
X201964286Y-69178571D02*
X201964286Y-67678571D01*
X202464286Y-67678571D02*
X203321429Y-67678571D01*
X202892858Y-69178571D02*
X202892858Y-67678571D01*
X205678572Y-69178571D02*
X204964286Y-69178571D01*
X204964286Y-67678571D01*
X206107143Y-68750000D02*
X206821429Y-68750000D01*
X205964286Y-69178571D02*
X206464286Y-67678571D01*
X206964286Y-69178571D01*
X207964286Y-68392857D02*
X208178572Y-68464286D01*
X208250000Y-68535714D01*
X208321429Y-68678571D01*
X208321429Y-68892857D01*
X208250000Y-69035714D01*
X208178572Y-69107143D01*
X208035714Y-69178571D01*
X207464286Y-69178571D01*
X207464286Y-67678571D01*
X207964286Y-67678571D01*
X208107143Y-67750000D01*
X208178572Y-67821429D01*
X208250000Y-67964286D01*
X208250000Y-68107143D01*
X208178572Y-68250000D01*
X208107143Y-68321429D01*
X207964286Y-68392857D01*
X207464286Y-68392857D01*
D14*
X192858096Y-58348571D02*
X193000953Y-58396190D01*
X193048572Y-58443810D01*
X193096191Y-58539048D01*
X193096191Y-58681905D01*
X193048572Y-58777143D01*
X193000953Y-58824762D01*
X192905715Y-58872381D01*
X192524762Y-58872381D01*
X192524762Y-57872381D01*
X192858096Y-57872381D01*
X192953334Y-57920000D01*
X193000953Y-57967619D01*
X193048572Y-58062857D01*
X193048572Y-58158095D01*
X193000953Y-58253333D01*
X192953334Y-58300952D01*
X192858096Y-58348571D01*
X192524762Y-58348571D01*
X193715238Y-57872381D02*
X193905715Y-57872381D01*
X194000953Y-57920000D01*
X194096191Y-58015238D01*
X194143810Y-58205714D01*
X194143810Y-58539048D01*
X194096191Y-58729524D01*
X194000953Y-58824762D01*
X193905715Y-58872381D01*
X193715238Y-58872381D01*
X193620000Y-58824762D01*
X193524762Y-58729524D01*
X193477143Y-58539048D01*
X193477143Y-58205714D01*
X193524762Y-58015238D01*
X193620000Y-57920000D01*
X193715238Y-57872381D01*
X194524762Y-58586667D02*
X195000953Y-58586667D01*
X194429524Y-58872381D02*
X194762857Y-57872381D01*
X195096191Y-58872381D01*
X196000953Y-58872381D02*
X195667619Y-58396190D01*
X195429524Y-58872381D02*
X195429524Y-57872381D01*
X195810477Y-57872381D01*
X195905715Y-57920000D01*
X195953334Y-57967619D01*
X196000953Y-58062857D01*
X196000953Y-58205714D01*
X195953334Y-58300952D01*
X195905715Y-58348571D01*
X195810477Y-58396190D01*
X195429524Y-58396190D01*
X196429524Y-58872381D02*
X196429524Y-57872381D01*
X196667619Y-57872381D01*
X196810477Y-57920000D01*
X196905715Y-58015238D01*
X196953334Y-58110476D01*
X197000953Y-58300952D01*
X197000953Y-58443810D01*
X196953334Y-58634286D01*
X196905715Y-58729524D01*
X196810477Y-58824762D01*
X196667619Y-58872381D01*
X196429524Y-58872381D01*
X198191429Y-58872381D02*
X198191429Y-57872381D01*
X198429524Y-57872381D01*
X198572382Y-57920000D01*
X198667620Y-58015238D01*
X198715239Y-58110476D01*
X198762858Y-58300952D01*
X198762858Y-58443810D01*
X198715239Y-58634286D01*
X198667620Y-58729524D01*
X198572382Y-58824762D01*
X198429524Y-58872381D01*
X198191429Y-58872381D01*
X199191429Y-58872381D02*
X199191429Y-57872381D01*
X199620000Y-58824762D02*
X199762857Y-58872381D01*
X200000953Y-58872381D01*
X200096191Y-58824762D01*
X200143810Y-58777143D01*
X200191429Y-58681905D01*
X200191429Y-58586667D01*
X200143810Y-58491429D01*
X200096191Y-58443810D01*
X200000953Y-58396190D01*
X199810476Y-58348571D01*
X199715238Y-58300952D01*
X199667619Y-58253333D01*
X199620000Y-58158095D01*
X199620000Y-58062857D01*
X199667619Y-57967619D01*
X199715238Y-57920000D01*
X199810476Y-57872381D01*
X200048572Y-57872381D01*
X200191429Y-57920000D01*
X200572381Y-58586667D02*
X201048572Y-58586667D01*
X200477143Y-58872381D02*
X200810476Y-57872381D01*
X201143810Y-58872381D01*
X201810477Y-58348571D02*
X201953334Y-58396190D01*
X202000953Y-58443810D01*
X202048572Y-58539048D01*
X202048572Y-58681905D01*
X202000953Y-58777143D01*
X201953334Y-58824762D01*
X201858096Y-58872381D01*
X201477143Y-58872381D01*
X201477143Y-57872381D01*
X201810477Y-57872381D01*
X201905715Y-57920000D01*
X201953334Y-57967619D01*
X202000953Y-58062857D01*
X202000953Y-58158095D01*
X201953334Y-58253333D01*
X201905715Y-58300952D01*
X201810477Y-58348571D01*
X201477143Y-58348571D01*
X202953334Y-58872381D02*
X202477143Y-58872381D01*
X202477143Y-57872381D01*
X203286667Y-58348571D02*
X203620001Y-58348571D01*
X203762858Y-58872381D02*
X203286667Y-58872381D01*
X203286667Y-57872381D01*
X203762858Y-57872381D01*
D13*
X198933333Y-86061905D02*
X199200000Y-86861905D01*
X199466667Y-86061905D01*
X200190476Y-86785714D02*
X200152381Y-86823810D01*
X200038095Y-86861905D01*
X199961905Y-86861905D01*
X199847619Y-86823810D01*
X199771428Y-86747619D01*
X199733333Y-86671429D01*
X199695238Y-86519048D01*
X199695238Y-86404762D01*
X199733333Y-86252381D01*
X199771428Y-86176190D01*
X199847619Y-86100000D01*
X199961905Y-86061905D01*
X200038095Y-86061905D01*
X200152381Y-86100000D01*
X200190476Y-86138095D01*
X200990476Y-86785714D02*
X200952381Y-86823810D01*
X200838095Y-86861905D01*
X200761905Y-86861905D01*
X200647619Y-86823810D01*
X200571428Y-86747619D01*
X200533333Y-86671429D01*
X200495238Y-86519048D01*
X200495238Y-86404762D01*
X200533333Y-86252381D01*
X200571428Y-86176190D01*
X200647619Y-86100000D01*
X200761905Y-86061905D01*
X200838095Y-86061905D01*
X200952381Y-86100000D01*
X200990476Y-86138095D01*
X196790476Y-84323810D02*
X196904762Y-84361905D01*
X197095238Y-84361905D01*
X197171428Y-84323810D01*
X197209524Y-84285714D01*
X197247619Y-84209524D01*
X197247619Y-84133333D01*
X197209524Y-84057143D01*
X197171428Y-84019048D01*
X197095238Y-83980952D01*
X196942857Y-83942857D01*
X196866666Y-83904762D01*
X196828571Y-83866667D01*
X196790476Y-83790476D01*
X196790476Y-83714286D01*
X196828571Y-83638095D01*
X196866666Y-83600000D01*
X196942857Y-83561905D01*
X197133333Y-83561905D01*
X197247619Y-83600000D01*
X197514286Y-83561905D02*
X197704762Y-84361905D01*
X197857143Y-83790476D01*
X198009524Y-84361905D01*
X198200000Y-83561905D01*
X198504762Y-84361905D02*
X198504762Y-83561905D01*
X198695238Y-83561905D01*
X198809524Y-83600000D01*
X198885715Y-83676190D01*
X198923810Y-83752381D01*
X198961905Y-83904762D01*
X198961905Y-84019048D01*
X198923810Y-84171429D01*
X198885715Y-84247619D01*
X198809524Y-84323810D01*
X198695238Y-84361905D01*
X198504762Y-84361905D01*
X199761905Y-84285714D02*
X199723810Y-84323810D01*
X199609524Y-84361905D01*
X199533334Y-84361905D01*
X199419048Y-84323810D01*
X199342857Y-84247619D01*
X199304762Y-84171429D01*
X199266667Y-84019048D01*
X199266667Y-83904762D01*
X199304762Y-83752381D01*
X199342857Y-83676190D01*
X199419048Y-83600000D01*
X199533334Y-83561905D01*
X199609524Y-83561905D01*
X199723810Y-83600000D01*
X199761905Y-83638095D01*
X200485715Y-84361905D02*
X200104762Y-84361905D01*
X200104762Y-83561905D01*
X200752381Y-84361905D02*
X200752381Y-83561905D01*
X201209524Y-84361905D02*
X200866667Y-83904762D01*
X201209524Y-83561905D02*
X200752381Y-84019048D01*
X197804762Y-81823810D02*
X197919048Y-81861905D01*
X198109524Y-81861905D01*
X198185714Y-81823810D01*
X198223810Y-81785714D01*
X198261905Y-81709524D01*
X198261905Y-81633333D01*
X198223810Y-81557143D01*
X198185714Y-81519048D01*
X198109524Y-81480952D01*
X197957143Y-81442857D01*
X197880952Y-81404762D01*
X197842857Y-81366667D01*
X197804762Y-81290476D01*
X197804762Y-81214286D01*
X197842857Y-81138095D01*
X197880952Y-81100000D01*
X197957143Y-81061905D01*
X198147619Y-81061905D01*
X198261905Y-81100000D01*
X198528572Y-81061905D02*
X198719048Y-81861905D01*
X198871429Y-81290476D01*
X199023810Y-81861905D01*
X199214286Y-81061905D01*
X199519048Y-81861905D02*
X199519048Y-81061905D01*
X199709524Y-81061905D01*
X199823810Y-81100000D01*
X199900001Y-81176190D01*
X199938096Y-81252381D01*
X199976191Y-81404762D01*
X199976191Y-81519048D01*
X199938096Y-81671429D01*
X199900001Y-81747619D01*
X199823810Y-81823810D01*
X199709524Y-81861905D01*
X199519048Y-81861905D01*
X200319048Y-81861905D02*
X200319048Y-81061905D01*
X200852381Y-81061905D02*
X201004762Y-81061905D01*
X201080953Y-81100000D01*
X201157143Y-81176190D01*
X201195238Y-81328571D01*
X201195238Y-81595238D01*
X201157143Y-81747619D01*
X201080953Y-81823810D01*
X201004762Y-81861905D01*
X200852381Y-81861905D01*
X200776191Y-81823810D01*
X200700000Y-81747619D01*
X200661905Y-81595238D01*
X200661905Y-81328571D01*
X200700000Y-81176190D01*
X200776191Y-81100000D01*
X200852381Y-81061905D01*
X199390477Y-78600000D02*
X199314286Y-78561905D01*
X199200001Y-78561905D01*
X199085715Y-78600000D01*
X199009524Y-78676190D01*
X198971429Y-78752381D01*
X198933334Y-78904762D01*
X198933334Y-79019048D01*
X198971429Y-79171429D01*
X199009524Y-79247619D01*
X199085715Y-79323810D01*
X199200001Y-79361905D01*
X199276191Y-79361905D01*
X199390477Y-79323810D01*
X199428572Y-79285714D01*
X199428572Y-79019048D01*
X199276191Y-79019048D01*
X199771429Y-79361905D02*
X199771429Y-78561905D01*
X200228572Y-79361905D01*
X200228572Y-78561905D01*
X200609524Y-79361905D02*
X200609524Y-78561905D01*
X200800000Y-78561905D01*
X200914286Y-78600000D01*
X200990477Y-78676190D01*
X201028572Y-78752381D01*
X201066667Y-78904762D01*
X201066667Y-79019048D01*
X201028572Y-79171429D01*
X200990477Y-79247619D01*
X200914286Y-79323810D01*
X200800000Y-79361905D01*
X200609524Y-79361905D01*
X195890476Y-103061905D02*
X196347619Y-103061905D01*
X196119048Y-103861905D02*
X196119048Y-103061905D01*
X196538096Y-103061905D02*
X197071429Y-103861905D01*
X197071429Y-103061905D02*
X196538096Y-103861905D01*
X196366667Y-101361905D02*
X196100000Y-100980952D01*
X195909524Y-101361905D02*
X195909524Y-100561905D01*
X196214286Y-100561905D01*
X196290477Y-100600000D01*
X196328572Y-100638095D01*
X196366667Y-100714286D01*
X196366667Y-100828571D01*
X196328572Y-100904762D01*
X196290477Y-100942857D01*
X196214286Y-100980952D01*
X195909524Y-100980952D01*
X196633334Y-100561905D02*
X197166667Y-101361905D01*
X197166667Y-100561905D02*
X196633334Y-101361905D01*
D11*
X81958571Y-104034286D02*
X80458571Y-104034286D01*
X81530000Y-103534286D01*
X80458571Y-103034286D01*
X81958571Y-103034286D01*
X81172857Y-102320000D02*
X81172857Y-101820000D01*
X81958571Y-101605714D02*
X81958571Y-102320000D01*
X80458571Y-102320000D01*
X80458571Y-101605714D01*
X81958571Y-100962857D02*
X80458571Y-100962857D01*
X81530000Y-100462857D01*
X80458571Y-99962857D01*
X81958571Y-99962857D01*
X80458571Y-98962857D02*
X80458571Y-98677143D01*
X80530000Y-98534285D01*
X80672857Y-98391428D01*
X80958571Y-98320000D01*
X81458571Y-98320000D01*
X81744286Y-98391428D01*
X81887143Y-98534285D01*
X81958571Y-98677143D01*
X81958571Y-98962857D01*
X81887143Y-99105714D01*
X81744286Y-99248571D01*
X81458571Y-99320000D01*
X80958571Y-99320000D01*
X80672857Y-99248571D01*
X80530000Y-99105714D01*
X80458571Y-98962857D01*
X81958571Y-96819999D02*
X81244286Y-97319999D01*
X81958571Y-97677142D02*
X80458571Y-97677142D01*
X80458571Y-97105714D01*
X80530000Y-96962856D01*
X80601429Y-96891428D01*
X80744286Y-96819999D01*
X80958571Y-96819999D01*
X81101429Y-96891428D01*
X81172857Y-96962856D01*
X81244286Y-97105714D01*
X81244286Y-97677142D01*
X81244286Y-95891428D02*
X81958571Y-95891428D01*
X80458571Y-96391428D02*
X81244286Y-95891428D01*
X80458571Y-95391428D01*
X81172857Y-93748571D02*
X81172857Y-93248571D01*
X81958571Y-93034285D02*
X81958571Y-93748571D01*
X80458571Y-93748571D01*
X80458571Y-93034285D01*
X80458571Y-92534285D02*
X81958571Y-91534285D01*
X80458571Y-91534285D02*
X81958571Y-92534285D01*
X81958571Y-90962857D02*
X80458571Y-90962857D01*
X80458571Y-90391429D01*
X80530000Y-90248571D01*
X80601429Y-90177143D01*
X80744286Y-90105714D01*
X80958571Y-90105714D01*
X81101429Y-90177143D01*
X81172857Y-90248571D01*
X81244286Y-90391429D01*
X81244286Y-90962857D01*
X81530000Y-89534286D02*
X81530000Y-88820000D01*
X81958571Y-89677143D02*
X80458571Y-89177143D01*
X81958571Y-88677143D01*
X81958571Y-88177143D02*
X80458571Y-88177143D01*
X81958571Y-87320000D01*
X80458571Y-87320000D01*
X81887143Y-86677143D02*
X81958571Y-86462857D01*
X81958571Y-86105714D01*
X81887143Y-85962857D01*
X81815714Y-85891428D01*
X81672857Y-85820000D01*
X81530000Y-85820000D01*
X81387143Y-85891428D01*
X81315714Y-85962857D01*
X81244286Y-86105714D01*
X81172857Y-86391428D01*
X81101429Y-86534286D01*
X81030000Y-86605714D01*
X80887143Y-86677143D01*
X80744286Y-86677143D01*
X80601429Y-86605714D01*
X80530000Y-86534286D01*
X80458571Y-86391428D01*
X80458571Y-86034286D01*
X80530000Y-85820000D01*
X81958571Y-85177143D02*
X80458571Y-85177143D01*
X80458571Y-84177143D02*
X80458571Y-83891429D01*
X80530000Y-83748571D01*
X80672857Y-83605714D01*
X80958571Y-83534286D01*
X81458571Y-83534286D01*
X81744286Y-83605714D01*
X81887143Y-83748571D01*
X81958571Y-83891429D01*
X81958571Y-84177143D01*
X81887143Y-84320000D01*
X81744286Y-84462857D01*
X81458571Y-84534286D01*
X80958571Y-84534286D01*
X80672857Y-84462857D01*
X80530000Y-84320000D01*
X80458571Y-84177143D01*
X81958571Y-82891428D02*
X80458571Y-82891428D01*
X81958571Y-82034285D01*
X80458571Y-82034285D01*
X81958571Y-80177142D02*
X80458571Y-80177142D01*
X81530000Y-79677142D01*
X80458571Y-79177142D01*
X81958571Y-79177142D01*
X80458571Y-78177142D02*
X80458571Y-77891428D01*
X80530000Y-77748570D01*
X80672857Y-77605713D01*
X80958571Y-77534285D01*
X81458571Y-77534285D01*
X81744286Y-77605713D01*
X81887143Y-77748570D01*
X81958571Y-77891428D01*
X81958571Y-78177142D01*
X81887143Y-78319999D01*
X81744286Y-78462856D01*
X81458571Y-78534285D01*
X80958571Y-78534285D01*
X80672857Y-78462856D01*
X80530000Y-78319999D01*
X80458571Y-78177142D01*
X81958571Y-76891427D02*
X80458571Y-76891427D01*
X80458571Y-76534284D01*
X80530000Y-76319999D01*
X80672857Y-76177141D01*
X80815714Y-76105713D01*
X81101429Y-76034284D01*
X81315714Y-76034284D01*
X81601429Y-76105713D01*
X81744286Y-76177141D01*
X81887143Y-76319999D01*
X81958571Y-76534284D01*
X81958571Y-76891427D01*
X80458571Y-75391427D02*
X81672857Y-75391427D01*
X81815714Y-75319999D01*
X81887143Y-75248570D01*
X81958571Y-75105713D01*
X81958571Y-74819999D01*
X81887143Y-74677141D01*
X81815714Y-74605713D01*
X81672857Y-74534284D01*
X80458571Y-74534284D01*
X81958571Y-73105712D02*
X81958571Y-73819998D01*
X80458571Y-73819998D01*
X81172857Y-72605712D02*
X81172857Y-72105712D01*
X81958571Y-71891426D02*
X81958571Y-72605712D01*
X80458571Y-72605712D01*
X80458571Y-71891426D01*
X81958571Y-69319998D02*
X81958571Y-70177141D01*
X81958571Y-69748569D02*
X80458571Y-69748569D01*
X80672857Y-69891426D01*
X80815714Y-70034284D01*
X80887143Y-70177141D01*
X80458571Y-68391427D02*
X80458571Y-68248570D01*
X80530000Y-68105713D01*
X80601429Y-68034284D01*
X80744286Y-67962855D01*
X81030000Y-67891427D01*
X81387143Y-67891427D01*
X81672857Y-67962855D01*
X81815714Y-68034284D01*
X81887143Y-68105713D01*
X81958571Y-68248570D01*
X81958571Y-68391427D01*
X81887143Y-68534284D01*
X81815714Y-68605713D01*
X81672857Y-68677141D01*
X81387143Y-68748570D01*
X81030000Y-68748570D01*
X80744286Y-68677141D01*
X80601429Y-68605713D01*
X80530000Y-68534284D01*
X80458571Y-68391427D01*
X80601429Y-67319999D02*
X80530000Y-67248570D01*
X80458571Y-67105713D01*
X80458571Y-66748570D01*
X80530000Y-66605713D01*
X80601429Y-66534284D01*
X80744286Y-66462856D01*
X80887143Y-66462856D01*
X81101429Y-66534284D01*
X81958571Y-67391427D01*
X81958571Y-66462856D01*
X80958571Y-65177142D02*
X81958571Y-65177142D01*
X80387143Y-65534285D02*
X81458571Y-65891428D01*
X81458571Y-64962856D01*
X81958571Y-64391428D02*
X80458571Y-64391428D01*
X81958571Y-63534285D02*
X81101429Y-64177142D01*
X80458571Y-63534285D02*
X81315714Y-64391428D01*
D15*
X151172000Y-125466000D02*
X165172000Y-125466000D01*
X165172000Y-125466000D02*
X165172000Y-119666000D01*
X165172000Y-119666000D02*
X151172000Y-119666000D01*
X142172000Y-119666000D02*
X142172000Y-116466000D01*
X142172000Y-116466000D02*
X143972000Y-116466000D01*
X143972000Y-116466000D02*
X143972000Y-119666000D01*
X130872000Y-119666000D02*
X142172000Y-119666000D01*
X142172000Y-119666000D02*
X142172000Y-125466000D01*
X142172000Y-125466000D02*
X130872000Y-125466000D01*
X130872000Y-125466000D02*
X130872000Y-119666000D01*
X151272000Y-119666000D02*
X143972000Y-119666000D01*
X143972000Y-125466000D02*
X151272000Y-125466000D01*
X143972000Y-119666000D02*
X143972000Y-125466000D01*
X139685000Y-62740000D02*
X139685000Y-69140000D01*
X134635000Y-62740000D02*
X134635000Y-69140000D01*
X134635000Y-62740000D02*
G75*
G02X139685000Y-62740000I2525000J0D01*
G01*
X134635000Y-69140000D02*
G75*
G03X139685000Y-69140000I2525000J0D01*
G01*
D13*
X111315000Y-96075000D02*
X111315000Y-95275000D01*
X96965000Y-96075000D02*
X96965000Y-95275000D01*
X96965000Y-81725000D02*
X96965000Y-82525000D01*
X111315000Y-81725000D02*
X111315000Y-82525000D01*
X111315000Y-96075000D02*
X110515000Y-96075000D01*
X111315000Y-81725000D02*
X110515000Y-81725000D01*
X96965000Y-81725000D02*
X97765000Y-81725000D01*
X96965000Y-96075000D02*
X97765000Y-96075000D01*
X111315000Y-95275000D02*
X112590000Y-95275000D01*
X149569200Y-98287000D02*
G75*
G03X149569200Y-98287000I-25400J0D01*
G01*
X148578600Y-98261600D02*
X149569200Y-97245600D01*
X134439400Y-98275400D02*
X148579400Y-98275400D01*
X134431600Y-98250000D02*
X134431600Y-77750000D01*
X149570000Y-77750000D02*
X134430000Y-77750000D01*
X149568400Y-77750000D02*
X149568400Y-97250000D01*
X180569200Y-98287000D02*
G75*
G03X180569200Y-98287000I-25400J0D01*
G01*
X179578600Y-98261600D02*
X180569200Y-97245600D01*
X165439400Y-98275400D02*
X179579400Y-98275400D01*
X165431600Y-98250000D02*
X165431600Y-77750000D01*
X180570000Y-77750000D02*
X165430000Y-77750000D01*
X180568400Y-77750000D02*
X180568400Y-97250000D01*
X149400000Y-114400000D02*
X150500000Y-114400000D01*
X150500000Y-105600000D02*
X149500000Y-105600000D01*
X159561840Y-105595640D02*
X160958840Y-105600720D01*
X158543300Y-114399280D02*
X159927600Y-114399280D01*
X159957000Y-114400000D02*
X160957000Y-113400000D01*
X160957000Y-113400000D02*
X160957000Y-105600000D01*
X159560000Y-105600000D02*
X150440000Y-105600000D01*
X149424000Y-105600000D02*
X149424000Y-114400000D01*
X150440000Y-114400000D02*
X158560000Y-114400000D01*
D15*
X101080000Y-59150000D02*
X107200000Y-59150000D01*
X107200000Y-59150000D02*
X107200000Y-62770000D01*
X107200000Y-62770000D02*
X101080000Y-62770000D01*
X101080000Y-62770000D02*
X101080000Y-59150000D01*
D13*
X113300000Y-105605000D02*
X115300000Y-105605000D01*
X115300000Y-107755000D02*
X113300000Y-107755000D01*
X113300000Y-100525000D02*
X115300000Y-100525000D01*
X115300000Y-102675000D02*
X113300000Y-102675000D01*
X120845000Y-84820000D02*
X120845000Y-82820000D01*
X122995000Y-82820000D02*
X122995000Y-84820000D01*
X102600000Y-72195000D02*
X100600000Y-72195000D01*
X100600000Y-70045000D02*
X102600000Y-70045000D01*
X100600000Y-75125000D02*
X102600000Y-75125000D01*
X102600000Y-77275000D02*
X100600000Y-77275000D01*
X105140000Y-107755000D02*
X103140000Y-107755000D01*
X103140000Y-105605000D02*
X105140000Y-105605000D01*
X103140000Y-100525000D02*
X105140000Y-100525000D01*
X105140000Y-102675000D02*
X103140000Y-102675000D01*
X202820000Y-107455000D02*
X202820000Y-105455000D01*
X204970000Y-105455000D02*
X204970000Y-107455000D01*
X122995000Y-92980000D02*
X122995000Y-94980000D01*
X120845000Y-94980000D02*
X120845000Y-92980000D01*
X188925000Y-98500000D02*
X188925000Y-96500000D01*
X191075000Y-96500000D02*
X191075000Y-98500000D01*
X189120000Y-106185000D02*
X189120000Y-104185000D01*
X191270000Y-104185000D02*
X191270000Y-106185000D01*
X125925000Y-84820000D02*
X125925000Y-82820000D01*
X128075000Y-82820000D02*
X128075000Y-84820000D01*
X120380000Y-74735000D02*
X118380000Y-74735000D01*
X118380000Y-72585000D02*
X120380000Y-72585000D01*
X118305000Y-67040000D02*
X118305000Y-65040000D01*
X120455000Y-65040000D02*
X120455000Y-67040000D01*
X194040000Y-79815000D02*
X192040000Y-79815000D01*
X192040000Y-77665000D02*
X194040000Y-77665000D01*
X201900000Y-77190000D02*
X201900000Y-78740000D01*
X203200000Y-77190000D02*
X201900000Y-77190000D01*
X207391000Y-78613000D02*
X213233000Y-78613000D01*
X213233000Y-78613000D02*
X213233000Y-78867000D01*
X213233000Y-78867000D02*
X207391000Y-78867000D01*
X207391000Y-78867000D02*
X207391000Y-78740000D01*
X207391000Y-78740000D02*
X213233000Y-78740000D01*
X204724000Y-78486000D02*
X204343000Y-78486000D01*
X204724000Y-78994000D02*
X204343000Y-78994000D01*
X204724000Y-81026000D02*
X204343000Y-81026000D01*
X204724000Y-81534000D02*
X204343000Y-81534000D01*
X204724000Y-83566000D02*
X204343000Y-83566000D01*
X204724000Y-84074000D02*
X204343000Y-84074000D01*
X204724000Y-86614000D02*
X204343000Y-86614000D01*
X204724000Y-86106000D02*
X204343000Y-86106000D01*
X204724000Y-77470000D02*
X207264000Y-77470000D01*
X204724000Y-80010000D02*
X207264000Y-80010000D01*
X204724000Y-80010000D02*
X204724000Y-82550000D01*
X204724000Y-82550000D02*
X207264000Y-82550000D01*
X207264000Y-81026000D02*
X213360000Y-81026000D01*
X213360000Y-81026000D02*
X213360000Y-81534000D01*
X213360000Y-81534000D02*
X207264000Y-81534000D01*
X207264000Y-82550000D02*
X207264000Y-80010000D01*
X207264000Y-80010000D02*
X207264000Y-77470000D01*
X213360000Y-78994000D02*
X207264000Y-78994000D01*
X213360000Y-78486000D02*
X213360000Y-78994000D01*
X207264000Y-78486000D02*
X213360000Y-78486000D01*
X204724000Y-80010000D02*
X207264000Y-80010000D01*
X204724000Y-77470000D02*
X204724000Y-80010000D01*
X204724000Y-85090000D02*
X207264000Y-85090000D01*
X204724000Y-85090000D02*
X204724000Y-87630000D01*
X204724000Y-87630000D02*
X207264000Y-87630000D01*
X207264000Y-86106000D02*
X213360000Y-86106000D01*
X213360000Y-86106000D02*
X213360000Y-86614000D01*
X213360000Y-86614000D02*
X207264000Y-86614000D01*
X207264000Y-87630000D02*
X207264000Y-85090000D01*
X207264000Y-85090000D02*
X207264000Y-82550000D01*
X213360000Y-84074000D02*
X207264000Y-84074000D01*
X213360000Y-83566000D02*
X213360000Y-84074000D01*
X207264000Y-83566000D02*
X213360000Y-83566000D01*
X204724000Y-85090000D02*
X207264000Y-85090000D01*
X204724000Y-82550000D02*
X204724000Y-85090000D01*
X204724000Y-82550000D02*
X207264000Y-82550000D01*
X199390000Y-59690000D02*
X201930000Y-59690000D01*
X196570000Y-59410000D02*
X198120000Y-59410000D01*
X199390000Y-59690000D02*
X199390000Y-62230000D01*
X198120000Y-62510000D02*
X196570000Y-62510000D01*
X196570000Y-62510000D02*
X196570000Y-59410000D01*
X199390000Y-62230000D02*
X201930000Y-62230000D01*
X201930000Y-62230000D02*
X201930000Y-59690000D01*
X192730000Y-99770000D02*
X192730000Y-104850000D01*
X192730000Y-104850000D02*
X195270000Y-104850000D01*
X195270000Y-104850000D02*
X195270000Y-99770000D01*
X195550000Y-96950000D02*
X195550000Y-98500000D01*
X195270000Y-99770000D02*
X192730000Y-99770000D01*
X192450000Y-98500000D02*
X192450000Y-96950000D01*
X192450000Y-96950000D02*
X195550000Y-96950000D01*
X202845000Y-96685000D02*
X202845000Y-100285000D01*
X204945000Y-96685000D02*
X204945000Y-100285000D01*
X204195000Y-98735000D02*
X203595000Y-98735000D01*
X203595000Y-98735000D02*
X203895000Y-98435000D01*
X203895000Y-98435000D02*
X204095000Y-98635000D01*
X204095000Y-98635000D02*
X203845000Y-98635000D01*
X203845000Y-98635000D02*
X203895000Y-98585000D01*
X204395000Y-98335000D02*
X203395000Y-98335000D01*
X203895000Y-98835000D02*
X203895000Y-99335000D01*
X203895000Y-98335000D02*
X204395000Y-98835000D01*
X204395000Y-98835000D02*
X203395000Y-98835000D01*
X203395000Y-98835000D02*
X203895000Y-98335000D01*
X94980000Y-75175000D02*
X92980000Y-75175000D01*
X92980000Y-77225000D02*
X94980000Y-77225000D01*
X90415000Y-92980000D02*
X90415000Y-94980000D01*
X92465000Y-94980000D02*
X92465000Y-92980000D01*
X90415000Y-85360000D02*
X90415000Y-87360000D01*
X92465000Y-87360000D02*
X92465000Y-85360000D01*
X115815000Y-85360000D02*
X115815000Y-87360000D01*
X117865000Y-87360000D02*
X117865000Y-85360000D01*
X105140000Y-65015000D02*
X103140000Y-65015000D01*
X103140000Y-67065000D02*
X105140000Y-67065000D01*
X85335000Y-92980000D02*
X85335000Y-94980000D01*
X87385000Y-94980000D02*
X87385000Y-92980000D01*
X87385000Y-82280000D02*
X87385000Y-80280000D01*
X85335000Y-80280000D02*
X85335000Y-82280000D01*
X112760000Y-75175000D02*
X110760000Y-75175000D01*
X110760000Y-77225000D02*
X112760000Y-77225000D01*
X115815000Y-92980000D02*
X115815000Y-94980000D01*
X117865000Y-94980000D02*
X117865000Y-92980000D01*
X112760000Y-70095000D02*
X110760000Y-70095000D01*
X110760000Y-72145000D02*
X112760000Y-72145000D01*
X118380000Y-79765000D02*
X120380000Y-79765000D01*
X120380000Y-77715000D02*
X118380000Y-77715000D01*
X94980000Y-100575000D02*
X92980000Y-100575000D01*
X92980000Y-102625000D02*
X94980000Y-102625000D01*
X145780000Y-70095000D02*
X143780000Y-70095000D01*
X143780000Y-72145000D02*
X145780000Y-72145000D01*
X145780000Y-59935000D02*
X143780000Y-59935000D01*
X143780000Y-61985000D02*
X145780000Y-61985000D01*
X138160000Y-100575000D02*
X136160000Y-100575000D01*
X136160000Y-102625000D02*
X138160000Y-102625000D01*
X168640000Y-100575000D02*
X166640000Y-100575000D01*
X166640000Y-102625000D02*
X168640000Y-102625000D01*
X125730000Y-62230000D02*
X123190000Y-62230000D01*
X128550000Y-62510000D02*
X127000000Y-62510000D01*
X125730000Y-62230000D02*
X125730000Y-59690000D01*
X127000000Y-59410000D02*
X128550000Y-59410000D01*
X128550000Y-59410000D02*
X128550000Y-62510000D01*
X125730000Y-59690000D02*
X123190000Y-59690000D01*
X123190000Y-59690000D02*
X123190000Y-62230000D01*
X125730000Y-69850000D02*
X123190000Y-69850000D01*
X128550000Y-70130000D02*
X127000000Y-70130000D01*
X125730000Y-69850000D02*
X125730000Y-67310000D01*
X127000000Y-67030000D02*
X128550000Y-67030000D01*
X128550000Y-67030000D02*
X128550000Y-70130000D01*
X125730000Y-67310000D02*
X123190000Y-67310000D01*
X123190000Y-67310000D02*
X123190000Y-69850000D01*
X181500000Y-60075000D02*
X179500000Y-60075000D01*
X179500000Y-57925000D02*
X181500000Y-57925000D01*
X181500000Y-65075000D02*
X179500000Y-65075000D01*
X179500000Y-62925000D02*
X181500000Y-62925000D01*
X181500000Y-70075000D02*
X179500000Y-70075000D01*
X179500000Y-67925000D02*
X181500000Y-67925000D01*
X159500000Y-70075000D02*
X157500000Y-70075000D01*
X157500000Y-67925000D02*
X159500000Y-67925000D01*
X159500000Y-65075000D02*
X157500000Y-65075000D01*
X157500000Y-62925000D02*
X159500000Y-62925000D01*
X159500000Y-60075000D02*
X157500000Y-60075000D01*
X157500000Y-57925000D02*
X159500000Y-57925000D01*
D15*
X174450000Y-68960000D02*
X164550000Y-68960000D01*
X174450000Y-59040000D02*
X164550000Y-59040000D01*
X174450000Y-68960000D02*
X174450000Y-67340000D01*
X174450000Y-65740000D02*
X174450000Y-64800000D01*
X174450000Y-63200000D02*
X174450000Y-62260000D01*
X174450000Y-60660000D02*
X174450000Y-59040000D01*
X164550000Y-60660000D02*
X164550000Y-59040000D01*
X164550000Y-63200000D02*
X164550000Y-62260000D01*
X164550000Y-68960000D02*
X164550000Y-67340000D01*
X164550000Y-65740000D02*
X164550000Y-64800000D01*
X174690000Y-69200000D02*
X173306000Y-69200000D01*
X174690000Y-69200000D02*
X174690000Y-67817000D01*
X171530000Y-67175000D02*
X171530000Y-65905000D01*
X171530000Y-65905000D02*
X167470000Y-65905000D01*
X167470000Y-65905000D02*
X167470000Y-67175000D01*
X167470000Y-67175000D02*
X171530000Y-67175000D01*
X171530000Y-67055000D02*
X170176667Y-67055000D01*
X171530000Y-66935000D02*
X170176667Y-66935000D01*
X171530000Y-66815000D02*
X170176667Y-66815000D01*
X171530000Y-66695000D02*
X170176667Y-66695000D01*
X171530000Y-66575000D02*
X170176667Y-66575000D01*
X171530000Y-66455000D02*
X170176667Y-66455000D01*
X171530000Y-66335000D02*
X170176667Y-66335000D01*
X171530000Y-66215000D02*
X170176667Y-66215000D01*
X171530000Y-66095000D02*
X170176667Y-66095000D01*
X171530000Y-65975000D02*
X170176667Y-65975000D01*
X170176667Y-67175000D02*
X170176667Y-65905000D01*
X171530000Y-64635000D02*
X171530000Y-63365000D01*
X171530000Y-63365000D02*
X167470000Y-63365000D01*
X167470000Y-63365000D02*
X167470000Y-64635000D01*
X167470000Y-64635000D02*
X171530000Y-64635000D01*
X171530000Y-64515000D02*
X170176667Y-64515000D01*
X171530000Y-64395000D02*
X170176667Y-64395000D01*
X171530000Y-64275000D02*
X170176667Y-64275000D01*
X171530000Y-64155000D02*
X170176667Y-64155000D01*
X171530000Y-64035000D02*
X170176667Y-64035000D01*
X171530000Y-63915000D02*
X170176667Y-63915000D01*
X171530000Y-63795000D02*
X170176667Y-63795000D01*
X171530000Y-63675000D02*
X170176667Y-63675000D01*
X171530000Y-63555000D02*
X170176667Y-63555000D01*
X171530000Y-63435000D02*
X170176667Y-63435000D01*
X170176667Y-64635000D02*
X170176667Y-63365000D01*
X171530000Y-62095000D02*
X171530000Y-60825000D01*
X171530000Y-60825000D02*
X167470000Y-60825000D01*
X167470000Y-60825000D02*
X167470000Y-62095000D01*
X167470000Y-62095000D02*
X171530000Y-62095000D01*
X171530000Y-61975000D02*
X170176667Y-61975000D01*
X171530000Y-61855000D02*
X170176667Y-61855000D01*
X171530000Y-61735000D02*
X170176667Y-61735000D01*
X171530000Y-61615000D02*
X170176667Y-61615000D01*
X171530000Y-61495000D02*
X170176667Y-61495000D01*
X171530000Y-61375000D02*
X170176667Y-61375000D01*
X171530000Y-61255000D02*
X170176667Y-61255000D01*
X171530000Y-61135000D02*
X170176667Y-61135000D01*
X171530000Y-61015000D02*
X170176667Y-61015000D01*
X171530000Y-60895000D02*
X170176667Y-60895000D01*
X170176667Y-62095000D02*
X170176667Y-60825000D01*
D13*
X135883905Y-118808381D02*
X135883905Y-117808381D01*
X136264858Y-117808381D01*
X136360096Y-117856000D01*
X136407715Y-117903619D01*
X136455334Y-117998857D01*
X136455334Y-118141714D01*
X136407715Y-118236952D01*
X136360096Y-118284571D01*
X136264858Y-118332190D01*
X135883905Y-118332190D01*
X137407715Y-118808381D02*
X136836286Y-118808381D01*
X137122000Y-118808381D02*
X137122000Y-117808381D01*
X137026762Y-117951238D01*
X136931524Y-118046476D01*
X136836286Y-118094095D01*
X164522000Y-118882667D02*
X164555333Y-118782667D01*
X164588667Y-118749334D01*
X164655333Y-118716000D01*
X164755333Y-118716000D01*
X164822000Y-118749334D01*
X164855333Y-118782667D01*
X164888667Y-118849334D01*
X164888667Y-119116000D01*
X164188667Y-119116000D01*
X164188667Y-118882667D01*
X164222000Y-118816000D01*
X164255333Y-118782667D01*
X164322000Y-118749334D01*
X164388667Y-118749334D01*
X164455333Y-118782667D01*
X164488667Y-118816000D01*
X164522000Y-118882667D01*
X164522000Y-119116000D01*
X164188667Y-118482667D02*
X164188667Y-118049334D01*
X164455333Y-118282667D01*
X164455333Y-118182667D01*
X164488667Y-118116000D01*
X164522000Y-118082667D01*
X164588667Y-118049334D01*
X164755333Y-118049334D01*
X164822000Y-118082667D01*
X164855333Y-118116000D01*
X164888667Y-118182667D01*
X164888667Y-118382667D01*
X164855333Y-118449334D01*
X164822000Y-118482667D01*
X164255333Y-117782667D02*
X164222000Y-117749333D01*
X164188667Y-117682667D01*
X164188667Y-117516000D01*
X164222000Y-117449333D01*
X164255333Y-117416000D01*
X164322000Y-117382667D01*
X164388667Y-117382667D01*
X164488667Y-117416000D01*
X164888667Y-117816000D01*
X164888667Y-117382667D01*
X144522000Y-118882667D02*
X144555333Y-118782667D01*
X144588667Y-118749334D01*
X144655333Y-118716000D01*
X144755333Y-118716000D01*
X144822000Y-118749334D01*
X144855333Y-118782667D01*
X144888667Y-118849334D01*
X144888667Y-119116000D01*
X144188667Y-119116000D01*
X144188667Y-118882667D01*
X144222000Y-118816000D01*
X144255333Y-118782667D01*
X144322000Y-118749334D01*
X144388667Y-118749334D01*
X144455333Y-118782667D01*
X144488667Y-118816000D01*
X144522000Y-118882667D01*
X144522000Y-119116000D01*
X144888667Y-118049334D02*
X144888667Y-118449334D01*
X144888667Y-118249334D02*
X144188667Y-118249334D01*
X144288667Y-118316000D01*
X144355333Y-118382667D01*
X144388667Y-118449334D01*
X144255333Y-117782667D02*
X144222000Y-117749333D01*
X144188667Y-117682667D01*
X144188667Y-117516000D01*
X144222000Y-117449333D01*
X144255333Y-117416000D01*
X144322000Y-117382667D01*
X144388667Y-117382667D01*
X144488667Y-117416000D01*
X144888667Y-117816000D01*
X144888667Y-117382667D01*
X141522000Y-118882667D02*
X141555333Y-118782667D01*
X141588667Y-118749334D01*
X141655333Y-118716000D01*
X141755333Y-118716000D01*
X141822000Y-118749334D01*
X141855333Y-118782667D01*
X141888667Y-118849334D01*
X141888667Y-119116000D01*
X141188667Y-119116000D01*
X141188667Y-118882667D01*
X141222000Y-118816000D01*
X141255333Y-118782667D01*
X141322000Y-118749334D01*
X141388667Y-118749334D01*
X141455333Y-118782667D01*
X141488667Y-118816000D01*
X141522000Y-118882667D01*
X141522000Y-119116000D01*
X141888667Y-118049334D02*
X141888667Y-118449334D01*
X141888667Y-118249334D02*
X141188667Y-118249334D01*
X141288667Y-118316000D01*
X141355333Y-118382667D01*
X141388667Y-118449334D01*
X141888667Y-117382667D02*
X141888667Y-117782667D01*
X141888667Y-117582667D02*
X141188667Y-117582667D01*
X141288667Y-117649333D01*
X141355333Y-117716000D01*
X141388667Y-117782667D01*
X131522000Y-118949333D02*
X131555333Y-118849333D01*
X131588667Y-118816000D01*
X131655333Y-118782666D01*
X131755333Y-118782666D01*
X131822000Y-118816000D01*
X131855333Y-118849333D01*
X131888667Y-118916000D01*
X131888667Y-119182666D01*
X131188667Y-119182666D01*
X131188667Y-118949333D01*
X131222000Y-118882666D01*
X131255333Y-118849333D01*
X131322000Y-118816000D01*
X131388667Y-118816000D01*
X131455333Y-118849333D01*
X131488667Y-118882666D01*
X131522000Y-118949333D01*
X131522000Y-119182666D01*
X131888667Y-118116000D02*
X131888667Y-118516000D01*
X131888667Y-118316000D02*
X131188667Y-118316000D01*
X131288667Y-118382666D01*
X131355333Y-118449333D01*
X131388667Y-118516000D01*
X140137381Y-67130476D02*
X141137381Y-66463809D01*
X140137381Y-66463809D02*
X141137381Y-67130476D01*
X140137381Y-66225714D02*
X140137381Y-65654285D01*
X141137381Y-65940000D02*
X140137381Y-65940000D01*
X140232619Y-65368571D02*
X140185000Y-65320952D01*
X140137381Y-65225714D01*
X140137381Y-64987618D01*
X140185000Y-64892380D01*
X140232619Y-64844761D01*
X140327857Y-64797142D01*
X140423095Y-64797142D01*
X140565952Y-64844761D01*
X141137381Y-65416190D01*
X141137381Y-64797142D01*
X96761905Y-97952381D02*
X96761905Y-98761905D01*
X96809524Y-98857143D01*
X96857143Y-98904762D01*
X96952381Y-98952381D01*
X97142858Y-98952381D01*
X97238096Y-98904762D01*
X97285715Y-98857143D01*
X97333334Y-98761905D01*
X97333334Y-97952381D01*
X98333334Y-98952381D02*
X97761905Y-98952381D01*
X98047619Y-98952381D02*
X98047619Y-97952381D01*
X97952381Y-98095238D01*
X97857143Y-98190476D01*
X97761905Y-98238095D01*
X99190477Y-98285714D02*
X99190477Y-98952381D01*
X98952381Y-97904762D02*
X98714286Y-98619048D01*
X99333334Y-98619048D01*
X141085714Y-98792857D02*
X141085714Y-99764286D01*
X141142857Y-99878571D01*
X141200000Y-99935714D01*
X141314286Y-99992857D01*
X141542857Y-99992857D01*
X141657143Y-99935714D01*
X141714286Y-99878571D01*
X141771429Y-99764286D01*
X141771429Y-98792857D01*
X142514286Y-99307143D02*
X142400000Y-99250000D01*
X142342857Y-99192857D01*
X142285714Y-99078571D01*
X142285714Y-99021429D01*
X142342857Y-98907143D01*
X142400000Y-98850000D01*
X142514286Y-98792857D01*
X142742857Y-98792857D01*
X142857143Y-98850000D01*
X142914286Y-98907143D01*
X142971429Y-99021429D01*
X142971429Y-99078571D01*
X142914286Y-99192857D01*
X142857143Y-99250000D01*
X142742857Y-99307143D01*
X142514286Y-99307143D01*
X142400000Y-99364286D01*
X142342857Y-99421429D01*
X142285714Y-99535714D01*
X142285714Y-99764286D01*
X142342857Y-99878571D01*
X142400000Y-99935714D01*
X142514286Y-99992857D01*
X142742857Y-99992857D01*
X142857143Y-99935714D01*
X142914286Y-99878571D01*
X142971429Y-99764286D01*
X142971429Y-99535714D01*
X142914286Y-99421429D01*
X142857143Y-99364286D01*
X142742857Y-99307143D01*
X172085714Y-98792857D02*
X172085714Y-99764286D01*
X172142857Y-99878571D01*
X172200000Y-99935714D01*
X172314286Y-99992857D01*
X172542857Y-99992857D01*
X172657143Y-99935714D01*
X172714286Y-99878571D01*
X172771429Y-99764286D01*
X172771429Y-98792857D01*
X173228572Y-98792857D02*
X174028572Y-98792857D01*
X173514286Y-99992857D01*
X161708857Y-110914286D02*
X162680286Y-110914286D01*
X162794571Y-110857143D01*
X162851714Y-110800000D01*
X162908857Y-110685714D01*
X162908857Y-110457143D01*
X162851714Y-110342857D01*
X162794571Y-110285714D01*
X162680286Y-110228571D01*
X161708857Y-110228571D01*
X162908857Y-109028571D02*
X162908857Y-109714286D01*
X162908857Y-109371428D02*
X161708857Y-109371428D01*
X161880286Y-109485714D01*
X161994571Y-109600000D01*
X162051714Y-109714286D01*
X102806667Y-58764762D02*
X102949524Y-58812381D01*
X103187620Y-58812381D01*
X103282858Y-58764762D01*
X103330477Y-58717143D01*
X103378096Y-58621905D01*
X103378096Y-58526667D01*
X103330477Y-58431429D01*
X103282858Y-58383810D01*
X103187620Y-58336190D01*
X102997143Y-58288571D01*
X102901905Y-58240952D01*
X102854286Y-58193333D01*
X102806667Y-58098095D01*
X102806667Y-58002857D01*
X102854286Y-57907619D01*
X102901905Y-57860000D01*
X102997143Y-57812381D01*
X103235239Y-57812381D01*
X103378096Y-57860000D01*
X103711429Y-57812381D02*
X103949524Y-58812381D01*
X104140001Y-58098095D01*
X104330477Y-58812381D01*
X104568572Y-57812381D01*
X104901905Y-57907619D02*
X104949524Y-57860000D01*
X105044762Y-57812381D01*
X105282858Y-57812381D01*
X105378096Y-57860000D01*
X105425715Y-57907619D01*
X105473334Y-58002857D01*
X105473334Y-58098095D01*
X105425715Y-58240952D01*
X104854286Y-58812381D01*
X105473334Y-58812381D01*
X113657143Y-109432381D02*
X113323809Y-108956190D01*
X113085714Y-109432381D02*
X113085714Y-108432381D01*
X113466667Y-108432381D01*
X113561905Y-108480000D01*
X113609524Y-108527619D01*
X113657143Y-108622857D01*
X113657143Y-108765714D01*
X113609524Y-108860952D01*
X113561905Y-108908571D01*
X113466667Y-108956190D01*
X113085714Y-108956190D01*
X113990476Y-108432381D02*
X114609524Y-108432381D01*
X114276190Y-108813333D01*
X114419048Y-108813333D01*
X114514286Y-108860952D01*
X114561905Y-108908571D01*
X114609524Y-109003810D01*
X114609524Y-109241905D01*
X114561905Y-109337143D01*
X114514286Y-109384762D01*
X114419048Y-109432381D01*
X114133333Y-109432381D01*
X114038095Y-109384762D01*
X113990476Y-109337143D01*
X114990476Y-108527619D02*
X115038095Y-108480000D01*
X115133333Y-108432381D01*
X115371429Y-108432381D01*
X115466667Y-108480000D01*
X115514286Y-108527619D01*
X115561905Y-108622857D01*
X115561905Y-108718095D01*
X115514286Y-108860952D01*
X114942857Y-109432381D01*
X115561905Y-109432381D01*
X113657143Y-104352381D02*
X113323809Y-103876190D01*
X113085714Y-104352381D02*
X113085714Y-103352381D01*
X113466667Y-103352381D01*
X113561905Y-103400000D01*
X113609524Y-103447619D01*
X113657143Y-103542857D01*
X113657143Y-103685714D01*
X113609524Y-103780952D01*
X113561905Y-103828571D01*
X113466667Y-103876190D01*
X113085714Y-103876190D01*
X113990476Y-103352381D02*
X114609524Y-103352381D01*
X114276190Y-103733333D01*
X114419048Y-103733333D01*
X114514286Y-103780952D01*
X114561905Y-103828571D01*
X114609524Y-103923810D01*
X114609524Y-104161905D01*
X114561905Y-104257143D01*
X114514286Y-104304762D01*
X114419048Y-104352381D01*
X114133333Y-104352381D01*
X114038095Y-104304762D01*
X113990476Y-104257143D01*
X115561905Y-104352381D02*
X114990476Y-104352381D01*
X115276190Y-104352381D02*
X115276190Y-103352381D01*
X115180952Y-103495238D01*
X115085714Y-103590476D01*
X114990476Y-103638095D01*
X124672381Y-84462857D02*
X124196190Y-84796191D01*
X124672381Y-85034286D02*
X123672381Y-85034286D01*
X123672381Y-84653333D01*
X123720000Y-84558095D01*
X123767619Y-84510476D01*
X123862857Y-84462857D01*
X124005714Y-84462857D01*
X124100952Y-84510476D01*
X124148571Y-84558095D01*
X124196190Y-84653333D01*
X124196190Y-85034286D01*
X123672381Y-84129524D02*
X123672381Y-83510476D01*
X124053333Y-83843810D01*
X124053333Y-83700952D01*
X124100952Y-83605714D01*
X124148571Y-83558095D01*
X124243810Y-83510476D01*
X124481905Y-83510476D01*
X124577143Y-83558095D01*
X124624762Y-83605714D01*
X124672381Y-83700952D01*
X124672381Y-83986667D01*
X124624762Y-84081905D01*
X124577143Y-84129524D01*
X123672381Y-82891429D02*
X123672381Y-82796190D01*
X123720000Y-82700952D01*
X123767619Y-82653333D01*
X123862857Y-82605714D01*
X124053333Y-82558095D01*
X124291429Y-82558095D01*
X124481905Y-82605714D01*
X124577143Y-82653333D01*
X124624762Y-82700952D01*
X124672381Y-82796190D01*
X124672381Y-82891429D01*
X124624762Y-82986667D01*
X124577143Y-83034286D01*
X124481905Y-83081905D01*
X124291429Y-83129524D01*
X124053333Y-83129524D01*
X123862857Y-83081905D01*
X123767619Y-83034286D01*
X123720000Y-82986667D01*
X123672381Y-82891429D01*
X100957143Y-69272381D02*
X100623809Y-68796190D01*
X100385714Y-69272381D02*
X100385714Y-68272381D01*
X100766667Y-68272381D01*
X100861905Y-68320000D01*
X100909524Y-68367619D01*
X100957143Y-68462857D01*
X100957143Y-68605714D01*
X100909524Y-68700952D01*
X100861905Y-68748571D01*
X100766667Y-68796190D01*
X100385714Y-68796190D01*
X101338095Y-68367619D02*
X101385714Y-68320000D01*
X101480952Y-68272381D01*
X101719048Y-68272381D01*
X101814286Y-68320000D01*
X101861905Y-68367619D01*
X101909524Y-68462857D01*
X101909524Y-68558095D01*
X101861905Y-68700952D01*
X101290476Y-69272381D01*
X101909524Y-69272381D01*
X102385714Y-69272381D02*
X102576190Y-69272381D01*
X102671429Y-69224762D01*
X102719048Y-69177143D01*
X102814286Y-69034286D01*
X102861905Y-68843810D01*
X102861905Y-68462857D01*
X102814286Y-68367619D01*
X102766667Y-68320000D01*
X102671429Y-68272381D01*
X102480952Y-68272381D01*
X102385714Y-68320000D01*
X102338095Y-68367619D01*
X102290476Y-68462857D01*
X102290476Y-68700952D01*
X102338095Y-68796190D01*
X102385714Y-68843810D01*
X102480952Y-68891429D01*
X102671429Y-68891429D01*
X102766667Y-68843810D01*
X102814286Y-68796190D01*
X102861905Y-68700952D01*
X100957143Y-78952381D02*
X100623809Y-78476190D01*
X100385714Y-78952381D02*
X100385714Y-77952381D01*
X100766667Y-77952381D01*
X100861905Y-78000000D01*
X100909524Y-78047619D01*
X100957143Y-78142857D01*
X100957143Y-78285714D01*
X100909524Y-78380952D01*
X100861905Y-78428571D01*
X100766667Y-78476190D01*
X100385714Y-78476190D01*
X101338095Y-78047619D02*
X101385714Y-78000000D01*
X101480952Y-77952381D01*
X101719048Y-77952381D01*
X101814286Y-78000000D01*
X101861905Y-78047619D01*
X101909524Y-78142857D01*
X101909524Y-78238095D01*
X101861905Y-78380952D01*
X101290476Y-78952381D01*
X101909524Y-78952381D01*
X102480952Y-78380952D02*
X102385714Y-78333333D01*
X102338095Y-78285714D01*
X102290476Y-78190476D01*
X102290476Y-78142857D01*
X102338095Y-78047619D01*
X102385714Y-78000000D01*
X102480952Y-77952381D01*
X102671429Y-77952381D01*
X102766667Y-78000000D01*
X102814286Y-78047619D01*
X102861905Y-78142857D01*
X102861905Y-78190476D01*
X102814286Y-78285714D01*
X102766667Y-78333333D01*
X102671429Y-78380952D01*
X102480952Y-78380952D01*
X102385714Y-78428571D01*
X102338095Y-78476190D01*
X102290476Y-78571429D01*
X102290476Y-78761905D01*
X102338095Y-78857143D01*
X102385714Y-78904762D01*
X102480952Y-78952381D01*
X102671429Y-78952381D01*
X102766667Y-78904762D01*
X102814286Y-78857143D01*
X102861905Y-78761905D01*
X102861905Y-78571429D01*
X102814286Y-78476190D01*
X102766667Y-78428571D01*
X102671429Y-78380952D01*
X103357143Y-109452381D02*
X103023809Y-108976190D01*
X102785714Y-109452381D02*
X102785714Y-108452381D01*
X103166667Y-108452381D01*
X103261905Y-108500000D01*
X103309524Y-108547619D01*
X103357143Y-108642857D01*
X103357143Y-108785714D01*
X103309524Y-108880952D01*
X103261905Y-108928571D01*
X103166667Y-108976190D01*
X102785714Y-108976190D01*
X103738095Y-108547619D02*
X103785714Y-108500000D01*
X103880952Y-108452381D01*
X104119048Y-108452381D01*
X104214286Y-108500000D01*
X104261905Y-108547619D01*
X104309524Y-108642857D01*
X104309524Y-108738095D01*
X104261905Y-108880952D01*
X103690476Y-109452381D01*
X104309524Y-109452381D01*
X104642857Y-108452381D02*
X105309524Y-108452381D01*
X104880952Y-109452381D01*
X103497143Y-104352381D02*
X103163809Y-103876190D01*
X102925714Y-104352381D02*
X102925714Y-103352381D01*
X103306667Y-103352381D01*
X103401905Y-103400000D01*
X103449524Y-103447619D01*
X103497143Y-103542857D01*
X103497143Y-103685714D01*
X103449524Y-103780952D01*
X103401905Y-103828571D01*
X103306667Y-103876190D01*
X102925714Y-103876190D01*
X103878095Y-103447619D02*
X103925714Y-103400000D01*
X104020952Y-103352381D01*
X104259048Y-103352381D01*
X104354286Y-103400000D01*
X104401905Y-103447619D01*
X104449524Y-103542857D01*
X104449524Y-103638095D01*
X104401905Y-103780952D01*
X103830476Y-104352381D01*
X104449524Y-104352381D01*
X105306667Y-103352381D02*
X105116190Y-103352381D01*
X105020952Y-103400000D01*
X104973333Y-103447619D01*
X104878095Y-103590476D01*
X104830476Y-103780952D01*
X104830476Y-104161905D01*
X104878095Y-104257143D01*
X104925714Y-104304762D01*
X105020952Y-104352381D01*
X105211429Y-104352381D01*
X105306667Y-104304762D01*
X105354286Y-104257143D01*
X105401905Y-104161905D01*
X105401905Y-103923810D01*
X105354286Y-103828571D01*
X105306667Y-103780952D01*
X105211429Y-103733333D01*
X105020952Y-103733333D01*
X104925714Y-103780952D01*
X104878095Y-103828571D01*
X104830476Y-103923810D01*
X206647381Y-107097857D02*
X206171190Y-107431191D01*
X206647381Y-107669286D02*
X205647381Y-107669286D01*
X205647381Y-107288333D01*
X205695000Y-107193095D01*
X205742619Y-107145476D01*
X205837857Y-107097857D01*
X205980714Y-107097857D01*
X206075952Y-107145476D01*
X206123571Y-107193095D01*
X206171190Y-107288333D01*
X206171190Y-107669286D01*
X205742619Y-106716905D02*
X205695000Y-106669286D01*
X205647381Y-106574048D01*
X205647381Y-106335952D01*
X205695000Y-106240714D01*
X205742619Y-106193095D01*
X205837857Y-106145476D01*
X205933095Y-106145476D01*
X206075952Y-106193095D01*
X206647381Y-106764524D01*
X206647381Y-106145476D01*
X205980714Y-105288333D02*
X206647381Y-105288333D01*
X205599762Y-105526429D02*
X206314048Y-105764524D01*
X206314048Y-105145476D01*
X120072381Y-94622857D02*
X119596190Y-94956191D01*
X120072381Y-95194286D02*
X119072381Y-95194286D01*
X119072381Y-94813333D01*
X119120000Y-94718095D01*
X119167619Y-94670476D01*
X119262857Y-94622857D01*
X119405714Y-94622857D01*
X119500952Y-94670476D01*
X119548571Y-94718095D01*
X119596190Y-94813333D01*
X119596190Y-95194286D01*
X119167619Y-94241905D02*
X119120000Y-94194286D01*
X119072381Y-94099048D01*
X119072381Y-93860952D01*
X119120000Y-93765714D01*
X119167619Y-93718095D01*
X119262857Y-93670476D01*
X119358095Y-93670476D01*
X119500952Y-93718095D01*
X120072381Y-94289524D01*
X120072381Y-93670476D01*
X119072381Y-93337143D02*
X119072381Y-92718095D01*
X119453333Y-93051429D01*
X119453333Y-92908571D01*
X119500952Y-92813333D01*
X119548571Y-92765714D01*
X119643810Y-92718095D01*
X119881905Y-92718095D01*
X119977143Y-92765714D01*
X120024762Y-92813333D01*
X120072381Y-92908571D01*
X120072381Y-93194286D01*
X120024762Y-93289524D01*
X119977143Y-93337143D01*
X187952381Y-98142857D02*
X187476190Y-98476191D01*
X187952381Y-98714286D02*
X186952381Y-98714286D01*
X186952381Y-98333333D01*
X187000000Y-98238095D01*
X187047619Y-98190476D01*
X187142857Y-98142857D01*
X187285714Y-98142857D01*
X187380952Y-98190476D01*
X187428571Y-98238095D01*
X187476190Y-98333333D01*
X187476190Y-98714286D01*
X187047619Y-97761905D02*
X187000000Y-97714286D01*
X186952381Y-97619048D01*
X186952381Y-97380952D01*
X187000000Y-97285714D01*
X187047619Y-97238095D01*
X187142857Y-97190476D01*
X187238095Y-97190476D01*
X187380952Y-97238095D01*
X187952381Y-97809524D01*
X187952381Y-97190476D01*
X187952381Y-96238095D02*
X187952381Y-96809524D01*
X187952381Y-96523810D02*
X186952381Y-96523810D01*
X187095238Y-96619048D01*
X187190476Y-96714286D01*
X187238095Y-96809524D01*
X188452381Y-105642857D02*
X187976190Y-105976191D01*
X188452381Y-106214286D02*
X187452381Y-106214286D01*
X187452381Y-105833333D01*
X187500000Y-105738095D01*
X187547619Y-105690476D01*
X187642857Y-105642857D01*
X187785714Y-105642857D01*
X187880952Y-105690476D01*
X187928571Y-105738095D01*
X187976190Y-105833333D01*
X187976190Y-106214286D01*
X187547619Y-105261905D02*
X187500000Y-105214286D01*
X187452381Y-105119048D01*
X187452381Y-104880952D01*
X187500000Y-104785714D01*
X187547619Y-104738095D01*
X187642857Y-104690476D01*
X187738095Y-104690476D01*
X187880952Y-104738095D01*
X188452381Y-105309524D01*
X188452381Y-104690476D01*
X187452381Y-104071429D02*
X187452381Y-103976190D01*
X187500000Y-103880952D01*
X187547619Y-103833333D01*
X187642857Y-103785714D01*
X187833333Y-103738095D01*
X188071429Y-103738095D01*
X188261905Y-103785714D01*
X188357143Y-103833333D01*
X188404762Y-103880952D01*
X188452381Y-103976190D01*
X188452381Y-104071429D01*
X188404762Y-104166667D01*
X188357143Y-104214286D01*
X188261905Y-104261905D01*
X188071429Y-104309524D01*
X187833333Y-104309524D01*
X187642857Y-104261905D01*
X187547619Y-104214286D01*
X187500000Y-104166667D01*
X187452381Y-104071429D01*
X129752381Y-84462857D02*
X129276190Y-84796191D01*
X129752381Y-85034286D02*
X128752381Y-85034286D01*
X128752381Y-84653333D01*
X128800000Y-84558095D01*
X128847619Y-84510476D01*
X128942857Y-84462857D01*
X129085714Y-84462857D01*
X129180952Y-84510476D01*
X129228571Y-84558095D01*
X129276190Y-84653333D01*
X129276190Y-85034286D01*
X129752381Y-83510476D02*
X129752381Y-84081905D01*
X129752381Y-83796191D02*
X128752381Y-83796191D01*
X128895238Y-83891429D01*
X128990476Y-83986667D01*
X129038095Y-84081905D01*
X129752381Y-83034286D02*
X129752381Y-82843810D01*
X129704762Y-82748571D01*
X129657143Y-82700952D01*
X129514286Y-82605714D01*
X129323810Y-82558095D01*
X128942857Y-82558095D01*
X128847619Y-82605714D01*
X128800000Y-82653333D01*
X128752381Y-82748571D01*
X128752381Y-82939048D01*
X128800000Y-83034286D01*
X128847619Y-83081905D01*
X128942857Y-83129524D01*
X129180952Y-83129524D01*
X129276190Y-83081905D01*
X129323810Y-83034286D01*
X129371429Y-82939048D01*
X129371429Y-82748571D01*
X129323810Y-82653333D01*
X129276190Y-82605714D01*
X129180952Y-82558095D01*
X118737143Y-71812381D02*
X118403809Y-71336190D01*
X118165714Y-71812381D02*
X118165714Y-70812381D01*
X118546667Y-70812381D01*
X118641905Y-70860000D01*
X118689524Y-70907619D01*
X118737143Y-71002857D01*
X118737143Y-71145714D01*
X118689524Y-71240952D01*
X118641905Y-71288571D01*
X118546667Y-71336190D01*
X118165714Y-71336190D01*
X119689524Y-71812381D02*
X119118095Y-71812381D01*
X119403809Y-71812381D02*
X119403809Y-70812381D01*
X119308571Y-70955238D01*
X119213333Y-71050476D01*
X119118095Y-71098095D01*
X120260952Y-71240952D02*
X120165714Y-71193333D01*
X120118095Y-71145714D01*
X120070476Y-71050476D01*
X120070476Y-71002857D01*
X120118095Y-70907619D01*
X120165714Y-70860000D01*
X120260952Y-70812381D01*
X120451429Y-70812381D01*
X120546667Y-70860000D01*
X120594286Y-70907619D01*
X120641905Y-71002857D01*
X120641905Y-71050476D01*
X120594286Y-71145714D01*
X120546667Y-71193333D01*
X120451429Y-71240952D01*
X120260952Y-71240952D01*
X120165714Y-71288571D01*
X120118095Y-71336190D01*
X120070476Y-71431429D01*
X120070476Y-71621905D01*
X120118095Y-71717143D01*
X120165714Y-71764762D01*
X120260952Y-71812381D01*
X120451429Y-71812381D01*
X120546667Y-71764762D01*
X120594286Y-71717143D01*
X120641905Y-71621905D01*
X120641905Y-71431429D01*
X120594286Y-71336190D01*
X120546667Y-71288571D01*
X120451429Y-71240952D01*
X116952381Y-66166666D02*
X116476190Y-66500000D01*
X116952381Y-66738095D02*
X115952381Y-66738095D01*
X115952381Y-66357142D01*
X116000000Y-66261904D01*
X116047619Y-66214285D01*
X116142857Y-66166666D01*
X116285714Y-66166666D01*
X116380952Y-66214285D01*
X116428571Y-66261904D01*
X116476190Y-66357142D01*
X116476190Y-66738095D01*
X115952381Y-65309523D02*
X115952381Y-65500000D01*
X116000000Y-65595238D01*
X116047619Y-65642857D01*
X116190476Y-65738095D01*
X116380952Y-65785714D01*
X116761905Y-65785714D01*
X116857143Y-65738095D01*
X116904762Y-65690476D01*
X116952381Y-65595238D01*
X116952381Y-65404761D01*
X116904762Y-65309523D01*
X116857143Y-65261904D01*
X116761905Y-65214285D01*
X116523810Y-65214285D01*
X116428571Y-65261904D01*
X116380952Y-65309523D01*
X116333333Y-65404761D01*
X116333333Y-65595238D01*
X116380952Y-65690476D01*
X116428571Y-65738095D01*
X116523810Y-65785714D01*
X192873334Y-76892381D02*
X192540000Y-76416190D01*
X192301905Y-76892381D02*
X192301905Y-75892381D01*
X192682858Y-75892381D01*
X192778096Y-75940000D01*
X192825715Y-75987619D01*
X192873334Y-76082857D01*
X192873334Y-76225714D01*
X192825715Y-76320952D01*
X192778096Y-76368571D01*
X192682858Y-76416190D01*
X192301905Y-76416190D01*
X193825715Y-76892381D02*
X193254286Y-76892381D01*
X193540000Y-76892381D02*
X193540000Y-75892381D01*
X193444762Y-76035238D01*
X193349524Y-76130476D01*
X193254286Y-76178095D01*
X85621905Y-71572381D02*
X85621905Y-70572381D01*
X86002858Y-70572381D01*
X86098096Y-70620000D01*
X86145715Y-70667619D01*
X86193334Y-70762857D01*
X86193334Y-70905714D01*
X86145715Y-71000952D01*
X86098096Y-71048571D01*
X86002858Y-71096190D01*
X85621905Y-71096190D01*
X87050477Y-70572381D02*
X86860000Y-70572381D01*
X86764762Y-70620000D01*
X86717143Y-70667619D01*
X86621905Y-70810476D01*
X86574286Y-71000952D01*
X86574286Y-71381905D01*
X86621905Y-71477143D01*
X86669524Y-71524762D01*
X86764762Y-71572381D01*
X86955239Y-71572381D01*
X87050477Y-71524762D01*
X87098096Y-71477143D01*
X87145715Y-71381905D01*
X87145715Y-71143810D01*
X87098096Y-71048571D01*
X87050477Y-71000952D01*
X86955239Y-70953333D01*
X86764762Y-70953333D01*
X86669524Y-71000952D01*
X86621905Y-71048571D01*
X86574286Y-71143810D01*
X207541905Y-59372381D02*
X207541905Y-58372381D01*
X207922858Y-58372381D01*
X208018096Y-58420000D01*
X208065715Y-58467619D01*
X208113334Y-58562857D01*
X208113334Y-58705714D01*
X208065715Y-58800952D01*
X208018096Y-58848571D01*
X207922858Y-58896190D01*
X207541905Y-58896190D01*
X209018096Y-58372381D02*
X208541905Y-58372381D01*
X208494286Y-58848571D01*
X208541905Y-58800952D01*
X208637143Y-58753333D01*
X208875239Y-58753333D01*
X208970477Y-58800952D01*
X209018096Y-58848571D01*
X209065715Y-58943810D01*
X209065715Y-59181905D01*
X209018096Y-59277143D01*
X208970477Y-59324762D01*
X208875239Y-59372381D01*
X208637143Y-59372381D01*
X208541905Y-59324762D01*
X208494286Y-59277143D01*
X83081905Y-112712381D02*
X83081905Y-111712381D01*
X83462858Y-111712381D01*
X83558096Y-111760000D01*
X83605715Y-111807619D01*
X83653334Y-111902857D01*
X83653334Y-112045714D01*
X83605715Y-112140952D01*
X83558096Y-112188571D01*
X83462858Y-112236190D01*
X83081905Y-112236190D01*
X84510477Y-112045714D02*
X84510477Y-112712381D01*
X84272381Y-111664762D02*
X84034286Y-112379048D01*
X84653334Y-112379048D01*
X207541905Y-110172381D02*
X207541905Y-109172381D01*
X207922858Y-109172381D01*
X208018096Y-109220000D01*
X208065715Y-109267619D01*
X208113334Y-109362857D01*
X208113334Y-109505714D01*
X208065715Y-109600952D01*
X208018096Y-109648571D01*
X207922858Y-109696190D01*
X207541905Y-109696190D01*
X208446667Y-109172381D02*
X209065715Y-109172381D01*
X208732381Y-109553333D01*
X208875239Y-109553333D01*
X208970477Y-109600952D01*
X209018096Y-109648571D01*
X209065715Y-109743810D01*
X209065715Y-109981905D01*
X209018096Y-110077143D01*
X208970477Y-110124762D01*
X208875239Y-110172381D01*
X208589524Y-110172381D01*
X208494286Y-110124762D01*
X208446667Y-110077143D01*
X83081905Y-59372381D02*
X83081905Y-58372381D01*
X83462858Y-58372381D01*
X83558096Y-58420000D01*
X83605715Y-58467619D01*
X83653334Y-58562857D01*
X83653334Y-58705714D01*
X83605715Y-58800952D01*
X83558096Y-58848571D01*
X83462858Y-58896190D01*
X83081905Y-58896190D01*
X84034286Y-58467619D02*
X84081905Y-58420000D01*
X84177143Y-58372381D01*
X84415239Y-58372381D01*
X84510477Y-58420000D01*
X84558096Y-58467619D01*
X84605715Y-58562857D01*
X84605715Y-58658095D01*
X84558096Y-58800952D01*
X83986667Y-59372381D01*
X84605715Y-59372381D01*
X202239667Y-75017381D02*
X202239667Y-75731667D01*
X202192047Y-75874524D01*
X202096809Y-75969762D01*
X201953952Y-76017381D01*
X201858714Y-76017381D01*
X202715857Y-76017381D02*
X202715857Y-75017381D01*
X203096810Y-75017381D01*
X203192048Y-75065000D01*
X203239667Y-75112619D01*
X203287286Y-75207857D01*
X203287286Y-75350714D01*
X203239667Y-75445952D01*
X203192048Y-75493571D01*
X203096810Y-75541190D01*
X202715857Y-75541190D01*
X203668238Y-75112619D02*
X203715857Y-75065000D01*
X203811095Y-75017381D01*
X204049191Y-75017381D01*
X204144429Y-75065000D01*
X204192048Y-75112619D01*
X204239667Y-75207857D01*
X204239667Y-75303095D01*
X204192048Y-75445952D01*
X203620619Y-76017381D01*
X204239667Y-76017381D01*
X198683667Y-63333381D02*
X198683667Y-64047667D01*
X198636047Y-64190524D01*
X198540809Y-64285762D01*
X198397952Y-64333381D01*
X198302714Y-64333381D01*
X199159857Y-64333381D02*
X199159857Y-63333381D01*
X199540810Y-63333381D01*
X199636048Y-63381000D01*
X199683667Y-63428619D01*
X199731286Y-63523857D01*
X199731286Y-63666714D01*
X199683667Y-63761952D01*
X199636048Y-63809571D01*
X199540810Y-63857190D01*
X199159857Y-63857190D01*
X200683667Y-64333381D02*
X200112238Y-64333381D01*
X200397952Y-64333381D02*
X200397952Y-63333381D01*
X200302714Y-63476238D01*
X200207476Y-63571476D01*
X200112238Y-63619095D01*
X185428571Y-105119047D02*
X185428571Y-105452381D01*
X185952381Y-105452381D02*
X184952381Y-105452381D01*
X184952381Y-104976190D01*
X184952381Y-104738095D02*
X184952381Y-104166666D01*
X185952381Y-104452381D02*
X184952381Y-104452381D01*
X185047619Y-103880952D02*
X185000000Y-103833333D01*
X184952381Y-103738095D01*
X184952381Y-103499999D01*
X185000000Y-103404761D01*
X185047619Y-103357142D01*
X185142857Y-103309523D01*
X185238095Y-103309523D01*
X185380952Y-103357142D01*
X185952381Y-103928571D01*
X185952381Y-103309523D01*
X184952381Y-102976190D02*
X184952381Y-102357142D01*
X185333333Y-102690476D01*
X185333333Y-102547618D01*
X185380952Y-102452380D01*
X185428571Y-102404761D01*
X185523810Y-102357142D01*
X185761905Y-102357142D01*
X185857143Y-102404761D01*
X185904762Y-102452380D01*
X185952381Y-102547618D01*
X185952381Y-102833333D01*
X185904762Y-102928571D01*
X185857143Y-102976190D01*
X185047619Y-101976190D02*
X185000000Y-101928571D01*
X184952381Y-101833333D01*
X184952381Y-101595237D01*
X185000000Y-101499999D01*
X185047619Y-101452380D01*
X185142857Y-101404761D01*
X185238095Y-101404761D01*
X185380952Y-101452380D01*
X185952381Y-102023809D01*
X185952381Y-101404761D01*
X185952381Y-100404761D02*
X185476190Y-100738095D01*
X185952381Y-100976190D02*
X184952381Y-100976190D01*
X184952381Y-100595237D01*
X185000000Y-100499999D01*
X185047619Y-100452380D01*
X185142857Y-100404761D01*
X185285714Y-100404761D01*
X185380952Y-100452380D01*
X185428571Y-100499999D01*
X185476190Y-100595237D01*
X185476190Y-100976190D01*
X185952381Y-99976190D02*
X184952381Y-99976190D01*
X184952381Y-99595237D01*
X185000000Y-99499999D01*
X185047619Y-99452380D01*
X185142857Y-99404761D01*
X185285714Y-99404761D01*
X185380952Y-99452380D01*
X185428571Y-99499999D01*
X185476190Y-99595237D01*
X185476190Y-99976190D01*
X185952381Y-98976190D02*
X185285714Y-98976190D01*
X184952381Y-98976190D02*
X185000000Y-99023809D01*
X185047619Y-98976190D01*
X185000000Y-98928571D01*
X184952381Y-98976190D01*
X185047619Y-98976190D01*
X185857143Y-98500000D02*
X185904762Y-98452381D01*
X185952381Y-98500000D01*
X185904762Y-98547619D01*
X185857143Y-98500000D01*
X185952381Y-98500000D01*
X185952381Y-97500000D02*
X185952381Y-98071429D01*
X185952381Y-97785715D02*
X184952381Y-97785715D01*
X185095238Y-97880953D01*
X185190476Y-97976191D01*
X185238095Y-98071429D01*
X206347381Y-99573095D02*
X205347381Y-99573095D01*
X205347381Y-99335000D01*
X205395000Y-99192142D01*
X205490238Y-99096904D01*
X205585476Y-99049285D01*
X205775952Y-99001666D01*
X205918810Y-99001666D01*
X206109286Y-99049285D01*
X206204524Y-99096904D01*
X206299762Y-99192142D01*
X206347381Y-99335000D01*
X206347381Y-99573095D01*
X205347381Y-98096904D02*
X205347381Y-98573095D01*
X205823571Y-98620714D01*
X205775952Y-98573095D01*
X205728333Y-98477857D01*
X205728333Y-98239761D01*
X205775952Y-98144523D01*
X205823571Y-98096904D01*
X205918810Y-98049285D01*
X206156905Y-98049285D01*
X206252143Y-98096904D01*
X206299762Y-98144523D01*
X206347381Y-98239761D01*
X206347381Y-98477857D01*
X206299762Y-98573095D01*
X206252143Y-98620714D01*
X93337143Y-74257143D02*
X93289524Y-74304762D01*
X93146667Y-74352381D01*
X93051429Y-74352381D01*
X92908571Y-74304762D01*
X92813333Y-74209524D01*
X92765714Y-74114286D01*
X92718095Y-73923810D01*
X92718095Y-73780952D01*
X92765714Y-73590476D01*
X92813333Y-73495238D01*
X92908571Y-73400000D01*
X93051429Y-73352381D01*
X93146667Y-73352381D01*
X93289524Y-73400000D01*
X93337143Y-73447619D01*
X93670476Y-73352381D02*
X94289524Y-73352381D01*
X93956190Y-73733333D01*
X94099048Y-73733333D01*
X94194286Y-73780952D01*
X94241905Y-73828571D01*
X94289524Y-73923810D01*
X94289524Y-74161905D01*
X94241905Y-74257143D01*
X94194286Y-74304762D01*
X94099048Y-74352381D01*
X93813333Y-74352381D01*
X93718095Y-74304762D01*
X93670476Y-74257143D01*
X95146667Y-73685714D02*
X95146667Y-74352381D01*
X94908571Y-73304762D02*
X94670476Y-74019048D01*
X95289524Y-74019048D01*
X89497143Y-94622857D02*
X89544762Y-94670476D01*
X89592381Y-94813333D01*
X89592381Y-94908571D01*
X89544762Y-95051429D01*
X89449524Y-95146667D01*
X89354286Y-95194286D01*
X89163810Y-95241905D01*
X89020952Y-95241905D01*
X88830476Y-95194286D01*
X88735238Y-95146667D01*
X88640000Y-95051429D01*
X88592381Y-94908571D01*
X88592381Y-94813333D01*
X88640000Y-94670476D01*
X88687619Y-94622857D01*
X88592381Y-94289524D02*
X88592381Y-93670476D01*
X88973333Y-94003810D01*
X88973333Y-93860952D01*
X89020952Y-93765714D01*
X89068571Y-93718095D01*
X89163810Y-93670476D01*
X89401905Y-93670476D01*
X89497143Y-93718095D01*
X89544762Y-93765714D01*
X89592381Y-93860952D01*
X89592381Y-94146667D01*
X89544762Y-94241905D01*
X89497143Y-94289524D01*
X88592381Y-93337143D02*
X88592381Y-92718095D01*
X88973333Y-93051429D01*
X88973333Y-92908571D01*
X89020952Y-92813333D01*
X89068571Y-92765714D01*
X89163810Y-92718095D01*
X89401905Y-92718095D01*
X89497143Y-92765714D01*
X89544762Y-92813333D01*
X89592381Y-92908571D01*
X89592381Y-93194286D01*
X89544762Y-93289524D01*
X89497143Y-93337143D01*
X89497143Y-87002857D02*
X89544762Y-87050476D01*
X89592381Y-87193333D01*
X89592381Y-87288571D01*
X89544762Y-87431429D01*
X89449524Y-87526667D01*
X89354286Y-87574286D01*
X89163810Y-87621905D01*
X89020952Y-87621905D01*
X88830476Y-87574286D01*
X88735238Y-87526667D01*
X88640000Y-87431429D01*
X88592381Y-87288571D01*
X88592381Y-87193333D01*
X88640000Y-87050476D01*
X88687619Y-87002857D01*
X88592381Y-86669524D02*
X88592381Y-86050476D01*
X88973333Y-86383810D01*
X88973333Y-86240952D01*
X89020952Y-86145714D01*
X89068571Y-86098095D01*
X89163810Y-86050476D01*
X89401905Y-86050476D01*
X89497143Y-86098095D01*
X89544762Y-86145714D01*
X89592381Y-86240952D01*
X89592381Y-86526667D01*
X89544762Y-86621905D01*
X89497143Y-86669524D01*
X88687619Y-85669524D02*
X88640000Y-85621905D01*
X88592381Y-85526667D01*
X88592381Y-85288571D01*
X88640000Y-85193333D01*
X88687619Y-85145714D01*
X88782857Y-85098095D01*
X88878095Y-85098095D01*
X89020952Y-85145714D01*
X89592381Y-85717143D01*
X89592381Y-85098095D01*
X114897143Y-87002857D02*
X114944762Y-87050476D01*
X114992381Y-87193333D01*
X114992381Y-87288571D01*
X114944762Y-87431429D01*
X114849524Y-87526667D01*
X114754286Y-87574286D01*
X114563810Y-87621905D01*
X114420952Y-87621905D01*
X114230476Y-87574286D01*
X114135238Y-87526667D01*
X114040000Y-87431429D01*
X113992381Y-87288571D01*
X113992381Y-87193333D01*
X114040000Y-87050476D01*
X114087619Y-87002857D01*
X113992381Y-86669524D02*
X113992381Y-86050476D01*
X114373333Y-86383810D01*
X114373333Y-86240952D01*
X114420952Y-86145714D01*
X114468571Y-86098095D01*
X114563810Y-86050476D01*
X114801905Y-86050476D01*
X114897143Y-86098095D01*
X114944762Y-86145714D01*
X114992381Y-86240952D01*
X114992381Y-86526667D01*
X114944762Y-86621905D01*
X114897143Y-86669524D01*
X114992381Y-85098095D02*
X114992381Y-85669524D01*
X114992381Y-85383810D02*
X113992381Y-85383810D01*
X114135238Y-85479048D01*
X114230476Y-85574286D01*
X114278095Y-85669524D01*
X103497143Y-64097143D02*
X103449524Y-64144762D01*
X103306667Y-64192381D01*
X103211429Y-64192381D01*
X103068571Y-64144762D01*
X102973333Y-64049524D01*
X102925714Y-63954286D01*
X102878095Y-63763810D01*
X102878095Y-63620952D01*
X102925714Y-63430476D01*
X102973333Y-63335238D01*
X103068571Y-63240000D01*
X103211429Y-63192381D01*
X103306667Y-63192381D01*
X103449524Y-63240000D01*
X103497143Y-63287619D01*
X103830476Y-63192381D02*
X104449524Y-63192381D01*
X104116190Y-63573333D01*
X104259048Y-63573333D01*
X104354286Y-63620952D01*
X104401905Y-63668571D01*
X104449524Y-63763810D01*
X104449524Y-64001905D01*
X104401905Y-64097143D01*
X104354286Y-64144762D01*
X104259048Y-64192381D01*
X103973333Y-64192381D01*
X103878095Y-64144762D01*
X103830476Y-64097143D01*
X105068571Y-63192381D02*
X105163810Y-63192381D01*
X105259048Y-63240000D01*
X105306667Y-63287619D01*
X105354286Y-63382857D01*
X105401905Y-63573333D01*
X105401905Y-63811429D01*
X105354286Y-64001905D01*
X105306667Y-64097143D01*
X105259048Y-64144762D01*
X105163810Y-64192381D01*
X105068571Y-64192381D01*
X104973333Y-64144762D01*
X104925714Y-64097143D01*
X104878095Y-64001905D01*
X104830476Y-63811429D01*
X104830476Y-63573333D01*
X104878095Y-63382857D01*
X104925714Y-63287619D01*
X104973333Y-63240000D01*
X105068571Y-63192381D01*
X84417143Y-94622857D02*
X84464762Y-94670476D01*
X84512381Y-94813333D01*
X84512381Y-94908571D01*
X84464762Y-95051429D01*
X84369524Y-95146667D01*
X84274286Y-95194286D01*
X84083810Y-95241905D01*
X83940952Y-95241905D01*
X83750476Y-95194286D01*
X83655238Y-95146667D01*
X83560000Y-95051429D01*
X83512381Y-94908571D01*
X83512381Y-94813333D01*
X83560000Y-94670476D01*
X83607619Y-94622857D01*
X83607619Y-94241905D02*
X83560000Y-94194286D01*
X83512381Y-94099048D01*
X83512381Y-93860952D01*
X83560000Y-93765714D01*
X83607619Y-93718095D01*
X83702857Y-93670476D01*
X83798095Y-93670476D01*
X83940952Y-93718095D01*
X84512381Y-94289524D01*
X84512381Y-93670476D01*
X83512381Y-93337143D02*
X83512381Y-92670476D01*
X84512381Y-93099048D01*
X89017143Y-81922857D02*
X89064762Y-81970476D01*
X89112381Y-82113333D01*
X89112381Y-82208571D01*
X89064762Y-82351429D01*
X88969524Y-82446667D01*
X88874286Y-82494286D01*
X88683810Y-82541905D01*
X88540952Y-82541905D01*
X88350476Y-82494286D01*
X88255238Y-82446667D01*
X88160000Y-82351429D01*
X88112381Y-82208571D01*
X88112381Y-82113333D01*
X88160000Y-81970476D01*
X88207619Y-81922857D01*
X88207619Y-81541905D02*
X88160000Y-81494286D01*
X88112381Y-81399048D01*
X88112381Y-81160952D01*
X88160000Y-81065714D01*
X88207619Y-81018095D01*
X88302857Y-80970476D01*
X88398095Y-80970476D01*
X88540952Y-81018095D01*
X89112381Y-81589524D01*
X89112381Y-80970476D01*
X88112381Y-80113333D02*
X88112381Y-80303810D01*
X88160000Y-80399048D01*
X88207619Y-80446667D01*
X88350476Y-80541905D01*
X88540952Y-80589524D01*
X88921905Y-80589524D01*
X89017143Y-80541905D01*
X89064762Y-80494286D01*
X89112381Y-80399048D01*
X89112381Y-80208571D01*
X89064762Y-80113333D01*
X89017143Y-80065714D01*
X88921905Y-80018095D01*
X88683810Y-80018095D01*
X88588571Y-80065714D01*
X88540952Y-80113333D01*
X88493333Y-80208571D01*
X88493333Y-80399048D01*
X88540952Y-80494286D01*
X88588571Y-80541905D01*
X88683810Y-80589524D01*
X111117143Y-74257143D02*
X111069524Y-74304762D01*
X110926667Y-74352381D01*
X110831429Y-74352381D01*
X110688571Y-74304762D01*
X110593333Y-74209524D01*
X110545714Y-74114286D01*
X110498095Y-73923810D01*
X110498095Y-73780952D01*
X110545714Y-73590476D01*
X110593333Y-73495238D01*
X110688571Y-73400000D01*
X110831429Y-73352381D01*
X110926667Y-73352381D01*
X111069524Y-73400000D01*
X111117143Y-73447619D01*
X111498095Y-73447619D02*
X111545714Y-73400000D01*
X111640952Y-73352381D01*
X111879048Y-73352381D01*
X111974286Y-73400000D01*
X112021905Y-73447619D01*
X112069524Y-73542857D01*
X112069524Y-73638095D01*
X112021905Y-73780952D01*
X111450476Y-74352381D01*
X112069524Y-74352381D01*
X112974286Y-73352381D02*
X112498095Y-73352381D01*
X112450476Y-73828571D01*
X112498095Y-73780952D01*
X112593333Y-73733333D01*
X112831429Y-73733333D01*
X112926667Y-73780952D01*
X112974286Y-73828571D01*
X113021905Y-73923810D01*
X113021905Y-74161905D01*
X112974286Y-74257143D01*
X112926667Y-74304762D01*
X112831429Y-74352381D01*
X112593333Y-74352381D01*
X112498095Y-74304762D01*
X112450476Y-74257143D01*
X114897143Y-94622857D02*
X114944762Y-94670476D01*
X114992381Y-94813333D01*
X114992381Y-94908571D01*
X114944762Y-95051429D01*
X114849524Y-95146667D01*
X114754286Y-95194286D01*
X114563810Y-95241905D01*
X114420952Y-95241905D01*
X114230476Y-95194286D01*
X114135238Y-95146667D01*
X114040000Y-95051429D01*
X113992381Y-94908571D01*
X113992381Y-94813333D01*
X114040000Y-94670476D01*
X114087619Y-94622857D01*
X114087619Y-94241905D02*
X114040000Y-94194286D01*
X113992381Y-94099048D01*
X113992381Y-93860952D01*
X114040000Y-93765714D01*
X114087619Y-93718095D01*
X114182857Y-93670476D01*
X114278095Y-93670476D01*
X114420952Y-93718095D01*
X114992381Y-94289524D01*
X114992381Y-93670476D01*
X114325714Y-92813333D02*
X114992381Y-92813333D01*
X113944762Y-93051429D02*
X114659048Y-93289524D01*
X114659048Y-92670476D01*
X111117143Y-69177143D02*
X111069524Y-69224762D01*
X110926667Y-69272381D01*
X110831429Y-69272381D01*
X110688571Y-69224762D01*
X110593333Y-69129524D01*
X110545714Y-69034286D01*
X110498095Y-68843810D01*
X110498095Y-68700952D01*
X110545714Y-68510476D01*
X110593333Y-68415238D01*
X110688571Y-68320000D01*
X110831429Y-68272381D01*
X110926667Y-68272381D01*
X111069524Y-68320000D01*
X111117143Y-68367619D01*
X111498095Y-68367619D02*
X111545714Y-68320000D01*
X111640952Y-68272381D01*
X111879048Y-68272381D01*
X111974286Y-68320000D01*
X112021905Y-68367619D01*
X112069524Y-68462857D01*
X112069524Y-68558095D01*
X112021905Y-68700952D01*
X111450476Y-69272381D01*
X112069524Y-69272381D01*
X112402857Y-68272381D02*
X113021905Y-68272381D01*
X112688571Y-68653333D01*
X112831429Y-68653333D01*
X112926667Y-68700952D01*
X112974286Y-68748571D01*
X113021905Y-68843810D01*
X113021905Y-69081905D01*
X112974286Y-69177143D01*
X112926667Y-69224762D01*
X112831429Y-69272381D01*
X112545714Y-69272381D01*
X112450476Y-69224762D01*
X112402857Y-69177143D01*
X118737143Y-81397143D02*
X118689524Y-81444762D01*
X118546667Y-81492381D01*
X118451429Y-81492381D01*
X118308571Y-81444762D01*
X118213333Y-81349524D01*
X118165714Y-81254286D01*
X118118095Y-81063810D01*
X118118095Y-80920952D01*
X118165714Y-80730476D01*
X118213333Y-80635238D01*
X118308571Y-80540000D01*
X118451429Y-80492381D01*
X118546667Y-80492381D01*
X118689524Y-80540000D01*
X118737143Y-80587619D01*
X119118095Y-80587619D02*
X119165714Y-80540000D01*
X119260952Y-80492381D01*
X119499048Y-80492381D01*
X119594286Y-80540000D01*
X119641905Y-80587619D01*
X119689524Y-80682857D01*
X119689524Y-80778095D01*
X119641905Y-80920952D01*
X119070476Y-81492381D01*
X119689524Y-81492381D01*
X120070476Y-80587619D02*
X120118095Y-80540000D01*
X120213333Y-80492381D01*
X120451429Y-80492381D01*
X120546667Y-80540000D01*
X120594286Y-80587619D01*
X120641905Y-80682857D01*
X120641905Y-80778095D01*
X120594286Y-80920952D01*
X120022857Y-81492381D01*
X120641905Y-81492381D01*
X93337143Y-99657143D02*
X93289524Y-99704762D01*
X93146667Y-99752381D01*
X93051429Y-99752381D01*
X92908571Y-99704762D01*
X92813333Y-99609524D01*
X92765714Y-99514286D01*
X92718095Y-99323810D01*
X92718095Y-99180952D01*
X92765714Y-98990476D01*
X92813333Y-98895238D01*
X92908571Y-98800000D01*
X93051429Y-98752381D01*
X93146667Y-98752381D01*
X93289524Y-98800000D01*
X93337143Y-98847619D01*
X93718095Y-98847619D02*
X93765714Y-98800000D01*
X93860952Y-98752381D01*
X94099048Y-98752381D01*
X94194286Y-98800000D01*
X94241905Y-98847619D01*
X94289524Y-98942857D01*
X94289524Y-99038095D01*
X94241905Y-99180952D01*
X93670476Y-99752381D01*
X94289524Y-99752381D01*
X95241905Y-99752381D02*
X94670476Y-99752381D01*
X94956190Y-99752381D02*
X94956190Y-98752381D01*
X94860952Y-98895238D01*
X94765714Y-98990476D01*
X94670476Y-99038095D01*
X144137143Y-69177143D02*
X144089524Y-69224762D01*
X143946667Y-69272381D01*
X143851429Y-69272381D01*
X143708571Y-69224762D01*
X143613333Y-69129524D01*
X143565714Y-69034286D01*
X143518095Y-68843810D01*
X143518095Y-68700952D01*
X143565714Y-68510476D01*
X143613333Y-68415238D01*
X143708571Y-68320000D01*
X143851429Y-68272381D01*
X143946667Y-68272381D01*
X144089524Y-68320000D01*
X144137143Y-68367619D01*
X144518095Y-68367619D02*
X144565714Y-68320000D01*
X144660952Y-68272381D01*
X144899048Y-68272381D01*
X144994286Y-68320000D01*
X145041905Y-68367619D01*
X145089524Y-68462857D01*
X145089524Y-68558095D01*
X145041905Y-68700952D01*
X144470476Y-69272381D01*
X145089524Y-69272381D01*
X145708571Y-68272381D02*
X145803810Y-68272381D01*
X145899048Y-68320000D01*
X145946667Y-68367619D01*
X145994286Y-68462857D01*
X146041905Y-68653333D01*
X146041905Y-68891429D01*
X145994286Y-69081905D01*
X145946667Y-69177143D01*
X145899048Y-69224762D01*
X145803810Y-69272381D01*
X145708571Y-69272381D01*
X145613333Y-69224762D01*
X145565714Y-69177143D01*
X145518095Y-69081905D01*
X145470476Y-68891429D01*
X145470476Y-68653333D01*
X145518095Y-68462857D01*
X145565714Y-68367619D01*
X145613333Y-68320000D01*
X145708571Y-68272381D01*
X144137143Y-59017143D02*
X144089524Y-59064762D01*
X143946667Y-59112381D01*
X143851429Y-59112381D01*
X143708571Y-59064762D01*
X143613333Y-58969524D01*
X143565714Y-58874286D01*
X143518095Y-58683810D01*
X143518095Y-58540952D01*
X143565714Y-58350476D01*
X143613333Y-58255238D01*
X143708571Y-58160000D01*
X143851429Y-58112381D01*
X143946667Y-58112381D01*
X144089524Y-58160000D01*
X144137143Y-58207619D01*
X145089524Y-59112381D02*
X144518095Y-59112381D01*
X144803809Y-59112381D02*
X144803809Y-58112381D01*
X144708571Y-58255238D01*
X144613333Y-58350476D01*
X144518095Y-58398095D01*
X145565714Y-59112381D02*
X145756190Y-59112381D01*
X145851429Y-59064762D01*
X145899048Y-59017143D01*
X145994286Y-58874286D01*
X146041905Y-58683810D01*
X146041905Y-58302857D01*
X145994286Y-58207619D01*
X145946667Y-58160000D01*
X145851429Y-58112381D01*
X145660952Y-58112381D01*
X145565714Y-58160000D01*
X145518095Y-58207619D01*
X145470476Y-58302857D01*
X145470476Y-58540952D01*
X145518095Y-58636190D01*
X145565714Y-58683810D01*
X145660952Y-58731429D01*
X145851429Y-58731429D01*
X145946667Y-58683810D01*
X145994286Y-58636190D01*
X146041905Y-58540952D01*
X136993334Y-99657143D02*
X136945715Y-99704762D01*
X136802858Y-99752381D01*
X136707620Y-99752381D01*
X136564762Y-99704762D01*
X136469524Y-99609524D01*
X136421905Y-99514286D01*
X136374286Y-99323810D01*
X136374286Y-99180952D01*
X136421905Y-98990476D01*
X136469524Y-98895238D01*
X136564762Y-98800000D01*
X136707620Y-98752381D01*
X136802858Y-98752381D01*
X136945715Y-98800000D01*
X136993334Y-98847619D01*
X137898096Y-98752381D02*
X137421905Y-98752381D01*
X137374286Y-99228571D01*
X137421905Y-99180952D01*
X137517143Y-99133333D01*
X137755239Y-99133333D01*
X137850477Y-99180952D01*
X137898096Y-99228571D01*
X137945715Y-99323810D01*
X137945715Y-99561905D01*
X137898096Y-99657143D01*
X137850477Y-99704762D01*
X137755239Y-99752381D01*
X137517143Y-99752381D01*
X137421905Y-99704762D01*
X137374286Y-99657143D01*
X167473334Y-99657143D02*
X167425715Y-99704762D01*
X167282858Y-99752381D01*
X167187620Y-99752381D01*
X167044762Y-99704762D01*
X166949524Y-99609524D01*
X166901905Y-99514286D01*
X166854286Y-99323810D01*
X166854286Y-99180952D01*
X166901905Y-98990476D01*
X166949524Y-98895238D01*
X167044762Y-98800000D01*
X167187620Y-98752381D01*
X167282858Y-98752381D01*
X167425715Y-98800000D01*
X167473334Y-98847619D01*
X168330477Y-99085714D02*
X168330477Y-99752381D01*
X168092381Y-98704762D02*
X167854286Y-99419048D01*
X168473334Y-99419048D01*
X121214286Y-57928571D02*
X121357143Y-57976190D01*
X121404762Y-58023810D01*
X121452381Y-58119048D01*
X121452381Y-58261905D01*
X121404762Y-58357143D01*
X121357143Y-58404762D01*
X121261905Y-58452381D01*
X120880952Y-58452381D01*
X120880952Y-57452381D01*
X121214286Y-57452381D01*
X121309524Y-57500000D01*
X121357143Y-57547619D01*
X121404762Y-57642857D01*
X121404762Y-57738095D01*
X121357143Y-57833333D01*
X121309524Y-57880952D01*
X121214286Y-57928571D01*
X120880952Y-57928571D01*
X122071428Y-57452381D02*
X122261905Y-57452381D01*
X122357143Y-57500000D01*
X122452381Y-57595238D01*
X122500000Y-57785714D01*
X122500000Y-58119048D01*
X122452381Y-58309524D01*
X122357143Y-58404762D01*
X122261905Y-58452381D01*
X122071428Y-58452381D01*
X121976190Y-58404762D01*
X121880952Y-58309524D01*
X121833333Y-58119048D01*
X121833333Y-57785714D01*
X121880952Y-57595238D01*
X121976190Y-57500000D01*
X122071428Y-57452381D01*
X123119047Y-57452381D02*
X123309524Y-57452381D01*
X123404762Y-57500000D01*
X123500000Y-57595238D01*
X123547619Y-57785714D01*
X123547619Y-58119048D01*
X123500000Y-58309524D01*
X123404762Y-58404762D01*
X123309524Y-58452381D01*
X123119047Y-58452381D01*
X123023809Y-58404762D01*
X122928571Y-58309524D01*
X122880952Y-58119048D01*
X122880952Y-57785714D01*
X122928571Y-57595238D01*
X123023809Y-57500000D01*
X123119047Y-57452381D01*
X123833333Y-57452381D02*
X124404762Y-57452381D01*
X124119047Y-58452381D02*
X124119047Y-57452381D01*
X125261905Y-58452381D02*
X124690476Y-58452381D01*
X124976190Y-58452381D02*
X124976190Y-57452381D01*
X124880952Y-57595238D01*
X124785714Y-57690476D01*
X124690476Y-57738095D01*
X125452381Y-58547619D02*
X126214286Y-58547619D01*
X126452381Y-58452381D02*
X126452381Y-57452381D01*
X126785715Y-58166667D01*
X127119048Y-57452381D01*
X127119048Y-58452381D01*
X127595238Y-57928571D02*
X127928572Y-57928571D01*
X128071429Y-58452381D02*
X127595238Y-58452381D01*
X127595238Y-57452381D01*
X128071429Y-57452381D01*
X128500000Y-58452381D02*
X128500000Y-57452381D01*
X128833334Y-58166667D01*
X129166667Y-57452381D01*
X129166667Y-58452381D01*
X130166667Y-58452381D02*
X129595238Y-58452381D01*
X129880952Y-58452381D02*
X129880952Y-57452381D01*
X129785714Y-57595238D01*
X129690476Y-57690476D01*
X129595238Y-57738095D01*
X121714286Y-65428571D02*
X121857143Y-65476190D01*
X121904762Y-65523810D01*
X121952381Y-65619048D01*
X121952381Y-65761905D01*
X121904762Y-65857143D01*
X121857143Y-65904762D01*
X121761905Y-65952381D01*
X121380952Y-65952381D01*
X121380952Y-64952381D01*
X121714286Y-64952381D01*
X121809524Y-65000000D01*
X121857143Y-65047619D01*
X121904762Y-65142857D01*
X121904762Y-65238095D01*
X121857143Y-65333333D01*
X121809524Y-65380952D01*
X121714286Y-65428571D01*
X121380952Y-65428571D01*
X122571428Y-64952381D02*
X122761905Y-64952381D01*
X122857143Y-65000000D01*
X122952381Y-65095238D01*
X123000000Y-65285714D01*
X123000000Y-65619048D01*
X122952381Y-65809524D01*
X122857143Y-65904762D01*
X122761905Y-65952381D01*
X122571428Y-65952381D01*
X122476190Y-65904762D01*
X122380952Y-65809524D01*
X122333333Y-65619048D01*
X122333333Y-65285714D01*
X122380952Y-65095238D01*
X122476190Y-65000000D01*
X122571428Y-64952381D01*
X123619047Y-64952381D02*
X123809524Y-64952381D01*
X123904762Y-65000000D01*
X124000000Y-65095238D01*
X124047619Y-65285714D01*
X124047619Y-65619048D01*
X124000000Y-65809524D01*
X123904762Y-65904762D01*
X123809524Y-65952381D01*
X123619047Y-65952381D01*
X123523809Y-65904762D01*
X123428571Y-65809524D01*
X123380952Y-65619048D01*
X123380952Y-65285714D01*
X123428571Y-65095238D01*
X123523809Y-65000000D01*
X123619047Y-64952381D01*
X124333333Y-64952381D02*
X124904762Y-64952381D01*
X124619047Y-65952381D02*
X124619047Y-64952381D01*
X125428571Y-64952381D02*
X125523810Y-64952381D01*
X125619048Y-65000000D01*
X125666667Y-65047619D01*
X125714286Y-65142857D01*
X125761905Y-65333333D01*
X125761905Y-65571429D01*
X125714286Y-65761905D01*
X125666667Y-65857143D01*
X125619048Y-65904762D01*
X125523810Y-65952381D01*
X125428571Y-65952381D01*
X125333333Y-65904762D01*
X125285714Y-65857143D01*
X125238095Y-65761905D01*
X125190476Y-65571429D01*
X125190476Y-65333333D01*
X125238095Y-65142857D01*
X125285714Y-65047619D01*
X125333333Y-65000000D01*
X125428571Y-64952381D01*
X125952381Y-66047619D02*
X126714286Y-66047619D01*
X126952381Y-65952381D02*
X126952381Y-64952381D01*
X127285715Y-65666667D01*
X127619048Y-64952381D01*
X127619048Y-65952381D01*
X128095238Y-65428571D02*
X128428572Y-65428571D01*
X128571429Y-65952381D02*
X128095238Y-65952381D01*
X128095238Y-64952381D01*
X128571429Y-64952381D01*
X129000000Y-65952381D02*
X129000000Y-64952381D01*
X129333334Y-65666667D01*
X129666667Y-64952381D01*
X129666667Y-65952381D01*
X130666667Y-65952381D02*
X130095238Y-65952381D01*
X130380952Y-65952381D02*
X130380952Y-64952381D01*
X130285714Y-65095238D01*
X130190476Y-65190476D01*
X130095238Y-65238095D01*
X180333334Y-57152381D02*
X180000000Y-56676190D01*
X179761905Y-57152381D02*
X179761905Y-56152381D01*
X180142858Y-56152381D01*
X180238096Y-56200000D01*
X180285715Y-56247619D01*
X180333334Y-56342857D01*
X180333334Y-56485714D01*
X180285715Y-56580952D01*
X180238096Y-56628571D01*
X180142858Y-56676190D01*
X179761905Y-56676190D01*
X180714286Y-56247619D02*
X180761905Y-56200000D01*
X180857143Y-56152381D01*
X181095239Y-56152381D01*
X181190477Y-56200000D01*
X181238096Y-56247619D01*
X181285715Y-56342857D01*
X181285715Y-56438095D01*
X181238096Y-56580952D01*
X180666667Y-57152381D01*
X181285715Y-57152381D01*
X180333334Y-62152381D02*
X180000000Y-61676190D01*
X179761905Y-62152381D02*
X179761905Y-61152381D01*
X180142858Y-61152381D01*
X180238096Y-61200000D01*
X180285715Y-61247619D01*
X180333334Y-61342857D01*
X180333334Y-61485714D01*
X180285715Y-61580952D01*
X180238096Y-61628571D01*
X180142858Y-61676190D01*
X179761905Y-61676190D01*
X180666667Y-61152381D02*
X181285715Y-61152381D01*
X180952381Y-61533333D01*
X181095239Y-61533333D01*
X181190477Y-61580952D01*
X181238096Y-61628571D01*
X181285715Y-61723810D01*
X181285715Y-61961905D01*
X181238096Y-62057143D01*
X181190477Y-62104762D01*
X181095239Y-62152381D01*
X180809524Y-62152381D01*
X180714286Y-62104762D01*
X180666667Y-62057143D01*
X180333334Y-67152381D02*
X180000000Y-66676190D01*
X179761905Y-67152381D02*
X179761905Y-66152381D01*
X180142858Y-66152381D01*
X180238096Y-66200000D01*
X180285715Y-66247619D01*
X180333334Y-66342857D01*
X180333334Y-66485714D01*
X180285715Y-66580952D01*
X180238096Y-66628571D01*
X180142858Y-66676190D01*
X179761905Y-66676190D01*
X181190477Y-66485714D02*
X181190477Y-67152381D01*
X180952381Y-66104762D02*
X180714286Y-66819048D01*
X181333334Y-66819048D01*
X158333334Y-67152381D02*
X158000000Y-66676190D01*
X157761905Y-67152381D02*
X157761905Y-66152381D01*
X158142858Y-66152381D01*
X158238096Y-66200000D01*
X158285715Y-66247619D01*
X158333334Y-66342857D01*
X158333334Y-66485714D01*
X158285715Y-66580952D01*
X158238096Y-66628571D01*
X158142858Y-66676190D01*
X157761905Y-66676190D01*
X159238096Y-66152381D02*
X158761905Y-66152381D01*
X158714286Y-66628571D01*
X158761905Y-66580952D01*
X158857143Y-66533333D01*
X159095239Y-66533333D01*
X159190477Y-66580952D01*
X159238096Y-66628571D01*
X159285715Y-66723810D01*
X159285715Y-66961905D01*
X159238096Y-67057143D01*
X159190477Y-67104762D01*
X159095239Y-67152381D01*
X158857143Y-67152381D01*
X158761905Y-67104762D01*
X158714286Y-67057143D01*
X158333334Y-62152381D02*
X158000000Y-61676190D01*
X157761905Y-62152381D02*
X157761905Y-61152381D01*
X158142858Y-61152381D01*
X158238096Y-61200000D01*
X158285715Y-61247619D01*
X158333334Y-61342857D01*
X158333334Y-61485714D01*
X158285715Y-61580952D01*
X158238096Y-61628571D01*
X158142858Y-61676190D01*
X157761905Y-61676190D01*
X158666667Y-61152381D02*
X159333334Y-61152381D01*
X158904762Y-62152381D01*
X158333334Y-57152381D02*
X158000000Y-56676190D01*
X157761905Y-57152381D02*
X157761905Y-56152381D01*
X158142858Y-56152381D01*
X158238096Y-56200000D01*
X158285715Y-56247619D01*
X158333334Y-56342857D01*
X158333334Y-56485714D01*
X158285715Y-56580952D01*
X158238096Y-56628571D01*
X158142858Y-56676190D01*
X157761905Y-56676190D01*
X158904762Y-56580952D02*
X158809524Y-56533333D01*
X158761905Y-56485714D01*
X158714286Y-56390476D01*
X158714286Y-56342857D01*
X158761905Y-56247619D01*
X158809524Y-56200000D01*
X158904762Y-56152381D01*
X159095239Y-56152381D01*
X159190477Y-56200000D01*
X159238096Y-56247619D01*
X159285715Y-56342857D01*
X159285715Y-56390476D01*
X159238096Y-56485714D01*
X159190477Y-56533333D01*
X159095239Y-56580952D01*
X158904762Y-56580952D01*
X158809524Y-56628571D01*
X158761905Y-56676190D01*
X158714286Y-56771429D01*
X158714286Y-56961905D01*
X158761905Y-57057143D01*
X158809524Y-57104762D01*
X158904762Y-57152381D01*
X159095239Y-57152381D01*
X159190477Y-57104762D01*
X159238096Y-57057143D01*
X159285715Y-56961905D01*
X159285715Y-56771429D01*
X159238096Y-56676190D01*
X159190477Y-56628571D01*
X159095239Y-56580952D01*
X168166667Y-70364762D02*
X168309524Y-70412381D01*
X168547620Y-70412381D01*
X168642858Y-70364762D01*
X168690477Y-70317143D01*
X168738096Y-70221905D01*
X168738096Y-70126667D01*
X168690477Y-70031429D01*
X168642858Y-69983810D01*
X168547620Y-69936190D01*
X168357143Y-69888571D01*
X168261905Y-69840952D01*
X168214286Y-69793333D01*
X168166667Y-69698095D01*
X168166667Y-69602857D01*
X168214286Y-69507619D01*
X168261905Y-69460000D01*
X168357143Y-69412381D01*
X168595239Y-69412381D01*
X168738096Y-69460000D01*
X169071429Y-69412381D02*
X169309524Y-70412381D01*
X169500001Y-69698095D01*
X169690477Y-70412381D01*
X169928572Y-69412381D01*
X170833334Y-70412381D02*
X170261905Y-70412381D01*
X170547619Y-70412381D02*
X170547619Y-69412381D01*
X170452381Y-69555238D01*
X170357143Y-69650476D01*
X170261905Y-69698095D01*
M02*
