G04 #@! TF.FileFunction,Paste,Top*
%FSLAX46Y46*%
G04 Gerber Fmt 4.6, Leading zero omitted, Abs format (unit mm)*
G04 Created by KiCad (PCBNEW 4.0.2+dfsg1-stable) date sab 20 lug 2019 18:23:04 CEST*
%MOMM*%
G01*
G04 APERTURE LIST*
%ADD10C,0.100000*%
%ADD11R,2.000000X1.700000*%
%ADD12R,1.600000X2.000000*%
%ADD13R,2.000000X1.600000*%
%ADD14R,1.700000X2.000000*%
%ADD15R,1.597660X1.800860*%
%ADD16R,2.180000X1.600000*%
%ADD17R,2.440000X1.120000*%
%ADD18R,1.400000X0.450000*%
%ADD19R,1.120000X0.300000*%
%ADD20R,0.300000X1.120000*%
G04 APERTURE END LIST*
D10*
D11*
X173000000Y-107000000D03*
X169000000Y-107000000D03*
X128000000Y-63000000D03*
X132000000Y-63000000D03*
X137000000Y-63000000D03*
X141000000Y-63000000D03*
X117000000Y-58000000D03*
X113000000Y-58000000D03*
X176000000Y-58000000D03*
X180000000Y-58000000D03*
D12*
X124000000Y-76000000D03*
X124000000Y-80000000D03*
X124000000Y-101000000D03*
X124000000Y-97000000D03*
D13*
X120000000Y-103000000D03*
X116000000Y-103000000D03*
X124000000Y-104000000D03*
X128000000Y-104000000D03*
X138000000Y-105000000D03*
X134000000Y-105000000D03*
X142000000Y-105000000D03*
X146000000Y-105000000D03*
X154000000Y-105000000D03*
X150000000Y-105000000D03*
X144000000Y-110000000D03*
X148000000Y-110000000D03*
D12*
X165000000Y-76000000D03*
X165000000Y-80000000D03*
D14*
X94000000Y-113000000D03*
X94000000Y-109000000D03*
D11*
X95000000Y-66000000D03*
X91000000Y-66000000D03*
X95000000Y-62000000D03*
X91000000Y-62000000D03*
X95000000Y-58000000D03*
X91000000Y-58000000D03*
X117000000Y-62000000D03*
X113000000Y-62000000D03*
X117000000Y-66000000D03*
X113000000Y-66000000D03*
D13*
X165000000Y-64000000D03*
X169000000Y-64000000D03*
X187000000Y-72000000D03*
X183000000Y-72000000D03*
X104000000Y-71000000D03*
X100000000Y-71000000D03*
D12*
X111000000Y-94000000D03*
X111000000Y-90000000D03*
X111000000Y-82000000D03*
X111000000Y-86000000D03*
X124000000Y-90000000D03*
X124000000Y-94000000D03*
D13*
X115000000Y-74000000D03*
X119000000Y-74000000D03*
X123000000Y-70000000D03*
X127000000Y-70000000D03*
X132000000Y-68000000D03*
X136000000Y-68000000D03*
X141000000Y-68000000D03*
X145000000Y-68000000D03*
X153000000Y-68000000D03*
X149000000Y-68000000D03*
X162000000Y-70000000D03*
X158000000Y-70000000D03*
D12*
X160000000Y-80000000D03*
X160000000Y-76000000D03*
X160000000Y-84000000D03*
X160000000Y-88000000D03*
X160000000Y-92000000D03*
X160000000Y-96000000D03*
D13*
X158000000Y-101000000D03*
X162000000Y-101000000D03*
D15*
X176580140Y-107000000D03*
X179419860Y-107000000D03*
D11*
X119000000Y-98000000D03*
X115000000Y-98000000D03*
X119000000Y-79000000D03*
X115000000Y-79000000D03*
X134000000Y-58000000D03*
X138000000Y-58000000D03*
X142000000Y-58000000D03*
X146000000Y-58000000D03*
D14*
X124000000Y-87000000D03*
X124000000Y-83000000D03*
D11*
X204000000Y-104000000D03*
X200000000Y-104000000D03*
D14*
X115000000Y-112000000D03*
X115000000Y-108000000D03*
X119000000Y-108000000D03*
X119000000Y-112000000D03*
D11*
X204000000Y-98000000D03*
X200000000Y-98000000D03*
D16*
X162410000Y-58000000D03*
X171590000Y-58000000D03*
D17*
X99695000Y-59460000D03*
X108305000Y-64540000D03*
X99695000Y-62000000D03*
X108305000Y-62000000D03*
X99695000Y-64540000D03*
X108305000Y-59460000D03*
D18*
X187370000Y-76475000D03*
X174630000Y-76475000D03*
X187370000Y-77745000D03*
X174630000Y-77745000D03*
X187370000Y-79015000D03*
X174630000Y-79015000D03*
X187370000Y-80285000D03*
X174630000Y-80285000D03*
X187370000Y-81555000D03*
X174630000Y-81555000D03*
X187370000Y-82825000D03*
X174630000Y-82825000D03*
X187370000Y-84095000D03*
X174630000Y-84095000D03*
X187370000Y-85365000D03*
X174630000Y-85365000D03*
X187370000Y-86635000D03*
X174630000Y-86635000D03*
X187370000Y-87905000D03*
X174630000Y-87905000D03*
X187370000Y-89175000D03*
X174630000Y-89175000D03*
X187370000Y-90445000D03*
X174630000Y-90445000D03*
X187370000Y-91715000D03*
X174630000Y-91715000D03*
X187370000Y-92985000D03*
X174630000Y-92985000D03*
X187370000Y-94255000D03*
X174630000Y-94255000D03*
X187370000Y-95525000D03*
X174630000Y-95525000D03*
X104370000Y-75475000D03*
X91630000Y-75475000D03*
X104370000Y-76745000D03*
X91630000Y-76745000D03*
X104370000Y-78015000D03*
X91630000Y-78015000D03*
X104370000Y-79285000D03*
X91630000Y-79285000D03*
X104370000Y-80555000D03*
X91630000Y-80555000D03*
X104370000Y-81825000D03*
X91630000Y-81825000D03*
X104370000Y-83095000D03*
X91630000Y-83095000D03*
X104370000Y-84365000D03*
X91630000Y-84365000D03*
X104370000Y-85635000D03*
X91630000Y-85635000D03*
X104370000Y-86905000D03*
X91630000Y-86905000D03*
X104370000Y-88175000D03*
X91630000Y-88175000D03*
X104370000Y-89445000D03*
X91630000Y-89445000D03*
X104370000Y-90715000D03*
X91630000Y-90715000D03*
X104370000Y-91985000D03*
X91630000Y-91985000D03*
X104370000Y-93255000D03*
X91630000Y-93255000D03*
X104370000Y-94525000D03*
X91630000Y-94525000D03*
D19*
X128380000Y-76250000D03*
X128380000Y-76750000D03*
X128380000Y-77250000D03*
X128380000Y-77750000D03*
X128380000Y-78250000D03*
X128380000Y-78750000D03*
X128380000Y-79250000D03*
X128380000Y-79750000D03*
X128380000Y-80250000D03*
X128380000Y-80750000D03*
X128380000Y-81250000D03*
X128380000Y-81750000D03*
X128380000Y-82250000D03*
X128380000Y-82750000D03*
X128380000Y-83250000D03*
X128380000Y-83750000D03*
X128380000Y-84250000D03*
X128380000Y-84750000D03*
X128380000Y-85250000D03*
X128380000Y-85750000D03*
X128380000Y-86250000D03*
X128380000Y-86750000D03*
X128380000Y-87250000D03*
X128380000Y-87750000D03*
X128380000Y-88250000D03*
X128380000Y-88750000D03*
X128380000Y-89250000D03*
X128380000Y-89750000D03*
X128380000Y-90250000D03*
X128380000Y-90750000D03*
X128380000Y-91250000D03*
X128380000Y-91750000D03*
X128380000Y-92250000D03*
X128380000Y-92750000D03*
X128380000Y-93250000D03*
X128380000Y-93750000D03*
X128380000Y-94250000D03*
X128380000Y-94750000D03*
X128380000Y-95250000D03*
X128380000Y-95750000D03*
X128380000Y-96250000D03*
X128380000Y-96750000D03*
X128380000Y-97250000D03*
X128380000Y-97750000D03*
D20*
X130250000Y-99620000D03*
X130750000Y-99620000D03*
X131250000Y-99620000D03*
X131750000Y-99620000D03*
X132250000Y-99620000D03*
X132750000Y-99620000D03*
X133250000Y-99620000D03*
X133750000Y-99620000D03*
X134250000Y-99620000D03*
X134750000Y-99620000D03*
X135250000Y-99620000D03*
X135750000Y-99620000D03*
X136250000Y-99620000D03*
X136750000Y-99620000D03*
X137250000Y-99620000D03*
X137750000Y-99620000D03*
X138250000Y-99620000D03*
X138750000Y-99620000D03*
X139250000Y-99620000D03*
X139750000Y-99620000D03*
X140250000Y-99620000D03*
X140750000Y-99620000D03*
X141250000Y-99620000D03*
X141750000Y-99620000D03*
X142250000Y-99620000D03*
X142750000Y-99620000D03*
X143250000Y-99620000D03*
X143750000Y-99620000D03*
X144250000Y-99620000D03*
X144750000Y-99620000D03*
X145250000Y-99620000D03*
X145750000Y-99620000D03*
X146250000Y-99620000D03*
X146750000Y-99620000D03*
X147250000Y-99620000D03*
X147750000Y-99620000D03*
X148250000Y-99620000D03*
X148750000Y-99620000D03*
X149250000Y-99620000D03*
X149750000Y-99620000D03*
X150250000Y-99620000D03*
X150750000Y-99620000D03*
X151250000Y-99620000D03*
X151750000Y-99620000D03*
D19*
X153620000Y-97750000D03*
X153620000Y-97250000D03*
X153620000Y-96750000D03*
X153620000Y-96250000D03*
X153620000Y-95750000D03*
X153620000Y-95250000D03*
X153620000Y-94750000D03*
X153620000Y-94250000D03*
X153620000Y-93750000D03*
X153620000Y-93250000D03*
X153620000Y-92750000D03*
X153620000Y-92250000D03*
X153620000Y-91750000D03*
X153620000Y-91250000D03*
X153620000Y-90750000D03*
X153620000Y-90250000D03*
X153620000Y-89750000D03*
X153620000Y-89250000D03*
X153620000Y-88750000D03*
X153620000Y-88250000D03*
X153620000Y-87750000D03*
X153620000Y-87250000D03*
X153620000Y-86750000D03*
X153620000Y-86250000D03*
X153620000Y-85750000D03*
X153620000Y-85250000D03*
X153620000Y-84750000D03*
X153620000Y-84250000D03*
X153620000Y-83750000D03*
X153620000Y-83250000D03*
X153620000Y-82750000D03*
X153620000Y-82250000D03*
X153620000Y-81750000D03*
X153620000Y-81250000D03*
X153620000Y-80750000D03*
X153620000Y-80250000D03*
X153620000Y-79750000D03*
X153620000Y-79250000D03*
X153620000Y-78750000D03*
X153620000Y-78250000D03*
X153620000Y-77750000D03*
X153620000Y-77250000D03*
X153620000Y-76750000D03*
X153620000Y-76250000D03*
D20*
X151750000Y-74380000D03*
X151250000Y-74380000D03*
X150750000Y-74380000D03*
X150250000Y-74380000D03*
X149750000Y-74380000D03*
X149250000Y-74380000D03*
X148750000Y-74380000D03*
X148250000Y-74380000D03*
X147750000Y-74380000D03*
X147250000Y-74380000D03*
X146750000Y-74380000D03*
X146250000Y-74380000D03*
X145750000Y-74380000D03*
X145250000Y-74380000D03*
X144750000Y-74380000D03*
X144250000Y-74380000D03*
X143750000Y-74380000D03*
X143250000Y-74380000D03*
X142750000Y-74380000D03*
X142250000Y-74380000D03*
X141750000Y-74380000D03*
X141250000Y-74380000D03*
X140750000Y-74380000D03*
X140250000Y-74380000D03*
X139750000Y-74380000D03*
X139250000Y-74380000D03*
X138750000Y-74380000D03*
X138250000Y-74380000D03*
X137750000Y-74380000D03*
X137250000Y-74380000D03*
X136750000Y-74380000D03*
X136250000Y-74380000D03*
X135750000Y-74380000D03*
X135250000Y-74380000D03*
X134750000Y-74380000D03*
X134250000Y-74380000D03*
X133750000Y-74380000D03*
X133250000Y-74380000D03*
X132750000Y-74380000D03*
X132250000Y-74380000D03*
X131750000Y-74380000D03*
X131250000Y-74380000D03*
X130750000Y-74380000D03*
X130250000Y-74380000D03*
M02*
