G04 #@! TF.FileFunction,Paste,Top*
%FSLAX46Y46*%
G04 Gerber Fmt 4.6, Leading zero omitted, Abs format (unit mm)*
G04 Created by KiCad (PCBNEW 4.0.2+dfsg1-stable) date ven 19 lug 2019 14:22:53 CEST*
%MOMM*%
G01*
G04 APERTURE LIST*
%ADD10C,0.100000*%
%ADD11R,1.500000X0.300000*%
%ADD12R,0.300000X1.500000*%
%ADD13R,1.400000X0.450000*%
%ADD14R,0.500000X2.200000*%
%ADD15R,2.180000X1.600000*%
%ADD16R,2.000000X1.700000*%
%ADD17R,1.700000X2.000000*%
%ADD18C,1.524000*%
%ADD19R,1.800860X1.597660*%
%ADD20R,2.000000X1.600000*%
%ADD21R,1.600000X2.000000*%
%ADD22R,2.440000X1.120000*%
G04 APERTURE END LIST*
D10*
D11*
X111840000Y-94900000D03*
X111840000Y-94400000D03*
X111840000Y-93900000D03*
X111840000Y-93400000D03*
X111840000Y-92900000D03*
X111840000Y-92400000D03*
X111840000Y-91900000D03*
X111840000Y-91400000D03*
X111840000Y-90900000D03*
X111840000Y-90400000D03*
X111840000Y-89900000D03*
X111840000Y-89400000D03*
X111840000Y-88900000D03*
X111840000Y-88400000D03*
X111840000Y-87900000D03*
X111840000Y-87400000D03*
X111840000Y-86900000D03*
X111840000Y-86400000D03*
X111840000Y-85900000D03*
X111840000Y-85400000D03*
X111840000Y-84900000D03*
X111840000Y-84400000D03*
X111840000Y-83900000D03*
X111840000Y-83400000D03*
X111840000Y-82900000D03*
D12*
X110140000Y-81200000D03*
X109640000Y-81200000D03*
X109140000Y-81200000D03*
X108640000Y-81200000D03*
X108140000Y-81200000D03*
X107640000Y-81200000D03*
X107140000Y-81200000D03*
X106640000Y-81200000D03*
X106140000Y-81200000D03*
X105640000Y-81200000D03*
X105140000Y-81200000D03*
X104640000Y-81200000D03*
X104140000Y-81200000D03*
X103640000Y-81200000D03*
X103140000Y-81200000D03*
X102640000Y-81200000D03*
X102140000Y-81200000D03*
X101640000Y-81200000D03*
X101140000Y-81200000D03*
X100640000Y-81200000D03*
X100140000Y-81200000D03*
X99640000Y-81200000D03*
X99140000Y-81200000D03*
X98640000Y-81200000D03*
X98140000Y-81200000D03*
D11*
X96440000Y-82900000D03*
X96440000Y-83400000D03*
X96440000Y-83900000D03*
X96440000Y-84400000D03*
X96440000Y-84900000D03*
X96440000Y-85400000D03*
X96440000Y-85900000D03*
X96440000Y-86400000D03*
X96440000Y-86900000D03*
X96440000Y-87400000D03*
X96440000Y-87900000D03*
X96440000Y-88400000D03*
X96440000Y-88900000D03*
X96440000Y-89400000D03*
X96440000Y-89900000D03*
X96440000Y-90400000D03*
X96440000Y-90900000D03*
X96440000Y-91400000D03*
X96440000Y-91900000D03*
X96440000Y-92400000D03*
X96440000Y-92900000D03*
X96440000Y-93400000D03*
X96440000Y-93900000D03*
X96440000Y-94400000D03*
X96440000Y-94900000D03*
D12*
X98140000Y-96600000D03*
X98640000Y-96600000D03*
X99140000Y-96600000D03*
X99640000Y-96600000D03*
X100140000Y-96600000D03*
X100640000Y-96600000D03*
X101140000Y-96600000D03*
X101640000Y-96600000D03*
X102140000Y-96600000D03*
X102640000Y-96600000D03*
X103140000Y-96600000D03*
X103640000Y-96600000D03*
X104140000Y-96600000D03*
X104640000Y-96600000D03*
X105140000Y-96600000D03*
X105640000Y-96600000D03*
X106140000Y-96600000D03*
X106640000Y-96600000D03*
X107140000Y-96600000D03*
X107640000Y-96600000D03*
X108140000Y-96600000D03*
X108640000Y-96600000D03*
X109140000Y-96600000D03*
X109640000Y-96600000D03*
X110140000Y-96600000D03*
D13*
X135630000Y-97525000D03*
X148370000Y-97525000D03*
X135630000Y-96255000D03*
X148370000Y-96255000D03*
X135630000Y-94985000D03*
X148370000Y-94985000D03*
X135630000Y-93715000D03*
X148370000Y-93715000D03*
X135630000Y-92445000D03*
X148370000Y-92445000D03*
X135630000Y-91175000D03*
X148370000Y-91175000D03*
X135630000Y-89905000D03*
X148370000Y-89905000D03*
X135630000Y-88635000D03*
X148370000Y-88635000D03*
X135630000Y-87365000D03*
X148370000Y-87365000D03*
X135630000Y-86095000D03*
X148370000Y-86095000D03*
X135630000Y-84825000D03*
X148370000Y-84825000D03*
X135630000Y-83555000D03*
X148370000Y-83555000D03*
X135630000Y-82285000D03*
X148370000Y-82285000D03*
X135630000Y-81015000D03*
X148370000Y-81015000D03*
X135630000Y-79745000D03*
X148370000Y-79745000D03*
X135630000Y-78475000D03*
X148370000Y-78475000D03*
X166630000Y-97525000D03*
X179370000Y-97525000D03*
X166630000Y-96255000D03*
X179370000Y-96255000D03*
X166630000Y-94985000D03*
X179370000Y-94985000D03*
X166630000Y-93715000D03*
X179370000Y-93715000D03*
X166630000Y-92445000D03*
X179370000Y-92445000D03*
X166630000Y-91175000D03*
X179370000Y-91175000D03*
X166630000Y-89905000D03*
X179370000Y-89905000D03*
X166630000Y-88635000D03*
X179370000Y-88635000D03*
X166630000Y-87365000D03*
X179370000Y-87365000D03*
X166630000Y-86095000D03*
X179370000Y-86095000D03*
X166630000Y-84825000D03*
X179370000Y-84825000D03*
X166630000Y-83555000D03*
X179370000Y-83555000D03*
X166630000Y-82285000D03*
X179370000Y-82285000D03*
X166630000Y-81015000D03*
X179370000Y-81015000D03*
X166630000Y-79745000D03*
X179370000Y-79745000D03*
X166630000Y-78475000D03*
X179370000Y-78475000D03*
D14*
X158810000Y-112800000D03*
X158810000Y-107200000D03*
X157540000Y-112800000D03*
X157540000Y-107200000D03*
X156270000Y-112800000D03*
X156270000Y-107200000D03*
X155000000Y-112800000D03*
X155000000Y-107200000D03*
X153730000Y-112800000D03*
X153730000Y-107200000D03*
X152460000Y-112800000D03*
X152460000Y-107200000D03*
X151190000Y-112800000D03*
X151190000Y-107200000D03*
D15*
X99550000Y-60960000D03*
X108730000Y-60960000D03*
D16*
X116300000Y-106680000D03*
X112300000Y-106680000D03*
X116300000Y-101600000D03*
X112300000Y-101600000D03*
D17*
X121920000Y-81820000D03*
X121920000Y-85820000D03*
D16*
X99600000Y-71120000D03*
X103600000Y-71120000D03*
X103600000Y-76200000D03*
X99600000Y-76200000D03*
X102140000Y-106680000D03*
X106140000Y-106680000D03*
X106140000Y-101600000D03*
X102140000Y-101600000D03*
D17*
X203895000Y-104455000D03*
X203895000Y-108455000D03*
X121920000Y-95980000D03*
X121920000Y-91980000D03*
X190000000Y-95500000D03*
X190000000Y-99500000D03*
X190195000Y-103185000D03*
X190195000Y-107185000D03*
X127000000Y-81820000D03*
X127000000Y-85820000D03*
D16*
X117380000Y-73660000D03*
X121380000Y-73660000D03*
D17*
X119380000Y-64040000D03*
X119380000Y-68040000D03*
D16*
X191040000Y-78740000D03*
X195040000Y-78740000D03*
D18*
X86360000Y-73660000D03*
D19*
X203895000Y-100254860D03*
X203895000Y-97415140D03*
D20*
X91980000Y-76200000D03*
X95980000Y-76200000D03*
D21*
X91440000Y-95980000D03*
X91440000Y-91980000D03*
X91440000Y-88360000D03*
X91440000Y-84360000D03*
X116840000Y-88360000D03*
X116840000Y-84360000D03*
D20*
X102140000Y-66040000D03*
X106140000Y-66040000D03*
D21*
X86360000Y-95980000D03*
X86360000Y-91980000D03*
X86360000Y-79280000D03*
X86360000Y-83280000D03*
D20*
X109760000Y-76200000D03*
X113760000Y-76200000D03*
D21*
X116840000Y-95980000D03*
X116840000Y-91980000D03*
D20*
X109760000Y-71120000D03*
X113760000Y-71120000D03*
X121380000Y-78740000D03*
X117380000Y-78740000D03*
X91980000Y-101600000D03*
X95980000Y-101600000D03*
X142780000Y-71120000D03*
X146780000Y-71120000D03*
X142780000Y-60960000D03*
X146780000Y-60960000D03*
X135160000Y-101600000D03*
X139160000Y-101600000D03*
X165640000Y-101600000D03*
X169640000Y-101600000D03*
D16*
X178500000Y-59000000D03*
X182500000Y-59000000D03*
X178500000Y-64000000D03*
X182500000Y-64000000D03*
X178500000Y-69000000D03*
X182500000Y-69000000D03*
X156500000Y-69000000D03*
X160500000Y-69000000D03*
X156500000Y-64000000D03*
X160500000Y-64000000D03*
X156500000Y-59000000D03*
X160500000Y-59000000D03*
D22*
X173805000Y-66540000D03*
X165195000Y-61460000D03*
X173805000Y-64000000D03*
X165195000Y-64000000D03*
X173805000Y-61460000D03*
X165195000Y-66540000D03*
M02*
