M48
;DRILL file {KiCad 4.0.2+dfsg1-stable} date Sun 02 Jun 2019 18:20:31 CEST
;FORMAT={-:-/ absolute / metric / decimal}
FMAT,2
METRIC,TZ
T1C0.300
T2C0.800
T3C1.016
T4C3.000
%
G90
G05
M71
T1
X94.778Y-87.805
X95.262Y-94.956
X95.288Y-87.452
X95.619Y-100.365
X96.617Y-98.15
X97.104Y-98.771
X97.592Y-93.4
X97.613Y-104.269
X97.768Y-91.938
X98.093Y-84.872
X98.108Y-84.132
X98.443Y-83.022
X98.576Y-86.935
X99.552Y-95.41
X99.64Y-80.025
X100.085Y-97.905
X100.361Y-89.9
X100.388Y-89.137
X100.515Y-86.426
X100.934Y-116.06
X101.049Y-82.378
X101.224Y-70.899
X101.224Y-76.803
X101.64Y-97.963
X102.356Y-93.913
X102.488Y-74.248
X102.533Y-95.442
X103.069Y-79.345
X103.181Y-95.424
X103.487Y-80.017
X103.612Y-97.768
X104.159Y-98.425
X104.341Y-82.359
X104.54Y-94.672
X104.558Y-111.102
X104.841Y-58.796
X104.901Y-85.4
X105.14Y-82.379
X105.161Y-113.993
X105.311Y-95.439
X105.665Y-80.043
X105.965Y-97.757
X106.326Y-114.74
X106.61Y-95.437
X106.911Y-87.356
X106.939Y-115.521
X106.957Y-88.209
X106.957Y-88.977
X107.019Y-110.651
X107.273Y-95.386
X107.302Y-83.055
X107.815Y-109.296
X107.93Y-84.638
X107.94Y-72.007
X107.941Y-80.03
X108.014Y-113.269
X108.173Y-100.791
X108.461Y-86.237
X108.749Y-90.017
X108.831Y-79.675
X108.897Y-100.028
X108.989Y-101.462
X109.102Y-95.43
X109.109Y-84.848
X109.14Y-97.762
X109.188Y-94.537
X109.361Y-85.683
X109.363Y-100.411
X109.39Y-107.209
X109.394Y-88.016
X109.589Y-101.303
X109.605Y-87.4
X109.64Y-82.629
X109.816Y-91.835
X109.916Y-98.288
X109.94Y-84.851
X110.063Y-108.185
X110.401Y-92.4
X110.46Y-93.891
X110.553Y-93.123
X110.576Y-89.015
X110.912Y-96.47
X111.162Y-71.68
X111.631Y-76.113
X113.345Y-97.055
X113.519Y-88.839
X113.703Y-90.9
X114.316Y-86.9
X114.45Y-98.665
X114.514Y-97.045
X114.549Y-89.688
X114.811Y-74.214
X115.258Y-91.139
X115.589Y-74.238
X115.61Y-82.489
X115.98Y-76.608
X116.589Y-82.364
X116.946Y-103.378
X117.114Y-74.917
X117.214Y-104.783
X117.712Y-101.639
X117.749Y-103.322
X118.096Y-75.
X118.29Y-88.274
X119.266Y-95.975
X119.523Y-103.403
X119.734Y-71.277
X120.338Y-71.911
X120.445Y-62.681
X120.64Y-91.56
X121.058Y-104.264
X121.777Y-57.825
X123.122Y-111.428
X124.202Y-103.483
X124.969Y-110.473
X126.272Y-111.953
X126.633Y-100.091
X126.648Y-107.606
X126.686Y-111.363
X126.935Y-115.624
X127.721Y-84.396
X127.846Y-114.14
X128.142Y-101.769
X128.706Y-112.977
X128.895Y-99.938
X128.981Y-90.147
X129.059Y-100.538
X129.745Y-89.622
X129.828Y-107.143
X130.307Y-115.116
X130.504Y-97.823
X130.519Y-75.036
X130.826Y-111.363
X131.266Y-74.312
X131.586Y-75.237
X131.586Y-93.579
X131.605Y-102.657
X132.112Y-93.256
X132.121Y-90.83
X132.578Y-65.242
X132.578Y-100.995
X132.712Y-93.061
X132.913Y-114.413
X133.05Y-79.745
X133.212Y-118.469
X133.277Y-84.012
X133.39Y-119.462
X133.639Y-84.876
X134.273Y-99.301
X134.419Y-115.191
X134.525Y-84.865
X134.711Y-109.112
X134.878Y-98.159
X134.987Y-116.257
X135.251Y-82.92
X135.271Y-108.672
X135.749Y-113.314
X135.856Y-104.568
X136.043Y-107.143
X136.136Y-119.22
X136.294Y-118.273
X136.43Y-59.86
X136.607Y-76.066
X136.877Y-117.645
X137.209Y-81.015
X137.424Y-95.3
X137.483Y-79.745
X137.496Y-116.14
X138.034Y-96.89
X138.577Y-96.255
X138.997Y-112.039
X139.011Y-113.99
X139.882Y-105.125
X140.221Y-117.623
X140.225Y-118.292
X140.779Y-112.874
X140.79Y-106.216
X141.061Y-106.887
X141.792Y-111.588
X142.194Y-104.96
X142.251Y-92.445
X142.559Y-82.017
X142.604Y-98.841
X142.792Y-84.853
X143.212Y-113.888
X143.732Y-90.549
X144.593Y-94.45
X144.709Y-86.095
X145.041Y-107.159
X145.293Y-93.664
X145.388Y-113.361
X145.426Y-111.84
X145.828Y-105.658
X145.973Y-114.394
X146.388Y-83.555
X146.421Y-88.723
X146.483Y-78.44
X146.756Y-65.637
X146.912Y-109.337
X147.2Y-97.68
X147.265Y-88.635
X147.413Y-108.887
X148.112Y-119.162
X148.359Y-113.663
X148.744Y-58.412
X148.944Y-108.918
X149.024Y-117.576
X149.186Y-86.736
X149.203Y-96.89
X149.495Y-119.464
X149.765Y-117.15
X150.025Y-91.46
X150.043Y-89.492
X150.433Y-118.151
X150.745Y-85.194
X150.809Y-93.949
X151.105Y-88.523
X151.474Y-119.442
X151.603Y-94.985
X151.953Y-78.624
X152.171Y-119.161
X152.223Y-116.054
X152.23Y-117.136
X152.743Y-84.933
X152.799Y-87.439
X153.206Y-103.031
X153.469Y-114.306
X153.472Y-119.44
X153.546Y-81.57
X153.62Y-96.255
X153.628Y-88.521
X153.84Y-84.408
X154.854Y-78.624
X155.069Y-59.
X155.157Y-118.482
X155.294Y-92.165
X155.433Y-114.964
X155.572Y-119.432
X155.638Y-95.536
X156.138Y-94.267
X156.27Y-90.924
X156.349Y-115.983
X156.441Y-118.845
X156.5Y-62.734
X156.5Y-67.734
X156.99Y-109.208
X157.451Y-105.484
X157.464Y-119.456
X157.546Y-83.378
X157.918Y-82.835
X158.104Y-92.692
X158.49Y-96.81
X158.929Y-101.698
X158.957Y-87.439
X159.204Y-90.136
X159.376Y-92.995
X159.985Y-92.995
X160.351Y-89.905
X161.054Y-119.033
X161.098Y-105.775
X161.257Y-107.161
X161.479Y-91.304
X162.134Y-93.589
X162.727Y-90.609
X163.201Y-116.516
X163.277Y-119.045
X163.547Y-115.09
X164.588Y-82.628
X164.709Y-84.465
X164.801Y-91.738
X165.049Y-89.189
X165.111Y-110.837
X165.157Y-116.758
X165.501Y-83.555
X167.756Y-81.015
X167.919Y-104.292
X168.184Y-82.285
X168.33Y-96.81
X168.773Y-88.386
X169.854Y-83.468
X170.872Y-85.476
X171.167Y-101.6
X172.896Y-90.469
X173.576Y-96.255
X174.002Y-91.428
X174.513Y-104.931
X175.501Y-92.542
X178.255Y-97.559
X178.269Y-83.555
X184.115Y-107.23
X185.28Y-109.76
T2
X137.16Y-63.5
X137.16Y-68.38
T3
X124.46Y-60.96
X124.46Y-68.58
X127.Y-60.96
X127.Y-68.58
X194.Y-98.5
X194.Y-101.04
X194.Y-103.58
X198.12Y-60.96
X200.66Y-60.96
X203.2Y-78.74
X203.2Y-81.28
X203.2Y-83.82
X203.2Y-86.36
T4
X83.82Y-58.928
X83.82Y-112.268
X208.28Y-58.928
X208.28Y-109.728
T0
M30
