G04 #@! TF.FileFunction,Copper,L2,Bot,Signal*
%FSLAX46Y46*%
G04 Gerber Fmt 4.6, Leading zero omitted, Abs format (unit mm)*
G04 Created by KiCad (PCBNEW 4.0.2+dfsg1-stable) date ven 19 lug 2019 14:22:52 CEST*
%MOMM*%
G01*
G04 APERTURE LIST*
%ADD10C,0.100000*%
%ADD11C,0.650000*%
%ADD12O,0.650000X0.650000*%
%ADD13R,0.650000X4.600000*%
%ADD14C,1.500000*%
%ADD15C,4.000000*%
%ADD16R,2.032000X1.727200*%
%ADD17O,2.032000X1.727200*%
%ADD18R,2.032000X2.032000*%
%ADD19O,2.032000X2.032000*%
%ADD20C,0.400000*%
%ADD21C,0.250000*%
%ADD22C,0.254000*%
G04 APERTURE END LIST*
D10*
D11*
X131572000Y-124466000D03*
D12*
X151572000Y-124466000D03*
D13*
X151572000Y-122166000D03*
X131572000Y-122166000D03*
X132572000Y-122166000D03*
X133572000Y-122166000D03*
X134572000Y-122166000D03*
X135572000Y-122166000D03*
X136572000Y-122166000D03*
X137572000Y-122166000D03*
X138572000Y-122166000D03*
X139572000Y-122166000D03*
X140572000Y-122166000D03*
X141572000Y-122166000D03*
X146572000Y-122166000D03*
X147572000Y-122166000D03*
X148572000Y-122166000D03*
X149572000Y-122166000D03*
X150572000Y-122166000D03*
X144572000Y-122166000D03*
X145572000Y-122166000D03*
D12*
X134572000Y-124466000D03*
X135572000Y-124466000D03*
X136572000Y-124466000D03*
X137572000Y-124466000D03*
X138572000Y-124466000D03*
X139572000Y-124466000D03*
X140572000Y-124466000D03*
X146572000Y-124466000D03*
X147572000Y-124466000D03*
X133572000Y-124466000D03*
X145572000Y-124466000D03*
X148572000Y-124466000D03*
X141572000Y-124466000D03*
X144572000Y-124466000D03*
X149572000Y-124466000D03*
X150572000Y-124466000D03*
X132572000Y-124466000D03*
D13*
X152572000Y-122166000D03*
X153572000Y-122166000D03*
X154572000Y-122166000D03*
X155572000Y-122166000D03*
X156572000Y-122166000D03*
X157572000Y-122166000D03*
X158572000Y-122166000D03*
X159572000Y-122166000D03*
X160572000Y-122166000D03*
X161572000Y-122166000D03*
X162572000Y-122166000D03*
X163572000Y-122166000D03*
X164572000Y-122166000D03*
D12*
X152572000Y-124466000D03*
X153572000Y-124466000D03*
X154572000Y-124466000D03*
X155572000Y-124466000D03*
X156572000Y-124466000D03*
X157572000Y-124466000D03*
X158572000Y-124466000D03*
X159572000Y-124466000D03*
X160572000Y-124466000D03*
X161572000Y-124466000D03*
X162572000Y-124466000D03*
X163572000Y-124466000D03*
X164572000Y-124466000D03*
D14*
X137160000Y-63500000D03*
X137160000Y-68380000D03*
D15*
X208280000Y-58928000D03*
X83820000Y-112268000D03*
X208280000Y-109728000D03*
X83820000Y-58928000D03*
D16*
X203200000Y-78740000D03*
D17*
X203200000Y-81280000D03*
X203200000Y-83820000D03*
X203200000Y-86360000D03*
D18*
X198120000Y-60960000D03*
D19*
X200660000Y-60960000D03*
D16*
X194000000Y-98500000D03*
D17*
X194000000Y-101040000D03*
X194000000Y-103580000D03*
D18*
X127000000Y-60960000D03*
D19*
X124460000Y-60960000D03*
D18*
X127000000Y-68580000D03*
D19*
X124460000Y-68580000D03*
D20*
X121380000Y-77505600D03*
X157210000Y-111286000D03*
X114998000Y-86795000D03*
X153317000Y-119463000D03*
X149687000Y-119443000D03*
X150023000Y-118085000D03*
X157269000Y-119463000D03*
X113378000Y-72867900D03*
X122395000Y-87640700D03*
X120656000Y-91980000D03*
X188502000Y-102804000D03*
X153064000Y-111341000D03*
X138159000Y-108395000D03*
X145741000Y-108329000D03*
X135440000Y-89270000D03*
X115203000Y-95980000D03*
X155847000Y-104687000D03*
X93867700Y-73660000D03*
X101449000Y-78636400D03*
X105852000Y-94855100D03*
X118744000Y-108758000D03*
X143531000Y-107878000D03*
X106210000Y-95391300D03*
X127044000Y-113211000D03*
X149146000Y-115227000D03*
X106825000Y-83847600D03*
X121538000Y-105309000D03*
X148588000Y-105767000D03*
X99222500Y-82659800D03*
X99685800Y-113486000D03*
X148728000Y-114796000D03*
X151104000Y-118905000D03*
X95276000Y-82900000D03*
X101979000Y-111800000D03*
X146179000Y-111772000D03*
X110716000Y-81200000D03*
X109352000Y-78041900D03*
X106074000Y-76792900D03*
X111432000Y-99660800D03*
X133382000Y-98334400D03*
X132767000Y-118341000D03*
X132024000Y-119084000D03*
X107114000Y-80040800D03*
X103816000Y-87750300D03*
X107148000Y-87750300D03*
X130432000Y-114915000D03*
X138116000Y-118531000D03*
X106729000Y-82362700D03*
X162919000Y-119084000D03*
X162908000Y-114665000D03*
X126003000Y-111408000D03*
X184578000Y-87737700D03*
X162313000Y-116284000D03*
X100440000Y-95442300D03*
X108910000Y-113167000D03*
X183915000Y-88344900D03*
X155410000Y-84190800D03*
X145531000Y-77208600D03*
X116253000Y-76503900D03*
X110176000Y-85269100D03*
X100672000Y-84583900D03*
X100124000Y-94480700D03*
X180395000Y-89119400D03*
X144376000Y-84740300D03*
X142204000Y-115600000D03*
X110919000Y-114312000D03*
X101617000Y-95247800D03*
X158037000Y-87098500D03*
X101829000Y-97761900D03*
X101434000Y-104472000D03*
X143177000Y-111247000D03*
X144376000Y-87275500D03*
X156873000Y-88353700D03*
X151261000Y-88384800D03*
X146210000Y-109071000D03*
X107275000Y-109320000D03*
X101828000Y-98761000D03*
X152896000Y-89554700D03*
X103330000Y-97794000D03*
X104424000Y-103861000D03*
X140578000Y-104807000D03*
X141679000Y-89905000D03*
X166822000Y-90540000D03*
X164490000Y-90780600D03*
X150389000Y-91175000D03*
X132032000Y-90624700D03*
X129786000Y-88592300D03*
X118864000Y-88592300D03*
X108726000Y-88649000D03*
X102188000Y-88649000D03*
X104469000Y-95419800D03*
X150637000Y-92373200D03*
X149181000Y-117868000D03*
X150038000Y-106352000D03*
X120318000Y-106841000D03*
X109690000Y-101898000D03*
X112910000Y-97741900D03*
X106247000Y-86324400D03*
X144486000Y-91725300D03*
X143997000Y-115848000D03*
X108366000Y-87097500D03*
X117965000Y-89607900D03*
X149052000Y-90540000D03*
X145619000Y-118847000D03*
X98048900Y-85900000D03*
X101651000Y-84372900D03*
X132918000Y-82546800D03*
X131883000Y-86095000D03*
X148104000Y-86730000D03*
X145500000Y-118213000D03*
X140763000Y-118990000D03*
X140560000Y-88932000D03*
X140254000Y-108095000D03*
X107908000Y-109203000D03*
X95275800Y-86434700D03*
X141026000Y-115909000D03*
X141774000Y-93715000D03*
X116814000Y-115039000D03*
X97979700Y-86921600D03*
X156325000Y-92445000D03*
X136671000Y-91981700D03*
X133770000Y-116188000D03*
X133849000Y-92201600D03*
X133729000Y-102195000D03*
X121071000Y-102286000D03*
X107410000Y-86014900D03*
X97860700Y-87900000D03*
X114226000Y-116067000D03*
X108742000Y-89354100D03*
X132737000Y-119451000D03*
X136900000Y-93836400D03*
X159581000Y-105775000D03*
X165015000Y-93715000D03*
X137121000Y-100473000D03*
X159581000Y-101114000D03*
X118158000Y-101390000D03*
X108462000Y-91623900D03*
X104739000Y-90659100D03*
X105599000Y-82374600D03*
X118712000Y-86586000D03*
X120901000Y-84396800D03*
X146157000Y-85869400D03*
X154090000Y-119236000D03*
X101472000Y-94625300D03*
X106018000Y-110714000D03*
X152477000Y-117895000D03*
X149794000Y-110121000D03*
X113629000Y-87400000D03*
X113243000Y-84937200D03*
X118356000Y-84456700D03*
X158289000Y-118997000D03*
X102797000Y-82761500D03*
X127689000Y-113669000D03*
X147084000Y-82285000D03*
X143914000Y-107396000D03*
X146652000Y-107728000D03*
X148436000Y-118996000D03*
X147110000Y-109590000D03*
X101161000Y-94055700D03*
X107186000Y-110184000D03*
X146710000Y-80886100D03*
X144338000Y-104314000D03*
X117635000Y-104061000D03*
X109541000Y-95433200D03*
X145211000Y-104926000D03*
X145429000Y-119453000D03*
X123474000Y-94204400D03*
X133240000Y-81590500D03*
X131815000Y-104428000D03*
X141629000Y-104401000D03*
X141693000Y-117888000D03*
X123144000Y-93648500D03*
X133880000Y-78628700D03*
X138772000Y-80783700D03*
X140038000Y-118260000D03*
X137790000Y-81053500D03*
X150049000Y-80858100D03*
X137743000Y-103243000D03*
X118942000Y-103421000D03*
X110447000Y-94124400D03*
X138172000Y-105213000D03*
X136547000Y-105227000D03*
X137170000Y-116951000D03*
X120705000Y-93198200D03*
X129692000Y-81019000D03*
X127746000Y-106945000D03*
X123038000Y-107266000D03*
X129133000Y-115441000D03*
X152571000Y-81150300D03*
X134271000Y-81019000D03*
X133666000Y-117689000D03*
X134353000Y-82146300D03*
X125603000Y-83239200D03*
X115600000Y-92918600D03*
X150973000Y-82669400D03*
X150366000Y-82918200D03*
X132108000Y-117773000D03*
X134076000Y-83288700D03*
X103936000Y-82367600D03*
X102735000Y-86774700D03*
X109023000Y-87289300D03*
X122968000Y-83764700D03*
X157399000Y-105695000D03*
X157495000Y-87634300D03*
X178809000Y-98792300D03*
X114374000Y-101326000D03*
X106886000Y-92049500D03*
X117190000Y-102868000D03*
X106988000Y-91400000D03*
X115391000Y-91311700D03*
X113995000Y-90966900D03*
X167133000Y-100062000D03*
X108214000Y-78827500D03*
X147088000Y-96891800D03*
X146166000Y-96255000D03*
X140574000Y-97506100D03*
X140160000Y-106999000D03*
X119206000Y-108212000D03*
X102952000Y-90447500D03*
X110110000Y-99612100D03*
X106660000Y-100308000D03*
X132262000Y-96099800D03*
X130143000Y-104866000D03*
X103059000Y-105200000D03*
X101228000Y-97875000D03*
X104967000Y-89900000D03*
X109133000Y-99064800D03*
X133757000Y-69810800D03*
X126797000Y-105183000D03*
X108749000Y-72867900D03*
X128260000Y-85820000D03*
X116814000Y-74925500D03*
X110270000Y-86965800D03*
X114347000Y-88900000D03*
X123190000Y-81908400D03*
X111434000Y-104386000D03*
X108489000Y-98699600D03*
X111766000Y-105408000D03*
X107993000Y-98134800D03*
X155952000Y-114352000D03*
X155572000Y-117260000D03*
X152055000Y-117260000D03*
X108740000Y-82356100D03*
X109457000Y-84680100D03*
X151635000Y-119442000D03*
X136671000Y-97986400D03*
X136671000Y-101600000D03*
X137123000Y-114850000D03*
X156346000Y-99583600D03*
X147593000Y-117427000D03*
X134059000Y-114237000D03*
X155572000Y-119458000D03*
X138220000Y-97986400D03*
X139321000Y-116867000D03*
X141167000Y-118232000D03*
X106434000Y-67285700D03*
X110663000Y-88400000D03*
X159253000Y-56924000D03*
X159396000Y-117431000D03*
X162794000Y-117431000D03*
X115052000Y-88195700D03*
X125568000Y-77572700D03*
X137538000Y-78401100D03*
X188656000Y-78795000D03*
X188656000Y-76623600D03*
X147368000Y-76740300D03*
X160171000Y-114058000D03*
X104234000Y-111338000D03*
X97597600Y-93400000D03*
X161341000Y-115603000D03*
X106786000Y-112961000D03*
X98573300Y-97768200D03*
X151049000Y-70175300D03*
X114527000Y-83931100D03*
X137669000Y-57917700D03*
X115636000Y-83400000D03*
X126050000Y-57466500D03*
X112997000Y-82818900D03*
X155314000Y-85321800D03*
X138734000Y-81670900D03*
X128786000Y-80310500D03*
X113500000Y-92037900D03*
X142310000Y-101383000D03*
X138185000Y-84773000D03*
X130273300Y-94045100D03*
X128873800Y-98545100D03*
X142337500Y-98334400D03*
D21*
X203200000Y-77551100D02*
X203200000Y-78145500D01*
X200660000Y-75011100D02*
X203200000Y-77551100D01*
X200660000Y-60960000D02*
X200660000Y-75011100D01*
X124460000Y-62301300D02*
X124460000Y-60960000D01*
X124274000Y-62486900D02*
X124460000Y-62301300D01*
X124274000Y-67053100D02*
X124274000Y-62486900D01*
X124460000Y-67238700D02*
X124274000Y-67053100D01*
X124460000Y-68580000D02*
X124460000Y-67238700D01*
X149590000Y-119541000D02*
X149687000Y-119443000D01*
X149572000Y-119541000D02*
X149590000Y-119541000D01*
X149572000Y-122166000D02*
X149572000Y-119541000D01*
X124460000Y-74425600D02*
X121380000Y-77505600D01*
X124460000Y-68580000D02*
X124460000Y-74425600D01*
X116742000Y-72867900D02*
X113378000Y-72867900D01*
X121380000Y-77505600D02*
X116742000Y-72867900D01*
X194000000Y-93724200D02*
X194000000Y-98500000D01*
X202634000Y-85090000D02*
X194000000Y-93724200D01*
X203833000Y-85090000D02*
X202634000Y-85090000D01*
X204594000Y-84328500D02*
X203833000Y-85090000D01*
X204594000Y-79539900D02*
X204594000Y-84328500D01*
X203200000Y-78145500D02*
X204594000Y-79539900D01*
X192659000Y-98647300D02*
X188502000Y-102804000D01*
X192659000Y-98500000D02*
X192659000Y-98647300D01*
X194000000Y-98500000D02*
X192659000Y-98500000D01*
X153394000Y-119541000D02*
X153317000Y-119463000D01*
X153572000Y-119541000D02*
X153394000Y-119541000D01*
X153572000Y-122166000D02*
X153572000Y-119541000D01*
X122395000Y-87873300D02*
X122395000Y-87640700D01*
X121206000Y-89061700D02*
X122395000Y-87873300D01*
X121206000Y-91429200D02*
X121206000Y-89061700D01*
X120656000Y-91980000D02*
X121206000Y-91429200D01*
X115109000Y-86683100D02*
X114998000Y-86795000D01*
X115109000Y-83183300D02*
X115109000Y-86683100D01*
X120787000Y-77505600D02*
X115109000Y-83183300D01*
X121380000Y-77505600D02*
X120787000Y-77505600D01*
X115508000Y-95980000D02*
X115203000Y-95980000D01*
X121596000Y-102068000D02*
X115508000Y-95980000D01*
X121596000Y-102373000D02*
X121596000Y-102068000D01*
X131133000Y-111910000D02*
X121596000Y-102373000D01*
X131133000Y-119101000D02*
X131133000Y-111910000D01*
X131572000Y-119541000D02*
X131133000Y-119101000D01*
X131572000Y-122166000D02*
X131572000Y-119541000D01*
X138159000Y-117808000D02*
X138159000Y-108395000D01*
X139572000Y-119221000D02*
X138159000Y-117808000D01*
X139572000Y-122166000D02*
X139572000Y-119221000D01*
X135485000Y-89315300D02*
X135440000Y-89270000D01*
X135485000Y-115000000D02*
X135485000Y-89315300D01*
X135646000Y-115161000D02*
X135485000Y-115000000D01*
X135646000Y-119466000D02*
X135646000Y-115161000D01*
X135572000Y-119541000D02*
X135646000Y-119466000D01*
X135572000Y-122166000D02*
X135572000Y-119541000D01*
X153481000Y-111757000D02*
X153064000Y-111341000D01*
X153481000Y-119300000D02*
X153481000Y-111757000D01*
X153317000Y-119463000D02*
X153481000Y-119300000D01*
X150023000Y-119108000D02*
X150023000Y-118085000D01*
X149687000Y-119443000D02*
X150023000Y-119108000D01*
X157572000Y-119766000D02*
X157269000Y-119463000D01*
X157572000Y-122166000D02*
X157572000Y-119766000D01*
X157210000Y-119404000D02*
X157269000Y-119463000D01*
X157210000Y-111286000D02*
X157210000Y-119404000D01*
X145654000Y-108416000D02*
X145741000Y-108329000D01*
X145654000Y-112416000D02*
X145654000Y-108416000D01*
X146326000Y-113088000D02*
X145654000Y-112416000D01*
X146326000Y-116690000D02*
X146326000Y-113088000D01*
X146490000Y-116854000D02*
X146326000Y-116690000D01*
X146490000Y-118769000D02*
X146490000Y-116854000D01*
X146066000Y-119193000D02*
X146490000Y-118769000D01*
X146066000Y-119572000D02*
X146066000Y-119193000D01*
X145572000Y-120065000D02*
X146066000Y-119572000D01*
X145572000Y-122166000D02*
X145572000Y-120065000D01*
X203200000Y-78740000D02*
X203200000Y-78145500D01*
X96472400Y-73660000D02*
X93867700Y-73660000D01*
X101449000Y-78636400D02*
X96472400Y-73660000D01*
X106417000Y-94855100D02*
X105852000Y-94855100D01*
X106747000Y-95184300D02*
X106417000Y-94855100D01*
X106747000Y-95680700D02*
X106747000Y-95184300D01*
X105685000Y-96742600D02*
X106747000Y-95680700D01*
X105685000Y-100734000D02*
X105685000Y-96742600D01*
X113708000Y-108758000D02*
X105685000Y-100734000D01*
X118744000Y-108758000D02*
X113708000Y-108758000D01*
X143826000Y-108173000D02*
X143531000Y-107878000D01*
X143826000Y-114933000D02*
X143826000Y-108173000D01*
X144524000Y-115632000D02*
X143826000Y-114933000D01*
X144524000Y-119493000D02*
X144524000Y-115632000D01*
X144572000Y-119541000D02*
X144524000Y-119493000D01*
X144572000Y-122166000D02*
X144572000Y-119541000D01*
X150572000Y-116653000D02*
X150572000Y-122166000D01*
X149146000Y-115227000D02*
X150572000Y-116653000D01*
X117519000Y-113211000D02*
X127044000Y-113211000D01*
X105234000Y-100926000D02*
X117519000Y-113211000D01*
X105234000Y-96367400D02*
X105234000Y-100926000D01*
X106210000Y-95391300D02*
X105234000Y-96367400D01*
X106825000Y-86489700D02*
X106825000Y-83847600D01*
X106622000Y-86692200D02*
X106825000Y-86489700D01*
X106622000Y-88614700D02*
X106622000Y-86692200D01*
X106907000Y-88899000D02*
X106622000Y-88614700D01*
X106907000Y-89535900D02*
X106907000Y-88899000D01*
X108469000Y-91098500D02*
X106907000Y-89535900D01*
X108681000Y-91098500D02*
X108469000Y-91098500D01*
X109235000Y-91651900D02*
X108681000Y-91098500D01*
X109354000Y-91651900D02*
X109235000Y-91651900D01*
X113409000Y-95707000D02*
X109354000Y-91651900D01*
X113409000Y-96224400D02*
X113409000Y-95707000D01*
X117028000Y-99842600D02*
X113409000Y-96224400D01*
X117354000Y-99842600D02*
X117028000Y-99842600D01*
X120095000Y-102584000D02*
X117354000Y-99842600D01*
X120095000Y-103866000D02*
X120095000Y-102584000D01*
X121538000Y-105309000D02*
X120095000Y-103866000D01*
X148572000Y-119541000D02*
X148572000Y-122166000D01*
X148652000Y-119541000D02*
X148572000Y-119541000D01*
X149017000Y-119176000D02*
X148652000Y-119541000D01*
X149017000Y-118532000D02*
X149017000Y-119176000D01*
X148603000Y-118117000D02*
X149017000Y-118532000D01*
X148603000Y-117056000D02*
X148603000Y-118117000D01*
X147752000Y-116206000D02*
X148603000Y-117056000D01*
X147752000Y-106603000D02*
X147752000Y-116206000D01*
X148588000Y-105767000D02*
X147752000Y-106603000D01*
X151104000Y-116334000D02*
X151104000Y-118905000D01*
X149384000Y-114614000D02*
X151104000Y-116334000D01*
X148909000Y-114614000D02*
X149384000Y-114614000D01*
X148728000Y-114796000D02*
X148909000Y-114614000D01*
X93820200Y-107620000D02*
X99685800Y-113486000D01*
X93820200Y-83582900D02*
X93820200Y-107620000D01*
X98404700Y-78998400D02*
X93820200Y-83582900D01*
X99681300Y-78998400D02*
X98404700Y-78998400D01*
X100282000Y-79598700D02*
X99681300Y-78998400D01*
X100282000Y-81600700D02*
X100282000Y-79598700D01*
X99222500Y-82659800D02*
X100282000Y-81600700D01*
X94270500Y-104091000D02*
X101979000Y-111800000D01*
X94270500Y-83905500D02*
X94270500Y-104091000D01*
X95276000Y-82900000D02*
X94270500Y-83905500D01*
X146776000Y-112369000D02*
X146179000Y-111772000D01*
X146776000Y-116503000D02*
X146776000Y-112369000D01*
X146940000Y-116668000D02*
X146776000Y-116503000D01*
X146940000Y-119172000D02*
X146940000Y-116668000D01*
X146572000Y-119541000D02*
X146940000Y-119172000D01*
X146572000Y-122166000D02*
X146572000Y-119541000D01*
X132572000Y-120029000D02*
X132572000Y-122166000D01*
X132024000Y-119481000D02*
X132572000Y-120029000D01*
X132024000Y-119084000D02*
X132024000Y-119481000D01*
X109352000Y-79835900D02*
X110716000Y-81200000D01*
X109352000Y-78041900D02*
X109352000Y-79835900D01*
X132670000Y-118244000D02*
X132767000Y-118341000D01*
X132670000Y-106541000D02*
X132670000Y-118244000D01*
X133316000Y-105896000D02*
X132670000Y-106541000D01*
X133316000Y-102675000D02*
X133316000Y-105896000D01*
X133117000Y-102476000D02*
X133316000Y-102675000D01*
X133117000Y-102041000D02*
X133117000Y-102476000D01*
X133382000Y-101775000D02*
X133117000Y-102041000D01*
X133382000Y-98334400D02*
X133382000Y-101775000D01*
X111432000Y-99554600D02*
X111432000Y-99660800D01*
X110583000Y-98705900D02*
X111432000Y-99554600D01*
X110583000Y-98493700D02*
X110583000Y-98705900D01*
X108098000Y-96007800D02*
X110583000Y-98493700D01*
X108098000Y-94624500D02*
X108098000Y-96007800D01*
X106498000Y-93025100D02*
X108098000Y-94624500D01*
X106482000Y-93025100D02*
X106498000Y-93025100D01*
X105911000Y-92453700D02*
X106482000Y-93025100D01*
X105911000Y-90450800D02*
X105911000Y-92453700D01*
X105556000Y-90095700D02*
X105911000Y-90450800D01*
X105556000Y-89474500D02*
X105556000Y-90095700D01*
X105271000Y-89190200D02*
X105556000Y-89474500D01*
X105271000Y-83732100D02*
X105271000Y-89190200D01*
X106181000Y-82822700D02*
X105271000Y-83732100D01*
X106181000Y-82079700D02*
X106181000Y-82822700D01*
X107643000Y-80617300D02*
X106181000Y-82079700D01*
X107643000Y-79827200D02*
X107643000Y-80617300D01*
X106074000Y-78258000D02*
X107643000Y-79827200D01*
X106074000Y-76792900D02*
X106074000Y-78258000D01*
X138572000Y-118987000D02*
X138116000Y-118531000D01*
X138572000Y-122166000D02*
X138572000Y-118987000D01*
X103816000Y-83338700D02*
X107114000Y-80040800D01*
X103816000Y-87750300D02*
X103816000Y-83338700D01*
X130432000Y-112390000D02*
X130432000Y-114915000D01*
X120546000Y-102504000D02*
X130432000Y-112390000D01*
X120546000Y-102398000D02*
X120546000Y-102504000D01*
X117540000Y-99392300D02*
X120546000Y-102398000D01*
X117214000Y-99392300D02*
X117540000Y-99392300D01*
X113860000Y-96037800D02*
X117214000Y-99392300D01*
X113860000Y-95520400D02*
X113860000Y-96037800D01*
X109541000Y-91201600D02*
X113860000Y-95520400D01*
X109421000Y-91201600D02*
X109541000Y-91201600D01*
X108868000Y-90648200D02*
X109421000Y-91201600D01*
X108656000Y-90648200D02*
X108868000Y-90648200D01*
X107357000Y-89349300D02*
X108656000Y-90648200D01*
X107357000Y-88712400D02*
X107357000Y-89349300D01*
X107148000Y-88503200D02*
X107357000Y-88712400D01*
X107148000Y-87750300D02*
X107148000Y-88503200D01*
X162908000Y-116573000D02*
X162908000Y-114665000D01*
X162222000Y-117259000D02*
X162908000Y-116573000D01*
X162222000Y-118388000D02*
X162222000Y-117259000D01*
X162919000Y-119084000D02*
X162222000Y-118388000D01*
X120453000Y-105857000D02*
X126003000Y-111408000D01*
X118109000Y-105857000D02*
X120453000Y-105857000D01*
X112515000Y-100263000D02*
X118109000Y-105857000D01*
X112515000Y-100001000D02*
X112515000Y-100263000D01*
X111034000Y-98519300D02*
X112515000Y-100001000D01*
X111034000Y-98307100D02*
X111034000Y-98519300D01*
X108548000Y-95821200D02*
X111034000Y-98307100D01*
X108548000Y-94437900D02*
X108548000Y-95821200D01*
X106685000Y-92574800D02*
X108548000Y-94437900D01*
X106669000Y-92574800D02*
X106685000Y-92574800D01*
X106361000Y-92267100D02*
X106669000Y-92574800D01*
X106361000Y-90264200D02*
X106361000Y-92267100D01*
X106006000Y-89909100D02*
X106361000Y-90264200D01*
X106006000Y-89287900D02*
X106006000Y-89909100D01*
X105722000Y-89003600D02*
X106006000Y-89287900D01*
X105722000Y-83918700D02*
X105722000Y-89003600D01*
X106729000Y-82911500D02*
X105722000Y-83918700D01*
X106729000Y-82362700D02*
X106729000Y-82911500D01*
X164572000Y-111435000D02*
X164572000Y-114085000D01*
X184578000Y-91429100D02*
X164572000Y-111435000D01*
X184578000Y-87737700D02*
X184578000Y-91429100D01*
X164572000Y-114085000D02*
X164572000Y-122166000D01*
X162321000Y-116276000D02*
X162313000Y-116284000D01*
X162321000Y-114467000D02*
X162321000Y-116276000D01*
X162703000Y-114085000D02*
X162321000Y-114467000D01*
X164572000Y-114085000D02*
X162703000Y-114085000D01*
X107379000Y-111637000D02*
X108910000Y-113167000D01*
X106198000Y-111637000D02*
X107379000Y-111637000D01*
X103986000Y-109425000D02*
X106198000Y-111637000D01*
X103670000Y-109425000D02*
X103986000Y-109425000D01*
X99352000Y-105107000D02*
X103670000Y-109425000D01*
X99352000Y-96530300D02*
X99352000Y-105107000D01*
X100440000Y-95442300D02*
X99352000Y-96530300D01*
X111305000Y-85269100D02*
X110176000Y-85269100D01*
X116253000Y-80321400D02*
X111305000Y-85269100D01*
X116253000Y-76503900D02*
X116253000Y-80321400D01*
X154762000Y-84190800D02*
X155410000Y-84190800D01*
X147837000Y-77265600D02*
X154762000Y-84190800D01*
X145588000Y-77265600D02*
X147837000Y-77265600D01*
X145531000Y-77208600D02*
X145588000Y-77265600D01*
X161870000Y-110390000D02*
X183915000Y-88344900D01*
X161870000Y-115816000D02*
X161870000Y-110390000D01*
X161772000Y-115915000D02*
X161870000Y-115816000D01*
X161772000Y-118741000D02*
X161772000Y-115915000D01*
X162572000Y-119541000D02*
X161772000Y-118741000D01*
X162572000Y-122166000D02*
X162572000Y-119541000D01*
X96331700Y-84583900D02*
X100672000Y-84583900D01*
X94720800Y-86194800D02*
X96331700Y-84583900D01*
X94720800Y-89077300D02*
X94720800Y-86194800D01*
X100124000Y-94480700D02*
X94720800Y-89077300D01*
X160756000Y-108758000D02*
X180395000Y-89119400D01*
X160756000Y-119356000D02*
X160756000Y-108758000D01*
X160572000Y-119541000D02*
X160756000Y-119356000D01*
X160572000Y-122166000D02*
X160572000Y-119541000D01*
X107794000Y-111186000D02*
X110919000Y-114312000D01*
X107234000Y-111186000D02*
X107794000Y-111186000D01*
X104572000Y-108525000D02*
X107234000Y-111186000D01*
X104044000Y-108525000D02*
X104572000Y-108525000D01*
X100253000Y-104734000D02*
X104044000Y-108525000D01*
X100253000Y-97197200D02*
X100253000Y-104734000D01*
X101617000Y-95832400D02*
X100253000Y-97197200D01*
X101617000Y-95247800D02*
X101617000Y-95832400D01*
X142105000Y-115501000D02*
X142204000Y-115600000D01*
X142105000Y-107288000D02*
X142105000Y-115501000D01*
X142206000Y-107186000D02*
X142105000Y-107288000D01*
X142206000Y-102236000D02*
X142206000Y-107186000D01*
X142901000Y-101541000D02*
X142206000Y-102236000D01*
X142901000Y-86215200D02*
X142901000Y-101541000D01*
X144376000Y-84740300D02*
X142901000Y-86215200D01*
X158572000Y-119541000D02*
X158572000Y-122166000D01*
X158090000Y-119541000D02*
X158572000Y-119541000D01*
X157764000Y-119214000D02*
X158090000Y-119541000D01*
X157764000Y-118779000D02*
X157764000Y-119214000D01*
X158037000Y-118506000D02*
X157764000Y-118779000D01*
X158037000Y-87098500D02*
X158037000Y-118506000D01*
X101274000Y-104312000D02*
X101434000Y-104472000D01*
X101274000Y-98572700D02*
X101274000Y-104312000D01*
X101829000Y-98017600D02*
X101274000Y-98572700D01*
X101829000Y-97761900D02*
X101829000Y-98017600D01*
X143005000Y-111075000D02*
X143177000Y-111247000D01*
X143005000Y-107661000D02*
X143005000Y-111075000D01*
X143181000Y-107485000D02*
X143005000Y-107661000D01*
X143181000Y-103171000D02*
X143181000Y-107485000D01*
X143802000Y-102551000D02*
X143181000Y-103171000D01*
X143802000Y-94046300D02*
X143802000Y-102551000D01*
X145065000Y-92782400D02*
X143802000Y-94046300D01*
X145065000Y-90458700D02*
X145065000Y-92782400D01*
X144376000Y-89769100D02*
X145065000Y-90458700D01*
X144376000Y-87275500D02*
X144376000Y-89769100D01*
X156873000Y-105041000D02*
X156873000Y-88353700D01*
X156572000Y-105342000D02*
X156873000Y-105041000D01*
X156572000Y-122166000D02*
X156572000Y-105342000D01*
X101828000Y-103615000D02*
X101828000Y-98761000D01*
X102136000Y-103923000D02*
X101828000Y-103615000D01*
X102136000Y-105053000D02*
X102136000Y-103923000D01*
X104707000Y-107624000D02*
X102136000Y-105053000D01*
X105579000Y-107624000D02*
X104707000Y-107624000D01*
X107275000Y-109320000D02*
X105579000Y-107624000D01*
X146318000Y-108962000D02*
X146210000Y-109071000D01*
X146318000Y-108163000D02*
X146318000Y-108962000D01*
X146087000Y-107932000D02*
X146318000Y-108163000D01*
X146087000Y-107441000D02*
X146087000Y-107932000D01*
X149864000Y-103664000D02*
X146087000Y-107441000D01*
X149864000Y-89781500D02*
X149864000Y-103664000D01*
X151261000Y-88384800D02*
X149864000Y-89781500D01*
X154615000Y-91273800D02*
X152896000Y-89554700D01*
X154615000Y-119498000D02*
X154615000Y-91273800D01*
X154572000Y-119541000D02*
X154615000Y-119498000D01*
X154572000Y-122166000D02*
X154572000Y-119541000D01*
X140578000Y-98846100D02*
X140578000Y-104807000D01*
X141100000Y-98324400D02*
X140578000Y-98846100D01*
X141100000Y-90484400D02*
X141100000Y-98324400D01*
X141679000Y-89905000D02*
X141100000Y-90484400D01*
X104424000Y-103534000D02*
X104424000Y-103861000D01*
X103330000Y-102440000D02*
X104424000Y-103534000D01*
X103330000Y-97794000D02*
X103330000Y-102440000D01*
X164731000Y-90540000D02*
X164490000Y-90780600D01*
X166822000Y-90540000D02*
X164731000Y-90540000D01*
X132032000Y-90624600D02*
X132032000Y-90624700D01*
X131818000Y-90624600D02*
X132032000Y-90624600D01*
X129786000Y-88592300D02*
X131818000Y-90624600D01*
X118864000Y-89459200D02*
X118864000Y-88592300D01*
X117897000Y-90426300D02*
X118864000Y-89459200D01*
X111405000Y-90426300D02*
X117897000Y-90426300D01*
X110830000Y-89850700D02*
X111405000Y-90426300D01*
X109981000Y-89850700D02*
X110830000Y-89850700D01*
X108780000Y-88649000D02*
X109981000Y-89850700D01*
X108726000Y-88649000D02*
X108780000Y-88649000D01*
X151163000Y-91948200D02*
X150389000Y-91175000D01*
X151163000Y-114955000D02*
X151163000Y-91948200D01*
X153031000Y-116823000D02*
X151163000Y-114955000D01*
X153031000Y-118228000D02*
X153031000Y-116823000D01*
X152572000Y-118687000D02*
X153031000Y-118228000D01*
X152572000Y-122166000D02*
X152572000Y-118687000D01*
X102188000Y-90916500D02*
X102188000Y-88649000D01*
X104469000Y-93197800D02*
X102188000Y-90916500D01*
X104469000Y-95419800D02*
X104469000Y-93197800D01*
X150637000Y-105753000D02*
X150038000Y-106352000D01*
X150637000Y-92373200D02*
X150637000Y-105753000D01*
X149181000Y-116005000D02*
X149181000Y-117868000D01*
X148202000Y-115026000D02*
X149181000Y-116005000D01*
X148202000Y-108188000D02*
X148202000Y-115026000D01*
X150038000Y-106352000D02*
X148202000Y-108188000D01*
X114632000Y-106841000D02*
X109690000Y-101898000D01*
X120318000Y-106841000D02*
X114632000Y-106841000D01*
X112910000Y-97635700D02*
X112910000Y-97741900D01*
X112058000Y-96784200D02*
X112910000Y-97635700D01*
X112058000Y-96479100D02*
X112058000Y-96784200D01*
X109921000Y-94342000D02*
X112058000Y-96479100D01*
X109921000Y-93900600D02*
X109921000Y-94342000D01*
X107862000Y-91841400D02*
X109921000Y-93900600D01*
X107862000Y-91128300D02*
X107862000Y-91841400D01*
X106456000Y-89722500D02*
X107862000Y-91128300D01*
X106456000Y-89101300D02*
X106456000Y-89722500D01*
X106172000Y-88817000D02*
X106456000Y-89101300D01*
X106172000Y-86399500D02*
X106172000Y-88817000D01*
X106247000Y-86324400D02*
X106172000Y-86399500D01*
X142555000Y-114406000D02*
X143997000Y-115848000D01*
X142555000Y-107474000D02*
X142555000Y-114406000D01*
X142656000Y-107373000D02*
X142555000Y-107474000D01*
X142656000Y-103060000D02*
X142656000Y-107373000D01*
X143351000Y-102365000D02*
X142656000Y-103060000D01*
X143351000Y-92860300D02*
X143351000Y-102365000D01*
X144486000Y-91725300D02*
X143351000Y-92860300D01*
X108366000Y-87518900D02*
X108366000Y-87097500D01*
X110247000Y-89400400D02*
X108366000Y-87518900D01*
X111203000Y-89400400D02*
X110247000Y-89400400D01*
X111748000Y-89945600D02*
X111203000Y-89400400D01*
X117628000Y-89945600D02*
X111748000Y-89945600D01*
X117965000Y-89607900D02*
X117628000Y-89945600D01*
X149052000Y-103839000D02*
X149052000Y-90540000D01*
X145390000Y-107501000D02*
X149052000Y-103839000D01*
X145390000Y-107937000D02*
X145390000Y-107501000D01*
X145204000Y-108123000D02*
X145390000Y-107937000D01*
X145204000Y-114346000D02*
X145204000Y-108123000D01*
X145875000Y-115018000D02*
X145204000Y-114346000D01*
X145875000Y-116877000D02*
X145875000Y-115018000D01*
X146040000Y-117041000D02*
X145875000Y-116877000D01*
X146040000Y-118427000D02*
X146040000Y-117041000D01*
X145619000Y-118847000D02*
X146040000Y-118427000D01*
X132918000Y-82557800D02*
X132918000Y-82546800D01*
X131883000Y-83593100D02*
X132918000Y-82557800D01*
X131883000Y-86095000D02*
X131883000Y-83593100D01*
X100124000Y-85900000D02*
X101651000Y-84372900D01*
X98048900Y-85900000D02*
X100124000Y-85900000D01*
X148104000Y-104150000D02*
X148104000Y-86730000D01*
X144940000Y-107314000D02*
X148104000Y-104150000D01*
X144940000Y-107750000D02*
X144940000Y-107314000D01*
X144753000Y-107936000D02*
X144940000Y-107750000D01*
X144753000Y-114587000D02*
X144753000Y-107936000D01*
X145425000Y-115259000D02*
X144753000Y-114587000D01*
X145425000Y-118138000D02*
X145425000Y-115259000D01*
X145500000Y-118213000D02*
X145425000Y-118138000D01*
X140500000Y-108342000D02*
X140254000Y-108095000D01*
X140500000Y-117632000D02*
X140500000Y-108342000D01*
X140642000Y-117774000D02*
X140500000Y-117632000D01*
X140642000Y-118869000D02*
X140642000Y-117774000D01*
X140763000Y-118990000D02*
X140642000Y-118869000D01*
X139602000Y-89889900D02*
X140560000Y-88932000D01*
X139602000Y-107185000D02*
X139602000Y-89889900D01*
X140254000Y-107836000D02*
X139602000Y-107185000D01*
X140254000Y-108095000D02*
X140254000Y-107836000D01*
X95275800Y-86894600D02*
X95275800Y-86434700D01*
X102593000Y-94211900D02*
X95275800Y-86894600D01*
X102593000Y-97146300D02*
X102593000Y-94211900D01*
X102804000Y-97357500D02*
X102593000Y-97146300D01*
X102804000Y-102551000D02*
X102804000Y-97357500D01*
X103211000Y-102958000D02*
X102804000Y-102551000D01*
X103211000Y-104506000D02*
X103211000Y-102958000D01*
X107908000Y-109203000D02*
X103211000Y-104506000D01*
X141103000Y-115832000D02*
X141026000Y-115909000D01*
X141103000Y-101462000D02*
X141103000Y-115832000D01*
X141774000Y-100791000D02*
X141103000Y-101462000D01*
X141774000Y-93715000D02*
X141774000Y-100791000D01*
X100330000Y-89272400D02*
X97979700Y-86921600D01*
X100330000Y-90369700D02*
X100330000Y-89272400D01*
X103494000Y-93532900D02*
X100330000Y-90369700D01*
X103494000Y-96274400D02*
X103494000Y-93532900D01*
X104334000Y-97114400D02*
X103494000Y-96274400D01*
X104334000Y-101533000D02*
X104334000Y-97114400D01*
X116814000Y-114014000D02*
X104334000Y-101533000D01*
X116814000Y-115039000D02*
X116814000Y-114014000D01*
X156325000Y-85496000D02*
X156325000Y-92445000D01*
X155545000Y-84716100D02*
X156325000Y-85496000D01*
X154650000Y-84716100D02*
X155545000Y-84716100D01*
X149338000Y-79404000D02*
X154650000Y-84716100D01*
X138694000Y-79404000D02*
X149338000Y-79404000D01*
X136671000Y-81427400D02*
X138694000Y-79404000D01*
X136671000Y-91981700D02*
X136671000Y-81427400D01*
X107708000Y-86312700D02*
X107410000Y-86014900D01*
X107708000Y-88426200D02*
X107708000Y-86312700D01*
X107941000Y-88659900D02*
X107708000Y-88426200D01*
X107941000Y-89296800D02*
X107941000Y-88659900D01*
X108842000Y-90197900D02*
X107941000Y-89296800D01*
X109055000Y-90197900D02*
X108842000Y-90197900D01*
X109608000Y-90751300D02*
X109055000Y-90197900D01*
X109727000Y-90751300D02*
X109608000Y-90751300D01*
X114310000Y-95333800D02*
X109727000Y-90751300D01*
X114310000Y-95851200D02*
X114310000Y-95333800D01*
X117401000Y-98942000D02*
X114310000Y-95851200D01*
X117727000Y-98942000D02*
X117401000Y-98942000D01*
X121071000Y-102286000D02*
X117727000Y-98942000D01*
X133918000Y-102114000D02*
X133810000Y-102222000D01*
X133918000Y-92270600D02*
X133918000Y-102114000D01*
X133849000Y-92201600D02*
X133918000Y-92270600D01*
X133756000Y-102222000D02*
X133729000Y-102195000D01*
X133810000Y-102222000D02*
X133756000Y-102222000D01*
X133488000Y-115906000D02*
X133770000Y-116188000D01*
X133488000Y-113428000D02*
X133488000Y-115906000D01*
X133810000Y-113106000D02*
X133488000Y-113428000D01*
X133810000Y-102222000D02*
X133810000Y-113106000D01*
X97860700Y-88842500D02*
X97860700Y-87900000D01*
X103043000Y-94025200D02*
X97860700Y-88842500D01*
X103043000Y-96461000D02*
X103043000Y-94025200D01*
X103883000Y-97301000D02*
X103043000Y-96461000D01*
X103883000Y-102356000D02*
X103883000Y-97301000D01*
X114226000Y-112699000D02*
X103883000Y-102356000D01*
X114226000Y-116067000D02*
X114226000Y-112699000D01*
X108848000Y-89354100D02*
X108742000Y-89354100D01*
X109795000Y-90301000D02*
X108848000Y-89354100D01*
X110466000Y-90301000D02*
X109795000Y-90301000D01*
X122047000Y-101882000D02*
X110466000Y-90301000D01*
X122047000Y-102032000D02*
X122047000Y-101882000D01*
X131583000Y-111568000D02*
X122047000Y-102032000D01*
X131583000Y-118001000D02*
X131583000Y-111568000D01*
X131886000Y-118304000D02*
X131583000Y-118001000D01*
X131988000Y-118304000D02*
X131886000Y-118304000D01*
X132737000Y-119054000D02*
X131988000Y-118304000D01*
X132737000Y-119451000D02*
X132737000Y-119054000D01*
X159581000Y-99148500D02*
X159581000Y-101114000D01*
X165015000Y-93715000D02*
X159581000Y-99148500D01*
X159581000Y-101114000D02*
X159581000Y-105775000D01*
X137196000Y-94132800D02*
X136900000Y-93836400D01*
X137196000Y-100398000D02*
X137196000Y-94132800D01*
X137121000Y-100473000D02*
X137196000Y-100398000D01*
X104401000Y-90321000D02*
X104739000Y-90659100D01*
X104401000Y-83573000D02*
X104401000Y-90321000D01*
X105599000Y-82374600D02*
X104401000Y-83573000D01*
X117061000Y-100293000D02*
X118158000Y-101390000D01*
X116841000Y-100293000D02*
X117061000Y-100293000D01*
X112959000Y-96411000D02*
X116841000Y-100293000D01*
X112959000Y-95893600D02*
X112959000Y-96411000D01*
X109168000Y-92102200D02*
X112959000Y-95893600D01*
X108941000Y-92102200D02*
X109168000Y-92102200D01*
X108462000Y-91623900D02*
X108941000Y-92102200D01*
X137196000Y-100548000D02*
X137121000Y-100473000D01*
X137196000Y-104497000D02*
X137196000Y-100548000D01*
X137647000Y-104947000D02*
X137196000Y-104497000D01*
X137647000Y-107140000D02*
X137647000Y-104947000D01*
X138684000Y-108178000D02*
X137647000Y-107140000D01*
X138684000Y-117683000D02*
X138684000Y-108178000D01*
X140542000Y-119541000D02*
X138684000Y-117683000D01*
X140572000Y-119541000D02*
X140542000Y-119541000D01*
X140572000Y-122166000D02*
X140572000Y-119541000D01*
X120901000Y-84396800D02*
X118712000Y-86586000D01*
X149534000Y-85869400D02*
X146157000Y-85869400D01*
X151786000Y-88121100D02*
X149534000Y-85869400D01*
X151786000Y-92571500D02*
X151786000Y-88121100D01*
X154090000Y-94875400D02*
X151786000Y-92571500D01*
X154090000Y-119236000D02*
X154090000Y-94875400D01*
X104279000Y-108975000D02*
X106018000Y-110714000D01*
X103857000Y-108975000D02*
X104279000Y-108975000D01*
X99802300Y-104920000D02*
X103857000Y-108975000D01*
X99802300Y-96931400D02*
X99802300Y-104920000D01*
X100998000Y-95736200D02*
X99802300Y-96931400D01*
X100998000Y-95099400D02*
X100998000Y-95736200D01*
X101472000Y-94625300D02*
X100998000Y-95099400D01*
X149794000Y-114223000D02*
X149794000Y-110121000D01*
X152580000Y-117010000D02*
X149794000Y-114223000D01*
X152580000Y-117792000D02*
X152580000Y-117010000D01*
X152477000Y-117895000D02*
X152580000Y-117792000D01*
X113243000Y-87014000D02*
X113629000Y-87400000D01*
X113243000Y-84937200D02*
X113243000Y-87014000D01*
X158572000Y-118713000D02*
X158289000Y-118997000D01*
X158572000Y-86396200D02*
X158572000Y-118713000D01*
X139465000Y-67289300D02*
X158572000Y-86396200D01*
X135108000Y-67289300D02*
X139465000Y-67289300D01*
X118356000Y-84041500D02*
X135108000Y-67289300D01*
X118356000Y-84456700D02*
X118356000Y-84041500D01*
X102210000Y-83348900D02*
X102797000Y-82761500D01*
X102210000Y-86610800D02*
X102210000Y-83348900D01*
X101596000Y-87223900D02*
X102210000Y-86610800D01*
X101596000Y-90998700D02*
X101596000Y-87223900D01*
X103944000Y-93346300D02*
X101596000Y-90998700D01*
X103944000Y-96087800D02*
X103944000Y-93346300D01*
X104784000Y-96927800D02*
X103944000Y-96087800D01*
X104784000Y-101186000D02*
X104784000Y-96927800D01*
X117376000Y-113777000D02*
X104784000Y-101186000D01*
X127580000Y-113777000D02*
X117376000Y-113777000D01*
X127689000Y-113669000D02*
X127580000Y-113777000D01*
X143914000Y-105481000D02*
X143914000Y-107396000D01*
X145572000Y-103822000D02*
X143914000Y-105481000D01*
X145572000Y-93774600D02*
X145572000Y-103822000D01*
X145966000Y-93380600D02*
X145572000Y-93774600D01*
X145966000Y-89860200D02*
X145966000Y-93380600D01*
X145572000Y-89466200D02*
X145966000Y-89860200D01*
X145572000Y-83797200D02*
X145572000Y-89466200D01*
X147084000Y-82285000D02*
X145572000Y-83797200D01*
X147226000Y-109706000D02*
X147110000Y-109590000D01*
X147226000Y-116317000D02*
X147226000Y-109706000D01*
X148127000Y-117218000D02*
X147226000Y-116317000D01*
X148127000Y-118687000D02*
X148127000Y-117218000D01*
X148436000Y-118996000D02*
X148127000Y-118687000D01*
X147110000Y-108186000D02*
X146652000Y-107728000D01*
X147110000Y-109590000D02*
X147110000Y-108186000D01*
X105077000Y-108074000D02*
X107186000Y-110184000D01*
X104230000Y-108074000D02*
X105077000Y-108074000D01*
X100703000Y-104547000D02*
X104230000Y-108074000D01*
X100703000Y-97383900D02*
X100703000Y-104547000D01*
X102143000Y-95944000D02*
X100703000Y-97383900D01*
X102143000Y-94488200D02*
X102143000Y-95944000D01*
X101710000Y-94055700D02*
X102143000Y-94488200D01*
X101161000Y-94055700D02*
X101710000Y-94055700D01*
X144338000Y-94372200D02*
X144338000Y-104314000D01*
X145516000Y-93194000D02*
X144338000Y-94372200D01*
X145516000Y-90046800D02*
X145516000Y-93194000D01*
X145122000Y-89652800D02*
X145516000Y-90046800D01*
X145122000Y-82474600D02*
X145122000Y-89652800D01*
X146710000Y-80886100D02*
X145122000Y-82474600D01*
X109541000Y-95540600D02*
X109541000Y-95433200D01*
X111934000Y-97933900D02*
X109541000Y-95540600D01*
X111934000Y-98146100D02*
X111934000Y-97933900D01*
X112506000Y-98717500D02*
X111934000Y-98146100D01*
X112626000Y-98717500D02*
X112506000Y-98717500D01*
X115364000Y-101456000D02*
X112626000Y-98717500D01*
X115364000Y-101790000D02*
X115364000Y-101456000D01*
X117635000Y-104061000D02*
X115364000Y-101790000D01*
X144489000Y-105648000D02*
X145211000Y-104926000D01*
X144489000Y-107564000D02*
X144489000Y-105648000D01*
X144303000Y-107750000D02*
X144489000Y-107564000D01*
X144303000Y-114774000D02*
X144303000Y-107750000D01*
X144975000Y-115445000D02*
X144303000Y-114774000D01*
X144975000Y-118998000D02*
X144975000Y-115445000D01*
X145429000Y-119453000D02*
X144975000Y-118998000D01*
X123670000Y-94008800D02*
X123474000Y-94204400D01*
X123670000Y-91160900D02*
X123670000Y-94008800D01*
X132393000Y-82437300D02*
X123670000Y-91160900D01*
X132393000Y-82329200D02*
X132393000Y-82437300D01*
X133132000Y-81590500D02*
X132393000Y-82329200D01*
X133240000Y-81590500D02*
X133132000Y-81590500D01*
X123474000Y-96087300D02*
X131815000Y-104428000D01*
X123474000Y-94204400D02*
X123474000Y-96087300D01*
X141629000Y-117824000D02*
X141693000Y-117888000D01*
X141629000Y-104401000D02*
X141629000Y-117824000D01*
X123144000Y-89625500D02*
X123144000Y-93648500D01*
X133880000Y-78889200D02*
X123144000Y-89625500D01*
X133880000Y-78628700D02*
X133880000Y-78889200D01*
X138316000Y-81240100D02*
X138772000Y-80783700D01*
X138316000Y-81346300D02*
X138316000Y-81240100D01*
X137639000Y-82023100D02*
X138316000Y-81346300D01*
X137639000Y-84970200D02*
X137639000Y-82023100D01*
X139148000Y-86479100D02*
X137639000Y-84970200D01*
X139148000Y-107367000D02*
X139148000Y-86479100D01*
X139602000Y-107822000D02*
X139148000Y-107367000D01*
X139602000Y-108268000D02*
X139602000Y-107822000D01*
X140038000Y-108704000D02*
X139602000Y-108268000D01*
X140038000Y-118260000D02*
X140038000Y-108704000D01*
X149062000Y-79870800D02*
X150049000Y-80858100D01*
X138942000Y-79870800D02*
X149062000Y-79870800D01*
X137790000Y-81022400D02*
X138942000Y-79870800D01*
X137790000Y-81053500D02*
X137790000Y-81022400D01*
X138172000Y-103673000D02*
X137743000Y-103243000D01*
X138172000Y-105213000D02*
X138172000Y-103673000D01*
X118942000Y-102917000D02*
X118942000Y-103421000D01*
X117632000Y-101607000D02*
X118942000Y-102917000D01*
X117518000Y-101607000D02*
X117632000Y-101607000D01*
X112509000Y-96597600D02*
X117518000Y-101607000D01*
X112509000Y-96186500D02*
X112509000Y-96597600D01*
X110447000Y-94124400D02*
X112509000Y-96186500D01*
X137695000Y-103195000D02*
X137743000Y-103243000D01*
X137695000Y-85720000D02*
X137695000Y-103195000D01*
X137187000Y-85212100D02*
X137695000Y-85720000D01*
X137187000Y-81656800D02*
X137187000Y-85212100D01*
X137790000Y-81053500D02*
X137187000Y-81656800D01*
X136547000Y-116328000D02*
X136547000Y-105227000D01*
X137170000Y-116951000D02*
X136547000Y-116328000D01*
X120705000Y-93198200D02*
X121432000Y-93198200D01*
X129692000Y-81319600D02*
X129692000Y-81019000D01*
X121979000Y-89032300D02*
X129692000Y-81319600D01*
X121979000Y-92651100D02*
X121979000Y-89032300D01*
X121432000Y-93198200D02*
X121979000Y-92651100D01*
X134271000Y-80924900D02*
X134271000Y-81019000D01*
X138982000Y-76214800D02*
X134271000Y-80924900D01*
X147636000Y-76214800D02*
X138982000Y-76214800D01*
X152571000Y-81150300D02*
X147636000Y-76214800D01*
X129133000Y-113361000D02*
X123038000Y-107266000D01*
X129133000Y-115441000D02*
X129133000Y-113361000D01*
X127746000Y-106944000D02*
X127746000Y-106945000D01*
X121432000Y-100630000D02*
X127746000Y-106944000D01*
X121432000Y-93198200D02*
X121432000Y-100630000D01*
X121870000Y-86972700D02*
X125603000Y-83239200D01*
X121870000Y-87715700D02*
X121870000Y-86972700D01*
X120756000Y-88829000D02*
X121870000Y-87715700D01*
X120756000Y-89013500D02*
X120756000Y-88829000D01*
X116851000Y-92918600D02*
X120756000Y-89013500D01*
X115600000Y-92918600D02*
X116851000Y-92918600D01*
X150724000Y-82918200D02*
X150973000Y-82669400D01*
X150366000Y-82918200D02*
X150724000Y-82918200D01*
X134650000Y-82443400D02*
X134353000Y-82146300D01*
X134650000Y-85292000D02*
X134650000Y-82443400D01*
X134379000Y-85563100D02*
X134650000Y-85292000D01*
X134379000Y-97792100D02*
X134379000Y-85563100D01*
X134585000Y-97997300D02*
X134379000Y-97792100D01*
X134585000Y-115531000D02*
X134585000Y-97997300D01*
X134746000Y-115692000D02*
X134585000Y-115531000D01*
X134746000Y-116609000D02*
X134746000Y-115692000D01*
X133666000Y-117689000D02*
X134746000Y-116609000D01*
X102735000Y-83569100D02*
X102735000Y-86774700D01*
X103936000Y-82367600D02*
X102735000Y-83569100D01*
X132108000Y-106206000D02*
X132108000Y-117773000D01*
X132848000Y-105467000D02*
X132108000Y-106206000D01*
X132848000Y-102844000D02*
X132848000Y-105467000D01*
X132666000Y-102662000D02*
X132848000Y-102844000D01*
X132666000Y-101854000D02*
X132666000Y-102662000D01*
X132848000Y-101673000D02*
X132666000Y-101854000D01*
X132848000Y-84517100D02*
X132848000Y-101673000D01*
X134076000Y-83288700D02*
X132848000Y-84517100D01*
X109023000Y-87539300D02*
X109023000Y-87289300D01*
X110409000Y-88925400D02*
X109023000Y-87539300D01*
X111403000Y-88925400D02*
X110409000Y-88925400D01*
X111917000Y-89439100D02*
X111403000Y-88925400D01*
X115725000Y-89439100D02*
X111917000Y-89439100D01*
X117903000Y-87261600D02*
X115725000Y-89439100D01*
X119472000Y-87261600D02*
X117903000Y-87261600D01*
X122968000Y-83764700D02*
X119472000Y-87261600D01*
X157495000Y-105599000D02*
X157495000Y-87634300D01*
X157399000Y-105695000D02*
X157495000Y-105599000D01*
X183360000Y-103343000D02*
X178809000Y-98792300D01*
X191697000Y-103343000D02*
X183360000Y-103343000D01*
X192811000Y-102229000D02*
X191697000Y-103343000D01*
X194000000Y-102229000D02*
X192811000Y-102229000D01*
X194000000Y-101040000D02*
X194000000Y-102229000D01*
X114374000Y-101223000D02*
X114374000Y-101326000D01*
X111484000Y-98332700D02*
X114374000Y-101223000D01*
X111484000Y-98120500D02*
X111484000Y-98332700D01*
X109016000Y-95652200D02*
X111484000Y-98120500D01*
X109016000Y-94268900D02*
X109016000Y-95652200D01*
X106886000Y-92139600D02*
X109016000Y-94268900D01*
X106886000Y-92049500D02*
X106886000Y-92139600D01*
X117190000Y-102630000D02*
X117190000Y-102868000D01*
X112828000Y-98267200D02*
X117190000Y-102630000D01*
X112692000Y-98267200D02*
X112828000Y-98267200D01*
X112385000Y-97959500D02*
X112692000Y-98267200D01*
X112385000Y-97747300D02*
X112385000Y-97959500D01*
X111608000Y-96970800D02*
X112385000Y-97747300D01*
X111608000Y-96665700D02*
X111608000Y-96970800D01*
X109471000Y-94528600D02*
X111608000Y-96665700D01*
X109471000Y-94087300D02*
X109471000Y-94528600D01*
X107412000Y-92028100D02*
X109471000Y-94087300D01*
X107412000Y-91823400D02*
X107412000Y-92028100D01*
X106988000Y-91400000D02*
X107412000Y-91823400D01*
X114062000Y-91033800D02*
X113995000Y-90966900D01*
X114062000Y-91033900D02*
X114062000Y-91033800D01*
X115113000Y-91033900D02*
X114062000Y-91033900D01*
X115391000Y-91311700D02*
X115113000Y-91033900D01*
X167133000Y-95053900D02*
X167133000Y-100062000D01*
X160226000Y-88147600D02*
X167133000Y-95053900D01*
X160226000Y-57143600D02*
X160226000Y-88147600D01*
X159467000Y-56383800D02*
X160226000Y-57143600D01*
X124473000Y-56383800D02*
X159467000Y-56383800D01*
X108214000Y-72642800D02*
X124473000Y-56383800D01*
X108214000Y-78827500D02*
X108214000Y-72642800D01*
X146451000Y-96255000D02*
X146166000Y-96255000D01*
X147088000Y-96891800D02*
X146451000Y-96255000D01*
X140053000Y-106892000D02*
X140160000Y-106999000D01*
X140053000Y-98027700D02*
X140053000Y-106892000D01*
X140574000Y-97506100D02*
X140053000Y-98027700D01*
X102952000Y-90769100D02*
X102952000Y-90447500D01*
X106109000Y-93925700D02*
X102952000Y-90769100D01*
X106125000Y-93925700D02*
X106109000Y-93925700D01*
X107197000Y-94997700D02*
X106125000Y-93925700D01*
X107197000Y-95867400D02*
X107197000Y-94997700D01*
X106135000Y-96929300D02*
X107197000Y-95867400D01*
X106135000Y-100548000D02*
X106135000Y-96929300D01*
X113799000Y-108212000D02*
X106135000Y-100548000D01*
X119206000Y-108212000D02*
X113799000Y-108212000D01*
X109683000Y-99185300D02*
X110110000Y-99612100D01*
X109683000Y-98866900D02*
X109683000Y-99185300D01*
X108396000Y-97580000D02*
X109683000Y-98866900D01*
X107748000Y-97580000D02*
X108396000Y-97580000D01*
X106660000Y-98667400D02*
X107748000Y-97580000D01*
X106660000Y-100308000D02*
X106660000Y-98667400D01*
X130266000Y-104989000D02*
X130143000Y-104866000D01*
X132070000Y-104989000D02*
X130266000Y-104989000D01*
X132368000Y-104690000D02*
X132070000Y-104989000D01*
X132368000Y-103001000D02*
X132368000Y-104690000D01*
X132216000Y-102849000D02*
X132368000Y-103001000D01*
X132216000Y-96146100D02*
X132216000Y-102849000D01*
X132262000Y-96099800D02*
X132216000Y-96146100D01*
X102686000Y-104827000D02*
X103059000Y-105200000D01*
X102686000Y-103836000D02*
X102686000Y-104827000D01*
X102354000Y-103504000D02*
X102686000Y-103836000D01*
X102354000Y-97544200D02*
X102354000Y-103504000D01*
X102046000Y-97236600D02*
X102354000Y-97544200D01*
X101566000Y-97236600D02*
X102046000Y-97236600D01*
X101228000Y-97574700D02*
X101566000Y-97236600D01*
X101228000Y-97875000D02*
X101228000Y-97574700D01*
X109133000Y-99378300D02*
X109133000Y-99064800D01*
X109892000Y-100137000D02*
X109133000Y-99378300D01*
X110367000Y-100137000D02*
X109892000Y-100137000D01*
X110652000Y-99852500D02*
X110367000Y-100137000D01*
X110652000Y-99411200D02*
X110652000Y-99852500D01*
X110133000Y-98892500D02*
X110652000Y-99411200D01*
X110133000Y-98680300D02*
X110133000Y-98892500D01*
X107647000Y-96194400D02*
X110133000Y-98680300D01*
X107647000Y-94811100D02*
X107647000Y-96194400D01*
X106312000Y-93475400D02*
X107647000Y-94811100D01*
X106296000Y-93475400D02*
X106312000Y-93475400D01*
X105460000Y-92640300D02*
X106296000Y-93475400D01*
X105460000Y-90637400D02*
X105460000Y-92640300D01*
X104967000Y-90144000D02*
X105460000Y-90637400D01*
X104967000Y-89900000D02*
X104967000Y-90144000D01*
X122619000Y-101005000D02*
X126797000Y-105183000D01*
X122619000Y-89514000D02*
X122619000Y-101005000D01*
X130747000Y-81385800D02*
X122619000Y-89514000D01*
X130747000Y-72820900D02*
X130747000Y-81385800D01*
X133757000Y-69810800D02*
X130747000Y-72820900D01*
X124725000Y-56892000D02*
X108749000Y-72867900D01*
X126219000Y-56892000D02*
X124725000Y-56892000D01*
X127000000Y-57673000D02*
X126219000Y-56892000D01*
X127000000Y-60960000D02*
X127000000Y-57673000D01*
X137160000Y-76920000D02*
X137160000Y-68380000D01*
X128260000Y-85820000D02*
X137160000Y-76920000D01*
X116814000Y-80421400D02*
X110270000Y-86965800D01*
X116814000Y-74925500D02*
X116814000Y-80421400D01*
X115435000Y-88900000D02*
X114347000Y-88900000D01*
X122427000Y-81908400D02*
X115435000Y-88900000D01*
X123190000Y-81908400D02*
X122427000Y-81908400D01*
X108489000Y-101440000D02*
X108489000Y-98699600D01*
X111434000Y-104386000D02*
X108489000Y-101440000D01*
X111713000Y-105408000D02*
X111766000Y-105408000D01*
X107903000Y-101598000D02*
X111713000Y-105408000D01*
X107903000Y-98224800D02*
X107903000Y-101598000D01*
X107993000Y-98134800D02*
X107903000Y-98224800D01*
X155572000Y-122166000D02*
X155572000Y-119458000D01*
X151572000Y-119505000D02*
X151635000Y-119442000D01*
X151572000Y-122166000D02*
X151572000Y-119505000D01*
X155952000Y-116880000D02*
X155952000Y-114352000D01*
X155572000Y-117260000D02*
X155952000Y-116880000D01*
X155952000Y-105325000D02*
X155952000Y-114352000D01*
X156372000Y-104905000D02*
X155952000Y-105325000D01*
X156372000Y-99609200D02*
X156372000Y-104905000D01*
X156346000Y-99583600D02*
X156372000Y-99609200D01*
X109457000Y-83073800D02*
X109457000Y-84680100D01*
X108740000Y-82356100D02*
X109457000Y-83073800D01*
X136596000Y-98061500D02*
X136671000Y-97986400D01*
X136596000Y-101525000D02*
X136596000Y-98061500D01*
X136671000Y-101600000D02*
X136596000Y-101525000D01*
X147593000Y-119520000D02*
X147593000Y-117427000D01*
X147572000Y-119541000D02*
X147593000Y-119520000D01*
X147572000Y-122166000D02*
X147572000Y-119541000D01*
X141572000Y-118637000D02*
X141572000Y-122166000D01*
X141167000Y-118232000D02*
X141572000Y-118637000D01*
X138697000Y-98463600D02*
X138220000Y-97986400D01*
X138697000Y-107554000D02*
X138697000Y-98463600D01*
X139135000Y-107991000D02*
X138697000Y-107554000D01*
X139135000Y-116681000D02*
X139135000Y-107991000D01*
X139321000Y-116867000D02*
X139135000Y-116681000D01*
X134059000Y-115643000D02*
X134059000Y-114237000D01*
X134296000Y-115879000D02*
X134059000Y-115643000D01*
X134296000Y-116406000D02*
X134296000Y-115879000D01*
X133988000Y-116714000D02*
X134296000Y-116406000D01*
X133847000Y-116714000D02*
X133988000Y-116714000D01*
X133121000Y-117440000D02*
X133847000Y-116714000D01*
X133121000Y-117887000D02*
X133121000Y-117440000D01*
X133572000Y-118338000D02*
X133121000Y-117887000D01*
X133572000Y-122166000D02*
X133572000Y-118338000D01*
X136671000Y-104608000D02*
X136671000Y-101600000D01*
X137123000Y-105060000D02*
X136671000Y-104608000D01*
X137123000Y-114850000D02*
X137123000Y-105060000D01*
X137696000Y-115422000D02*
X137123000Y-114850000D01*
X137696000Y-117169000D02*
X137696000Y-115422000D01*
X137572000Y-117292000D02*
X137696000Y-117169000D01*
X137572000Y-122166000D02*
X137572000Y-117292000D01*
X151635000Y-117680000D02*
X152055000Y-117260000D01*
X151635000Y-119442000D02*
X151635000Y-117680000D01*
X155572000Y-117260000D02*
X155572000Y-119458000D01*
X163572000Y-118209000D02*
X162794000Y-117431000D01*
X163572000Y-122166000D02*
X163572000Y-118209000D01*
X159056000Y-117091000D02*
X159396000Y-117431000D01*
X159056000Y-57121200D02*
X159056000Y-117091000D01*
X159253000Y-56924000D02*
X159056000Y-57121200D01*
X106599000Y-67450500D02*
X106434000Y-67285700D01*
X106599000Y-77955400D02*
X106599000Y-67450500D01*
X108214000Y-79570400D02*
X106599000Y-77955400D01*
X108214000Y-85737400D02*
X108214000Y-79570400D01*
X110663000Y-88186200D02*
X108214000Y-85737400D01*
X110663000Y-88400000D02*
X110663000Y-88186200D01*
X125568000Y-78059100D02*
X125568000Y-77572700D01*
X115431000Y-88195700D02*
X125568000Y-78059100D01*
X115052000Y-88195700D02*
X115431000Y-88195700D01*
X135695000Y-80243900D02*
X137538000Y-78401100D01*
X135695000Y-85109100D02*
X135695000Y-80243900D01*
X134866000Y-85938700D02*
X135695000Y-85109100D01*
X134866000Y-97641500D02*
X134866000Y-85938700D01*
X135035000Y-97810700D02*
X134866000Y-97641500D01*
X135035000Y-115344000D02*
X135035000Y-97810700D01*
X135196000Y-115506000D02*
X135035000Y-115344000D01*
X135196000Y-118916000D02*
X135196000Y-115506000D01*
X134572000Y-119541000D02*
X135196000Y-118916000D01*
X134572000Y-122166000D02*
X134572000Y-119541000D01*
X188656000Y-78795000D02*
X188656000Y-76623600D01*
X147293000Y-76665200D02*
X147368000Y-76740300D01*
X140713000Y-76665200D02*
X147293000Y-76665200D01*
X136146000Y-81232300D02*
X140713000Y-76665200D01*
X136146000Y-104858000D02*
X136146000Y-81232300D01*
X135965000Y-105038000D02*
X136146000Y-104858000D01*
X135965000Y-114843000D02*
X135965000Y-105038000D01*
X136097000Y-114975000D02*
X135965000Y-114843000D01*
X136097000Y-117089000D02*
X136097000Y-114975000D01*
X136572000Y-117565000D02*
X136097000Y-117089000D01*
X136572000Y-122166000D02*
X136572000Y-117565000D01*
X159572000Y-119653000D02*
X159572000Y-122166000D01*
X160171000Y-119054000D02*
X159572000Y-119653000D01*
X160171000Y-114058000D02*
X160171000Y-119054000D01*
X187481000Y-81280000D02*
X203200000Y-81280000D01*
X160171000Y-108590000D02*
X187481000Y-81280000D01*
X160171000Y-114058000D02*
X160171000Y-108590000D01*
X97597600Y-104702000D02*
X104234000Y-111338000D01*
X97597600Y-93400000D02*
X97597600Y-104702000D01*
X103745000Y-109919000D02*
X106786000Y-112961000D01*
X103528000Y-109919000D02*
X103745000Y-109919000D01*
X98573300Y-104965000D02*
X103528000Y-109919000D01*
X98573300Y-97768200D02*
X98573300Y-104965000D01*
X161341000Y-110155000D02*
X161341000Y-115603000D01*
X187676000Y-83820000D02*
X161341000Y-110155000D01*
X203200000Y-83820000D02*
X187676000Y-83820000D01*
X161572000Y-119541000D02*
X161572000Y-122166000D01*
X161322000Y-119290000D02*
X161572000Y-119541000D01*
X161322000Y-115622000D02*
X161322000Y-119290000D01*
X161341000Y-115603000D02*
X161322000Y-115622000D01*
X114472000Y-83986000D02*
X114527000Y-83931100D01*
X114472000Y-87012600D02*
X114472000Y-83986000D01*
X114806000Y-87346600D02*
X114472000Y-87012600D01*
X115247000Y-87346600D02*
X114806000Y-87346600D01*
X116110000Y-86483300D02*
X115247000Y-87346600D01*
X116110000Y-85650900D02*
X116110000Y-86483300D01*
X134922000Y-66839000D02*
X116110000Y-85650900D01*
X147712000Y-66839000D02*
X134922000Y-66839000D01*
X151049000Y-70175300D02*
X147712000Y-66839000D01*
X116237000Y-83400000D02*
X115636000Y-83400000D01*
X128962000Y-70675300D02*
X116237000Y-83400000D01*
X128962000Y-66625200D02*
X128962000Y-70675300D01*
X137669000Y-57917700D02*
X128962000Y-66625200D01*
X112853000Y-82675200D02*
X112997000Y-82818900D01*
X112853000Y-70663800D02*
X112853000Y-82675200D01*
X126050000Y-57466500D02*
X112853000Y-70663800D01*
X155314000Y-104154000D02*
X155314000Y-85321800D01*
X155847000Y-104687000D02*
X155314000Y-104154000D01*
X117016000Y-92037900D02*
X113500000Y-92037900D01*
X120147000Y-88906800D02*
X117016000Y-92037900D01*
X120147000Y-88801400D02*
X120147000Y-88906800D01*
X121419000Y-87529100D02*
X120147000Y-88801400D01*
X121419000Y-86622100D02*
X121419000Y-87529100D01*
X127731000Y-80310500D02*
X121419000Y-86622100D01*
X128786000Y-80310500D02*
X127731000Y-80310500D01*
X154449000Y-85321800D02*
X155314000Y-85321800D01*
X150528000Y-81400400D02*
X154449000Y-85321800D01*
X148633000Y-81400400D02*
X150528000Y-81400400D01*
X147576000Y-80343300D02*
X148633000Y-81400400D01*
X139955000Y-80343300D02*
X147576000Y-80343300D01*
X138990000Y-81309000D02*
X139955000Y-80343300D01*
X138990000Y-81415400D02*
X138990000Y-81309000D01*
X138734000Y-81670900D02*
X138990000Y-81415400D01*
X128873800Y-95444600D02*
X128873800Y-98545100D01*
X130273300Y-94045100D02*
X128873800Y-95444600D01*
X142337500Y-98334400D02*
X142310000Y-98334400D01*
X142310000Y-88898300D02*
X142310000Y-98334400D01*
X138185000Y-84773000D02*
X142310000Y-88898300D01*
X142310000Y-98334400D02*
X142310000Y-101383000D01*
D22*
G36*
X153599560Y-122313000D02*
X153544440Y-122313000D01*
X153544440Y-122019000D01*
X153599560Y-122019000D01*
X153599560Y-122313000D01*
X153599560Y-122313000D01*
G37*
X153599560Y-122313000D02*
X153544440Y-122313000D01*
X153544440Y-122019000D01*
X153599560Y-122019000D01*
X153599560Y-122313000D01*
G36*
X149599560Y-122313000D02*
X149544440Y-122313000D01*
X149544440Y-122019000D01*
X149599560Y-122019000D01*
X149599560Y-122313000D01*
X149599560Y-122313000D01*
G37*
X149599560Y-122313000D02*
X149544440Y-122313000D01*
X149544440Y-122019000D01*
X149599560Y-122019000D01*
X149599560Y-122313000D01*
G36*
X145599560Y-122313000D02*
X145544440Y-122313000D01*
X145544440Y-122019000D01*
X145599560Y-122019000D01*
X145599560Y-122313000D01*
X145599560Y-122313000D01*
G37*
X145599560Y-122313000D02*
X145544440Y-122313000D01*
X145544440Y-122019000D01*
X145599560Y-122019000D01*
X145599560Y-122313000D01*
G36*
X139599560Y-122313000D02*
X139544440Y-122313000D01*
X139544440Y-122019000D01*
X139599560Y-122019000D01*
X139599560Y-122313000D01*
X139599560Y-122313000D01*
G37*
X139599560Y-122313000D02*
X139544440Y-122313000D01*
X139544440Y-122019000D01*
X139599560Y-122019000D01*
X139599560Y-122313000D01*
G36*
X135599560Y-122313000D02*
X135544440Y-122313000D01*
X135544440Y-122019000D01*
X135599560Y-122019000D01*
X135599560Y-122313000D01*
X135599560Y-122313000D01*
G37*
X135599560Y-122313000D02*
X135544440Y-122313000D01*
X135544440Y-122019000D01*
X135599560Y-122019000D01*
X135599560Y-122313000D01*
G36*
X131599560Y-122313000D02*
X131445000Y-122313000D01*
X131445000Y-122293000D01*
X131435000Y-122293000D01*
X131435000Y-122039000D01*
X131445000Y-122039000D01*
X131445000Y-122019000D01*
X131599560Y-122019000D01*
X131599560Y-122313000D01*
X131599560Y-122313000D01*
G37*
X131599560Y-122313000D02*
X131445000Y-122313000D01*
X131445000Y-122293000D01*
X131435000Y-122293000D01*
X131435000Y-122039000D01*
X131445000Y-122039000D01*
X131445000Y-122019000D01*
X131599560Y-122019000D01*
X131599560Y-122313000D01*
G36*
X157599560Y-122313000D02*
X157544440Y-122313000D01*
X157544440Y-122019000D01*
X157599560Y-122019000D01*
X157599560Y-122313000D01*
X157599560Y-122313000D01*
G37*
X157599560Y-122313000D02*
X157544440Y-122313000D01*
X157544440Y-122019000D01*
X157599560Y-122019000D01*
X157599560Y-122313000D01*
G36*
X153329900Y-95190202D02*
X153329900Y-116047598D01*
X151922600Y-114640298D01*
X151922600Y-93782902D01*
X153329900Y-95190202D01*
X153329900Y-95190202D01*
G37*
X153329900Y-95190202D02*
X153329900Y-116047598D01*
X151922600Y-114640298D01*
X151922600Y-93782902D01*
X153329900Y-95190202D01*
G36*
X211963000Y-115443000D02*
X165332000Y-115443000D01*
X165332000Y-111749902D01*
X166832068Y-110249834D01*
X205644543Y-110249834D01*
X206044853Y-111218658D01*
X206785443Y-111960542D01*
X207753567Y-112362542D01*
X208801834Y-112363457D01*
X209770658Y-111963147D01*
X210512542Y-111222557D01*
X210914542Y-110254433D01*
X210915457Y-109206166D01*
X210515147Y-108237342D01*
X209774557Y-107495458D01*
X208806433Y-107093458D01*
X207758166Y-107092543D01*
X206789342Y-107492853D01*
X206047458Y-108233443D01*
X205645458Y-109201567D01*
X205644543Y-110249834D01*
X166832068Y-110249834D01*
X178018107Y-99063795D01*
X178101108Y-99264672D01*
X178335793Y-99499766D01*
X178517527Y-99575229D01*
X182822599Y-103880301D01*
X183069160Y-104045048D01*
X183360000Y-104102900D01*
X191697100Y-104102900D01*
X191987939Y-104045048D01*
X192234501Y-103880301D01*
X192352848Y-103761954D01*
X192430729Y-104153489D01*
X192755585Y-104639670D01*
X193241766Y-104964526D01*
X193815255Y-105078600D01*
X194184745Y-105078600D01*
X194758234Y-104964526D01*
X195244415Y-104639670D01*
X195569271Y-104153489D01*
X195683345Y-103580000D01*
X195569271Y-103006511D01*
X195244415Y-102520330D01*
X194929634Y-102310000D01*
X195244415Y-102099670D01*
X195569271Y-101613489D01*
X195683345Y-101040000D01*
X195569271Y-100466511D01*
X195244415Y-99980330D01*
X195222220Y-99965500D01*
X195375698Y-99901927D01*
X195554327Y-99723299D01*
X195651000Y-99489910D01*
X195651000Y-98785750D01*
X195492250Y-98627000D01*
X194127000Y-98627000D01*
X194127000Y-98647000D01*
X193873000Y-98647000D01*
X193873000Y-98627000D01*
X192507750Y-98627000D01*
X192349000Y-98785750D01*
X192349000Y-99489910D01*
X192445673Y-99723299D01*
X192624302Y-99901927D01*
X192777780Y-99965500D01*
X192755585Y-99980330D01*
X192430729Y-100466511D01*
X192316655Y-101040000D01*
X192426004Y-101589733D01*
X192273699Y-101691499D01*
X191382298Y-102582900D01*
X183674802Y-102582900D01*
X179592232Y-98500330D01*
X179517692Y-98319928D01*
X179283007Y-98084834D01*
X179080964Y-98000938D01*
X179571812Y-97510090D01*
X192349000Y-97510090D01*
X192349000Y-98214250D01*
X192507750Y-98373000D01*
X193873000Y-98373000D01*
X193873000Y-97160150D01*
X194127000Y-97160150D01*
X194127000Y-98373000D01*
X195492250Y-98373000D01*
X195651000Y-98214250D01*
X195651000Y-97510090D01*
X195554327Y-97276701D01*
X195375698Y-97098073D01*
X195142309Y-97001400D01*
X194285750Y-97001400D01*
X194127000Y-97160150D01*
X193873000Y-97160150D01*
X193714250Y-97001400D01*
X192857691Y-97001400D01*
X192624302Y-97098073D01*
X192445673Y-97276701D01*
X192349000Y-97510090D01*
X179571812Y-97510090D01*
X185115401Y-91966501D01*
X185280148Y-91719939D01*
X185338000Y-91429100D01*
X185338000Y-88084791D01*
X185412855Y-87904521D01*
X185413145Y-87572337D01*
X185291988Y-87279114D01*
X187991102Y-84580000D01*
X201755352Y-84580000D01*
X201955585Y-84879670D01*
X202270366Y-85090000D01*
X201955585Y-85300330D01*
X201630729Y-85786511D01*
X201516655Y-86360000D01*
X201630729Y-86933489D01*
X201955585Y-87419670D01*
X202441766Y-87744526D01*
X203015255Y-87858600D01*
X203384745Y-87858600D01*
X203958234Y-87744526D01*
X204444415Y-87419670D01*
X204769271Y-86933489D01*
X204883345Y-86360000D01*
X204769271Y-85786511D01*
X204444415Y-85300330D01*
X204129634Y-85090000D01*
X204444415Y-84879670D01*
X204769271Y-84393489D01*
X204883345Y-83820000D01*
X204769271Y-83246511D01*
X204444415Y-82760330D01*
X204129634Y-82550000D01*
X204444415Y-82339670D01*
X204769271Y-81853489D01*
X204883345Y-81280000D01*
X204769271Y-80706511D01*
X204444415Y-80220330D01*
X204422220Y-80205500D01*
X204575698Y-80141927D01*
X204754327Y-79963299D01*
X204851000Y-79729910D01*
X204851000Y-79025750D01*
X204692250Y-78867000D01*
X203327000Y-78867000D01*
X203327000Y-78887000D01*
X203073000Y-78887000D01*
X203073000Y-78867000D01*
X201707750Y-78867000D01*
X201549000Y-79025750D01*
X201549000Y-79729910D01*
X201645673Y-79963299D01*
X201824302Y-80141927D01*
X201977780Y-80205500D01*
X201955585Y-80220330D01*
X201755352Y-80520000D01*
X187481300Y-80520000D01*
X187190461Y-80577852D01*
X186943899Y-80742599D01*
X167915660Y-99770838D01*
X167892700Y-99715271D01*
X167892700Y-95053900D01*
X167834848Y-94763061D01*
X167670101Y-94516499D01*
X164736166Y-91582564D01*
X164962872Y-91488892D01*
X165152093Y-91300000D01*
X166475209Y-91300000D01*
X166655479Y-91374855D01*
X166987663Y-91375145D01*
X167294672Y-91248292D01*
X167529766Y-91013607D01*
X167657155Y-90706821D01*
X167657445Y-90374637D01*
X167530592Y-90067628D01*
X167295907Y-89832534D01*
X166989121Y-89705145D01*
X166656937Y-89704855D01*
X166475071Y-89780000D01*
X164731100Y-89780000D01*
X164440261Y-89837852D01*
X164204818Y-89995170D01*
X164018128Y-90072308D01*
X163783034Y-90306993D01*
X163688429Y-90534827D01*
X160986400Y-87832798D01*
X160986400Y-76788963D01*
X187820655Y-76788963D01*
X187895800Y-76970829D01*
X187895800Y-78447909D01*
X187820945Y-78628179D01*
X187820655Y-78960363D01*
X187947508Y-79267372D01*
X188182193Y-79502466D01*
X188488979Y-79629855D01*
X188821163Y-79630145D01*
X189128172Y-79503292D01*
X189363266Y-79268607D01*
X189490655Y-78961821D01*
X189490945Y-78629637D01*
X189415800Y-78447771D01*
X189415800Y-77750090D01*
X201549000Y-77750090D01*
X201549000Y-78454250D01*
X201707750Y-78613000D01*
X203073000Y-78613000D01*
X203073000Y-77400150D01*
X203327000Y-77400150D01*
X203327000Y-78613000D01*
X204692250Y-78613000D01*
X204851000Y-78454250D01*
X204851000Y-77750090D01*
X204754327Y-77516701D01*
X204575698Y-77338073D01*
X204342309Y-77241400D01*
X203485750Y-77241400D01*
X203327000Y-77400150D01*
X203073000Y-77400150D01*
X202914250Y-77241400D01*
X202057691Y-77241400D01*
X201824302Y-77338073D01*
X201645673Y-77516701D01*
X201549000Y-77750090D01*
X189415800Y-77750090D01*
X189415800Y-76970691D01*
X189490655Y-76790421D01*
X189490945Y-76458237D01*
X189364092Y-76151228D01*
X189129407Y-75916134D01*
X188822621Y-75788745D01*
X188490437Y-75788455D01*
X188183428Y-75915308D01*
X187948334Y-76149993D01*
X187820945Y-76456779D01*
X187820655Y-76788963D01*
X160986400Y-76788963D01*
X160986400Y-59944000D01*
X196456560Y-59944000D01*
X196456560Y-61976000D01*
X196500838Y-62211317D01*
X196639910Y-62427441D01*
X196852110Y-62572431D01*
X197104000Y-62623440D01*
X199136000Y-62623440D01*
X199371317Y-62579162D01*
X199587441Y-62440090D01*
X199698840Y-62277052D01*
X199795182Y-62366385D01*
X200277056Y-62565975D01*
X200533000Y-62446836D01*
X200533000Y-61087000D01*
X200787000Y-61087000D01*
X200787000Y-62446836D01*
X201042944Y-62565975D01*
X201524818Y-62366385D01*
X201997188Y-61928379D01*
X202265983Y-61342946D01*
X202147367Y-61087000D01*
X200787000Y-61087000D01*
X200533000Y-61087000D01*
X200513000Y-61087000D01*
X200513000Y-60833000D01*
X200533000Y-60833000D01*
X200533000Y-59473164D01*
X200787000Y-59473164D01*
X200787000Y-60833000D01*
X202147367Y-60833000D01*
X202265983Y-60577054D01*
X201997188Y-59991621D01*
X201524818Y-59553615D01*
X201274258Y-59449834D01*
X205644543Y-59449834D01*
X206044853Y-60418658D01*
X206785443Y-61160542D01*
X207753567Y-61562542D01*
X208801834Y-61563457D01*
X209770658Y-61163147D01*
X210512542Y-60422557D01*
X210914542Y-59454433D01*
X210915457Y-58406166D01*
X210515147Y-57437342D01*
X209774557Y-56695458D01*
X208806433Y-56293458D01*
X207758166Y-56292543D01*
X206789342Y-56692853D01*
X206047458Y-57433443D01*
X205645458Y-58401567D01*
X205644543Y-59449834D01*
X201274258Y-59449834D01*
X201042944Y-59354025D01*
X200787000Y-59473164D01*
X200533000Y-59473164D01*
X200277056Y-59354025D01*
X199795182Y-59553615D01*
X199697602Y-59644097D01*
X199600090Y-59492559D01*
X199387890Y-59347569D01*
X199136000Y-59296560D01*
X197104000Y-59296560D01*
X196868683Y-59340838D01*
X196652559Y-59479910D01*
X196507569Y-59692110D01*
X196456560Y-59944000D01*
X160986400Y-59944000D01*
X160986400Y-57143600D01*
X160928548Y-56852761D01*
X160928548Y-56852760D01*
X160763801Y-56606199D01*
X160004001Y-55846399D01*
X159757439Y-55681652D01*
X159466600Y-55623800D01*
X124473300Y-55623800D01*
X124182460Y-55681652D01*
X123935899Y-55846399D01*
X107676899Y-72105399D01*
X107512152Y-72351961D01*
X107454300Y-72642800D01*
X107454300Y-77735598D01*
X107359300Y-77640598D01*
X107359300Y-67450500D01*
X107301448Y-67159661D01*
X107301448Y-67159660D01*
X107260687Y-67098657D01*
X107142792Y-66813328D01*
X106908107Y-66578234D01*
X106601321Y-66450845D01*
X106269137Y-66450555D01*
X105962128Y-66577408D01*
X105727034Y-66812093D01*
X105599645Y-67118879D01*
X105599355Y-67451063D01*
X105726208Y-67758072D01*
X105839300Y-67871361D01*
X105839300Y-75986404D01*
X105601628Y-76084608D01*
X105366534Y-76319293D01*
X105239145Y-76626079D01*
X105238855Y-76958263D01*
X105314000Y-77140129D01*
X105314000Y-78258000D01*
X105371852Y-78548839D01*
X105536599Y-78795401D01*
X106377526Y-79636328D01*
X106330771Y-79748927D01*
X104414781Y-81664917D01*
X104410007Y-81660134D01*
X104103221Y-81532745D01*
X103771037Y-81532455D01*
X103464028Y-81659308D01*
X103228934Y-81893993D01*
X103178366Y-82015774D01*
X102963721Y-81926645D01*
X102631537Y-81926355D01*
X102324528Y-82053208D01*
X102089434Y-82287893D01*
X102013971Y-82469627D01*
X101672099Y-82811499D01*
X101507352Y-83058061D01*
X101449500Y-83348900D01*
X101449500Y-83552521D01*
X101178228Y-83664608D01*
X101018786Y-83823773D01*
X100838821Y-83749045D01*
X100506637Y-83748755D01*
X100324771Y-83823900D01*
X96331700Y-83823900D01*
X96040861Y-83881752D01*
X95794299Y-84046499D01*
X95030500Y-84810298D01*
X95030500Y-84220302D01*
X95567970Y-83682832D01*
X95748372Y-83608292D01*
X95983466Y-83373607D01*
X96110855Y-83066821D01*
X96111145Y-82734637D01*
X96003584Y-82474318D01*
X98719502Y-79758400D01*
X99366498Y-79758400D01*
X99521600Y-79913502D01*
X99521600Y-81285898D01*
X98930530Y-81876968D01*
X98750128Y-81951508D01*
X98515034Y-82186193D01*
X98387645Y-82492979D01*
X98387355Y-82825163D01*
X98514208Y-83132172D01*
X98748893Y-83367266D01*
X99055679Y-83494655D01*
X99387863Y-83494945D01*
X99694872Y-83368092D01*
X99929966Y-83133407D01*
X100005429Y-82951673D01*
X100819001Y-82138101D01*
X100983748Y-81891539D01*
X101041600Y-81600700D01*
X101041600Y-79598700D01*
X100992325Y-79350980D01*
X101281979Y-79471255D01*
X101614163Y-79471545D01*
X101921172Y-79344692D01*
X102156266Y-79110007D01*
X102283655Y-78803221D01*
X102283945Y-78471037D01*
X102157092Y-78164028D01*
X101922407Y-77928934D01*
X101740673Y-77853471D01*
X97009801Y-73122599D01*
X96763239Y-72957852D01*
X96472400Y-72900000D01*
X94214791Y-72900000D01*
X94034521Y-72825145D01*
X93702337Y-72824855D01*
X93395328Y-72951708D01*
X93160234Y-73186393D01*
X93032845Y-73493179D01*
X93032555Y-73825363D01*
X93159408Y-74132372D01*
X93394093Y-74367466D01*
X93700879Y-74494855D01*
X94033063Y-74495145D01*
X94214929Y-74420000D01*
X96157598Y-74420000D01*
X100158115Y-78420517D01*
X99972139Y-78296252D01*
X99681300Y-78238400D01*
X98404700Y-78238400D01*
X98113861Y-78296252D01*
X97867299Y-78460999D01*
X93282799Y-83045499D01*
X93118052Y-83292061D01*
X93060200Y-83582900D01*
X93060200Y-107620300D01*
X93118052Y-107911139D01*
X93282799Y-108157701D01*
X98902968Y-113777870D01*
X98977508Y-113958272D01*
X99212193Y-114193366D01*
X99518979Y-114320755D01*
X99851163Y-114321045D01*
X100158172Y-114194192D01*
X100393266Y-113959507D01*
X100520655Y-113652721D01*
X100520945Y-113320537D01*
X100394092Y-113013528D01*
X100159407Y-112778434D01*
X99977673Y-112702971D01*
X94580200Y-107305498D01*
X94580200Y-105475602D01*
X101196368Y-112091770D01*
X101270908Y-112272172D01*
X101505593Y-112507266D01*
X101812379Y-112634655D01*
X102144563Y-112634945D01*
X102451572Y-112508092D01*
X102686666Y-112273407D01*
X102814055Y-111966621D01*
X102814345Y-111634437D01*
X102687492Y-111327428D01*
X102452807Y-111092334D01*
X102271073Y-111016871D01*
X95030500Y-103776298D01*
X95030500Y-90461802D01*
X97220883Y-92652185D01*
X97125228Y-92691708D01*
X96890134Y-92926393D01*
X96762745Y-93233179D01*
X96762455Y-93565363D01*
X96837600Y-93747229D01*
X96837600Y-104701500D01*
X96895452Y-104992339D01*
X97060199Y-105238901D01*
X103450868Y-111629570D01*
X103525408Y-111809972D01*
X103760093Y-112045066D01*
X104066879Y-112172455D01*
X104399063Y-112172745D01*
X104706072Y-112045892D01*
X104751521Y-112000523D01*
X106003568Y-113252570D01*
X106078108Y-113432972D01*
X106312793Y-113668066D01*
X106619579Y-113795455D01*
X106951763Y-113795745D01*
X107258772Y-113668892D01*
X107493866Y-113434207D01*
X107621255Y-113127421D01*
X107621407Y-112953509D01*
X108126768Y-113458870D01*
X108201308Y-113639272D01*
X108435993Y-113874366D01*
X108742779Y-114001755D01*
X109074963Y-114002045D01*
X109381972Y-113875192D01*
X109394742Y-113862444D01*
X110135768Y-114603470D01*
X110210308Y-114783872D01*
X110444993Y-115018966D01*
X110751779Y-115146355D01*
X111083963Y-115146645D01*
X111390972Y-115019792D01*
X111626066Y-114785107D01*
X111753455Y-114478321D01*
X111753745Y-114146137D01*
X111626892Y-113839128D01*
X111392207Y-113604034D01*
X111210473Y-113528571D01*
X108330901Y-110648999D01*
X108084339Y-110484252D01*
X107974590Y-110462421D01*
X108021055Y-110350521D01*
X108021328Y-110037799D01*
X108073563Y-110037845D01*
X108380572Y-109910992D01*
X108615666Y-109676307D01*
X108743055Y-109369521D01*
X108743345Y-109037337D01*
X108616492Y-108730328D01*
X108381807Y-108495234D01*
X108200073Y-108419771D01*
X104475948Y-104695646D01*
X104589363Y-104695745D01*
X104896372Y-104568892D01*
X104958785Y-104506587D01*
X113465800Y-113013602D01*
X113465800Y-115443000D01*
X78867000Y-115443000D01*
X78867000Y-112789834D01*
X81184543Y-112789834D01*
X81584853Y-113758658D01*
X82325443Y-114500542D01*
X83293567Y-114902542D01*
X84341834Y-114903457D01*
X85310658Y-114503147D01*
X86052542Y-113762557D01*
X86454542Y-112794433D01*
X86455457Y-111746166D01*
X86055147Y-110777342D01*
X85314557Y-110035458D01*
X84346433Y-109633458D01*
X83298166Y-109632543D01*
X82329342Y-110032853D01*
X81587458Y-110773443D01*
X81185458Y-111741567D01*
X81184543Y-112789834D01*
X78867000Y-112789834D01*
X78867000Y-59449834D01*
X81184543Y-59449834D01*
X81584853Y-60418658D01*
X82325443Y-61160542D01*
X83293567Y-61562542D01*
X84341834Y-61563457D01*
X85310658Y-61163147D01*
X86052542Y-60422557D01*
X86454542Y-59454433D01*
X86455457Y-58406166D01*
X86055147Y-57437342D01*
X85314557Y-56695458D01*
X84346433Y-56293458D01*
X83298166Y-56292543D01*
X82329342Y-56692853D01*
X81587458Y-57433443D01*
X81185458Y-58401567D01*
X81184543Y-59449834D01*
X78867000Y-59449834D01*
X78867000Y-54737000D01*
X211963000Y-54737000D01*
X211963000Y-115443000D01*
X211963000Y-115443000D01*
G37*
X211963000Y-115443000D02*
X165332000Y-115443000D01*
X165332000Y-111749902D01*
X166832068Y-110249834D01*
X205644543Y-110249834D01*
X206044853Y-111218658D01*
X206785443Y-111960542D01*
X207753567Y-112362542D01*
X208801834Y-112363457D01*
X209770658Y-111963147D01*
X210512542Y-111222557D01*
X210914542Y-110254433D01*
X210915457Y-109206166D01*
X210515147Y-108237342D01*
X209774557Y-107495458D01*
X208806433Y-107093458D01*
X207758166Y-107092543D01*
X206789342Y-107492853D01*
X206047458Y-108233443D01*
X205645458Y-109201567D01*
X205644543Y-110249834D01*
X166832068Y-110249834D01*
X178018107Y-99063795D01*
X178101108Y-99264672D01*
X178335793Y-99499766D01*
X178517527Y-99575229D01*
X182822599Y-103880301D01*
X183069160Y-104045048D01*
X183360000Y-104102900D01*
X191697100Y-104102900D01*
X191987939Y-104045048D01*
X192234501Y-103880301D01*
X192352848Y-103761954D01*
X192430729Y-104153489D01*
X192755585Y-104639670D01*
X193241766Y-104964526D01*
X193815255Y-105078600D01*
X194184745Y-105078600D01*
X194758234Y-104964526D01*
X195244415Y-104639670D01*
X195569271Y-104153489D01*
X195683345Y-103580000D01*
X195569271Y-103006511D01*
X195244415Y-102520330D01*
X194929634Y-102310000D01*
X195244415Y-102099670D01*
X195569271Y-101613489D01*
X195683345Y-101040000D01*
X195569271Y-100466511D01*
X195244415Y-99980330D01*
X195222220Y-99965500D01*
X195375698Y-99901927D01*
X195554327Y-99723299D01*
X195651000Y-99489910D01*
X195651000Y-98785750D01*
X195492250Y-98627000D01*
X194127000Y-98627000D01*
X194127000Y-98647000D01*
X193873000Y-98647000D01*
X193873000Y-98627000D01*
X192507750Y-98627000D01*
X192349000Y-98785750D01*
X192349000Y-99489910D01*
X192445673Y-99723299D01*
X192624302Y-99901927D01*
X192777780Y-99965500D01*
X192755585Y-99980330D01*
X192430729Y-100466511D01*
X192316655Y-101040000D01*
X192426004Y-101589733D01*
X192273699Y-101691499D01*
X191382298Y-102582900D01*
X183674802Y-102582900D01*
X179592232Y-98500330D01*
X179517692Y-98319928D01*
X179283007Y-98084834D01*
X179080964Y-98000938D01*
X179571812Y-97510090D01*
X192349000Y-97510090D01*
X192349000Y-98214250D01*
X192507750Y-98373000D01*
X193873000Y-98373000D01*
X193873000Y-97160150D01*
X194127000Y-97160150D01*
X194127000Y-98373000D01*
X195492250Y-98373000D01*
X195651000Y-98214250D01*
X195651000Y-97510090D01*
X195554327Y-97276701D01*
X195375698Y-97098073D01*
X195142309Y-97001400D01*
X194285750Y-97001400D01*
X194127000Y-97160150D01*
X193873000Y-97160150D01*
X193714250Y-97001400D01*
X192857691Y-97001400D01*
X192624302Y-97098073D01*
X192445673Y-97276701D01*
X192349000Y-97510090D01*
X179571812Y-97510090D01*
X185115401Y-91966501D01*
X185280148Y-91719939D01*
X185338000Y-91429100D01*
X185338000Y-88084791D01*
X185412855Y-87904521D01*
X185413145Y-87572337D01*
X185291988Y-87279114D01*
X187991102Y-84580000D01*
X201755352Y-84580000D01*
X201955585Y-84879670D01*
X202270366Y-85090000D01*
X201955585Y-85300330D01*
X201630729Y-85786511D01*
X201516655Y-86360000D01*
X201630729Y-86933489D01*
X201955585Y-87419670D01*
X202441766Y-87744526D01*
X203015255Y-87858600D01*
X203384745Y-87858600D01*
X203958234Y-87744526D01*
X204444415Y-87419670D01*
X204769271Y-86933489D01*
X204883345Y-86360000D01*
X204769271Y-85786511D01*
X204444415Y-85300330D01*
X204129634Y-85090000D01*
X204444415Y-84879670D01*
X204769271Y-84393489D01*
X204883345Y-83820000D01*
X204769271Y-83246511D01*
X204444415Y-82760330D01*
X204129634Y-82550000D01*
X204444415Y-82339670D01*
X204769271Y-81853489D01*
X204883345Y-81280000D01*
X204769271Y-80706511D01*
X204444415Y-80220330D01*
X204422220Y-80205500D01*
X204575698Y-80141927D01*
X204754327Y-79963299D01*
X204851000Y-79729910D01*
X204851000Y-79025750D01*
X204692250Y-78867000D01*
X203327000Y-78867000D01*
X203327000Y-78887000D01*
X203073000Y-78887000D01*
X203073000Y-78867000D01*
X201707750Y-78867000D01*
X201549000Y-79025750D01*
X201549000Y-79729910D01*
X201645673Y-79963299D01*
X201824302Y-80141927D01*
X201977780Y-80205500D01*
X201955585Y-80220330D01*
X201755352Y-80520000D01*
X187481300Y-80520000D01*
X187190461Y-80577852D01*
X186943899Y-80742599D01*
X167915660Y-99770838D01*
X167892700Y-99715271D01*
X167892700Y-95053900D01*
X167834848Y-94763061D01*
X167670101Y-94516499D01*
X164736166Y-91582564D01*
X164962872Y-91488892D01*
X165152093Y-91300000D01*
X166475209Y-91300000D01*
X166655479Y-91374855D01*
X166987663Y-91375145D01*
X167294672Y-91248292D01*
X167529766Y-91013607D01*
X167657155Y-90706821D01*
X167657445Y-90374637D01*
X167530592Y-90067628D01*
X167295907Y-89832534D01*
X166989121Y-89705145D01*
X166656937Y-89704855D01*
X166475071Y-89780000D01*
X164731100Y-89780000D01*
X164440261Y-89837852D01*
X164204818Y-89995170D01*
X164018128Y-90072308D01*
X163783034Y-90306993D01*
X163688429Y-90534827D01*
X160986400Y-87832798D01*
X160986400Y-76788963D01*
X187820655Y-76788963D01*
X187895800Y-76970829D01*
X187895800Y-78447909D01*
X187820945Y-78628179D01*
X187820655Y-78960363D01*
X187947508Y-79267372D01*
X188182193Y-79502466D01*
X188488979Y-79629855D01*
X188821163Y-79630145D01*
X189128172Y-79503292D01*
X189363266Y-79268607D01*
X189490655Y-78961821D01*
X189490945Y-78629637D01*
X189415800Y-78447771D01*
X189415800Y-77750090D01*
X201549000Y-77750090D01*
X201549000Y-78454250D01*
X201707750Y-78613000D01*
X203073000Y-78613000D01*
X203073000Y-77400150D01*
X203327000Y-77400150D01*
X203327000Y-78613000D01*
X204692250Y-78613000D01*
X204851000Y-78454250D01*
X204851000Y-77750090D01*
X204754327Y-77516701D01*
X204575698Y-77338073D01*
X204342309Y-77241400D01*
X203485750Y-77241400D01*
X203327000Y-77400150D01*
X203073000Y-77400150D01*
X202914250Y-77241400D01*
X202057691Y-77241400D01*
X201824302Y-77338073D01*
X201645673Y-77516701D01*
X201549000Y-77750090D01*
X189415800Y-77750090D01*
X189415800Y-76970691D01*
X189490655Y-76790421D01*
X189490945Y-76458237D01*
X189364092Y-76151228D01*
X189129407Y-75916134D01*
X188822621Y-75788745D01*
X188490437Y-75788455D01*
X188183428Y-75915308D01*
X187948334Y-76149993D01*
X187820945Y-76456779D01*
X187820655Y-76788963D01*
X160986400Y-76788963D01*
X160986400Y-59944000D01*
X196456560Y-59944000D01*
X196456560Y-61976000D01*
X196500838Y-62211317D01*
X196639910Y-62427441D01*
X196852110Y-62572431D01*
X197104000Y-62623440D01*
X199136000Y-62623440D01*
X199371317Y-62579162D01*
X199587441Y-62440090D01*
X199698840Y-62277052D01*
X199795182Y-62366385D01*
X200277056Y-62565975D01*
X200533000Y-62446836D01*
X200533000Y-61087000D01*
X200787000Y-61087000D01*
X200787000Y-62446836D01*
X201042944Y-62565975D01*
X201524818Y-62366385D01*
X201997188Y-61928379D01*
X202265983Y-61342946D01*
X202147367Y-61087000D01*
X200787000Y-61087000D01*
X200533000Y-61087000D01*
X200513000Y-61087000D01*
X200513000Y-60833000D01*
X200533000Y-60833000D01*
X200533000Y-59473164D01*
X200787000Y-59473164D01*
X200787000Y-60833000D01*
X202147367Y-60833000D01*
X202265983Y-60577054D01*
X201997188Y-59991621D01*
X201524818Y-59553615D01*
X201274258Y-59449834D01*
X205644543Y-59449834D01*
X206044853Y-60418658D01*
X206785443Y-61160542D01*
X207753567Y-61562542D01*
X208801834Y-61563457D01*
X209770658Y-61163147D01*
X210512542Y-60422557D01*
X210914542Y-59454433D01*
X210915457Y-58406166D01*
X210515147Y-57437342D01*
X209774557Y-56695458D01*
X208806433Y-56293458D01*
X207758166Y-56292543D01*
X206789342Y-56692853D01*
X206047458Y-57433443D01*
X205645458Y-58401567D01*
X205644543Y-59449834D01*
X201274258Y-59449834D01*
X201042944Y-59354025D01*
X200787000Y-59473164D01*
X200533000Y-59473164D01*
X200277056Y-59354025D01*
X199795182Y-59553615D01*
X199697602Y-59644097D01*
X199600090Y-59492559D01*
X199387890Y-59347569D01*
X199136000Y-59296560D01*
X197104000Y-59296560D01*
X196868683Y-59340838D01*
X196652559Y-59479910D01*
X196507569Y-59692110D01*
X196456560Y-59944000D01*
X160986400Y-59944000D01*
X160986400Y-57143600D01*
X160928548Y-56852761D01*
X160928548Y-56852760D01*
X160763801Y-56606199D01*
X160004001Y-55846399D01*
X159757439Y-55681652D01*
X159466600Y-55623800D01*
X124473300Y-55623800D01*
X124182460Y-55681652D01*
X123935899Y-55846399D01*
X107676899Y-72105399D01*
X107512152Y-72351961D01*
X107454300Y-72642800D01*
X107454300Y-77735598D01*
X107359300Y-77640598D01*
X107359300Y-67450500D01*
X107301448Y-67159661D01*
X107301448Y-67159660D01*
X107260687Y-67098657D01*
X107142792Y-66813328D01*
X106908107Y-66578234D01*
X106601321Y-66450845D01*
X106269137Y-66450555D01*
X105962128Y-66577408D01*
X105727034Y-66812093D01*
X105599645Y-67118879D01*
X105599355Y-67451063D01*
X105726208Y-67758072D01*
X105839300Y-67871361D01*
X105839300Y-75986404D01*
X105601628Y-76084608D01*
X105366534Y-76319293D01*
X105239145Y-76626079D01*
X105238855Y-76958263D01*
X105314000Y-77140129D01*
X105314000Y-78258000D01*
X105371852Y-78548839D01*
X105536599Y-78795401D01*
X106377526Y-79636328D01*
X106330771Y-79748927D01*
X104414781Y-81664917D01*
X104410007Y-81660134D01*
X104103221Y-81532745D01*
X103771037Y-81532455D01*
X103464028Y-81659308D01*
X103228934Y-81893993D01*
X103178366Y-82015774D01*
X102963721Y-81926645D01*
X102631537Y-81926355D01*
X102324528Y-82053208D01*
X102089434Y-82287893D01*
X102013971Y-82469627D01*
X101672099Y-82811499D01*
X101507352Y-83058061D01*
X101449500Y-83348900D01*
X101449500Y-83552521D01*
X101178228Y-83664608D01*
X101018786Y-83823773D01*
X100838821Y-83749045D01*
X100506637Y-83748755D01*
X100324771Y-83823900D01*
X96331700Y-83823900D01*
X96040861Y-83881752D01*
X95794299Y-84046499D01*
X95030500Y-84810298D01*
X95030500Y-84220302D01*
X95567970Y-83682832D01*
X95748372Y-83608292D01*
X95983466Y-83373607D01*
X96110855Y-83066821D01*
X96111145Y-82734637D01*
X96003584Y-82474318D01*
X98719502Y-79758400D01*
X99366498Y-79758400D01*
X99521600Y-79913502D01*
X99521600Y-81285898D01*
X98930530Y-81876968D01*
X98750128Y-81951508D01*
X98515034Y-82186193D01*
X98387645Y-82492979D01*
X98387355Y-82825163D01*
X98514208Y-83132172D01*
X98748893Y-83367266D01*
X99055679Y-83494655D01*
X99387863Y-83494945D01*
X99694872Y-83368092D01*
X99929966Y-83133407D01*
X100005429Y-82951673D01*
X100819001Y-82138101D01*
X100983748Y-81891539D01*
X101041600Y-81600700D01*
X101041600Y-79598700D01*
X100992325Y-79350980D01*
X101281979Y-79471255D01*
X101614163Y-79471545D01*
X101921172Y-79344692D01*
X102156266Y-79110007D01*
X102283655Y-78803221D01*
X102283945Y-78471037D01*
X102157092Y-78164028D01*
X101922407Y-77928934D01*
X101740673Y-77853471D01*
X97009801Y-73122599D01*
X96763239Y-72957852D01*
X96472400Y-72900000D01*
X94214791Y-72900000D01*
X94034521Y-72825145D01*
X93702337Y-72824855D01*
X93395328Y-72951708D01*
X93160234Y-73186393D01*
X93032845Y-73493179D01*
X93032555Y-73825363D01*
X93159408Y-74132372D01*
X93394093Y-74367466D01*
X93700879Y-74494855D01*
X94033063Y-74495145D01*
X94214929Y-74420000D01*
X96157598Y-74420000D01*
X100158115Y-78420517D01*
X99972139Y-78296252D01*
X99681300Y-78238400D01*
X98404700Y-78238400D01*
X98113861Y-78296252D01*
X97867299Y-78460999D01*
X93282799Y-83045499D01*
X93118052Y-83292061D01*
X93060200Y-83582900D01*
X93060200Y-107620300D01*
X93118052Y-107911139D01*
X93282799Y-108157701D01*
X98902968Y-113777870D01*
X98977508Y-113958272D01*
X99212193Y-114193366D01*
X99518979Y-114320755D01*
X99851163Y-114321045D01*
X100158172Y-114194192D01*
X100393266Y-113959507D01*
X100520655Y-113652721D01*
X100520945Y-113320537D01*
X100394092Y-113013528D01*
X100159407Y-112778434D01*
X99977673Y-112702971D01*
X94580200Y-107305498D01*
X94580200Y-105475602D01*
X101196368Y-112091770D01*
X101270908Y-112272172D01*
X101505593Y-112507266D01*
X101812379Y-112634655D01*
X102144563Y-112634945D01*
X102451572Y-112508092D01*
X102686666Y-112273407D01*
X102814055Y-111966621D01*
X102814345Y-111634437D01*
X102687492Y-111327428D01*
X102452807Y-111092334D01*
X102271073Y-111016871D01*
X95030500Y-103776298D01*
X95030500Y-90461802D01*
X97220883Y-92652185D01*
X97125228Y-92691708D01*
X96890134Y-92926393D01*
X96762745Y-93233179D01*
X96762455Y-93565363D01*
X96837600Y-93747229D01*
X96837600Y-104701500D01*
X96895452Y-104992339D01*
X97060199Y-105238901D01*
X103450868Y-111629570D01*
X103525408Y-111809972D01*
X103760093Y-112045066D01*
X104066879Y-112172455D01*
X104399063Y-112172745D01*
X104706072Y-112045892D01*
X104751521Y-112000523D01*
X106003568Y-113252570D01*
X106078108Y-113432972D01*
X106312793Y-113668066D01*
X106619579Y-113795455D01*
X106951763Y-113795745D01*
X107258772Y-113668892D01*
X107493866Y-113434207D01*
X107621255Y-113127421D01*
X107621407Y-112953509D01*
X108126768Y-113458870D01*
X108201308Y-113639272D01*
X108435993Y-113874366D01*
X108742779Y-114001755D01*
X109074963Y-114002045D01*
X109381972Y-113875192D01*
X109394742Y-113862444D01*
X110135768Y-114603470D01*
X110210308Y-114783872D01*
X110444993Y-115018966D01*
X110751779Y-115146355D01*
X111083963Y-115146645D01*
X111390972Y-115019792D01*
X111626066Y-114785107D01*
X111753455Y-114478321D01*
X111753745Y-114146137D01*
X111626892Y-113839128D01*
X111392207Y-113604034D01*
X111210473Y-113528571D01*
X108330901Y-110648999D01*
X108084339Y-110484252D01*
X107974590Y-110462421D01*
X108021055Y-110350521D01*
X108021328Y-110037799D01*
X108073563Y-110037845D01*
X108380572Y-109910992D01*
X108615666Y-109676307D01*
X108743055Y-109369521D01*
X108743345Y-109037337D01*
X108616492Y-108730328D01*
X108381807Y-108495234D01*
X108200073Y-108419771D01*
X104475948Y-104695646D01*
X104589363Y-104695745D01*
X104896372Y-104568892D01*
X104958785Y-104506587D01*
X113465800Y-113013602D01*
X113465800Y-115443000D01*
X78867000Y-115443000D01*
X78867000Y-112789834D01*
X81184543Y-112789834D01*
X81584853Y-113758658D01*
X82325443Y-114500542D01*
X83293567Y-114902542D01*
X84341834Y-114903457D01*
X85310658Y-114503147D01*
X86052542Y-113762557D01*
X86454542Y-112794433D01*
X86455457Y-111746166D01*
X86055147Y-110777342D01*
X85314557Y-110035458D01*
X84346433Y-109633458D01*
X83298166Y-109632543D01*
X82329342Y-110032853D01*
X81587458Y-110773443D01*
X81185458Y-111741567D01*
X81184543Y-112789834D01*
X78867000Y-112789834D01*
X78867000Y-59449834D01*
X81184543Y-59449834D01*
X81584853Y-60418658D01*
X82325443Y-61160542D01*
X83293567Y-61562542D01*
X84341834Y-61563457D01*
X85310658Y-61163147D01*
X86052542Y-60422557D01*
X86454542Y-59454433D01*
X86455457Y-58406166D01*
X86055147Y-57437342D01*
X85314557Y-56695458D01*
X84346433Y-56293458D01*
X83298166Y-56292543D01*
X82329342Y-56692853D01*
X81587458Y-57433443D01*
X81185458Y-58401567D01*
X81184543Y-59449834D01*
X78867000Y-59449834D01*
X78867000Y-54737000D01*
X211963000Y-54737000D01*
X211963000Y-115443000D01*
G36*
X121218900Y-92336298D02*
X121116998Y-92438200D01*
X121052391Y-92438200D01*
X120872121Y-92363345D01*
X120539937Y-92363055D01*
X120232928Y-92489908D01*
X119997834Y-92724593D01*
X119870445Y-93031379D01*
X119870155Y-93363563D01*
X119997008Y-93670572D01*
X120231693Y-93905666D01*
X120538479Y-94033055D01*
X120671800Y-94033171D01*
X120671800Y-99432098D01*
X114037602Y-92797900D01*
X114764805Y-92797900D01*
X114764555Y-93083963D01*
X114891408Y-93390972D01*
X115126093Y-93626066D01*
X115432879Y-93753455D01*
X115765063Y-93753745D01*
X115946929Y-93678600D01*
X116851000Y-93678600D01*
X117141839Y-93620748D01*
X117388401Y-93456001D01*
X121218900Y-89625502D01*
X121218900Y-92336298D01*
X121218900Y-92336298D01*
G37*
X121218900Y-92336298D02*
X121116998Y-92438200D01*
X121052391Y-92438200D01*
X120872121Y-92363345D01*
X120539937Y-92363055D01*
X120232928Y-92489908D01*
X119997834Y-92724593D01*
X119870445Y-93031379D01*
X119870155Y-93363563D01*
X119997008Y-93670572D01*
X120231693Y-93905666D01*
X120538479Y-94033055D01*
X120671800Y-94033171D01*
X120671800Y-99432098D01*
X114037602Y-92797900D01*
X114764805Y-92797900D01*
X114764555Y-93083963D01*
X114891408Y-93390972D01*
X115126093Y-93626066D01*
X115432879Y-93753455D01*
X115765063Y-93753745D01*
X115946929Y-93678600D01*
X116851000Y-93678600D01*
X117141839Y-93620748D01*
X117388401Y-93456001D01*
X121218900Y-89625502D01*
X121218900Y-92336298D01*
G36*
X137197028Y-57209408D02*
X136961934Y-57444093D01*
X136886471Y-57625827D01*
X128424499Y-66087799D01*
X128259752Y-66334361D01*
X128201900Y-66625200D01*
X128201900Y-66954206D01*
X128016000Y-66916560D01*
X125984000Y-66916560D01*
X125748683Y-66960838D01*
X125532559Y-67099910D01*
X125421160Y-67262948D01*
X125324818Y-67173615D01*
X124842944Y-66974025D01*
X124587000Y-67093164D01*
X124587000Y-68453000D01*
X124607000Y-68453000D01*
X124607000Y-68707000D01*
X124587000Y-68707000D01*
X124587000Y-70066836D01*
X124842944Y-70185975D01*
X125324818Y-69986385D01*
X125422398Y-69895903D01*
X125519910Y-70047441D01*
X125732110Y-70192431D01*
X125984000Y-70243440D01*
X128016000Y-70243440D01*
X128201900Y-70208460D01*
X128201900Y-70360498D01*
X115940264Y-82622134D01*
X115803021Y-82565145D01*
X115745307Y-82565095D01*
X117351601Y-80958801D01*
X117516348Y-80712240D01*
X117574200Y-80421400D01*
X117574200Y-75272591D01*
X117649055Y-75092321D01*
X117649345Y-74760137D01*
X117522492Y-74453128D01*
X117287807Y-74218034D01*
X116981021Y-74090645D01*
X116648837Y-74090355D01*
X116341828Y-74217208D01*
X116106734Y-74451893D01*
X115979345Y-74758679D01*
X115979055Y-75090863D01*
X116054200Y-75272729D01*
X116054200Y-75682488D01*
X115780428Y-75795608D01*
X115545334Y-76030293D01*
X115417945Y-76337079D01*
X115417655Y-76669263D01*
X115492800Y-76851129D01*
X115492800Y-80006598D01*
X113613200Y-81886198D01*
X113613200Y-70978602D01*
X115628856Y-68962946D01*
X122854017Y-68962946D01*
X123122812Y-69548379D01*
X123595182Y-69986385D01*
X124077056Y-70185975D01*
X124333000Y-70066836D01*
X124333000Y-68707000D01*
X122972633Y-68707000D01*
X122854017Y-68962946D01*
X115628856Y-68962946D01*
X116394748Y-68197054D01*
X122854017Y-68197054D01*
X122972633Y-68453000D01*
X124333000Y-68453000D01*
X124333000Y-67093164D01*
X124077056Y-66974025D01*
X123595182Y-67173615D01*
X123122812Y-67611621D01*
X122854017Y-68197054D01*
X116394748Y-68197054D01*
X122978259Y-61613543D01*
X123122812Y-61928379D01*
X123595182Y-62366385D01*
X124077056Y-62565975D01*
X124333000Y-62446836D01*
X124333000Y-61087000D01*
X124313000Y-61087000D01*
X124313000Y-60833000D01*
X124333000Y-60833000D01*
X124333000Y-60813000D01*
X124587000Y-60813000D01*
X124587000Y-60833000D01*
X124607000Y-60833000D01*
X124607000Y-61087000D01*
X124587000Y-61087000D01*
X124587000Y-62446836D01*
X124842944Y-62565975D01*
X125324818Y-62366385D01*
X125422398Y-62275903D01*
X125519910Y-62427441D01*
X125732110Y-62572431D01*
X125984000Y-62623440D01*
X128016000Y-62623440D01*
X128251317Y-62579162D01*
X128467441Y-62440090D01*
X128612431Y-62227890D01*
X128663440Y-61976000D01*
X128663440Y-59944000D01*
X128619162Y-59708683D01*
X128480090Y-59492559D01*
X128267890Y-59347569D01*
X128016000Y-59296560D01*
X127760000Y-59296560D01*
X127760000Y-57673000D01*
X127702148Y-57382161D01*
X127542881Y-57143800D01*
X137355812Y-57143800D01*
X137197028Y-57209408D01*
X137197028Y-57209408D01*
G37*
X137197028Y-57209408D02*
X136961934Y-57444093D01*
X136886471Y-57625827D01*
X128424499Y-66087799D01*
X128259752Y-66334361D01*
X128201900Y-66625200D01*
X128201900Y-66954206D01*
X128016000Y-66916560D01*
X125984000Y-66916560D01*
X125748683Y-66960838D01*
X125532559Y-67099910D01*
X125421160Y-67262948D01*
X125324818Y-67173615D01*
X124842944Y-66974025D01*
X124587000Y-67093164D01*
X124587000Y-68453000D01*
X124607000Y-68453000D01*
X124607000Y-68707000D01*
X124587000Y-68707000D01*
X124587000Y-70066836D01*
X124842944Y-70185975D01*
X125324818Y-69986385D01*
X125422398Y-69895903D01*
X125519910Y-70047441D01*
X125732110Y-70192431D01*
X125984000Y-70243440D01*
X128016000Y-70243440D01*
X128201900Y-70208460D01*
X128201900Y-70360498D01*
X115940264Y-82622134D01*
X115803021Y-82565145D01*
X115745307Y-82565095D01*
X117351601Y-80958801D01*
X117516348Y-80712240D01*
X117574200Y-80421400D01*
X117574200Y-75272591D01*
X117649055Y-75092321D01*
X117649345Y-74760137D01*
X117522492Y-74453128D01*
X117287807Y-74218034D01*
X116981021Y-74090645D01*
X116648837Y-74090355D01*
X116341828Y-74217208D01*
X116106734Y-74451893D01*
X115979345Y-74758679D01*
X115979055Y-75090863D01*
X116054200Y-75272729D01*
X116054200Y-75682488D01*
X115780428Y-75795608D01*
X115545334Y-76030293D01*
X115417945Y-76337079D01*
X115417655Y-76669263D01*
X115492800Y-76851129D01*
X115492800Y-80006598D01*
X113613200Y-81886198D01*
X113613200Y-70978602D01*
X115628856Y-68962946D01*
X122854017Y-68962946D01*
X123122812Y-69548379D01*
X123595182Y-69986385D01*
X124077056Y-70185975D01*
X124333000Y-70066836D01*
X124333000Y-68707000D01*
X122972633Y-68707000D01*
X122854017Y-68962946D01*
X115628856Y-68962946D01*
X116394748Y-68197054D01*
X122854017Y-68197054D01*
X122972633Y-68453000D01*
X124333000Y-68453000D01*
X124333000Y-67093164D01*
X124077056Y-66974025D01*
X123595182Y-67173615D01*
X123122812Y-67611621D01*
X122854017Y-68197054D01*
X116394748Y-68197054D01*
X122978259Y-61613543D01*
X123122812Y-61928379D01*
X123595182Y-62366385D01*
X124077056Y-62565975D01*
X124333000Y-62446836D01*
X124333000Y-61087000D01*
X124313000Y-61087000D01*
X124313000Y-60833000D01*
X124333000Y-60833000D01*
X124333000Y-60813000D01*
X124587000Y-60813000D01*
X124587000Y-60833000D01*
X124607000Y-60833000D01*
X124607000Y-61087000D01*
X124587000Y-61087000D01*
X124587000Y-62446836D01*
X124842944Y-62565975D01*
X125324818Y-62366385D01*
X125422398Y-62275903D01*
X125519910Y-62427441D01*
X125732110Y-62572431D01*
X125984000Y-62623440D01*
X128016000Y-62623440D01*
X128251317Y-62579162D01*
X128467441Y-62440090D01*
X128612431Y-62227890D01*
X128663440Y-61976000D01*
X128663440Y-59944000D01*
X128619162Y-59708683D01*
X128480090Y-59492559D01*
X128267890Y-59347569D01*
X128016000Y-59296560D01*
X127760000Y-59296560D01*
X127760000Y-57673000D01*
X127702148Y-57382161D01*
X127542881Y-57143800D01*
X137355812Y-57143800D01*
X137197028Y-57209408D01*
M02*
