G04 #@! TF.FileFunction,Copper,L2,Bot,Signal*
%FSLAX46Y46*%
G04 Gerber Fmt 4.6, Leading zero omitted, Abs format (unit mm)*
G04 Created by KiCad (PCBNEW 4.0.2+dfsg1-stable) date gio 27 giu 2019 15:00:49 CEST*
%MOMM*%
G01*
G04 APERTURE LIST*
%ADD10C,0.100000*%
%ADD11C,0.650000*%
%ADD12O,0.650000X0.650000*%
%ADD13R,0.650000X4.600000*%
%ADD14C,1.500000*%
%ADD15C,4.000000*%
%ADD16R,2.032000X1.727200*%
%ADD17O,2.032000X1.727200*%
%ADD18R,2.032000X2.032000*%
%ADD19O,2.032000X2.032000*%
%ADD20C,0.400000*%
%ADD21C,0.250000*%
%ADD22C,0.254000*%
G04 APERTURE END LIST*
D10*
D11*
X131572000Y-124466000D03*
D12*
X151572000Y-124466000D03*
D13*
X151572000Y-122166000D03*
X131572000Y-122166000D03*
X132572000Y-122166000D03*
X133572000Y-122166000D03*
X134572000Y-122166000D03*
X135572000Y-122166000D03*
X136572000Y-122166000D03*
X137572000Y-122166000D03*
X138572000Y-122166000D03*
X139572000Y-122166000D03*
X140572000Y-122166000D03*
X141572000Y-122166000D03*
X146572000Y-122166000D03*
X147572000Y-122166000D03*
X148572000Y-122166000D03*
X149572000Y-122166000D03*
X150572000Y-122166000D03*
X144572000Y-122166000D03*
X145572000Y-122166000D03*
D12*
X134572000Y-124466000D03*
X135572000Y-124466000D03*
X136572000Y-124466000D03*
X137572000Y-124466000D03*
X138572000Y-124466000D03*
X139572000Y-124466000D03*
X140572000Y-124466000D03*
X146572000Y-124466000D03*
X147572000Y-124466000D03*
X133572000Y-124466000D03*
X145572000Y-124466000D03*
X148572000Y-124466000D03*
X141572000Y-124466000D03*
X144572000Y-124466000D03*
X149572000Y-124466000D03*
X150572000Y-124466000D03*
X132572000Y-124466000D03*
D13*
X152572000Y-122166000D03*
X153572000Y-122166000D03*
X154572000Y-122166000D03*
X155572000Y-122166000D03*
X156572000Y-122166000D03*
X157572000Y-122166000D03*
X158572000Y-122166000D03*
X159572000Y-122166000D03*
X160572000Y-122166000D03*
X161572000Y-122166000D03*
X162572000Y-122166000D03*
X163572000Y-122166000D03*
X164572000Y-122166000D03*
D12*
X152572000Y-124466000D03*
X153572000Y-124466000D03*
X154572000Y-124466000D03*
X155572000Y-124466000D03*
X156572000Y-124466000D03*
X157572000Y-124466000D03*
X158572000Y-124466000D03*
X159572000Y-124466000D03*
X160572000Y-124466000D03*
X161572000Y-124466000D03*
X162572000Y-124466000D03*
X163572000Y-124466000D03*
X164572000Y-124466000D03*
D14*
X137160000Y-63500000D03*
X137160000Y-68380000D03*
D15*
X208280000Y-58928000D03*
X83820000Y-112268000D03*
X208280000Y-109728000D03*
X83820000Y-58928000D03*
D16*
X203200000Y-78740000D03*
D17*
X203200000Y-81280000D03*
X203200000Y-83820000D03*
X203200000Y-86360000D03*
D18*
X198120000Y-60960000D03*
D19*
X200660000Y-60960000D03*
D16*
X194000000Y-98500000D03*
D17*
X194000000Y-101040000D03*
X194000000Y-103580000D03*
D18*
X127000000Y-60960000D03*
D19*
X124460000Y-60960000D03*
D18*
X127000000Y-68580000D03*
D19*
X124460000Y-68580000D03*
D20*
X121380000Y-77505600D03*
X157210500Y-111285600D03*
X114997500Y-86795000D03*
X153317200Y-119463400D03*
X149687200Y-119443400D03*
X150022800Y-118085100D03*
X157269100Y-119462900D03*
X113378500Y-72867900D03*
X122394900Y-87640700D03*
X120655700Y-91980000D03*
X188501500Y-102804500D03*
X153064500Y-111340900D03*
X138159100Y-108395200D03*
X145741000Y-108328600D03*
X135439900Y-89270000D03*
X115203000Y-95980000D03*
X93867700Y-73660000D03*
X101448800Y-78636400D03*
X105851800Y-94855100D03*
X118743800Y-108757700D03*
X143530600Y-107878300D03*
X106210500Y-95391300D03*
X127043700Y-113211300D03*
X149145900Y-115227100D03*
X106824800Y-83847600D03*
X121537700Y-105308800D03*
X148587700Y-105767400D03*
X99222500Y-82659800D03*
X99685800Y-113485900D03*
X148727700Y-114796100D03*
X151103600Y-118904700D03*
X95276000Y-82900000D03*
X101979200Y-111799800D03*
X146179400Y-111772400D03*
X110715800Y-81200000D03*
X109351700Y-78041900D03*
X106074000Y-76792900D03*
X111432100Y-99660800D03*
X133382300Y-98334400D03*
X132766700Y-118340600D03*
X132023700Y-119083600D03*
X107113700Y-80040800D03*
X103815800Y-87750300D03*
X107147700Y-87750300D03*
X130432300Y-114915300D03*
X138116300Y-118531100D03*
X106728900Y-82362700D03*
X162918800Y-119084400D03*
X162908200Y-114665300D03*
X126003200Y-111407700D03*
X184578000Y-87737700D03*
X162312800Y-116283900D03*
X100440000Y-95442300D03*
X108909600Y-113166900D03*
X183915200Y-88344900D03*
X155409500Y-84190800D03*
X145530700Y-77208600D03*
X116252800Y-76503900D03*
X110176100Y-85269100D03*
X100672000Y-84583900D03*
X100124200Y-94480700D03*
X180395300Y-89119400D03*
X144375800Y-84740300D03*
X142204000Y-115600100D03*
X110918600Y-114311500D03*
X101617400Y-95247800D03*
X158036700Y-87098500D03*
X101828700Y-97761900D03*
X101434000Y-104471900D03*
X143177400Y-111247100D03*
X144375800Y-87275500D03*
X156872800Y-88353700D03*
X151260700Y-88384800D03*
X146210100Y-109070700D03*
X107275100Y-109320500D03*
X101828400Y-98761000D03*
X152896100Y-89554700D03*
X103329700Y-97794000D03*
X104424000Y-103860600D03*
X140578000Y-104807100D03*
X141679100Y-89905000D03*
X166822300Y-90540000D03*
X164490500Y-90780600D03*
X150389400Y-91175000D03*
X132032300Y-90624700D03*
X129786100Y-88592300D03*
X118864500Y-88592300D03*
X108726400Y-88649000D03*
X102188100Y-88649000D03*
X104469400Y-95419800D03*
X150637200Y-92373200D03*
X149181100Y-117868400D03*
X150037500Y-106352400D03*
X120317600Y-106840700D03*
X109689700Y-101898200D03*
X112909900Y-97741900D03*
X106247100Y-86324400D03*
X144486200Y-91725300D03*
X143997300Y-115847800D03*
X108365900Y-87097500D03*
X117965300Y-89607900D03*
X149052300Y-90540000D03*
X145619200Y-118847300D03*
X98048900Y-85900000D03*
X101650600Y-84372900D03*
X132918400Y-82546800D03*
X131883100Y-86095000D03*
X148104100Y-86730000D03*
X145500100Y-118213400D03*
X140762800Y-118989700D03*
X140560300Y-88932000D03*
X140253900Y-108095000D03*
X107908200Y-109202700D03*
X95275800Y-86434700D03*
X141025800Y-115909400D03*
X141774400Y-93715000D03*
X116814200Y-115039000D03*
X97979700Y-86921600D03*
X156325200Y-92445000D03*
X136671100Y-91981700D03*
X133770300Y-116188300D03*
X133848600Y-92201600D03*
X133728800Y-102194700D03*
X121071000Y-102286000D03*
X107409800Y-86014900D03*
X97860700Y-87900000D03*
X114225800Y-116067400D03*
X108741500Y-89354100D03*
X132736800Y-119451100D03*
X136900000Y-93836400D03*
X159581300Y-105774700D03*
X165014800Y-93715000D03*
X137121400Y-100473400D03*
X159581300Y-101114400D03*
X118157600Y-101389600D03*
X108462500Y-91623900D03*
X104739100Y-90659100D03*
X105599400Y-82374600D03*
X118712000Y-86586000D03*
X120901200Y-84396800D03*
X146157000Y-85869400D03*
X154089900Y-119236100D03*
X101471600Y-94625300D03*
X106018100Y-110713900D03*
X152477100Y-117894800D03*
X149793500Y-110121300D03*
X113628600Y-87400000D03*
X113242600Y-84937200D03*
X118356200Y-84456700D03*
X158288800Y-118996600D03*
X102796900Y-82761500D03*
X127688900Y-113669000D03*
X147084200Y-82285000D03*
X143913800Y-107396100D03*
X146652300Y-107728200D03*
X148436200Y-118995900D03*
X147110400Y-109590500D03*
X101160900Y-94055700D03*
X107186200Y-110183700D03*
X146710200Y-80886100D03*
X144337500Y-104313700D03*
X117635100Y-104061200D03*
X109541000Y-95433200D03*
X145210900Y-104926400D03*
X145429000Y-119452700D03*
X123473900Y-94204400D03*
X133239900Y-81590500D03*
X131814800Y-104428200D03*
X141628700Y-104401100D03*
X141692700Y-117887600D03*
X123144200Y-93648500D03*
X133880500Y-78628700D03*
X138772000Y-80783700D03*
X140037900Y-118259600D03*
X137790300Y-81053500D03*
X150049100Y-80858100D03*
X137742900Y-103243400D03*
X118941900Y-103420800D03*
X110446600Y-94124400D03*
X138172100Y-105213200D03*
X136547100Y-105227200D03*
X137170400Y-116951000D03*
X120705300Y-93198200D03*
X129691600Y-81019000D03*
X127746300Y-106944600D03*
X123037700Y-107265700D03*
X129132700Y-115440600D03*
X152571200Y-81150300D03*
X134271400Y-81019000D03*
X133665700Y-117689300D03*
X134353400Y-82146300D03*
X125603000Y-83239200D03*
X115599700Y-92918600D03*
X150973000Y-82669400D03*
X150366400Y-82918200D03*
X132108200Y-117772800D03*
X134075900Y-83288700D03*
X103936400Y-82367600D03*
X102734900Y-86774700D03*
X109023200Y-87289300D03*
X122968500Y-83764700D03*
X157399400Y-105694800D03*
X157495300Y-87634300D03*
X178809400Y-98792300D03*
X114374500Y-101326100D03*
X106886400Y-92049500D03*
X117190400Y-102868200D03*
X106988400Y-91400000D03*
X115391000Y-91311700D03*
X113994900Y-90966900D03*
X167132700Y-100062500D03*
X108214300Y-78827500D03*
X147087700Y-96891800D03*
X146166100Y-96255000D03*
X140574300Y-97506100D03*
X140159500Y-106998800D03*
X119205600Y-108211800D03*
X102952400Y-90447500D03*
X110109600Y-99612100D03*
X106660300Y-100307500D03*
X132262500Y-96099800D03*
X130143400Y-104865600D03*
X103058900Y-105200200D03*
X101228300Y-97875000D03*
X104967100Y-89900000D03*
X109132900Y-99064800D03*
X155846800Y-104687100D03*
X155313800Y-85321800D03*
X138734100Y-81670900D03*
X128785700Y-80310500D03*
X113499500Y-92037900D03*
X142309900Y-101383100D03*
X138184600Y-84773000D03*
X133757100Y-69810800D03*
X126797000Y-105183000D03*
X108749000Y-72867900D03*
X128260000Y-85820000D03*
X116814200Y-74925500D03*
X110269800Y-86965800D03*
X114347400Y-88900000D03*
X123189900Y-81908400D03*
X111434400Y-104385900D03*
X108488800Y-98699600D03*
X111766000Y-105407500D03*
X107993300Y-98134800D03*
X155951500Y-114351600D03*
X155572000Y-117259600D03*
X152055100Y-117259600D03*
X108739700Y-82356100D03*
X109457400Y-84680100D03*
X151635200Y-119441600D03*
X136671100Y-97986400D03*
X136671100Y-101600000D03*
X137122800Y-114849600D03*
X156346500Y-99583600D03*
X147593200Y-117426900D03*
X134059300Y-114237000D03*
X155572000Y-119458200D03*
X138220200Y-97986400D03*
X139320800Y-116866700D03*
X141167400Y-118232500D03*
X106434500Y-67285700D03*
X110663100Y-88400000D03*
X159253100Y-56924000D03*
X159395900Y-117430700D03*
X162793600Y-117430700D03*
X115051700Y-88195700D03*
X125567900Y-77572700D03*
X137538100Y-78401100D03*
X188655800Y-78795000D03*
X188655800Y-76623600D03*
X147367800Y-76740300D03*
X160171200Y-114057800D03*
X104233700Y-111337600D03*
X97597600Y-93400000D03*
X161341200Y-115602700D03*
X106786400Y-112960600D03*
X98573300Y-97768200D03*
X151048600Y-70175300D03*
X114527100Y-83931100D03*
X137669400Y-57917700D03*
X115636200Y-83400000D03*
X126050500Y-57466500D03*
X112996900Y-82818900D03*
D21*
X200660000Y-75011100D02*
X203200000Y-77551100D01*
X200660000Y-60960000D02*
X200660000Y-75011100D01*
X203200000Y-78740000D02*
X203200000Y-78145500D01*
X203200000Y-78145500D02*
X203200000Y-77551100D01*
X124274400Y-67053100D02*
X124460000Y-67238700D01*
X124274400Y-62486900D02*
X124274400Y-67053100D01*
X124460000Y-62301300D02*
X124274400Y-62486900D01*
X124460000Y-60960000D02*
X124460000Y-62301300D01*
X124460000Y-68580000D02*
X124460000Y-67238700D01*
X153394500Y-119540700D02*
X153317200Y-119463400D01*
X153572000Y-119540700D02*
X153394500Y-119540700D01*
X149572000Y-122166000D02*
X149572000Y-119540700D01*
X149589900Y-119540700D02*
X149687200Y-119443400D01*
X149572000Y-119540700D02*
X149589900Y-119540700D01*
X124460000Y-74425600D02*
X121380000Y-77505600D01*
X124460000Y-68580000D02*
X124460000Y-74425600D01*
X116742300Y-72867900D02*
X113378500Y-72867900D01*
X121380000Y-77505600D02*
X116742300Y-72867900D01*
X194000000Y-93724200D02*
X194000000Y-98500000D01*
X202634200Y-85090000D02*
X194000000Y-93724200D01*
X203832900Y-85090000D02*
X202634200Y-85090000D01*
X204594400Y-84328500D02*
X203832900Y-85090000D01*
X204594400Y-79539900D02*
X204594400Y-84328500D01*
X203200000Y-78145500D02*
X204594400Y-79539900D01*
X192658700Y-98647300D02*
X188501500Y-102804500D01*
X192658700Y-98500000D02*
X192658700Y-98647300D01*
X194000000Y-98500000D02*
X192658700Y-98500000D01*
X153572000Y-122166000D02*
X153572000Y-119540700D01*
X122394900Y-87873300D02*
X122394900Y-87640700D01*
X121206500Y-89061700D02*
X122394900Y-87873300D01*
X121206500Y-91429200D02*
X121206500Y-89061700D01*
X120655700Y-91980000D02*
X121206500Y-91429200D01*
X135572000Y-122166000D02*
X135572000Y-119540700D01*
X131572000Y-122166000D02*
X131572000Y-119540700D01*
X115109400Y-86683100D02*
X114997500Y-86795000D01*
X115109400Y-83183300D02*
X115109400Y-86683100D01*
X120787100Y-77505600D02*
X115109400Y-83183300D01*
X121380000Y-77505600D02*
X120787100Y-77505600D01*
X115508000Y-95980000D02*
X115203000Y-95980000D01*
X121596300Y-102068300D02*
X115508000Y-95980000D01*
X121596300Y-102373300D02*
X121596300Y-102068300D01*
X131132600Y-111909600D02*
X121596300Y-102373300D01*
X131132600Y-119101300D02*
X131132600Y-111909600D01*
X131572000Y-119540700D02*
X131132600Y-119101300D01*
X138159100Y-117808100D02*
X138159100Y-108395200D01*
X139572000Y-119221000D02*
X138159100Y-117808100D01*
X139572000Y-122166000D02*
X139572000Y-119221000D01*
X135485200Y-89315300D02*
X135439900Y-89270000D01*
X135485200Y-115000000D02*
X135485200Y-89315300D01*
X135646500Y-115161300D02*
X135485200Y-115000000D01*
X135646500Y-119466200D02*
X135646500Y-115161300D01*
X135572000Y-119540700D02*
X135646500Y-119466200D01*
X153481000Y-111757400D02*
X153064500Y-111340900D01*
X153481000Y-119299600D02*
X153481000Y-111757400D01*
X153317200Y-119463400D02*
X153481000Y-119299600D01*
X150022800Y-119107800D02*
X150022800Y-118085100D01*
X149687200Y-119443400D02*
X150022800Y-119107800D01*
X157572000Y-119765800D02*
X157269100Y-119462900D01*
X157572000Y-122166000D02*
X157572000Y-119765800D01*
X157210500Y-119404300D02*
X157269100Y-119462900D01*
X157210500Y-111285600D02*
X157210500Y-119404300D01*
X145654000Y-108415600D02*
X145741000Y-108328600D01*
X145654000Y-112415800D02*
X145654000Y-108415600D01*
X146325700Y-113087500D02*
X145654000Y-112415800D01*
X146325700Y-116690000D02*
X146325700Y-113087500D01*
X146489900Y-116854200D02*
X146325700Y-116690000D01*
X146489900Y-118768900D02*
X146489900Y-116854200D01*
X146065500Y-119193300D02*
X146489900Y-118768900D01*
X146065500Y-119571500D02*
X146065500Y-119193300D01*
X145572000Y-120065000D02*
X146065500Y-119571500D01*
X145572000Y-122166000D02*
X145572000Y-120065000D01*
X96472400Y-73660000D02*
X93867700Y-73660000D01*
X101448800Y-78636400D02*
X96472400Y-73660000D01*
X144572000Y-122166000D02*
X144572000Y-119540700D01*
X106417400Y-94855100D02*
X105851800Y-94855100D01*
X106746600Y-95184300D02*
X106417400Y-94855100D01*
X106746600Y-95680700D02*
X106746600Y-95184300D01*
X105684700Y-96742600D02*
X106746600Y-95680700D01*
X105684700Y-100734200D02*
X105684700Y-96742600D01*
X113708200Y-108757700D02*
X105684700Y-100734200D01*
X118743800Y-108757700D02*
X113708200Y-108757700D01*
X143825700Y-108173400D02*
X143530600Y-107878300D01*
X143825700Y-114933100D02*
X143825700Y-108173400D01*
X144524500Y-115631900D02*
X143825700Y-114933100D01*
X144524500Y-119493200D02*
X144524500Y-115631900D01*
X144572000Y-119540700D02*
X144524500Y-119493200D01*
X150572000Y-116653200D02*
X150572000Y-122166000D01*
X149145900Y-115227100D02*
X150572000Y-116653200D01*
X117519200Y-113211300D02*
X127043700Y-113211300D01*
X105234400Y-100926500D02*
X117519200Y-113211300D01*
X105234400Y-96367400D02*
X105234400Y-100926500D01*
X106210500Y-95391300D02*
X105234400Y-96367400D01*
X148572000Y-122166000D02*
X148572000Y-119540700D01*
X106824800Y-86489700D02*
X106824800Y-83847600D01*
X106622300Y-86692200D02*
X106824800Y-86489700D01*
X106622300Y-88614700D02*
X106622300Y-86692200D01*
X106906600Y-88899000D02*
X106622300Y-88614700D01*
X106906600Y-89535900D02*
X106906600Y-88899000D01*
X108469200Y-91098500D02*
X106906600Y-89535900D01*
X108681400Y-91098500D02*
X108469200Y-91098500D01*
X109234800Y-91651900D02*
X108681400Y-91098500D01*
X109354200Y-91651900D02*
X109234800Y-91651900D01*
X113409300Y-95707000D02*
X109354200Y-91651900D01*
X113409300Y-96224400D02*
X113409300Y-95707000D01*
X117027500Y-99842600D02*
X113409300Y-96224400D01*
X117353800Y-99842600D02*
X117027500Y-99842600D01*
X120095400Y-102584200D02*
X117353800Y-99842600D01*
X120095400Y-103866500D02*
X120095400Y-102584200D01*
X121537700Y-105308800D02*
X120095400Y-103866500D01*
X148652300Y-119540700D02*
X148572000Y-119540700D01*
X149016900Y-119176100D02*
X148652300Y-119540700D01*
X149016900Y-118531500D02*
X149016900Y-119176100D01*
X148602700Y-118117300D02*
X149016900Y-118531500D01*
X148602700Y-117056200D02*
X148602700Y-118117300D01*
X147752100Y-116205600D02*
X148602700Y-117056200D01*
X147752100Y-106603000D02*
X147752100Y-116205600D01*
X148587700Y-105767400D02*
X147752100Y-106603000D01*
X151103600Y-116334100D02*
X151103600Y-118904700D01*
X149383900Y-114614400D02*
X151103600Y-116334100D01*
X148909400Y-114614400D02*
X149383900Y-114614400D01*
X148727700Y-114796100D02*
X148909400Y-114614400D01*
X93820200Y-107620300D02*
X99685800Y-113485900D01*
X93820200Y-83582900D02*
X93820200Y-107620300D01*
X98404700Y-78998400D02*
X93820200Y-83582900D01*
X99681300Y-78998400D02*
X98404700Y-78998400D01*
X100281600Y-79598700D02*
X99681300Y-78998400D01*
X100281600Y-81600700D02*
X100281600Y-79598700D01*
X99222500Y-82659800D02*
X100281600Y-81600700D01*
X146572000Y-122166000D02*
X146572000Y-119540700D01*
X94270500Y-104091100D02*
X101979200Y-111799800D01*
X94270500Y-83905500D02*
X94270500Y-104091100D01*
X95276000Y-82900000D02*
X94270500Y-83905500D01*
X146776000Y-112369000D02*
X146179400Y-111772400D01*
X146776000Y-116503400D02*
X146776000Y-112369000D01*
X146940200Y-116667600D02*
X146776000Y-116503400D01*
X146940200Y-119172500D02*
X146940200Y-116667600D01*
X146572000Y-119540700D02*
X146940200Y-119172500D01*
X132572000Y-120029400D02*
X132572000Y-122166000D01*
X132023700Y-119481100D02*
X132572000Y-120029400D01*
X132023700Y-119083600D02*
X132023700Y-119481100D01*
X109351700Y-79835900D02*
X110715800Y-81200000D01*
X109351700Y-78041900D02*
X109351700Y-79835900D01*
X132670200Y-118244100D02*
X132766700Y-118340600D01*
X132670200Y-106541200D02*
X132670200Y-118244100D01*
X133315900Y-105895500D02*
X132670200Y-106541200D01*
X133315900Y-102675000D02*
X133315900Y-105895500D01*
X133116800Y-102475900D02*
X133315900Y-102675000D01*
X133116800Y-102040700D02*
X133116800Y-102475900D01*
X133382300Y-101775200D02*
X133116800Y-102040700D01*
X133382300Y-98334400D02*
X133382300Y-101775200D01*
X111432100Y-99554600D02*
X111432100Y-99660800D01*
X110583400Y-98705900D02*
X111432100Y-99554600D01*
X110583400Y-98493700D02*
X110583400Y-98705900D01*
X108097500Y-96007800D02*
X110583400Y-98493700D01*
X108097500Y-94624500D02*
X108097500Y-96007800D01*
X106498100Y-93025100D02*
X108097500Y-94624500D01*
X106482200Y-93025100D02*
X106498100Y-93025100D01*
X105910800Y-92453700D02*
X106482200Y-93025100D01*
X105910800Y-90450800D02*
X105910800Y-92453700D01*
X105555700Y-90095700D02*
X105910800Y-90450800D01*
X105555700Y-89474500D02*
X105555700Y-90095700D01*
X105271400Y-89190200D02*
X105555700Y-89474500D01*
X105271400Y-83732100D02*
X105271400Y-89190200D01*
X106180800Y-82822700D02*
X105271400Y-83732100D01*
X106180800Y-82079700D02*
X106180800Y-82822700D01*
X107643200Y-80617300D02*
X106180800Y-82079700D01*
X107643200Y-79827200D02*
X107643200Y-80617300D01*
X106074000Y-78258000D02*
X107643200Y-79827200D01*
X106074000Y-76792900D02*
X106074000Y-78258000D01*
X138572000Y-118986800D02*
X138116300Y-118531100D01*
X138572000Y-122166000D02*
X138572000Y-118986800D01*
X103815800Y-83338700D02*
X107113700Y-80040800D01*
X103815800Y-87750300D02*
X103815800Y-83338700D01*
X130432300Y-112390200D02*
X130432300Y-114915300D01*
X120545700Y-102503600D02*
X130432300Y-112390200D01*
X120545700Y-102397600D02*
X120545700Y-102503600D01*
X117540400Y-99392300D02*
X120545700Y-102397600D01*
X117214100Y-99392300D02*
X117540400Y-99392300D01*
X113859600Y-96037800D02*
X117214100Y-99392300D01*
X113859600Y-95520400D02*
X113859600Y-96037800D01*
X109540800Y-91201600D02*
X113859600Y-95520400D01*
X109421400Y-91201600D02*
X109540800Y-91201600D01*
X108868000Y-90648200D02*
X109421400Y-91201600D01*
X108655800Y-90648200D02*
X108868000Y-90648200D01*
X107356900Y-89349300D02*
X108655800Y-90648200D01*
X107356900Y-88712400D02*
X107356900Y-89349300D01*
X107147700Y-88503200D02*
X107356900Y-88712400D01*
X107147700Y-87750300D02*
X107147700Y-88503200D01*
X162908200Y-116573200D02*
X162908200Y-114665300D01*
X162222400Y-117259000D02*
X162908200Y-116573200D01*
X162222400Y-118388000D02*
X162222400Y-117259000D01*
X162918800Y-119084400D02*
X162222400Y-118388000D01*
X120452600Y-105857100D02*
X126003200Y-111407700D01*
X118109100Y-105857100D02*
X120452600Y-105857100D01*
X112515000Y-100263000D02*
X118109100Y-105857100D01*
X112515000Y-100000600D02*
X112515000Y-100263000D01*
X111033700Y-98519300D02*
X112515000Y-100000600D01*
X111033700Y-98307100D02*
X111033700Y-98519300D01*
X108547800Y-95821200D02*
X111033700Y-98307100D01*
X108547800Y-94437900D02*
X108547800Y-95821200D01*
X106684700Y-92574800D02*
X108547800Y-94437900D01*
X106668800Y-92574800D02*
X106684700Y-92574800D01*
X106361100Y-92267100D02*
X106668800Y-92574800D01*
X106361100Y-90264200D02*
X106361100Y-92267100D01*
X106006000Y-89909100D02*
X106361100Y-90264200D01*
X106006000Y-89287900D02*
X106006000Y-89909100D01*
X105721700Y-89003600D02*
X106006000Y-89287900D01*
X105721700Y-83918700D02*
X105721700Y-89003600D01*
X106728900Y-82911500D02*
X105721700Y-83918700D01*
X106728900Y-82362700D02*
X106728900Y-82911500D01*
X164572000Y-111435100D02*
X164572000Y-114085000D01*
X184578000Y-91429100D02*
X164572000Y-111435100D01*
X184578000Y-87737700D02*
X184578000Y-91429100D01*
X164572000Y-114085000D02*
X164572000Y-122166000D01*
X162320900Y-116275800D02*
X162312800Y-116283900D01*
X162320900Y-114466800D02*
X162320900Y-116275800D01*
X162702700Y-114085000D02*
X162320900Y-114466800D01*
X164572000Y-114085000D02*
X162702700Y-114085000D01*
X107379400Y-111636700D02*
X108909600Y-113166900D01*
X106198000Y-111636700D02*
X107379400Y-111636700D01*
X103986500Y-109425200D02*
X106198000Y-111636700D01*
X103670300Y-109425200D02*
X103986500Y-109425200D01*
X99352000Y-105106900D02*
X103670300Y-109425200D01*
X99352000Y-96530300D02*
X99352000Y-105106900D01*
X100440000Y-95442300D02*
X99352000Y-96530300D01*
X162572000Y-122166000D02*
X162572000Y-119540700D01*
X111305100Y-85269100D02*
X110176100Y-85269100D01*
X116252800Y-80321400D02*
X111305100Y-85269100D01*
X116252800Y-76503900D02*
X116252800Y-80321400D01*
X154761900Y-84190800D02*
X155409500Y-84190800D01*
X147836700Y-77265600D02*
X154761900Y-84190800D01*
X145587700Y-77265600D02*
X147836700Y-77265600D01*
X145530700Y-77208600D02*
X145587700Y-77265600D01*
X161870500Y-110389600D02*
X183915200Y-88344900D01*
X161870500Y-115816400D02*
X161870500Y-110389600D01*
X161772100Y-115914800D02*
X161870500Y-115816400D01*
X161772100Y-118740800D02*
X161772100Y-115914800D01*
X162572000Y-119540700D02*
X161772100Y-118740800D01*
X96331700Y-84583900D02*
X100672000Y-84583900D01*
X94720800Y-86194800D02*
X96331700Y-84583900D01*
X94720800Y-89077300D02*
X94720800Y-86194800D01*
X100124200Y-94480700D02*
X94720800Y-89077300D01*
X160572000Y-122166000D02*
X160572000Y-119540700D01*
X160756200Y-108758500D02*
X180395300Y-89119400D01*
X160756200Y-119356500D02*
X160756200Y-108758500D01*
X160572000Y-119540700D02*
X160756200Y-119356500D01*
X107793500Y-111186400D02*
X110918600Y-114311500D01*
X107233700Y-111186400D02*
X107793500Y-111186400D01*
X104571900Y-108524600D02*
X107233700Y-111186400D01*
X104043500Y-108524600D02*
X104571900Y-108524600D01*
X100252600Y-104733700D02*
X104043500Y-108524600D01*
X100252600Y-97197200D02*
X100252600Y-104733700D01*
X101617400Y-95832400D02*
X100252600Y-97197200D01*
X101617400Y-95247800D02*
X101617400Y-95832400D01*
X142104700Y-115500800D02*
X142204000Y-115600100D01*
X142104700Y-107287500D02*
X142104700Y-115500800D01*
X142205800Y-107186400D02*
X142104700Y-107287500D01*
X142205800Y-102236300D02*
X142205800Y-107186400D01*
X142900900Y-101541200D02*
X142205800Y-102236300D01*
X142900900Y-86215200D02*
X142900900Y-101541200D01*
X144375800Y-84740300D02*
X142900900Y-86215200D01*
X158572000Y-122166000D02*
X158572000Y-119540700D01*
X158090000Y-119540700D02*
X158572000Y-119540700D01*
X157763500Y-119214200D02*
X158090000Y-119540700D01*
X157763500Y-118779000D02*
X157763500Y-119214200D01*
X158036700Y-118505800D02*
X157763500Y-118779000D01*
X158036700Y-87098500D02*
X158036700Y-118505800D01*
X101273600Y-104311500D02*
X101434000Y-104471900D01*
X101273600Y-98572700D02*
X101273600Y-104311500D01*
X101828700Y-98017600D02*
X101273600Y-98572700D01*
X101828700Y-97761900D02*
X101828700Y-98017600D01*
X143005300Y-111075000D02*
X143177400Y-111247100D01*
X143005300Y-107660700D02*
X143005300Y-111075000D01*
X143181400Y-107484600D02*
X143005300Y-107660700D01*
X143181400Y-103171400D02*
X143181400Y-107484600D01*
X143801500Y-102551300D02*
X143181400Y-103171400D01*
X143801500Y-94046300D02*
X143801500Y-102551300D01*
X145065400Y-92782400D02*
X143801500Y-94046300D01*
X145065400Y-90458700D02*
X145065400Y-92782400D01*
X144375800Y-89769100D02*
X145065400Y-90458700D01*
X144375800Y-87275500D02*
X144375800Y-89769100D01*
X156572000Y-122166000D02*
X156572000Y-119540700D01*
X156872800Y-105041000D02*
X156872800Y-88353700D01*
X156572000Y-105341800D02*
X156872800Y-105041000D01*
X156572000Y-119540700D02*
X156572000Y-105341800D01*
X101828400Y-103615100D02*
X101828400Y-98761000D01*
X102136500Y-103923200D02*
X101828400Y-103615100D01*
X102136500Y-105053300D02*
X102136500Y-103923200D01*
X104707200Y-107624000D02*
X102136500Y-105053300D01*
X105578600Y-107624000D02*
X104707200Y-107624000D01*
X107275100Y-109320500D02*
X105578600Y-107624000D01*
X146318400Y-108962400D02*
X146210100Y-109070700D01*
X146318400Y-108163000D02*
X146318400Y-108962400D01*
X146087000Y-107931600D02*
X146318400Y-108163000D01*
X146087000Y-107440800D02*
X146087000Y-107931600D01*
X149864000Y-103663800D02*
X146087000Y-107440800D01*
X149864000Y-89781500D02*
X149864000Y-103663800D01*
X151260700Y-88384800D02*
X149864000Y-89781500D01*
X154615200Y-91273800D02*
X152896100Y-89554700D01*
X154615200Y-119497500D02*
X154615200Y-91273800D01*
X154572000Y-119540700D02*
X154615200Y-119497500D01*
X154572000Y-122166000D02*
X154572000Y-119540700D01*
X140578000Y-98846100D02*
X140578000Y-104807100D01*
X141099700Y-98324400D02*
X140578000Y-98846100D01*
X141099700Y-90484400D02*
X141099700Y-98324400D01*
X141679100Y-89905000D02*
X141099700Y-90484400D01*
X104424000Y-103534000D02*
X104424000Y-103860600D01*
X103329700Y-102439700D02*
X104424000Y-103534000D01*
X103329700Y-97794000D02*
X103329700Y-102439700D01*
X164731100Y-90540000D02*
X164490500Y-90780600D01*
X166822300Y-90540000D02*
X164731100Y-90540000D01*
X152572000Y-122166000D02*
X152572000Y-119540700D01*
X132032300Y-90624600D02*
X132032300Y-90624700D01*
X131818400Y-90624600D02*
X132032300Y-90624600D01*
X129786100Y-88592300D02*
X131818400Y-90624600D01*
X118864500Y-89459200D02*
X118864500Y-88592300D01*
X117897400Y-90426300D02*
X118864500Y-89459200D01*
X111405100Y-90426300D02*
X117897400Y-90426300D01*
X110829500Y-89850700D02*
X111405100Y-90426300D01*
X109981200Y-89850700D02*
X110829500Y-89850700D01*
X108779500Y-88649000D02*
X109981200Y-89850700D01*
X108726400Y-88649000D02*
X108779500Y-88649000D01*
X151162600Y-91948200D02*
X150389400Y-91175000D01*
X151162600Y-114955100D02*
X151162600Y-91948200D01*
X153030700Y-116823200D02*
X151162600Y-114955100D01*
X153030700Y-118228200D02*
X153030700Y-116823200D01*
X152572000Y-118686900D02*
X153030700Y-118228200D01*
X152572000Y-119540700D02*
X152572000Y-118686900D01*
X102188100Y-90916500D02*
X102188100Y-88649000D01*
X104469400Y-93197800D02*
X102188100Y-90916500D01*
X104469400Y-95419800D02*
X104469400Y-93197800D01*
X150637200Y-105752700D02*
X150037500Y-106352400D01*
X150637200Y-92373200D02*
X150637200Y-105752700D01*
X149181100Y-116005200D02*
X149181100Y-117868400D01*
X148202400Y-115026500D02*
X149181100Y-116005200D01*
X148202400Y-108187500D02*
X148202400Y-115026500D01*
X150037500Y-106352400D02*
X148202400Y-108187500D01*
X114632200Y-106840700D02*
X109689700Y-101898200D01*
X120317600Y-106840700D02*
X114632200Y-106840700D01*
X112909900Y-97635700D02*
X112909900Y-97741900D01*
X112058400Y-96784200D02*
X112909900Y-97635700D01*
X112058400Y-96479100D02*
X112058400Y-96784200D01*
X109921300Y-94342000D02*
X112058400Y-96479100D01*
X109921300Y-93900600D02*
X109921300Y-94342000D01*
X107862100Y-91841400D02*
X109921300Y-93900600D01*
X107862100Y-91128300D02*
X107862100Y-91841400D01*
X106456300Y-89722500D02*
X107862100Y-91128300D01*
X106456300Y-89101300D02*
X106456300Y-89722500D01*
X106172000Y-88817000D02*
X106456300Y-89101300D01*
X106172000Y-86399500D02*
X106172000Y-88817000D01*
X106247100Y-86324400D02*
X106172000Y-86399500D01*
X142555000Y-114405500D02*
X143997300Y-115847800D01*
X142555000Y-107474100D02*
X142555000Y-114405500D01*
X142656100Y-107373000D02*
X142555000Y-107474100D01*
X142656100Y-103059800D02*
X142656100Y-107373000D01*
X143351200Y-102364700D02*
X142656100Y-103059800D01*
X143351200Y-92860300D02*
X143351200Y-102364700D01*
X144486200Y-91725300D02*
X143351200Y-92860300D01*
X108365900Y-87518900D02*
X108365900Y-87097500D01*
X110247400Y-89400400D02*
X108365900Y-87518900D01*
X111202600Y-89400400D02*
X110247400Y-89400400D01*
X111747800Y-89945600D02*
X111202600Y-89400400D01*
X117627600Y-89945600D02*
X111747800Y-89945600D01*
X117965300Y-89607900D02*
X117627600Y-89945600D01*
X149052300Y-103838600D02*
X149052300Y-90540000D01*
X145389900Y-107501000D02*
X149052300Y-103838600D01*
X145389900Y-107936800D02*
X145389900Y-107501000D01*
X145203700Y-108123000D02*
X145389900Y-107936800D01*
X145203700Y-114346200D02*
X145203700Y-108123000D01*
X145875400Y-115017900D02*
X145203700Y-114346200D01*
X145875400Y-116876600D02*
X145875400Y-115017900D01*
X146039600Y-117040800D02*
X145875400Y-116876600D01*
X146039600Y-118426900D02*
X146039600Y-117040800D01*
X145619200Y-118847300D02*
X146039600Y-118426900D01*
X132918400Y-82557800D02*
X132918400Y-82546800D01*
X131883100Y-83593100D02*
X132918400Y-82557800D01*
X131883100Y-86095000D02*
X131883100Y-83593100D01*
X100123500Y-85900000D02*
X101650600Y-84372900D01*
X98048900Y-85900000D02*
X100123500Y-85900000D01*
X148104100Y-104149900D02*
X148104100Y-86730000D01*
X144939600Y-107314400D02*
X148104100Y-104149900D01*
X144939600Y-107750200D02*
X144939600Y-107314400D01*
X144753400Y-107936400D02*
X144939600Y-107750200D01*
X144753400Y-114587000D02*
X144753400Y-107936400D01*
X145425100Y-115258700D02*
X144753400Y-114587000D01*
X145425100Y-118138400D02*
X145425100Y-115258700D01*
X145500100Y-118213400D02*
X145425100Y-118138400D01*
X140500500Y-108341600D02*
X140253900Y-108095000D01*
X140500500Y-117631900D02*
X140500500Y-108341600D01*
X140642100Y-117773500D02*
X140500500Y-117631900D01*
X140642100Y-118869000D02*
X140642100Y-117773500D01*
X140762800Y-118989700D02*
X140642100Y-118869000D01*
X139602400Y-89889900D02*
X140560300Y-88932000D01*
X139602400Y-107184800D02*
X139602400Y-89889900D01*
X140253900Y-107836300D02*
X139602400Y-107184800D01*
X140253900Y-108095000D02*
X140253900Y-107836300D01*
X95275800Y-86894600D02*
X95275800Y-86434700D01*
X102593100Y-94211900D02*
X95275800Y-86894600D01*
X102593100Y-97146300D02*
X102593100Y-94211900D01*
X102804300Y-97357500D02*
X102593100Y-97146300D01*
X102804300Y-102551200D02*
X102804300Y-97357500D01*
X103211200Y-102958100D02*
X102804300Y-102551200D01*
X103211200Y-104505700D02*
X103211200Y-102958100D01*
X107908200Y-109202700D02*
X103211200Y-104505700D01*
X141103400Y-115831800D02*
X141025800Y-115909400D01*
X141103400Y-101462000D02*
X141103400Y-115831800D01*
X141774400Y-100791000D02*
X141103400Y-101462000D01*
X141774400Y-93715000D02*
X141774400Y-100791000D01*
X100330500Y-89272400D02*
X97979700Y-86921600D01*
X100330500Y-90369700D02*
X100330500Y-89272400D01*
X103493700Y-93532900D02*
X100330500Y-90369700D01*
X103493700Y-96274400D02*
X103493700Y-93532900D01*
X104333700Y-97114400D02*
X103493700Y-96274400D01*
X104333700Y-101533100D02*
X104333700Y-97114400D01*
X116814200Y-114013600D02*
X104333700Y-101533100D01*
X116814200Y-115039000D02*
X116814200Y-114013600D01*
X156325200Y-85496000D02*
X156325200Y-92445000D01*
X155545300Y-84716100D02*
X156325200Y-85496000D01*
X154650300Y-84716100D02*
X155545300Y-84716100D01*
X149338200Y-79404000D02*
X154650300Y-84716100D01*
X138694500Y-79404000D02*
X149338200Y-79404000D01*
X136671100Y-81427400D02*
X138694500Y-79404000D01*
X136671100Y-91981700D02*
X136671100Y-81427400D01*
X107707600Y-86312700D02*
X107409800Y-86014900D01*
X107707600Y-88426200D02*
X107707600Y-86312700D01*
X107941300Y-88659900D02*
X107707600Y-88426200D01*
X107941300Y-89296800D02*
X107941300Y-88659900D01*
X108842400Y-90197900D02*
X107941300Y-89296800D01*
X109054600Y-90197900D02*
X108842400Y-90197900D01*
X109608000Y-90751300D02*
X109054600Y-90197900D01*
X109727400Y-90751300D02*
X109608000Y-90751300D01*
X114309900Y-95333800D02*
X109727400Y-90751300D01*
X114309900Y-95851200D02*
X114309900Y-95333800D01*
X117400700Y-98942000D02*
X114309900Y-95851200D01*
X117727000Y-98942000D02*
X117400700Y-98942000D01*
X121071000Y-102286000D02*
X117727000Y-98942000D01*
X133917600Y-102113800D02*
X133809700Y-102221700D01*
X133917600Y-92270600D02*
X133917600Y-102113800D01*
X133848600Y-92201600D02*
X133917600Y-92270600D01*
X133755800Y-102221700D02*
X133728800Y-102194700D01*
X133809700Y-102221700D02*
X133755800Y-102221700D01*
X133488100Y-115906100D02*
X133770300Y-116188300D01*
X133488100Y-113428100D02*
X133488100Y-115906100D01*
X133809700Y-113106500D02*
X133488100Y-113428100D01*
X133809700Y-102221700D02*
X133809700Y-113106500D01*
X97860700Y-88842500D02*
X97860700Y-87900000D01*
X103043400Y-94025200D02*
X97860700Y-88842500D01*
X103043400Y-96461000D02*
X103043400Y-94025200D01*
X103883400Y-97301000D02*
X103043400Y-96461000D01*
X103883400Y-102356400D02*
X103883400Y-97301000D01*
X114225800Y-112698800D02*
X103883400Y-102356400D01*
X114225800Y-116067400D02*
X114225800Y-112698800D01*
X108847700Y-89354100D02*
X108741500Y-89354100D01*
X109794600Y-90301000D02*
X108847700Y-89354100D01*
X110465900Y-90301000D02*
X109794600Y-90301000D01*
X122046600Y-101881700D02*
X110465900Y-90301000D01*
X122046600Y-102032000D02*
X122046600Y-101881700D01*
X131582900Y-111568300D02*
X122046600Y-102032000D01*
X131582900Y-118001100D02*
X131582900Y-111568300D01*
X131886200Y-118304400D02*
X131582900Y-118001100D01*
X131987500Y-118304400D02*
X131886200Y-118304400D01*
X132736800Y-119053700D02*
X131987500Y-118304400D01*
X132736800Y-119451100D02*
X132736800Y-119053700D01*
X140572000Y-122166000D02*
X140572000Y-119540700D01*
X159581300Y-99148500D02*
X159581300Y-101114400D01*
X165014800Y-93715000D02*
X159581300Y-99148500D01*
X159581300Y-101114400D02*
X159581300Y-105774700D01*
X137196400Y-94132800D02*
X136900000Y-93836400D01*
X137196400Y-100398400D02*
X137196400Y-94132800D01*
X137121400Y-100473400D02*
X137196400Y-100398400D01*
X104401000Y-90321000D02*
X104739100Y-90659100D01*
X104401000Y-83573000D02*
X104401000Y-90321000D01*
X105599400Y-82374600D02*
X104401000Y-83573000D01*
X117060900Y-100292900D02*
X118157600Y-101389600D01*
X116840900Y-100292900D02*
X117060900Y-100292900D01*
X112959000Y-96411000D02*
X116840900Y-100292900D01*
X112959000Y-95893600D02*
X112959000Y-96411000D01*
X109167600Y-92102200D02*
X112959000Y-95893600D01*
X108940800Y-92102200D02*
X109167600Y-92102200D01*
X108462500Y-91623900D02*
X108940800Y-92102200D01*
X137196400Y-100548400D02*
X137121400Y-100473400D01*
X137196400Y-104496600D02*
X137196400Y-100548400D01*
X137646700Y-104946900D02*
X137196400Y-104496600D01*
X137646700Y-107139800D02*
X137646700Y-104946900D01*
X138684400Y-108177500D02*
X137646700Y-107139800D01*
X138684400Y-117683200D02*
X138684400Y-108177500D01*
X140541900Y-119540700D02*
X138684400Y-117683200D01*
X140572000Y-119540700D02*
X140541900Y-119540700D01*
X120901200Y-84396800D02*
X118712000Y-86586000D01*
X149534300Y-85869400D02*
X146157000Y-85869400D01*
X151786000Y-88121100D02*
X149534300Y-85869400D01*
X151786000Y-92571500D02*
X151786000Y-88121100D01*
X154089900Y-94875400D02*
X151786000Y-92571500D01*
X154089900Y-119236100D02*
X154089900Y-94875400D01*
X104279100Y-108974900D02*
X106018100Y-110713900D01*
X103856900Y-108974900D02*
X104279100Y-108974900D01*
X99802300Y-104920300D02*
X103856900Y-108974900D01*
X99802300Y-96931400D02*
X99802300Y-104920300D01*
X100997500Y-95736200D02*
X99802300Y-96931400D01*
X100997500Y-95099400D02*
X100997500Y-95736200D01*
X101471600Y-94625300D02*
X100997500Y-95099400D01*
X149793500Y-114223000D02*
X149793500Y-110121300D01*
X152580400Y-117009900D02*
X149793500Y-114223000D01*
X152580400Y-117791500D02*
X152580400Y-117009900D01*
X152477100Y-117894800D02*
X152580400Y-117791500D01*
X113242600Y-87014000D02*
X113628600Y-87400000D01*
X113242600Y-84937200D02*
X113242600Y-87014000D01*
X158572000Y-118713400D02*
X158288800Y-118996600D01*
X158572000Y-86396200D02*
X158572000Y-118713400D01*
X139465100Y-67289300D02*
X158572000Y-86396200D01*
X135108400Y-67289300D02*
X139465100Y-67289300D01*
X118356200Y-84041500D02*
X135108400Y-67289300D01*
X118356200Y-84456700D02*
X118356200Y-84041500D01*
X102209500Y-83348900D02*
X102796900Y-82761500D01*
X102209500Y-86610800D02*
X102209500Y-83348900D01*
X101596400Y-87223900D02*
X102209500Y-86610800D01*
X101596400Y-90998700D02*
X101596400Y-87223900D01*
X103944000Y-93346300D02*
X101596400Y-90998700D01*
X103944000Y-96087800D02*
X103944000Y-93346300D01*
X104784000Y-96927800D02*
X103944000Y-96087800D01*
X104784000Y-101185900D02*
X104784000Y-96927800D01*
X117375500Y-113777400D02*
X104784000Y-101185900D01*
X127580500Y-113777400D02*
X117375500Y-113777400D01*
X127688900Y-113669000D02*
X127580500Y-113777400D01*
X143913800Y-105480600D02*
X143913800Y-107396100D01*
X145572000Y-103822400D02*
X143913800Y-105480600D01*
X145572000Y-93774600D02*
X145572000Y-103822400D01*
X145966000Y-93380600D02*
X145572000Y-93774600D01*
X145966000Y-89860200D02*
X145966000Y-93380600D01*
X145572000Y-89466200D02*
X145966000Y-89860200D01*
X145572000Y-83797200D02*
X145572000Y-89466200D01*
X147084200Y-82285000D02*
X145572000Y-83797200D01*
X147226300Y-109706400D02*
X147110400Y-109590500D01*
X147226300Y-116316800D02*
X147226300Y-109706400D01*
X148127000Y-117217500D02*
X147226300Y-116316800D01*
X148127000Y-118686700D02*
X148127000Y-117217500D01*
X148436200Y-118995900D02*
X148127000Y-118686700D01*
X147110400Y-108186300D02*
X146652300Y-107728200D01*
X147110400Y-109590500D02*
X147110400Y-108186300D01*
X105076800Y-108074300D02*
X107186200Y-110183700D01*
X104230100Y-108074300D02*
X105076800Y-108074300D01*
X100702900Y-104547100D02*
X104230100Y-108074300D01*
X100702900Y-97383900D02*
X100702900Y-104547100D01*
X102142800Y-95944000D02*
X100702900Y-97383900D01*
X102142800Y-94488200D02*
X102142800Y-95944000D01*
X101710300Y-94055700D02*
X102142800Y-94488200D01*
X101160900Y-94055700D02*
X101710300Y-94055700D01*
X144337500Y-94372200D02*
X144337500Y-104313700D01*
X145515700Y-93194000D02*
X144337500Y-94372200D01*
X145515700Y-90046800D02*
X145515700Y-93194000D01*
X145121700Y-89652800D02*
X145515700Y-90046800D01*
X145121700Y-82474600D02*
X145121700Y-89652800D01*
X146710200Y-80886100D02*
X145121700Y-82474600D01*
X109541000Y-95540600D02*
X109541000Y-95433200D01*
X111934300Y-97933900D02*
X109541000Y-95540600D01*
X111934300Y-98146100D02*
X111934300Y-97933900D01*
X112505700Y-98717500D02*
X111934300Y-98146100D01*
X112625900Y-98717500D02*
X112505700Y-98717500D01*
X115364100Y-101455700D02*
X112625900Y-98717500D01*
X115364100Y-101790200D02*
X115364100Y-101455700D01*
X117635100Y-104061200D02*
X115364100Y-101790200D01*
X144489300Y-105648000D02*
X145210900Y-104926400D01*
X144489300Y-107563600D02*
X144489300Y-105648000D01*
X144303100Y-107749800D02*
X144489300Y-107563600D01*
X144303100Y-114773600D02*
X144303100Y-107749800D01*
X144974800Y-115445300D02*
X144303100Y-114773600D01*
X144974800Y-118998500D02*
X144974800Y-115445300D01*
X145429000Y-119452700D02*
X144974800Y-118998500D01*
X123669500Y-94008800D02*
X123473900Y-94204400D01*
X123669500Y-91160900D02*
X123669500Y-94008800D01*
X132393100Y-82437300D02*
X123669500Y-91160900D01*
X132393100Y-82329200D02*
X132393100Y-82437300D01*
X133131800Y-81590500D02*
X132393100Y-82329200D01*
X133239900Y-81590500D02*
X133131800Y-81590500D01*
X123473900Y-96087300D02*
X131814800Y-104428200D01*
X123473900Y-94204400D02*
X123473900Y-96087300D01*
X141628700Y-117823600D02*
X141692700Y-117887600D01*
X141628700Y-104401100D02*
X141628700Y-117823600D01*
X123144200Y-89625500D02*
X123144200Y-93648500D01*
X133880500Y-78889200D02*
X123144200Y-89625500D01*
X133880500Y-78628700D02*
X133880500Y-78889200D01*
X138315600Y-81240100D02*
X138772000Y-80783700D01*
X138315600Y-81346300D02*
X138315600Y-81240100D01*
X137638800Y-82023100D02*
X138315600Y-81346300D01*
X137638800Y-84970200D02*
X137638800Y-82023100D01*
X139147700Y-86479100D02*
X137638800Y-84970200D01*
X139147700Y-107367000D02*
X139147700Y-86479100D01*
X139602400Y-107821700D02*
X139147700Y-107367000D01*
X139602400Y-108268300D02*
X139602400Y-107821700D01*
X140037900Y-108703800D02*
X139602400Y-108268300D01*
X140037900Y-118259600D02*
X140037900Y-108703800D01*
X149061800Y-79870800D02*
X150049100Y-80858100D01*
X138941900Y-79870800D02*
X149061800Y-79870800D01*
X137790300Y-81022400D02*
X138941900Y-79870800D01*
X137790300Y-81053500D02*
X137790300Y-81022400D01*
X138172100Y-103672600D02*
X137742900Y-103243400D01*
X138172100Y-105213200D02*
X138172100Y-103672600D01*
X118941900Y-102916700D02*
X118941900Y-103420800D01*
X118941800Y-102916700D02*
X118941900Y-102916700D01*
X117632300Y-101607200D02*
X118941800Y-102916700D01*
X117632300Y-101607100D02*
X117632300Y-101607200D01*
X117518200Y-101607100D02*
X117632300Y-101607100D01*
X112508700Y-96597600D02*
X117518200Y-101607100D01*
X112508700Y-96186500D02*
X112508700Y-96597600D01*
X110446600Y-94124400D02*
X112508700Y-96186500D01*
X137694900Y-103195400D02*
X137742900Y-103243400D01*
X137694900Y-85720000D02*
X137694900Y-103195400D01*
X137187000Y-85212100D02*
X137694900Y-85720000D01*
X137187000Y-81656800D02*
X137187000Y-85212100D01*
X137790300Y-81053500D02*
X137187000Y-81656800D01*
X136547100Y-116327700D02*
X136547100Y-105227200D01*
X137170400Y-116951000D02*
X136547100Y-116327700D01*
X120705300Y-93198200D02*
X121431800Y-93198200D01*
X129691600Y-81319600D02*
X129691600Y-81019000D01*
X121978900Y-89032300D02*
X129691600Y-81319600D01*
X121978900Y-92651100D02*
X121978900Y-89032300D01*
X121431800Y-93198200D02*
X121978900Y-92651100D01*
X134271400Y-80924900D02*
X134271400Y-81019000D01*
X138981500Y-76214800D02*
X134271400Y-80924900D01*
X147635700Y-76214800D02*
X138981500Y-76214800D01*
X152571200Y-81150300D02*
X147635700Y-76214800D01*
X129132700Y-113360700D02*
X123037700Y-107265700D01*
X129132700Y-115440600D02*
X129132700Y-113360700D01*
X127746300Y-106944500D02*
X127746300Y-106944600D01*
X121431800Y-100630000D02*
X127746300Y-106944500D01*
X121431800Y-93198200D02*
X121431800Y-100630000D01*
X121869500Y-86972700D02*
X125603000Y-83239200D01*
X121869500Y-87715700D02*
X121869500Y-86972700D01*
X120756200Y-88829000D02*
X121869500Y-87715700D01*
X120756100Y-88829000D02*
X120756200Y-88829000D01*
X120756100Y-89013500D02*
X120756100Y-88829000D01*
X116851000Y-92918600D02*
X120756100Y-89013500D01*
X115599700Y-92918600D02*
X116851000Y-92918600D01*
X150724200Y-82918200D02*
X150973000Y-82669400D01*
X150366400Y-82918200D02*
X150724200Y-82918200D01*
X134650500Y-82443400D02*
X134353400Y-82146300D01*
X134650500Y-85292000D02*
X134650500Y-82443400D01*
X134379400Y-85563100D02*
X134650500Y-85292000D01*
X134379400Y-97792100D02*
X134379400Y-85563100D01*
X134584600Y-97997300D02*
X134379400Y-97792100D01*
X134584600Y-115531100D02*
X134584600Y-97997300D01*
X134745900Y-115692400D02*
X134584600Y-115531100D01*
X134745900Y-116609100D02*
X134745900Y-115692400D01*
X133665700Y-117689300D02*
X134745900Y-116609100D01*
X102734900Y-83569100D02*
X102734900Y-86774700D01*
X103936400Y-82367600D02*
X102734900Y-83569100D01*
X132108200Y-106206200D02*
X132108200Y-117772800D01*
X132847500Y-105466900D02*
X132108200Y-106206200D01*
X132847500Y-102843500D02*
X132847500Y-105466900D01*
X132666500Y-102662500D02*
X132847500Y-102843500D01*
X132666500Y-101854100D02*
X132666500Y-102662500D01*
X132847500Y-101673100D02*
X132666500Y-101854100D01*
X132847500Y-84517100D02*
X132847500Y-101673100D01*
X134075900Y-83288700D02*
X132847500Y-84517100D01*
X109023200Y-87539300D02*
X109023200Y-87289300D01*
X110409300Y-88925400D02*
X109023200Y-87539300D01*
X111403000Y-88925400D02*
X110409300Y-88925400D01*
X111916700Y-89439100D02*
X111403000Y-88925400D01*
X115725400Y-89439100D02*
X111916700Y-89439100D01*
X117902900Y-87261600D02*
X115725400Y-89439100D01*
X119471600Y-87261600D02*
X117902900Y-87261600D01*
X122968500Y-83764700D02*
X119471600Y-87261600D01*
X157495300Y-105598900D02*
X157495300Y-87634300D01*
X157399400Y-105694800D02*
X157495300Y-105598900D01*
X194000000Y-101040000D02*
X194000000Y-102228900D01*
X183360000Y-103342900D02*
X178809400Y-98792300D01*
X191697100Y-103342900D02*
X183360000Y-103342900D01*
X192811100Y-102228900D02*
X191697100Y-103342900D01*
X194000000Y-102228900D02*
X192811100Y-102228900D01*
X114374500Y-101223100D02*
X114374500Y-101326100D01*
X114374400Y-101223100D02*
X114374500Y-101223100D01*
X111484000Y-98332700D02*
X114374400Y-101223100D01*
X111484000Y-98120500D02*
X111484000Y-98332700D01*
X109015700Y-95652200D02*
X111484000Y-98120500D01*
X109015700Y-94268900D02*
X109015700Y-95652200D01*
X106886400Y-92139600D02*
X109015700Y-94268900D01*
X106886400Y-92049500D02*
X106886400Y-92139600D01*
X117190400Y-102629700D02*
X117190400Y-102868200D01*
X112827900Y-98267200D02*
X117190400Y-102629700D01*
X112692300Y-98267200D02*
X112827900Y-98267200D01*
X112384600Y-97959500D02*
X112692300Y-98267200D01*
X112384600Y-97747300D02*
X112384600Y-97959500D01*
X111608100Y-96970800D02*
X112384600Y-97747300D01*
X111608100Y-96665700D02*
X111608100Y-96970800D01*
X109471000Y-94528600D02*
X111608100Y-96665700D01*
X109471000Y-94087300D02*
X109471000Y-94528600D01*
X107411800Y-92028100D02*
X109471000Y-94087300D01*
X107411800Y-91823400D02*
X107411800Y-92028100D01*
X106988400Y-91400000D02*
X107411800Y-91823400D01*
X114061800Y-91033800D02*
X113994900Y-90966900D01*
X114061800Y-91033900D02*
X114061800Y-91033800D01*
X115113200Y-91033900D02*
X114061800Y-91033900D01*
X115391000Y-91311700D02*
X115113200Y-91033900D01*
X167132700Y-95053900D02*
X167132700Y-100062500D01*
X160226400Y-88147600D02*
X167132700Y-95053900D01*
X160226400Y-57143600D02*
X160226400Y-88147600D01*
X159466600Y-56383800D02*
X160226400Y-57143600D01*
X124473300Y-56383800D02*
X159466600Y-56383800D01*
X108214300Y-72642800D02*
X124473300Y-56383800D01*
X108214300Y-78827500D02*
X108214300Y-72642800D01*
X146450900Y-96255000D02*
X146166100Y-96255000D01*
X147087700Y-96891800D02*
X146450900Y-96255000D01*
X140052700Y-106892000D02*
X140159500Y-106998800D01*
X140052700Y-98027700D02*
X140052700Y-106892000D01*
X140574300Y-97506100D02*
X140052700Y-98027700D01*
X102952400Y-90769100D02*
X102952400Y-90447500D01*
X106109000Y-93925700D02*
X102952400Y-90769100D01*
X106124900Y-93925700D02*
X106109000Y-93925700D01*
X107196900Y-94997700D02*
X106124900Y-93925700D01*
X107196900Y-95867400D02*
X107196900Y-94997700D01*
X106135000Y-96929300D02*
X107196900Y-95867400D01*
X106135000Y-100547600D02*
X106135000Y-96929300D01*
X113799200Y-108211800D02*
X106135000Y-100547600D01*
X119205600Y-108211800D02*
X113799200Y-108211800D01*
X109682800Y-99185300D02*
X110109600Y-99612100D01*
X109682800Y-98866900D02*
X109682800Y-99185300D01*
X108395900Y-97580000D02*
X109682800Y-98866900D01*
X107747700Y-97580000D02*
X108395900Y-97580000D01*
X106660300Y-98667400D02*
X107747700Y-97580000D01*
X106660300Y-100307500D02*
X106660300Y-98667400D01*
X130266500Y-104988700D02*
X130143400Y-104865600D01*
X132069700Y-104988700D02*
X130266500Y-104988700D01*
X132368200Y-104690200D02*
X132069700Y-104988700D01*
X132368200Y-103001100D02*
X132368200Y-104690200D01*
X132216200Y-102849100D02*
X132368200Y-103001100D01*
X132216200Y-96146100D02*
X132216200Y-102849100D01*
X132262500Y-96099800D02*
X132216200Y-96146100D01*
X102685900Y-104827200D02*
X103058900Y-105200200D01*
X102685900Y-103835700D02*
X102685900Y-104827200D01*
X102354000Y-103503800D02*
X102685900Y-103835700D01*
X102354000Y-97544200D02*
X102354000Y-103503800D01*
X102046400Y-97236600D02*
X102354000Y-97544200D01*
X101566400Y-97236600D02*
X102046400Y-97236600D01*
X101228300Y-97574700D02*
X101566400Y-97236600D01*
X101228300Y-97875000D02*
X101228300Y-97574700D01*
X109132900Y-99378300D02*
X109132900Y-99064800D01*
X109892000Y-100137400D02*
X109132900Y-99378300D01*
X110366900Y-100137400D02*
X109892000Y-100137400D01*
X110651800Y-99852500D02*
X110366900Y-100137400D01*
X110651800Y-99411200D02*
X110651800Y-99852500D01*
X110133100Y-98892500D02*
X110651800Y-99411200D01*
X110133100Y-98680300D02*
X110133100Y-98892500D01*
X107647200Y-96194400D02*
X110133100Y-98680300D01*
X107647200Y-94811100D02*
X107647200Y-96194400D01*
X106311500Y-93475400D02*
X107647200Y-94811100D01*
X106295600Y-93475400D02*
X106311500Y-93475400D01*
X105460500Y-92640300D02*
X106295600Y-93475400D01*
X105460500Y-90637400D02*
X105460500Y-92640300D01*
X104967100Y-90144000D02*
X105460500Y-90637400D01*
X104967100Y-89900000D02*
X104967100Y-90144000D01*
X155313800Y-104154100D02*
X155313800Y-85321800D01*
X155846800Y-104687100D02*
X155313800Y-104154100D01*
X117015700Y-92037900D02*
X113499500Y-92037900D01*
X120146800Y-88906800D02*
X117015700Y-92037900D01*
X120146800Y-88801400D02*
X120146800Y-88906800D01*
X121419100Y-87529100D02*
X120146800Y-88801400D01*
X121419200Y-87529100D02*
X121419100Y-87529100D01*
X121419200Y-86622100D02*
X121419200Y-87529100D01*
X127730800Y-80310500D02*
X121419200Y-86622100D01*
X128785700Y-80310500D02*
X127730800Y-80310500D01*
X154449000Y-85321800D02*
X155313800Y-85321800D01*
X150527600Y-81400400D02*
X154449000Y-85321800D01*
X148632900Y-81400400D02*
X150527600Y-81400400D01*
X147575800Y-80343300D02*
X148632900Y-81400400D01*
X139955400Y-80343300D02*
X147575800Y-80343300D01*
X138989700Y-81309000D02*
X139955400Y-80343300D01*
X138989600Y-81309000D02*
X138989700Y-81309000D01*
X138989600Y-81415400D02*
X138989600Y-81309000D01*
X138734100Y-81670900D02*
X138989600Y-81415400D01*
X142309900Y-88898300D02*
X142309900Y-101383100D01*
X138184600Y-84773000D02*
X142309900Y-88898300D01*
X122618800Y-101004800D02*
X126797000Y-105183000D01*
X122618800Y-89514000D02*
X122618800Y-101004800D01*
X130747000Y-81385800D02*
X122618800Y-89514000D01*
X130747000Y-72820900D02*
X130747000Y-81385800D01*
X133757100Y-69810800D02*
X130747000Y-72820900D01*
X124724900Y-56892000D02*
X108749000Y-72867900D01*
X126219000Y-56892000D02*
X124724900Y-56892000D01*
X127000000Y-57673000D02*
X126219000Y-56892000D01*
X127000000Y-60960000D02*
X127000000Y-57673000D01*
X137160000Y-76920000D02*
X137160000Y-68380000D01*
X128260000Y-85820000D02*
X137160000Y-76920000D01*
X116814200Y-80421400D02*
X110269800Y-86965800D01*
X116814200Y-74925500D02*
X116814200Y-80421400D01*
X115435000Y-88900000D02*
X114347400Y-88900000D01*
X122426600Y-81908400D02*
X115435000Y-88900000D01*
X123189900Y-81908400D02*
X122426600Y-81908400D01*
X108488800Y-101440300D02*
X108488800Y-98699600D01*
X111434400Y-104385900D02*
X108488800Y-101440300D01*
X111712900Y-105407500D02*
X111766000Y-105407500D01*
X107903300Y-101597900D02*
X111712900Y-105407500D01*
X107903300Y-98224800D02*
X107903300Y-101597900D01*
X107993300Y-98134800D02*
X107903300Y-98224800D01*
X155572000Y-122166000D02*
X155572000Y-119540700D01*
X151572000Y-119504800D02*
X151635200Y-119441600D01*
X151572000Y-122166000D02*
X151572000Y-119504800D01*
X155951500Y-116880100D02*
X155951500Y-114351600D01*
X155572000Y-117259600D02*
X155951500Y-116880100D01*
X155951500Y-105325400D02*
X155951500Y-114351600D01*
X156372100Y-104904800D02*
X155951500Y-105325400D01*
X156372100Y-99609200D02*
X156372100Y-104904800D01*
X156346500Y-99583600D02*
X156372100Y-99609200D01*
X133572000Y-122166000D02*
X133572000Y-119540700D01*
X109457400Y-83073800D02*
X109457400Y-84680100D01*
X108739700Y-82356100D02*
X109457400Y-83073800D01*
X136596000Y-98061500D02*
X136671100Y-97986400D01*
X136596000Y-101524900D02*
X136596000Y-98061500D01*
X136671100Y-101600000D02*
X136596000Y-101524900D01*
X147593200Y-119519500D02*
X147572000Y-119540700D01*
X147593200Y-117426900D02*
X147593200Y-119519500D01*
X147572000Y-122166000D02*
X147572000Y-119540700D01*
X155572000Y-117259600D02*
X155572000Y-119458200D01*
X155572000Y-119458200D02*
X155572000Y-119540700D01*
X141572000Y-118637100D02*
X141572000Y-122166000D01*
X141167400Y-118232500D02*
X141572000Y-118637100D01*
X138697400Y-98463600D02*
X138220200Y-97986400D01*
X138697400Y-107553600D02*
X138697400Y-98463600D01*
X139134700Y-107990900D02*
X138697400Y-107553600D01*
X139134700Y-116680600D02*
X139134700Y-107990900D01*
X139320800Y-116866700D02*
X139134700Y-116680600D01*
X134059300Y-115642700D02*
X134059300Y-114237000D01*
X134295600Y-115879000D02*
X134059300Y-115642700D01*
X134295600Y-116406000D02*
X134295600Y-115879000D01*
X133988000Y-116713600D02*
X134295600Y-116406000D01*
X133847300Y-116713600D02*
X133988000Y-116713600D01*
X133120800Y-117440100D02*
X133847300Y-116713600D01*
X133120800Y-117887300D02*
X133120800Y-117440100D01*
X133572000Y-118338500D02*
X133120800Y-117887300D01*
X133572000Y-119540700D02*
X133572000Y-118338500D01*
X136671100Y-104608200D02*
X136671100Y-101600000D01*
X137122800Y-105059900D02*
X136671100Y-104608200D01*
X137122800Y-114849600D02*
X137122800Y-105059900D01*
X137695700Y-115422500D02*
X137122800Y-114849600D01*
X137695700Y-117168700D02*
X137695700Y-115422500D01*
X137572000Y-117292400D02*
X137695700Y-117168700D01*
X137572000Y-122166000D02*
X137572000Y-117292400D01*
X151635200Y-117679500D02*
X152055100Y-117259600D01*
X151635200Y-119441600D02*
X151635200Y-117679500D01*
X163572000Y-122166000D02*
X163572000Y-119540700D01*
X163572000Y-118209100D02*
X162793600Y-117430700D01*
X163572000Y-119540700D02*
X163572000Y-118209100D01*
X159055900Y-117090700D02*
X159395900Y-117430700D01*
X159055900Y-57121200D02*
X159055900Y-117090700D01*
X159253100Y-56924000D02*
X159055900Y-57121200D01*
X106599300Y-67450500D02*
X106434500Y-67285700D01*
X106599300Y-77955400D02*
X106599300Y-67450500D01*
X108214300Y-79570400D02*
X106599300Y-77955400D01*
X108214300Y-85737400D02*
X108214300Y-79570400D01*
X110663100Y-88186200D02*
X108214300Y-85737400D01*
X110663100Y-88400000D02*
X110663100Y-88186200D01*
X125567900Y-78059100D02*
X125567900Y-77572700D01*
X115431300Y-88195700D02*
X125567900Y-78059100D01*
X115051700Y-88195700D02*
X115431300Y-88195700D01*
X134572000Y-122166000D02*
X134572000Y-119540700D01*
X135695300Y-80243900D02*
X137538100Y-78401100D01*
X135695300Y-85109100D02*
X135695300Y-80243900D01*
X134865700Y-85938700D02*
X135695300Y-85109100D01*
X134865700Y-97641500D02*
X134865700Y-85938700D01*
X135034900Y-97810700D02*
X134865700Y-97641500D01*
X135034900Y-115344500D02*
X135034900Y-97810700D01*
X135196200Y-115505800D02*
X135034900Y-115344500D01*
X135196200Y-118916500D02*
X135196200Y-115505800D01*
X134572000Y-119540700D02*
X135196200Y-118916500D01*
X188655800Y-78795000D02*
X188655800Y-76623600D01*
X147292700Y-76665200D02*
X147367800Y-76740300D01*
X140712800Y-76665200D02*
X147292700Y-76665200D01*
X136145700Y-81232300D02*
X140712800Y-76665200D01*
X136145700Y-104857700D02*
X136145700Y-81232300D01*
X135964900Y-105038500D02*
X136145700Y-104857700D01*
X135964900Y-114842800D02*
X135964900Y-105038500D01*
X136096800Y-114974700D02*
X135964900Y-114842800D01*
X136096800Y-117089400D02*
X136096800Y-114974700D01*
X136572000Y-117564600D02*
X136096800Y-117089400D01*
X136572000Y-122166000D02*
X136572000Y-117564600D01*
X203200000Y-81280000D02*
X201858700Y-81280000D01*
X159572000Y-122166000D02*
X159572000Y-119653300D01*
X160171200Y-119054100D02*
X159572000Y-119653300D01*
X160171200Y-114057800D02*
X160171200Y-119054100D01*
X187481300Y-81280000D02*
X201858700Y-81280000D01*
X160171200Y-108590100D02*
X187481300Y-81280000D01*
X160171200Y-114057800D02*
X160171200Y-108590100D01*
X97597600Y-104701500D02*
X104233700Y-111337600D01*
X97597600Y-93400000D02*
X97597600Y-104701500D01*
X161572000Y-122166000D02*
X161572000Y-119540700D01*
X103745200Y-109919400D02*
X106786400Y-112960600D01*
X103527600Y-109919400D02*
X103745200Y-109919400D01*
X98573300Y-104965100D02*
X103527600Y-109919400D01*
X98573300Y-97768200D02*
X98573300Y-104965100D01*
X161341200Y-110155100D02*
X161341200Y-115602700D01*
X187676300Y-83820000D02*
X161341200Y-110155100D01*
X203200000Y-83820000D02*
X187676300Y-83820000D01*
X161321800Y-119290500D02*
X161572000Y-119540700D01*
X161321800Y-115622100D02*
X161321800Y-119290500D01*
X161341200Y-115602700D02*
X161321800Y-115622100D01*
X114472200Y-83986000D02*
X114527100Y-83931100D01*
X114472200Y-87012600D02*
X114472200Y-83986000D01*
X114806200Y-87346600D02*
X114472200Y-87012600D01*
X115246600Y-87346600D02*
X114806200Y-87346600D01*
X116109900Y-86483300D02*
X115246600Y-87346600D01*
X116109900Y-85650900D02*
X116109900Y-86483300D01*
X134921800Y-66839000D02*
X116109900Y-85650900D01*
X147712300Y-66839000D02*
X134921800Y-66839000D01*
X151048600Y-70175300D02*
X147712300Y-66839000D01*
X116237200Y-83400000D02*
X115636200Y-83400000D01*
X128961900Y-70675300D02*
X116237200Y-83400000D01*
X128961900Y-66625200D02*
X128961900Y-70675300D01*
X137669400Y-57917700D02*
X128961900Y-66625200D01*
X112853200Y-82675200D02*
X112996900Y-82818900D01*
X112853200Y-70663800D02*
X112853200Y-82675200D01*
X126050500Y-57466500D02*
X112853200Y-70663800D01*
D22*
G36*
X153599560Y-122313000D02*
X153544440Y-122313000D01*
X153544440Y-122019000D01*
X153599560Y-122019000D01*
X153599560Y-122313000D01*
X153599560Y-122313000D01*
G37*
X153599560Y-122313000D02*
X153544440Y-122313000D01*
X153544440Y-122019000D01*
X153599560Y-122019000D01*
X153599560Y-122313000D01*
G36*
X149599560Y-122313000D02*
X149544440Y-122313000D01*
X149544440Y-122019000D01*
X149599560Y-122019000D01*
X149599560Y-122313000D01*
X149599560Y-122313000D01*
G37*
X149599560Y-122313000D02*
X149544440Y-122313000D01*
X149544440Y-122019000D01*
X149599560Y-122019000D01*
X149599560Y-122313000D01*
G36*
X145599560Y-122313000D02*
X145544440Y-122313000D01*
X145544440Y-122019000D01*
X145599560Y-122019000D01*
X145599560Y-122313000D01*
X145599560Y-122313000D01*
G37*
X145599560Y-122313000D02*
X145544440Y-122313000D01*
X145544440Y-122019000D01*
X145599560Y-122019000D01*
X145599560Y-122313000D01*
G36*
X139599560Y-122313000D02*
X139544440Y-122313000D01*
X139544440Y-122019000D01*
X139599560Y-122019000D01*
X139599560Y-122313000D01*
X139599560Y-122313000D01*
G37*
X139599560Y-122313000D02*
X139544440Y-122313000D01*
X139544440Y-122019000D01*
X139599560Y-122019000D01*
X139599560Y-122313000D01*
G36*
X135599560Y-122313000D02*
X135544440Y-122313000D01*
X135544440Y-122019000D01*
X135599560Y-122019000D01*
X135599560Y-122313000D01*
X135599560Y-122313000D01*
G37*
X135599560Y-122313000D02*
X135544440Y-122313000D01*
X135544440Y-122019000D01*
X135599560Y-122019000D01*
X135599560Y-122313000D01*
G36*
X131599560Y-122313000D02*
X131445000Y-122313000D01*
X131445000Y-122293000D01*
X131435000Y-122293000D01*
X131435000Y-122039000D01*
X131445000Y-122039000D01*
X131445000Y-122019000D01*
X131599560Y-122019000D01*
X131599560Y-122313000D01*
X131599560Y-122313000D01*
G37*
X131599560Y-122313000D02*
X131445000Y-122313000D01*
X131445000Y-122293000D01*
X131435000Y-122293000D01*
X131435000Y-122039000D01*
X131445000Y-122039000D01*
X131445000Y-122019000D01*
X131599560Y-122019000D01*
X131599560Y-122313000D01*
G36*
X157599560Y-122313000D02*
X157544440Y-122313000D01*
X157544440Y-122019000D01*
X157599560Y-122019000D01*
X157599560Y-122313000D01*
X157599560Y-122313000D01*
G37*
X157599560Y-122313000D02*
X157544440Y-122313000D01*
X157544440Y-122019000D01*
X157599560Y-122019000D01*
X157599560Y-122313000D01*
G36*
X153329900Y-95190202D02*
X153329900Y-116047598D01*
X151922600Y-114640298D01*
X151922600Y-93782902D01*
X153329900Y-95190202D01*
X153329900Y-95190202D01*
G37*
X153329900Y-95190202D02*
X153329900Y-116047598D01*
X151922600Y-114640298D01*
X151922600Y-93782902D01*
X153329900Y-95190202D01*
G36*
X211963000Y-115443000D02*
X165332000Y-115443000D01*
X165332000Y-111749902D01*
X166832068Y-110249834D01*
X205644543Y-110249834D01*
X206044853Y-111218658D01*
X206785443Y-111960542D01*
X207753567Y-112362542D01*
X208801834Y-112363457D01*
X209770658Y-111963147D01*
X210512542Y-111222557D01*
X210914542Y-110254433D01*
X210915457Y-109206166D01*
X210515147Y-108237342D01*
X209774557Y-107495458D01*
X208806433Y-107093458D01*
X207758166Y-107092543D01*
X206789342Y-107492853D01*
X206047458Y-108233443D01*
X205645458Y-109201567D01*
X205644543Y-110249834D01*
X166832068Y-110249834D01*
X178018107Y-99063795D01*
X178101108Y-99264672D01*
X178335793Y-99499766D01*
X178517527Y-99575229D01*
X182822599Y-103880301D01*
X183069160Y-104045048D01*
X183360000Y-104102900D01*
X191697100Y-104102900D01*
X191987939Y-104045048D01*
X192234501Y-103880301D01*
X192352848Y-103761954D01*
X192430729Y-104153489D01*
X192755585Y-104639670D01*
X193241766Y-104964526D01*
X193815255Y-105078600D01*
X194184745Y-105078600D01*
X194758234Y-104964526D01*
X195244415Y-104639670D01*
X195569271Y-104153489D01*
X195683345Y-103580000D01*
X195569271Y-103006511D01*
X195244415Y-102520330D01*
X194929634Y-102310000D01*
X195244415Y-102099670D01*
X195569271Y-101613489D01*
X195683345Y-101040000D01*
X195569271Y-100466511D01*
X195244415Y-99980330D01*
X195222220Y-99965500D01*
X195375698Y-99901927D01*
X195554327Y-99723299D01*
X195651000Y-99489910D01*
X195651000Y-98785750D01*
X195492250Y-98627000D01*
X194127000Y-98627000D01*
X194127000Y-98647000D01*
X193873000Y-98647000D01*
X193873000Y-98627000D01*
X192507750Y-98627000D01*
X192349000Y-98785750D01*
X192349000Y-99489910D01*
X192445673Y-99723299D01*
X192624302Y-99901927D01*
X192777780Y-99965500D01*
X192755585Y-99980330D01*
X192430729Y-100466511D01*
X192316655Y-101040000D01*
X192426004Y-101589733D01*
X192273699Y-101691499D01*
X191382298Y-102582900D01*
X183674802Y-102582900D01*
X179592232Y-98500330D01*
X179517692Y-98319928D01*
X179283007Y-98084834D01*
X179080964Y-98000938D01*
X179571812Y-97510090D01*
X192349000Y-97510090D01*
X192349000Y-98214250D01*
X192507750Y-98373000D01*
X193873000Y-98373000D01*
X193873000Y-97160150D01*
X194127000Y-97160150D01*
X194127000Y-98373000D01*
X195492250Y-98373000D01*
X195651000Y-98214250D01*
X195651000Y-97510090D01*
X195554327Y-97276701D01*
X195375698Y-97098073D01*
X195142309Y-97001400D01*
X194285750Y-97001400D01*
X194127000Y-97160150D01*
X193873000Y-97160150D01*
X193714250Y-97001400D01*
X192857691Y-97001400D01*
X192624302Y-97098073D01*
X192445673Y-97276701D01*
X192349000Y-97510090D01*
X179571812Y-97510090D01*
X185115401Y-91966501D01*
X185280148Y-91719939D01*
X185338000Y-91429100D01*
X185338000Y-88084791D01*
X185412855Y-87904521D01*
X185413145Y-87572337D01*
X185291988Y-87279114D01*
X187991102Y-84580000D01*
X201755352Y-84580000D01*
X201955585Y-84879670D01*
X202270366Y-85090000D01*
X201955585Y-85300330D01*
X201630729Y-85786511D01*
X201516655Y-86360000D01*
X201630729Y-86933489D01*
X201955585Y-87419670D01*
X202441766Y-87744526D01*
X203015255Y-87858600D01*
X203384745Y-87858600D01*
X203958234Y-87744526D01*
X204444415Y-87419670D01*
X204769271Y-86933489D01*
X204883345Y-86360000D01*
X204769271Y-85786511D01*
X204444415Y-85300330D01*
X204129634Y-85090000D01*
X204444415Y-84879670D01*
X204769271Y-84393489D01*
X204883345Y-83820000D01*
X204769271Y-83246511D01*
X204444415Y-82760330D01*
X204129634Y-82550000D01*
X204444415Y-82339670D01*
X204769271Y-81853489D01*
X204883345Y-81280000D01*
X204769271Y-80706511D01*
X204444415Y-80220330D01*
X204422220Y-80205500D01*
X204575698Y-80141927D01*
X204754327Y-79963299D01*
X204851000Y-79729910D01*
X204851000Y-79025750D01*
X204692250Y-78867000D01*
X203327000Y-78867000D01*
X203327000Y-78887000D01*
X203073000Y-78887000D01*
X203073000Y-78867000D01*
X201707750Y-78867000D01*
X201549000Y-79025750D01*
X201549000Y-79729910D01*
X201645673Y-79963299D01*
X201824302Y-80141927D01*
X201977780Y-80205500D01*
X201955585Y-80220330D01*
X201755352Y-80520000D01*
X187481300Y-80520000D01*
X187190461Y-80577852D01*
X186943899Y-80742599D01*
X167915660Y-99770838D01*
X167892700Y-99715271D01*
X167892700Y-95053900D01*
X167834848Y-94763061D01*
X167670101Y-94516499D01*
X164736166Y-91582564D01*
X164962872Y-91488892D01*
X165152093Y-91300000D01*
X166475209Y-91300000D01*
X166655479Y-91374855D01*
X166987663Y-91375145D01*
X167294672Y-91248292D01*
X167529766Y-91013607D01*
X167657155Y-90706821D01*
X167657445Y-90374637D01*
X167530592Y-90067628D01*
X167295907Y-89832534D01*
X166989121Y-89705145D01*
X166656937Y-89704855D01*
X166475071Y-89780000D01*
X164731100Y-89780000D01*
X164440261Y-89837852D01*
X164204818Y-89995170D01*
X164018128Y-90072308D01*
X163783034Y-90306993D01*
X163688429Y-90534827D01*
X160986400Y-87832798D01*
X160986400Y-76788963D01*
X187820655Y-76788963D01*
X187895800Y-76970829D01*
X187895800Y-78447909D01*
X187820945Y-78628179D01*
X187820655Y-78960363D01*
X187947508Y-79267372D01*
X188182193Y-79502466D01*
X188488979Y-79629855D01*
X188821163Y-79630145D01*
X189128172Y-79503292D01*
X189363266Y-79268607D01*
X189490655Y-78961821D01*
X189490945Y-78629637D01*
X189415800Y-78447771D01*
X189415800Y-77750090D01*
X201549000Y-77750090D01*
X201549000Y-78454250D01*
X201707750Y-78613000D01*
X203073000Y-78613000D01*
X203073000Y-77400150D01*
X203327000Y-77400150D01*
X203327000Y-78613000D01*
X204692250Y-78613000D01*
X204851000Y-78454250D01*
X204851000Y-77750090D01*
X204754327Y-77516701D01*
X204575698Y-77338073D01*
X204342309Y-77241400D01*
X203485750Y-77241400D01*
X203327000Y-77400150D01*
X203073000Y-77400150D01*
X202914250Y-77241400D01*
X202057691Y-77241400D01*
X201824302Y-77338073D01*
X201645673Y-77516701D01*
X201549000Y-77750090D01*
X189415800Y-77750090D01*
X189415800Y-76970691D01*
X189490655Y-76790421D01*
X189490945Y-76458237D01*
X189364092Y-76151228D01*
X189129407Y-75916134D01*
X188822621Y-75788745D01*
X188490437Y-75788455D01*
X188183428Y-75915308D01*
X187948334Y-76149993D01*
X187820945Y-76456779D01*
X187820655Y-76788963D01*
X160986400Y-76788963D01*
X160986400Y-59944000D01*
X196456560Y-59944000D01*
X196456560Y-61976000D01*
X196500838Y-62211317D01*
X196639910Y-62427441D01*
X196852110Y-62572431D01*
X197104000Y-62623440D01*
X199136000Y-62623440D01*
X199371317Y-62579162D01*
X199587441Y-62440090D01*
X199698840Y-62277052D01*
X199795182Y-62366385D01*
X200277056Y-62565975D01*
X200533000Y-62446836D01*
X200533000Y-61087000D01*
X200787000Y-61087000D01*
X200787000Y-62446836D01*
X201042944Y-62565975D01*
X201524818Y-62366385D01*
X201997188Y-61928379D01*
X202265983Y-61342946D01*
X202147367Y-61087000D01*
X200787000Y-61087000D01*
X200533000Y-61087000D01*
X200513000Y-61087000D01*
X200513000Y-60833000D01*
X200533000Y-60833000D01*
X200533000Y-59473164D01*
X200787000Y-59473164D01*
X200787000Y-60833000D01*
X202147367Y-60833000D01*
X202265983Y-60577054D01*
X201997188Y-59991621D01*
X201524818Y-59553615D01*
X201274258Y-59449834D01*
X205644543Y-59449834D01*
X206044853Y-60418658D01*
X206785443Y-61160542D01*
X207753567Y-61562542D01*
X208801834Y-61563457D01*
X209770658Y-61163147D01*
X210512542Y-60422557D01*
X210914542Y-59454433D01*
X210915457Y-58406166D01*
X210515147Y-57437342D01*
X209774557Y-56695458D01*
X208806433Y-56293458D01*
X207758166Y-56292543D01*
X206789342Y-56692853D01*
X206047458Y-57433443D01*
X205645458Y-58401567D01*
X205644543Y-59449834D01*
X201274258Y-59449834D01*
X201042944Y-59354025D01*
X200787000Y-59473164D01*
X200533000Y-59473164D01*
X200277056Y-59354025D01*
X199795182Y-59553615D01*
X199697602Y-59644097D01*
X199600090Y-59492559D01*
X199387890Y-59347569D01*
X199136000Y-59296560D01*
X197104000Y-59296560D01*
X196868683Y-59340838D01*
X196652559Y-59479910D01*
X196507569Y-59692110D01*
X196456560Y-59944000D01*
X160986400Y-59944000D01*
X160986400Y-57143600D01*
X160928548Y-56852761D01*
X160928548Y-56852760D01*
X160763801Y-56606199D01*
X160004001Y-55846399D01*
X159757439Y-55681652D01*
X159466600Y-55623800D01*
X124473300Y-55623800D01*
X124182460Y-55681652D01*
X123935899Y-55846399D01*
X107676899Y-72105399D01*
X107512152Y-72351961D01*
X107454300Y-72642800D01*
X107454300Y-77735598D01*
X107359300Y-77640598D01*
X107359300Y-67450500D01*
X107301448Y-67159661D01*
X107301448Y-67159660D01*
X107260687Y-67098657D01*
X107142792Y-66813328D01*
X106908107Y-66578234D01*
X106601321Y-66450845D01*
X106269137Y-66450555D01*
X105962128Y-66577408D01*
X105727034Y-66812093D01*
X105599645Y-67118879D01*
X105599355Y-67451063D01*
X105726208Y-67758072D01*
X105839300Y-67871361D01*
X105839300Y-75986404D01*
X105601628Y-76084608D01*
X105366534Y-76319293D01*
X105239145Y-76626079D01*
X105238855Y-76958263D01*
X105314000Y-77140129D01*
X105314000Y-78258000D01*
X105371852Y-78548839D01*
X105536599Y-78795401D01*
X106377526Y-79636328D01*
X106330771Y-79748927D01*
X104414781Y-81664917D01*
X104410007Y-81660134D01*
X104103221Y-81532745D01*
X103771037Y-81532455D01*
X103464028Y-81659308D01*
X103228934Y-81893993D01*
X103178366Y-82015774D01*
X102963721Y-81926645D01*
X102631537Y-81926355D01*
X102324528Y-82053208D01*
X102089434Y-82287893D01*
X102013971Y-82469627D01*
X101672099Y-82811499D01*
X101507352Y-83058061D01*
X101449500Y-83348900D01*
X101449500Y-83552521D01*
X101178228Y-83664608D01*
X101018786Y-83823773D01*
X100838821Y-83749045D01*
X100506637Y-83748755D01*
X100324771Y-83823900D01*
X96331700Y-83823900D01*
X96040861Y-83881752D01*
X95794299Y-84046499D01*
X95030500Y-84810298D01*
X95030500Y-84220302D01*
X95567970Y-83682832D01*
X95748372Y-83608292D01*
X95983466Y-83373607D01*
X96110855Y-83066821D01*
X96111145Y-82734637D01*
X96003584Y-82474318D01*
X98719502Y-79758400D01*
X99366498Y-79758400D01*
X99521600Y-79913502D01*
X99521600Y-81285898D01*
X98930530Y-81876968D01*
X98750128Y-81951508D01*
X98515034Y-82186193D01*
X98387645Y-82492979D01*
X98387355Y-82825163D01*
X98514208Y-83132172D01*
X98748893Y-83367266D01*
X99055679Y-83494655D01*
X99387863Y-83494945D01*
X99694872Y-83368092D01*
X99929966Y-83133407D01*
X100005429Y-82951673D01*
X100819001Y-82138101D01*
X100983748Y-81891539D01*
X101041600Y-81600700D01*
X101041600Y-79598700D01*
X100992325Y-79350980D01*
X101281979Y-79471255D01*
X101614163Y-79471545D01*
X101921172Y-79344692D01*
X102156266Y-79110007D01*
X102283655Y-78803221D01*
X102283945Y-78471037D01*
X102157092Y-78164028D01*
X101922407Y-77928934D01*
X101740673Y-77853471D01*
X97009801Y-73122599D01*
X96763239Y-72957852D01*
X96472400Y-72900000D01*
X94214791Y-72900000D01*
X94034521Y-72825145D01*
X93702337Y-72824855D01*
X93395328Y-72951708D01*
X93160234Y-73186393D01*
X93032845Y-73493179D01*
X93032555Y-73825363D01*
X93159408Y-74132372D01*
X93394093Y-74367466D01*
X93700879Y-74494855D01*
X94033063Y-74495145D01*
X94214929Y-74420000D01*
X96157598Y-74420000D01*
X100158115Y-78420517D01*
X99972139Y-78296252D01*
X99681300Y-78238400D01*
X98404700Y-78238400D01*
X98113861Y-78296252D01*
X97867299Y-78460999D01*
X93282799Y-83045499D01*
X93118052Y-83292061D01*
X93060200Y-83582900D01*
X93060200Y-107620300D01*
X93118052Y-107911139D01*
X93282799Y-108157701D01*
X98902968Y-113777870D01*
X98977508Y-113958272D01*
X99212193Y-114193366D01*
X99518979Y-114320755D01*
X99851163Y-114321045D01*
X100158172Y-114194192D01*
X100393266Y-113959507D01*
X100520655Y-113652721D01*
X100520945Y-113320537D01*
X100394092Y-113013528D01*
X100159407Y-112778434D01*
X99977673Y-112702971D01*
X94580200Y-107305498D01*
X94580200Y-105475602D01*
X101196368Y-112091770D01*
X101270908Y-112272172D01*
X101505593Y-112507266D01*
X101812379Y-112634655D01*
X102144563Y-112634945D01*
X102451572Y-112508092D01*
X102686666Y-112273407D01*
X102814055Y-111966621D01*
X102814345Y-111634437D01*
X102687492Y-111327428D01*
X102452807Y-111092334D01*
X102271073Y-111016871D01*
X95030500Y-103776298D01*
X95030500Y-90461802D01*
X97220883Y-92652185D01*
X97125228Y-92691708D01*
X96890134Y-92926393D01*
X96762745Y-93233179D01*
X96762455Y-93565363D01*
X96837600Y-93747229D01*
X96837600Y-104701500D01*
X96895452Y-104992339D01*
X97060199Y-105238901D01*
X103450868Y-111629570D01*
X103525408Y-111809972D01*
X103760093Y-112045066D01*
X104066879Y-112172455D01*
X104399063Y-112172745D01*
X104706072Y-112045892D01*
X104751521Y-112000523D01*
X106003568Y-113252570D01*
X106078108Y-113432972D01*
X106312793Y-113668066D01*
X106619579Y-113795455D01*
X106951763Y-113795745D01*
X107258772Y-113668892D01*
X107493866Y-113434207D01*
X107621255Y-113127421D01*
X107621407Y-112953509D01*
X108126768Y-113458870D01*
X108201308Y-113639272D01*
X108435993Y-113874366D01*
X108742779Y-114001755D01*
X109074963Y-114002045D01*
X109381972Y-113875192D01*
X109394742Y-113862444D01*
X110135768Y-114603470D01*
X110210308Y-114783872D01*
X110444993Y-115018966D01*
X110751779Y-115146355D01*
X111083963Y-115146645D01*
X111390972Y-115019792D01*
X111626066Y-114785107D01*
X111753455Y-114478321D01*
X111753745Y-114146137D01*
X111626892Y-113839128D01*
X111392207Y-113604034D01*
X111210473Y-113528571D01*
X108330901Y-110648999D01*
X108084339Y-110484252D01*
X107974590Y-110462421D01*
X108021055Y-110350521D01*
X108021328Y-110037799D01*
X108073563Y-110037845D01*
X108380572Y-109910992D01*
X108615666Y-109676307D01*
X108743055Y-109369521D01*
X108743345Y-109037337D01*
X108616492Y-108730328D01*
X108381807Y-108495234D01*
X108200073Y-108419771D01*
X104475948Y-104695646D01*
X104589363Y-104695745D01*
X104896372Y-104568892D01*
X104958785Y-104506587D01*
X113465800Y-113013602D01*
X113465800Y-115443000D01*
X78867000Y-115443000D01*
X78867000Y-112789834D01*
X81184543Y-112789834D01*
X81584853Y-113758658D01*
X82325443Y-114500542D01*
X83293567Y-114902542D01*
X84341834Y-114903457D01*
X85310658Y-114503147D01*
X86052542Y-113762557D01*
X86454542Y-112794433D01*
X86455457Y-111746166D01*
X86055147Y-110777342D01*
X85314557Y-110035458D01*
X84346433Y-109633458D01*
X83298166Y-109632543D01*
X82329342Y-110032853D01*
X81587458Y-110773443D01*
X81185458Y-111741567D01*
X81184543Y-112789834D01*
X78867000Y-112789834D01*
X78867000Y-59449834D01*
X81184543Y-59449834D01*
X81584853Y-60418658D01*
X82325443Y-61160542D01*
X83293567Y-61562542D01*
X84341834Y-61563457D01*
X85310658Y-61163147D01*
X86052542Y-60422557D01*
X86454542Y-59454433D01*
X86455457Y-58406166D01*
X86055147Y-57437342D01*
X85314557Y-56695458D01*
X84346433Y-56293458D01*
X83298166Y-56292543D01*
X82329342Y-56692853D01*
X81587458Y-57433443D01*
X81185458Y-58401567D01*
X81184543Y-59449834D01*
X78867000Y-59449834D01*
X78867000Y-54737000D01*
X211963000Y-54737000D01*
X211963000Y-115443000D01*
X211963000Y-115443000D01*
G37*
X211963000Y-115443000D02*
X165332000Y-115443000D01*
X165332000Y-111749902D01*
X166832068Y-110249834D01*
X205644543Y-110249834D01*
X206044853Y-111218658D01*
X206785443Y-111960542D01*
X207753567Y-112362542D01*
X208801834Y-112363457D01*
X209770658Y-111963147D01*
X210512542Y-111222557D01*
X210914542Y-110254433D01*
X210915457Y-109206166D01*
X210515147Y-108237342D01*
X209774557Y-107495458D01*
X208806433Y-107093458D01*
X207758166Y-107092543D01*
X206789342Y-107492853D01*
X206047458Y-108233443D01*
X205645458Y-109201567D01*
X205644543Y-110249834D01*
X166832068Y-110249834D01*
X178018107Y-99063795D01*
X178101108Y-99264672D01*
X178335793Y-99499766D01*
X178517527Y-99575229D01*
X182822599Y-103880301D01*
X183069160Y-104045048D01*
X183360000Y-104102900D01*
X191697100Y-104102900D01*
X191987939Y-104045048D01*
X192234501Y-103880301D01*
X192352848Y-103761954D01*
X192430729Y-104153489D01*
X192755585Y-104639670D01*
X193241766Y-104964526D01*
X193815255Y-105078600D01*
X194184745Y-105078600D01*
X194758234Y-104964526D01*
X195244415Y-104639670D01*
X195569271Y-104153489D01*
X195683345Y-103580000D01*
X195569271Y-103006511D01*
X195244415Y-102520330D01*
X194929634Y-102310000D01*
X195244415Y-102099670D01*
X195569271Y-101613489D01*
X195683345Y-101040000D01*
X195569271Y-100466511D01*
X195244415Y-99980330D01*
X195222220Y-99965500D01*
X195375698Y-99901927D01*
X195554327Y-99723299D01*
X195651000Y-99489910D01*
X195651000Y-98785750D01*
X195492250Y-98627000D01*
X194127000Y-98627000D01*
X194127000Y-98647000D01*
X193873000Y-98647000D01*
X193873000Y-98627000D01*
X192507750Y-98627000D01*
X192349000Y-98785750D01*
X192349000Y-99489910D01*
X192445673Y-99723299D01*
X192624302Y-99901927D01*
X192777780Y-99965500D01*
X192755585Y-99980330D01*
X192430729Y-100466511D01*
X192316655Y-101040000D01*
X192426004Y-101589733D01*
X192273699Y-101691499D01*
X191382298Y-102582900D01*
X183674802Y-102582900D01*
X179592232Y-98500330D01*
X179517692Y-98319928D01*
X179283007Y-98084834D01*
X179080964Y-98000938D01*
X179571812Y-97510090D01*
X192349000Y-97510090D01*
X192349000Y-98214250D01*
X192507750Y-98373000D01*
X193873000Y-98373000D01*
X193873000Y-97160150D01*
X194127000Y-97160150D01*
X194127000Y-98373000D01*
X195492250Y-98373000D01*
X195651000Y-98214250D01*
X195651000Y-97510090D01*
X195554327Y-97276701D01*
X195375698Y-97098073D01*
X195142309Y-97001400D01*
X194285750Y-97001400D01*
X194127000Y-97160150D01*
X193873000Y-97160150D01*
X193714250Y-97001400D01*
X192857691Y-97001400D01*
X192624302Y-97098073D01*
X192445673Y-97276701D01*
X192349000Y-97510090D01*
X179571812Y-97510090D01*
X185115401Y-91966501D01*
X185280148Y-91719939D01*
X185338000Y-91429100D01*
X185338000Y-88084791D01*
X185412855Y-87904521D01*
X185413145Y-87572337D01*
X185291988Y-87279114D01*
X187991102Y-84580000D01*
X201755352Y-84580000D01*
X201955585Y-84879670D01*
X202270366Y-85090000D01*
X201955585Y-85300330D01*
X201630729Y-85786511D01*
X201516655Y-86360000D01*
X201630729Y-86933489D01*
X201955585Y-87419670D01*
X202441766Y-87744526D01*
X203015255Y-87858600D01*
X203384745Y-87858600D01*
X203958234Y-87744526D01*
X204444415Y-87419670D01*
X204769271Y-86933489D01*
X204883345Y-86360000D01*
X204769271Y-85786511D01*
X204444415Y-85300330D01*
X204129634Y-85090000D01*
X204444415Y-84879670D01*
X204769271Y-84393489D01*
X204883345Y-83820000D01*
X204769271Y-83246511D01*
X204444415Y-82760330D01*
X204129634Y-82550000D01*
X204444415Y-82339670D01*
X204769271Y-81853489D01*
X204883345Y-81280000D01*
X204769271Y-80706511D01*
X204444415Y-80220330D01*
X204422220Y-80205500D01*
X204575698Y-80141927D01*
X204754327Y-79963299D01*
X204851000Y-79729910D01*
X204851000Y-79025750D01*
X204692250Y-78867000D01*
X203327000Y-78867000D01*
X203327000Y-78887000D01*
X203073000Y-78887000D01*
X203073000Y-78867000D01*
X201707750Y-78867000D01*
X201549000Y-79025750D01*
X201549000Y-79729910D01*
X201645673Y-79963299D01*
X201824302Y-80141927D01*
X201977780Y-80205500D01*
X201955585Y-80220330D01*
X201755352Y-80520000D01*
X187481300Y-80520000D01*
X187190461Y-80577852D01*
X186943899Y-80742599D01*
X167915660Y-99770838D01*
X167892700Y-99715271D01*
X167892700Y-95053900D01*
X167834848Y-94763061D01*
X167670101Y-94516499D01*
X164736166Y-91582564D01*
X164962872Y-91488892D01*
X165152093Y-91300000D01*
X166475209Y-91300000D01*
X166655479Y-91374855D01*
X166987663Y-91375145D01*
X167294672Y-91248292D01*
X167529766Y-91013607D01*
X167657155Y-90706821D01*
X167657445Y-90374637D01*
X167530592Y-90067628D01*
X167295907Y-89832534D01*
X166989121Y-89705145D01*
X166656937Y-89704855D01*
X166475071Y-89780000D01*
X164731100Y-89780000D01*
X164440261Y-89837852D01*
X164204818Y-89995170D01*
X164018128Y-90072308D01*
X163783034Y-90306993D01*
X163688429Y-90534827D01*
X160986400Y-87832798D01*
X160986400Y-76788963D01*
X187820655Y-76788963D01*
X187895800Y-76970829D01*
X187895800Y-78447909D01*
X187820945Y-78628179D01*
X187820655Y-78960363D01*
X187947508Y-79267372D01*
X188182193Y-79502466D01*
X188488979Y-79629855D01*
X188821163Y-79630145D01*
X189128172Y-79503292D01*
X189363266Y-79268607D01*
X189490655Y-78961821D01*
X189490945Y-78629637D01*
X189415800Y-78447771D01*
X189415800Y-77750090D01*
X201549000Y-77750090D01*
X201549000Y-78454250D01*
X201707750Y-78613000D01*
X203073000Y-78613000D01*
X203073000Y-77400150D01*
X203327000Y-77400150D01*
X203327000Y-78613000D01*
X204692250Y-78613000D01*
X204851000Y-78454250D01*
X204851000Y-77750090D01*
X204754327Y-77516701D01*
X204575698Y-77338073D01*
X204342309Y-77241400D01*
X203485750Y-77241400D01*
X203327000Y-77400150D01*
X203073000Y-77400150D01*
X202914250Y-77241400D01*
X202057691Y-77241400D01*
X201824302Y-77338073D01*
X201645673Y-77516701D01*
X201549000Y-77750090D01*
X189415800Y-77750090D01*
X189415800Y-76970691D01*
X189490655Y-76790421D01*
X189490945Y-76458237D01*
X189364092Y-76151228D01*
X189129407Y-75916134D01*
X188822621Y-75788745D01*
X188490437Y-75788455D01*
X188183428Y-75915308D01*
X187948334Y-76149993D01*
X187820945Y-76456779D01*
X187820655Y-76788963D01*
X160986400Y-76788963D01*
X160986400Y-59944000D01*
X196456560Y-59944000D01*
X196456560Y-61976000D01*
X196500838Y-62211317D01*
X196639910Y-62427441D01*
X196852110Y-62572431D01*
X197104000Y-62623440D01*
X199136000Y-62623440D01*
X199371317Y-62579162D01*
X199587441Y-62440090D01*
X199698840Y-62277052D01*
X199795182Y-62366385D01*
X200277056Y-62565975D01*
X200533000Y-62446836D01*
X200533000Y-61087000D01*
X200787000Y-61087000D01*
X200787000Y-62446836D01*
X201042944Y-62565975D01*
X201524818Y-62366385D01*
X201997188Y-61928379D01*
X202265983Y-61342946D01*
X202147367Y-61087000D01*
X200787000Y-61087000D01*
X200533000Y-61087000D01*
X200513000Y-61087000D01*
X200513000Y-60833000D01*
X200533000Y-60833000D01*
X200533000Y-59473164D01*
X200787000Y-59473164D01*
X200787000Y-60833000D01*
X202147367Y-60833000D01*
X202265983Y-60577054D01*
X201997188Y-59991621D01*
X201524818Y-59553615D01*
X201274258Y-59449834D01*
X205644543Y-59449834D01*
X206044853Y-60418658D01*
X206785443Y-61160542D01*
X207753567Y-61562542D01*
X208801834Y-61563457D01*
X209770658Y-61163147D01*
X210512542Y-60422557D01*
X210914542Y-59454433D01*
X210915457Y-58406166D01*
X210515147Y-57437342D01*
X209774557Y-56695458D01*
X208806433Y-56293458D01*
X207758166Y-56292543D01*
X206789342Y-56692853D01*
X206047458Y-57433443D01*
X205645458Y-58401567D01*
X205644543Y-59449834D01*
X201274258Y-59449834D01*
X201042944Y-59354025D01*
X200787000Y-59473164D01*
X200533000Y-59473164D01*
X200277056Y-59354025D01*
X199795182Y-59553615D01*
X199697602Y-59644097D01*
X199600090Y-59492559D01*
X199387890Y-59347569D01*
X199136000Y-59296560D01*
X197104000Y-59296560D01*
X196868683Y-59340838D01*
X196652559Y-59479910D01*
X196507569Y-59692110D01*
X196456560Y-59944000D01*
X160986400Y-59944000D01*
X160986400Y-57143600D01*
X160928548Y-56852761D01*
X160928548Y-56852760D01*
X160763801Y-56606199D01*
X160004001Y-55846399D01*
X159757439Y-55681652D01*
X159466600Y-55623800D01*
X124473300Y-55623800D01*
X124182460Y-55681652D01*
X123935899Y-55846399D01*
X107676899Y-72105399D01*
X107512152Y-72351961D01*
X107454300Y-72642800D01*
X107454300Y-77735598D01*
X107359300Y-77640598D01*
X107359300Y-67450500D01*
X107301448Y-67159661D01*
X107301448Y-67159660D01*
X107260687Y-67098657D01*
X107142792Y-66813328D01*
X106908107Y-66578234D01*
X106601321Y-66450845D01*
X106269137Y-66450555D01*
X105962128Y-66577408D01*
X105727034Y-66812093D01*
X105599645Y-67118879D01*
X105599355Y-67451063D01*
X105726208Y-67758072D01*
X105839300Y-67871361D01*
X105839300Y-75986404D01*
X105601628Y-76084608D01*
X105366534Y-76319293D01*
X105239145Y-76626079D01*
X105238855Y-76958263D01*
X105314000Y-77140129D01*
X105314000Y-78258000D01*
X105371852Y-78548839D01*
X105536599Y-78795401D01*
X106377526Y-79636328D01*
X106330771Y-79748927D01*
X104414781Y-81664917D01*
X104410007Y-81660134D01*
X104103221Y-81532745D01*
X103771037Y-81532455D01*
X103464028Y-81659308D01*
X103228934Y-81893993D01*
X103178366Y-82015774D01*
X102963721Y-81926645D01*
X102631537Y-81926355D01*
X102324528Y-82053208D01*
X102089434Y-82287893D01*
X102013971Y-82469627D01*
X101672099Y-82811499D01*
X101507352Y-83058061D01*
X101449500Y-83348900D01*
X101449500Y-83552521D01*
X101178228Y-83664608D01*
X101018786Y-83823773D01*
X100838821Y-83749045D01*
X100506637Y-83748755D01*
X100324771Y-83823900D01*
X96331700Y-83823900D01*
X96040861Y-83881752D01*
X95794299Y-84046499D01*
X95030500Y-84810298D01*
X95030500Y-84220302D01*
X95567970Y-83682832D01*
X95748372Y-83608292D01*
X95983466Y-83373607D01*
X96110855Y-83066821D01*
X96111145Y-82734637D01*
X96003584Y-82474318D01*
X98719502Y-79758400D01*
X99366498Y-79758400D01*
X99521600Y-79913502D01*
X99521600Y-81285898D01*
X98930530Y-81876968D01*
X98750128Y-81951508D01*
X98515034Y-82186193D01*
X98387645Y-82492979D01*
X98387355Y-82825163D01*
X98514208Y-83132172D01*
X98748893Y-83367266D01*
X99055679Y-83494655D01*
X99387863Y-83494945D01*
X99694872Y-83368092D01*
X99929966Y-83133407D01*
X100005429Y-82951673D01*
X100819001Y-82138101D01*
X100983748Y-81891539D01*
X101041600Y-81600700D01*
X101041600Y-79598700D01*
X100992325Y-79350980D01*
X101281979Y-79471255D01*
X101614163Y-79471545D01*
X101921172Y-79344692D01*
X102156266Y-79110007D01*
X102283655Y-78803221D01*
X102283945Y-78471037D01*
X102157092Y-78164028D01*
X101922407Y-77928934D01*
X101740673Y-77853471D01*
X97009801Y-73122599D01*
X96763239Y-72957852D01*
X96472400Y-72900000D01*
X94214791Y-72900000D01*
X94034521Y-72825145D01*
X93702337Y-72824855D01*
X93395328Y-72951708D01*
X93160234Y-73186393D01*
X93032845Y-73493179D01*
X93032555Y-73825363D01*
X93159408Y-74132372D01*
X93394093Y-74367466D01*
X93700879Y-74494855D01*
X94033063Y-74495145D01*
X94214929Y-74420000D01*
X96157598Y-74420000D01*
X100158115Y-78420517D01*
X99972139Y-78296252D01*
X99681300Y-78238400D01*
X98404700Y-78238400D01*
X98113861Y-78296252D01*
X97867299Y-78460999D01*
X93282799Y-83045499D01*
X93118052Y-83292061D01*
X93060200Y-83582900D01*
X93060200Y-107620300D01*
X93118052Y-107911139D01*
X93282799Y-108157701D01*
X98902968Y-113777870D01*
X98977508Y-113958272D01*
X99212193Y-114193366D01*
X99518979Y-114320755D01*
X99851163Y-114321045D01*
X100158172Y-114194192D01*
X100393266Y-113959507D01*
X100520655Y-113652721D01*
X100520945Y-113320537D01*
X100394092Y-113013528D01*
X100159407Y-112778434D01*
X99977673Y-112702971D01*
X94580200Y-107305498D01*
X94580200Y-105475602D01*
X101196368Y-112091770D01*
X101270908Y-112272172D01*
X101505593Y-112507266D01*
X101812379Y-112634655D01*
X102144563Y-112634945D01*
X102451572Y-112508092D01*
X102686666Y-112273407D01*
X102814055Y-111966621D01*
X102814345Y-111634437D01*
X102687492Y-111327428D01*
X102452807Y-111092334D01*
X102271073Y-111016871D01*
X95030500Y-103776298D01*
X95030500Y-90461802D01*
X97220883Y-92652185D01*
X97125228Y-92691708D01*
X96890134Y-92926393D01*
X96762745Y-93233179D01*
X96762455Y-93565363D01*
X96837600Y-93747229D01*
X96837600Y-104701500D01*
X96895452Y-104992339D01*
X97060199Y-105238901D01*
X103450868Y-111629570D01*
X103525408Y-111809972D01*
X103760093Y-112045066D01*
X104066879Y-112172455D01*
X104399063Y-112172745D01*
X104706072Y-112045892D01*
X104751521Y-112000523D01*
X106003568Y-113252570D01*
X106078108Y-113432972D01*
X106312793Y-113668066D01*
X106619579Y-113795455D01*
X106951763Y-113795745D01*
X107258772Y-113668892D01*
X107493866Y-113434207D01*
X107621255Y-113127421D01*
X107621407Y-112953509D01*
X108126768Y-113458870D01*
X108201308Y-113639272D01*
X108435993Y-113874366D01*
X108742779Y-114001755D01*
X109074963Y-114002045D01*
X109381972Y-113875192D01*
X109394742Y-113862444D01*
X110135768Y-114603470D01*
X110210308Y-114783872D01*
X110444993Y-115018966D01*
X110751779Y-115146355D01*
X111083963Y-115146645D01*
X111390972Y-115019792D01*
X111626066Y-114785107D01*
X111753455Y-114478321D01*
X111753745Y-114146137D01*
X111626892Y-113839128D01*
X111392207Y-113604034D01*
X111210473Y-113528571D01*
X108330901Y-110648999D01*
X108084339Y-110484252D01*
X107974590Y-110462421D01*
X108021055Y-110350521D01*
X108021328Y-110037799D01*
X108073563Y-110037845D01*
X108380572Y-109910992D01*
X108615666Y-109676307D01*
X108743055Y-109369521D01*
X108743345Y-109037337D01*
X108616492Y-108730328D01*
X108381807Y-108495234D01*
X108200073Y-108419771D01*
X104475948Y-104695646D01*
X104589363Y-104695745D01*
X104896372Y-104568892D01*
X104958785Y-104506587D01*
X113465800Y-113013602D01*
X113465800Y-115443000D01*
X78867000Y-115443000D01*
X78867000Y-112789834D01*
X81184543Y-112789834D01*
X81584853Y-113758658D01*
X82325443Y-114500542D01*
X83293567Y-114902542D01*
X84341834Y-114903457D01*
X85310658Y-114503147D01*
X86052542Y-113762557D01*
X86454542Y-112794433D01*
X86455457Y-111746166D01*
X86055147Y-110777342D01*
X85314557Y-110035458D01*
X84346433Y-109633458D01*
X83298166Y-109632543D01*
X82329342Y-110032853D01*
X81587458Y-110773443D01*
X81185458Y-111741567D01*
X81184543Y-112789834D01*
X78867000Y-112789834D01*
X78867000Y-59449834D01*
X81184543Y-59449834D01*
X81584853Y-60418658D01*
X82325443Y-61160542D01*
X83293567Y-61562542D01*
X84341834Y-61563457D01*
X85310658Y-61163147D01*
X86052542Y-60422557D01*
X86454542Y-59454433D01*
X86455457Y-58406166D01*
X86055147Y-57437342D01*
X85314557Y-56695458D01*
X84346433Y-56293458D01*
X83298166Y-56292543D01*
X82329342Y-56692853D01*
X81587458Y-57433443D01*
X81185458Y-58401567D01*
X81184543Y-59449834D01*
X78867000Y-59449834D01*
X78867000Y-54737000D01*
X211963000Y-54737000D01*
X211963000Y-115443000D01*
G36*
X121218900Y-92336298D02*
X121116998Y-92438200D01*
X121052391Y-92438200D01*
X120872121Y-92363345D01*
X120539937Y-92363055D01*
X120232928Y-92489908D01*
X119997834Y-92724593D01*
X119870445Y-93031379D01*
X119870155Y-93363563D01*
X119997008Y-93670572D01*
X120231693Y-93905666D01*
X120538479Y-94033055D01*
X120671800Y-94033171D01*
X120671800Y-99432098D01*
X114037602Y-92797900D01*
X114764805Y-92797900D01*
X114764555Y-93083963D01*
X114891408Y-93390972D01*
X115126093Y-93626066D01*
X115432879Y-93753455D01*
X115765063Y-93753745D01*
X115946929Y-93678600D01*
X116851000Y-93678600D01*
X117141839Y-93620748D01*
X117388401Y-93456001D01*
X121218900Y-89625502D01*
X121218900Y-92336298D01*
X121218900Y-92336298D01*
G37*
X121218900Y-92336298D02*
X121116998Y-92438200D01*
X121052391Y-92438200D01*
X120872121Y-92363345D01*
X120539937Y-92363055D01*
X120232928Y-92489908D01*
X119997834Y-92724593D01*
X119870445Y-93031379D01*
X119870155Y-93363563D01*
X119997008Y-93670572D01*
X120231693Y-93905666D01*
X120538479Y-94033055D01*
X120671800Y-94033171D01*
X120671800Y-99432098D01*
X114037602Y-92797900D01*
X114764805Y-92797900D01*
X114764555Y-93083963D01*
X114891408Y-93390972D01*
X115126093Y-93626066D01*
X115432879Y-93753455D01*
X115765063Y-93753745D01*
X115946929Y-93678600D01*
X116851000Y-93678600D01*
X117141839Y-93620748D01*
X117388401Y-93456001D01*
X121218900Y-89625502D01*
X121218900Y-92336298D01*
G36*
X137197028Y-57209408D02*
X136961934Y-57444093D01*
X136886471Y-57625827D01*
X128424499Y-66087799D01*
X128259752Y-66334361D01*
X128201900Y-66625200D01*
X128201900Y-66954206D01*
X128016000Y-66916560D01*
X125984000Y-66916560D01*
X125748683Y-66960838D01*
X125532559Y-67099910D01*
X125421160Y-67262948D01*
X125324818Y-67173615D01*
X124842944Y-66974025D01*
X124587000Y-67093164D01*
X124587000Y-68453000D01*
X124607000Y-68453000D01*
X124607000Y-68707000D01*
X124587000Y-68707000D01*
X124587000Y-70066836D01*
X124842944Y-70185975D01*
X125324818Y-69986385D01*
X125422398Y-69895903D01*
X125519910Y-70047441D01*
X125732110Y-70192431D01*
X125984000Y-70243440D01*
X128016000Y-70243440D01*
X128201900Y-70208460D01*
X128201900Y-70360498D01*
X115940264Y-82622134D01*
X115803021Y-82565145D01*
X115745307Y-82565095D01*
X117351601Y-80958801D01*
X117516348Y-80712240D01*
X117574200Y-80421400D01*
X117574200Y-75272591D01*
X117649055Y-75092321D01*
X117649345Y-74760137D01*
X117522492Y-74453128D01*
X117287807Y-74218034D01*
X116981021Y-74090645D01*
X116648837Y-74090355D01*
X116341828Y-74217208D01*
X116106734Y-74451893D01*
X115979345Y-74758679D01*
X115979055Y-75090863D01*
X116054200Y-75272729D01*
X116054200Y-75682488D01*
X115780428Y-75795608D01*
X115545334Y-76030293D01*
X115417945Y-76337079D01*
X115417655Y-76669263D01*
X115492800Y-76851129D01*
X115492800Y-80006598D01*
X113613200Y-81886198D01*
X113613200Y-70978602D01*
X115628856Y-68962946D01*
X122854017Y-68962946D01*
X123122812Y-69548379D01*
X123595182Y-69986385D01*
X124077056Y-70185975D01*
X124333000Y-70066836D01*
X124333000Y-68707000D01*
X122972633Y-68707000D01*
X122854017Y-68962946D01*
X115628856Y-68962946D01*
X116394748Y-68197054D01*
X122854017Y-68197054D01*
X122972633Y-68453000D01*
X124333000Y-68453000D01*
X124333000Y-67093164D01*
X124077056Y-66974025D01*
X123595182Y-67173615D01*
X123122812Y-67611621D01*
X122854017Y-68197054D01*
X116394748Y-68197054D01*
X122978259Y-61613543D01*
X123122812Y-61928379D01*
X123595182Y-62366385D01*
X124077056Y-62565975D01*
X124333000Y-62446836D01*
X124333000Y-61087000D01*
X124313000Y-61087000D01*
X124313000Y-60833000D01*
X124333000Y-60833000D01*
X124333000Y-60813000D01*
X124587000Y-60813000D01*
X124587000Y-60833000D01*
X124607000Y-60833000D01*
X124607000Y-61087000D01*
X124587000Y-61087000D01*
X124587000Y-62446836D01*
X124842944Y-62565975D01*
X125324818Y-62366385D01*
X125422398Y-62275903D01*
X125519910Y-62427441D01*
X125732110Y-62572431D01*
X125984000Y-62623440D01*
X128016000Y-62623440D01*
X128251317Y-62579162D01*
X128467441Y-62440090D01*
X128612431Y-62227890D01*
X128663440Y-61976000D01*
X128663440Y-59944000D01*
X128619162Y-59708683D01*
X128480090Y-59492559D01*
X128267890Y-59347569D01*
X128016000Y-59296560D01*
X127760000Y-59296560D01*
X127760000Y-57673000D01*
X127702148Y-57382161D01*
X127542881Y-57143800D01*
X137355812Y-57143800D01*
X137197028Y-57209408D01*
X137197028Y-57209408D01*
G37*
X137197028Y-57209408D02*
X136961934Y-57444093D01*
X136886471Y-57625827D01*
X128424499Y-66087799D01*
X128259752Y-66334361D01*
X128201900Y-66625200D01*
X128201900Y-66954206D01*
X128016000Y-66916560D01*
X125984000Y-66916560D01*
X125748683Y-66960838D01*
X125532559Y-67099910D01*
X125421160Y-67262948D01*
X125324818Y-67173615D01*
X124842944Y-66974025D01*
X124587000Y-67093164D01*
X124587000Y-68453000D01*
X124607000Y-68453000D01*
X124607000Y-68707000D01*
X124587000Y-68707000D01*
X124587000Y-70066836D01*
X124842944Y-70185975D01*
X125324818Y-69986385D01*
X125422398Y-69895903D01*
X125519910Y-70047441D01*
X125732110Y-70192431D01*
X125984000Y-70243440D01*
X128016000Y-70243440D01*
X128201900Y-70208460D01*
X128201900Y-70360498D01*
X115940264Y-82622134D01*
X115803021Y-82565145D01*
X115745307Y-82565095D01*
X117351601Y-80958801D01*
X117516348Y-80712240D01*
X117574200Y-80421400D01*
X117574200Y-75272591D01*
X117649055Y-75092321D01*
X117649345Y-74760137D01*
X117522492Y-74453128D01*
X117287807Y-74218034D01*
X116981021Y-74090645D01*
X116648837Y-74090355D01*
X116341828Y-74217208D01*
X116106734Y-74451893D01*
X115979345Y-74758679D01*
X115979055Y-75090863D01*
X116054200Y-75272729D01*
X116054200Y-75682488D01*
X115780428Y-75795608D01*
X115545334Y-76030293D01*
X115417945Y-76337079D01*
X115417655Y-76669263D01*
X115492800Y-76851129D01*
X115492800Y-80006598D01*
X113613200Y-81886198D01*
X113613200Y-70978602D01*
X115628856Y-68962946D01*
X122854017Y-68962946D01*
X123122812Y-69548379D01*
X123595182Y-69986385D01*
X124077056Y-70185975D01*
X124333000Y-70066836D01*
X124333000Y-68707000D01*
X122972633Y-68707000D01*
X122854017Y-68962946D01*
X115628856Y-68962946D01*
X116394748Y-68197054D01*
X122854017Y-68197054D01*
X122972633Y-68453000D01*
X124333000Y-68453000D01*
X124333000Y-67093164D01*
X124077056Y-66974025D01*
X123595182Y-67173615D01*
X123122812Y-67611621D01*
X122854017Y-68197054D01*
X116394748Y-68197054D01*
X122978259Y-61613543D01*
X123122812Y-61928379D01*
X123595182Y-62366385D01*
X124077056Y-62565975D01*
X124333000Y-62446836D01*
X124333000Y-61087000D01*
X124313000Y-61087000D01*
X124313000Y-60833000D01*
X124333000Y-60833000D01*
X124333000Y-60813000D01*
X124587000Y-60813000D01*
X124587000Y-60833000D01*
X124607000Y-60833000D01*
X124607000Y-61087000D01*
X124587000Y-61087000D01*
X124587000Y-62446836D01*
X124842944Y-62565975D01*
X125324818Y-62366385D01*
X125422398Y-62275903D01*
X125519910Y-62427441D01*
X125732110Y-62572431D01*
X125984000Y-62623440D01*
X128016000Y-62623440D01*
X128251317Y-62579162D01*
X128467441Y-62440090D01*
X128612431Y-62227890D01*
X128663440Y-61976000D01*
X128663440Y-59944000D01*
X128619162Y-59708683D01*
X128480090Y-59492559D01*
X128267890Y-59347569D01*
X128016000Y-59296560D01*
X127760000Y-59296560D01*
X127760000Y-57673000D01*
X127702148Y-57382161D01*
X127542881Y-57143800D01*
X137355812Y-57143800D01*
X137197028Y-57209408D01*
M02*
