M48
;DRILL file {KiCad 4.0.2+dfsg1-stable} date sab 20 lug 2019 18:23:07 CEST
;FORMAT={-:-/ absolute / inch / decimal}
FMAT,2
INCH,TZ
T1C0.012
T2C0.031
T3C0.040
T4C0.118
%
G90
G05
M72
T1
X3.6613Y-3.6622
X4.0517Y-2.9504
X4.0656Y-3.3221
X4.0687Y-3.641
X4.1044Y-3.6465
X4.1487Y-3.0923
X4.1529Y-3.7197
X4.1582Y-3.5215
X4.1605Y-3.4826
X4.1869Y-3.3633
X4.2061Y-3.4181
X4.2526Y-4.4817
X4.2704Y-3.3931
X4.2926Y-3.562
X4.364Y-2.8948
X4.3895Y-3.1325
X4.4168Y-4.1811
X4.4205Y-2.9715
X4.4375Y-3.0892
X4.4391Y-3.4431
X4.4438Y-2.8019
X4.4634Y-2.9901
X4.4668Y-3.648
X4.5032Y-2.1573
X4.5198Y-4.1022
X4.5291Y-2.6193
X4.5356Y-3.2756
X4.539Y-4.3538
X4.5603Y-3.2937
X4.5607Y-4.1392
X4.5689Y-2.7538
X4.583Y-3.8583
X4.6292Y-2.8949
X4.6561Y-2.967
X4.6623Y-2.4707
X4.6855Y-3.0244
X4.7189Y-2.8315
X4.7355Y-2.9944
X4.7375Y-2.8691
X4.7404Y-3.8615
X4.7421Y-2.9375
X4.7528Y-2.8202
X4.755Y-2.4995
X4.7635Y-3.8183
X4.7649Y-2.7547
X4.8034Y-3.4343
X4.8106Y-3.5239
X4.8749Y-4.2751
X4.9009Y-2.6905
X4.9065Y-3.4881
X4.9113Y-2.5276
X4.9143Y-3.0861
X4.9192Y-3.0575
X4.9203Y-4.1847
X4.9428Y-3.3174
X4.9634Y-3.3557
X4.9663Y-3.2758
X4.9729Y-3.0677
X4.9745Y-3.378
X4.9758Y-4.1669
X4.9811Y-2.9606
X4.9908Y-3.2292
X4.9961Y-3.6122
X5.0153Y-3.4489
X5.0159Y-3.1388
X5.016Y-3.1683
X5.016Y-3.2989
X5.0826Y-3.8767
X5.0837Y-4.373
X5.0926Y-3.3967
X5.0946Y-3.1791
X5.0947Y-3.9104
X5.0986Y-3.435
X5.1019Y-4.0669
X5.1039Y-4.3514
X5.1062Y-2.8227
X5.1107Y-3.2776
X5.1144Y-4.5522
X5.1204Y-4.465
X5.1225Y-4.12
X5.1278Y-2.7988
X5.1343Y-3.157
X5.1411Y-2.4803
X5.1571Y-4.5398
X5.159Y-4.5077
X5.1595Y-3.9599
X5.1702Y-2.8713
X5.1781Y-3.5846
X5.1853Y-3.4075
X5.1951Y-3.0807
X5.1991Y-3.2466
X5.2067Y-4.4022
X5.2093Y-3.4915
X5.2124Y-2.8902
X5.2152Y-3.9646
X5.2196Y-4.1973
X5.2256Y-4.5814
X5.228Y-4.6588
X5.2282Y-4.5296
X5.232Y-2.9851
X5.2332Y-3.4075
X5.235Y-3.4708
X5.2374Y-2.8902
X5.2511Y-4.6833
X5.2657Y-4.6249
X5.2823Y-3.8837
X5.2944Y-3.9817
X5.3028Y-3.4372
X5.3088Y-2.9669
X5.3097Y-3.8812
X5.3155Y-3.6363
X5.3163Y-2.4108
X5.3182Y-3.7775
X5.3189Y-3.0994
X5.3227Y-4.1847
X5.3248Y-2.8837
X5.34Y-4.4929
X5.3414Y-3.8543
X5.3445Y-2.2226
X5.3508Y-4.0431
X5.3509Y-3.2108
X5.3518Y-3.8832
X5.3638Y-3.7403
X5.3642Y-2.8831
X5.3793Y-3.2225
X5.3834Y-3.5639
X5.3887Y-3.2518
X5.3947Y-2.8895
X5.3991Y-3.0885
X5.4089Y-4.5737
X5.411Y-3.8268
X5.414Y-4.4197
X5.4173Y-3.9726
X5.4197Y-4.5227
X5.4347Y-3.8266
X5.435Y-4.2497
X5.4361Y-4.2779
X5.4508Y-2.4669
X5.4556Y-4.6766
X5.4556Y-4.644
X5.4609Y-3.8838
X5.4706Y-2.5529
X5.477Y-2.8662
X5.4771Y-4.1837
X5.4786Y-3.9606
X5.4808Y-4.0431
X5.485Y-3.4306
X5.4897Y-4.0892
X5.4901Y-3.8842
X5.4997Y-2.6265
X5.5034Y-3.2905
X5.5058Y-2.5852
X5.5131Y-4.6579
X5.5232Y-4.0945
X5.5477Y-4.2287
X5.55Y-2.4228
X5.5502Y-3.9856
X5.5509Y-3.003
X5.563Y-4.285
X5.57Y-3.6239
X5.5721Y-3.8834
X5.5753Y-4.373
X5.5763Y-4.443
X5.586Y-2.9841
X5.5872Y-4.3307
X5.5949Y-3.6239
X5.5964Y-3.7981
X5.5998Y-4.0501
X5.5998Y-4.1894
X5.6004Y-2.8839
X5.6054Y-3.656
X5.6136Y-4.5376
X5.6274Y-3.8836
X5.6291Y-3.9751
X5.6291Y-2.6942
X5.6299Y-2.9664
X5.6329Y-3.5223
X5.6385Y-3.6779
X5.6416Y-4.5236
X5.6419Y-3.134
X5.6425Y-4.0216
X5.6435Y-3.816
X5.644Y-3.7746
X5.6549Y-3.29
X5.6606Y-2.7224
X5.6747Y-2.8311
X5.6824Y-2.8902
X5.6882Y-3.2002
X5.6885Y-3.3204
X5.7029Y-3.0497
X5.7034Y-4.4703
X5.7038Y-3.1117
X5.7094Y-3.2681
X5.7098Y-3.7404
X5.7136Y-3.5607
X5.7151Y-2.8901
X5.7178Y-3.4721
X5.7219Y-3.6016
X5.7351Y-3.8841
X5.7351Y-4.3824
X5.742Y-2.9869
X5.7463Y-4.2519
X5.7509Y-3.4946
X5.7529Y-4.2194
X5.7537Y-2.8785
X5.7548Y-4.0079
X5.7558Y-3.2463
X5.7581Y-3.5416
X5.7669Y-4.5057
X5.7697Y-2.8189
X5.77Y-3.6203
X5.7706Y-3.96
X5.7706Y-4.3322
X5.7722Y-4.682
X5.7812Y-3.5645
X5.7828Y-4.5704
X5.8041Y-4.5359
X5.8104Y-4.2435
X5.8159Y-2.8831
X5.8164Y-3.2002
X5.8309Y-4.0812
X5.8309Y-4.1339
X5.8367Y-3.7925
X5.8371Y-3.7637
X5.846Y-2.7973
X5.8521Y-2.841
X5.8553Y-3.0137
X5.87Y-4.6364
X5.8732Y-3.1012
X5.8747Y-3.0528
X5.8797Y-4.682
X5.8841Y-3.86
X5.8841Y-4.006
X5.8853Y-3.29
X5.8932Y-4.7029
X5.8949Y-4.3959
X5.9017Y-3.0014
X5.9031Y-4.1999
X5.9032Y-4.5477
X5.9126Y-4.37
X5.9161Y-3.7968
X5.924Y-2.719
X5.9281Y-4.6144
X5.9332Y-2.6347
X5.9332Y-3.5044
X5.9373Y-3.3359
X5.9389Y-4.6779
X5.9477Y-3.6526
X5.9493Y-4.5064
X5.9494Y-3.6203
X5.9543Y-4.5927
X5.9562Y-3.389
X5.9574Y-3.2225
X5.9687Y-3.2629
X5.9703Y-4.703
X5.9759Y-3.1573
X5.9839Y-4.5303
X5.9907Y-4.4012
X5.9931Y-3.4744
X5.9947Y-3.172
X5.9966Y-3.4322
X5.9968Y-3.6319
X6.0023Y-3.2972
X6.0047Y-4.1357
X6.0049Y-3.5138
X6.0083Y-4.5003
X6.0091Y-3.0527
X6.014Y-4.5587
X6.0175Y-4.3017
X6.0388Y-4.521
X6.0415Y-4.7023
X6.0447Y-4.391
X6.0717Y-4.6896
X6.0731Y-4.6641
X6.0859Y-3.6516
X6.0862Y-3.6122
X6.0897Y-3.358
X6.0957Y-3.0227
X6.1049Y-2.8734
X6.1057Y-3.3128
X6.1107Y-3.465
X6.1193Y-3.0236
X6.12Y-3.1015
X6.1246Y-4.6683
X6.1249Y-4.7027
X6.1249Y-3.0472
X6.128Y-4.5744
X6.1296Y-3.9135
X6.1324Y-3.5335
X6.1341Y-3.4941
X6.1457Y-4.37
X6.1463Y-2.8912
X6.1473Y-4.006
X6.1487Y-4.6619
X6.1507Y-3.3577
X6.1639Y-2.8724
X6.1649Y-3.5845
X6.1749Y-4.5104
X6.1754Y-4.4807
X6.1869Y-3.0844
X6.1907Y-2.9503
X6.2031Y-3.4083
X6.2048Y-4.3703
X6.2064Y-4.7034
X6.2162Y-4.579
X6.2174Y-4.1339
X6.2211Y-4.0891
X6.223Y-3.4727
X6.23Y-3.88
X6.2337Y-2.8518
X6.2359Y-3.3309
X6.2412Y-3.2867
X6.2423Y-4.1415
X6.2511Y-2.9921
X6.2543Y-4.6978
X6.293Y-2.773
X6.3016Y-2.8332
X6.3067Y-4.2786
X6.3084Y-4.2081
X6.3311Y-4.6129
X6.3352Y-4.7026
X6.338Y-3.8952
X6.3396Y-3.5182
X6.3426Y-4.3415
X6.3459Y-4.1743
X6.346Y-2.2142
X6.3466Y-3.1496
X6.3482Y-3.3297
X6.3519Y-4.4384
X6.3519Y-3.41
X6.3533Y-4.5671
X6.3542Y-4.3827
X6.3563Y-3.2299
X6.3683Y-3.2556
X6.3813Y-3.202
X6.3906Y-4.1743
X6.3933Y-3.416
X6.3936Y-2.9124
X6.406Y-2.1573
X6.4147Y-2.8036
X6.4148Y-4.4795
X6.4172Y-4.2928
X6.4209Y-4.5896
X6.4271Y-4.6515
X6.4276Y-2.4228
X6.4302Y-2.3964
X6.4353Y-4.4237
X6.4415Y-2.5596
X6.4471Y-4.0879
X6.4471Y-4.1115
X6.4485Y-2.9921
X6.4622Y-4.5337
X6.4711Y-3.2811
X6.4782Y-3.2089
X6.4855Y-2.6951
X6.5348Y-3.3631
X6.5512Y-4.0316
X6.5513Y-2.5257
X6.5519Y-4.2295
X6.5601Y-3.368
X6.5804Y-2.7552
X6.6498Y-4.3674
X6.6896Y-3.2608
X6.6981Y-4.147
X6.7174Y-3.21
X6.7407Y-3.6587
X6.7492Y-3.4654
X6.7509Y-3.4108
X6.7661Y-2.9972
X6.7806Y-3.5108
X6.7899Y-3.3153
X6.8251Y-3.4682
X6.8316Y-3.7141
X6.9185Y-3.6108
X6.9188Y-3.3641
X6.9226Y-3.2892
X6.9364Y-3.0608
X6.9679Y-3.1164
X6.9719Y-3.6108
X7.0026Y-4.0815
X7.0048Y-3.1608
X7.0142Y-3.388
X7.0282Y-3.7348
X7.0579Y-3.132
X7.0972Y-3.2562
X7.1037Y-3.561
X7.1095Y-2.3334
X7.1122Y-3.0777
X7.1402Y-3.2108
X7.2304Y-3.3193
X7.2324Y-3.3985
X7.2942Y-3.7056
X7.3028Y-3.7556
X7.3206Y-3.6422
X7.3521Y-2.9862
X7.3962Y-3.3358
X7.4184Y-2.8346
X7.4604Y-3.2468
X7.7417Y-4.1215
X7.8183Y-3.8583
T2
X4.6063Y-3.3906
X4.6063Y-3.5827
T3
X4.9Y-4.3307
X5.Y-4.3307
X5.9236Y-2.2835
X6.0236Y-2.2835
X7.6378Y-3.878
X7.6378Y-3.978
X7.6378Y-4.078
X7.8Y-2.4
X7.9Y-2.4
X8.Y-3.1
X8.Y-3.2
X8.Y-3.3
X8.Y-3.4
T4
X3.3Y-2.32
X3.3Y-4.42
X8.2Y-2.32
X8.2Y-4.32
T0
M30
