M48
;DRILL file {KiCad 4.0.2+dfsg1-stable} date Sat 25 May 2019 15:12:50 CEST
;FORMAT={-:-/ absolute / metric / decimal}
FMAT,2
METRIC,TZ
T1C0.300
T2C0.800
T3C1.016
T4C3.000
%
G90
G05
M71
T1
X92.567Y-73.66
X94.777Y-84.762
X95.233Y-86.949
X95.285Y-82.877
X96.48Y-105.063
X97.882Y-84.301
X98.154Y-88.704
X98.191Y-88.044
X99.028Y-82.939
X99.14Y-79.706
X99.729Y-80.036
X100.276Y-91.594
X100.276Y-93.741
X100.588Y-98.206
X100.85Y-83.942
X101.64Y-97.752
X102.14Y-95.448
X102.64Y-82.421
X102.658Y-79.68
X102.659Y-103.297
X102.67Y-98.311
X103.222Y-85.353
X103.288Y-79.321
X103.304Y-99.131
X103.657Y-78.122
X103.842Y-80.031
X104.307Y-95.442
X104.328Y-89.9
X104.429Y-97.799
X104.57Y-101.094
X104.796Y-110.86
X104.824Y-82.66
X104.986Y-95.429
X105.38Y-84.828
X105.532Y-97.757
X105.555Y-92.587
X105.742Y-80.033
X106.112Y-94.216
X106.113Y-98.288
X106.234Y-113.332
X106.419Y-94.783
X106.561Y-86.463
X106.606Y-92.422
X106.828Y-114.093
X106.951Y-99.001
X107.021Y-85.925
X107.098Y-91.081
X107.375Y-99.426
X107.537Y-83.562
X107.579Y-80.03
X107.665Y-91.648
X108.27Y-114.936
X108.326Y-82.96
X108.368Y-109.43
X109.053Y-87.433
X109.067Y-100.799
X109.136Y-108.165
X109.872Y-114.525
X110.171Y-87.537
X110.216Y-94.957
X110.572Y-112.438
X110.664Y-86.999
X111.543Y-105.402
X112.17Y-95.94
X113.134Y-88.467
X113.358Y-74.064
X113.376Y-95.848
X113.817Y-87.289
X113.941Y-87.889
X114.547Y-74.997
X114.847Y-86.257
X115.026Y-69.995
X115.171Y-97.756
X115.226Y-103.58
X115.365Y-102.98
X115.444Y-74.997
X115.606Y-104.129
X115.613Y-96.533
X117.638Y-76.475
X118.317Y-88.152
X118.489Y-111.393
X119.128Y-94.056
X119.395Y-90.813
X119.406Y-90.196
X119.484Y-88.635
X119.775Y-105.798
X120.294Y-111.987
X120.422Y-87.915
X120.859Y-104.628
X121.318Y-108.403
X121.661Y-100.384
X121.827Y-98.814
X122.461Y-108.853
X123.179Y-85.512
X123.622Y-81.168
X123.658Y-82.027
X124.133Y-77.363
X124.748Y-85.59
X125.202Y-78.338
X125.303Y-90.892
X125.511Y-105.201
X126.662Y-79.127
X127.654Y-83.826
X128.058Y-114.724
X128.358Y-83.876
X128.596Y-107.952
X128.812Y-115.045
X128.987Y-83.912
X129.619Y-91.111
X130.244Y-91.552
X130.282Y-93.715
X130.297Y-115.512
X131.737Y-96.499
X131.889Y-119.456
X132.185Y-79.791
X132.271Y-85.426
X132.531Y-114.935
X132.6Y-91.926
X133.072Y-115.632
X133.096Y-116.733
X133.118Y-86.602
X133.752Y-101.6
X134.192Y-85.446
X134.509Y-82.285
X134.596Y-118.342
X135.243Y-106.706
X135.445Y-115.145
X136.053Y-116.49
X137.255Y-81.252
X137.611Y-101.84
X137.84Y-92.374
X138.004Y-115.982
X138.285Y-113.922
X138.449Y-89.214
X138.6Y-102.826
X138.726Y-107.089
X138.77Y-81.212
X138.794Y-99.695
X139.278Y-116.075
X139.55Y-96.057
X139.835Y-117.029
X140.086Y-88.494
X140.4Y-118.885
X140.985Y-93.984
X140.985Y-103.992
X141.804Y-115.864
X141.866Y-114.373
X142.159Y-109.634
X142.309Y-86.255
X142.485Y-115.751
X142.945Y-110.567
X142.976Y-113.794
X143.66Y-107.614
X144.186Y-105.201
X144.905Y-81.187
X145.115Y-115.013
X145.605Y-82.61
X145.883Y-93.715
X145.897Y-76.475
X145.973Y-119.266
X146.083Y-116.485
X146.239Y-82.613
X146.333Y-101.368
X146.333Y-103.542
X146.658Y-86.095
X147.533Y-114.144
X147.945Y-119.168
X148.136Y-117.962
X148.527Y-90.545
X148.577Y-89.27
X148.611Y-85.457
X148.665Y-118.373
X149.195Y-111.344
X149.25Y-108.695
X149.297Y-119.071
X149.726Y-92.381
X149.82Y-117.52
X150.159Y-88.678
X150.203Y-86.382
X150.257Y-106.563
X150.469Y-118.813
X150.703Y-81.282
X150.718Y-91.175
X150.976Y-89.907
X151.572Y-119.447
X152.003Y-116.812
X152.088Y-97.498
X152.735Y-81.243
X153.572Y-119.428
X153.95Y-118.346
X154.119Y-116.812
X154.166Y-108.714
X154.536Y-115.065
X154.719Y-116.992
X155.078Y-88.474
X155.152Y-96.202
X155.176Y-89.118
X155.253Y-119.46
X155.54Y-115.689
X156.04Y-117.92
X156.088Y-119.179
X156.8Y-114.364
X157.02Y-105.775
X157.54Y-119.252
X158.572Y-117.307
X160.426Y-117.388
X160.992Y-108.51
X161.178Y-116.707
X161.192Y-118.433
X161.453Y-116.133
X161.577Y-104.067
X162.771Y-115.927
X163.342Y-114.215
X163.39Y-118.069
X163.962Y-105.262
X164.215Y-83.374
X164.538Y-99.728
X164.824Y-84.794
X165.185Y-98.885
X165.359Y-116.231
X165.369Y-92.304
X165.505Y-80.718
X165.524Y-84.89
X168.822Y-80.7
X171.313Y-104.717
X171.674Y-87.512
X180.822Y-78.075
T2
X137.16Y-63.5
X137.16Y-68.38
T3
X124.46Y-60.96
X124.46Y-68.58
X127.Y-60.96
X127.Y-68.58
X194.Y-98.5
X194.Y-101.04
X194.Y-103.58
X198.12Y-60.96
X200.66Y-60.96
X203.2Y-78.74
X203.2Y-81.28
X203.2Y-83.82
X203.2Y-86.36
T4
X83.82Y-58.928
X83.82Y-112.268
X208.28Y-58.928
X208.28Y-109.728
T0
M30
