G04 #@! TF.FileFunction,Legend,Top*
%FSLAX46Y46*%
G04 Gerber Fmt 4.6, Leading zero omitted, Abs format (unit mm)*
G04 Created by KiCad (PCBNEW 4.0.2+dfsg1-stable) date sab 20 lug 2019 18:23:04 CEST*
%MOMM*%
G01*
G04 APERTURE LIST*
%ADD10C,0.100000*%
%ADD11C,0.200000*%
%ADD12C,0.700000*%
%ADD13C,0.150000*%
%ADD14C,0.300000*%
%ADD15C,0.120000*%
%ADD16C,0.010000*%
G04 APERTURE END LIST*
D10*
D11*
X128223607Y-74000000D02*
G75*
G03X128223607Y-74000000I-223607J0D01*
G01*
D12*
X180272322Y-68357143D02*
X180647322Y-65357143D01*
X181879465Y-67500000D01*
X183647322Y-65357143D01*
X183272322Y-68357143D01*
X185611608Y-66785714D02*
X187111608Y-66785714D01*
X187558036Y-68357143D02*
X185415179Y-68357143D01*
X185790179Y-65357143D01*
X187933036Y-65357143D01*
X192200893Y-65500000D02*
X191790179Y-65357143D01*
X191147322Y-65357143D01*
X190486608Y-65500000D01*
X190022322Y-65785714D01*
X189772322Y-66071429D01*
X189486608Y-66642857D01*
X189433036Y-67071429D01*
X189575894Y-67642857D01*
X189754465Y-67928571D01*
X190147322Y-68214286D01*
X190772322Y-68357143D01*
X191200893Y-68357143D01*
X191861607Y-68214286D01*
X192093750Y-68071429D01*
X192218750Y-67071429D01*
X191361607Y-67071429D01*
X193879465Y-67500000D02*
X196022322Y-67500000D01*
X193343750Y-68357143D02*
X195218750Y-65357143D01*
X196343750Y-68357143D01*
X200415179Y-68357143D02*
X199093751Y-66928571D01*
X197843751Y-68357143D02*
X198218751Y-65357143D01*
X199933036Y-65357143D01*
X200343751Y-65500000D01*
X200540179Y-65642857D01*
X200718751Y-65928571D01*
X200665179Y-66357143D01*
X200415179Y-66642857D01*
X200183037Y-66785714D01*
X199736608Y-66928571D01*
X198022323Y-66928571D01*
X202236608Y-67500000D02*
X204379465Y-67500000D01*
X201700893Y-68357143D02*
X203575893Y-65357143D01*
X204700893Y-68357143D01*
X206200894Y-68357143D02*
X206575894Y-65357143D01*
X207808037Y-67500000D01*
X209575894Y-65357143D01*
X209200894Y-68357143D01*
D13*
X196390477Y-97600000D02*
X196314286Y-97561905D01*
X196200001Y-97561905D01*
X196085715Y-97600000D01*
X196009524Y-97676190D01*
X195971429Y-97752381D01*
X195933334Y-97904762D01*
X195933334Y-98019048D01*
X195971429Y-98171429D01*
X196009524Y-98247619D01*
X196085715Y-98323810D01*
X196200001Y-98361905D01*
X196276191Y-98361905D01*
X196390477Y-98323810D01*
X196428572Y-98285714D01*
X196428572Y-98019048D01*
X196276191Y-98019048D01*
X196771429Y-98361905D02*
X196771429Y-97561905D01*
X197228572Y-98361905D01*
X197228572Y-97561905D01*
X197609524Y-98361905D02*
X197609524Y-97561905D01*
X197800000Y-97561905D01*
X197914286Y-97600000D01*
X197990477Y-97676190D01*
X198028572Y-97752381D01*
X198066667Y-97904762D01*
X198066667Y-98019048D01*
X198028572Y-98171429D01*
X197990477Y-98247619D01*
X197914286Y-98323810D01*
X197800000Y-98361905D01*
X197609524Y-98361905D01*
D14*
X202000000Y-114678571D02*
X201500000Y-113964286D01*
X201142857Y-114678571D02*
X201142857Y-113178571D01*
X201714285Y-113178571D01*
X201857143Y-113250000D01*
X201928571Y-113321429D01*
X202000000Y-113464286D01*
X202000000Y-113678571D01*
X201928571Y-113821429D01*
X201857143Y-113892857D01*
X201714285Y-113964286D01*
X201142857Y-113964286D01*
X202642857Y-114678571D02*
X202642857Y-113178571D01*
X204142857Y-113250000D02*
X204000000Y-113178571D01*
X203785714Y-113178571D01*
X203571429Y-113250000D01*
X203428571Y-113392857D01*
X203357143Y-113535714D01*
X203285714Y-113821429D01*
X203285714Y-114035714D01*
X203357143Y-114321429D01*
X203428571Y-114464286D01*
X203571429Y-114607143D01*
X203785714Y-114678571D01*
X203928571Y-114678571D01*
X204142857Y-114607143D01*
X204214286Y-114535714D01*
X204214286Y-114035714D01*
X203928571Y-114035714D01*
X204857143Y-114678571D02*
X204857143Y-113178571D01*
X204857143Y-113892857D02*
X205714286Y-113892857D01*
X205714286Y-114678571D02*
X205714286Y-113178571D01*
X206214286Y-113178571D02*
X207071429Y-113178571D01*
X206642858Y-114678571D02*
X206642858Y-113178571D01*
X80571429Y-108678571D02*
X79857143Y-108678571D01*
X79857143Y-107178571D01*
X81071429Y-107892857D02*
X81571429Y-107892857D01*
X81785715Y-108678571D02*
X81071429Y-108678571D01*
X81071429Y-107178571D01*
X81785715Y-107178571D01*
X82928572Y-107892857D02*
X82428572Y-107892857D01*
X82428572Y-108678571D02*
X82428572Y-107178571D01*
X83142858Y-107178571D01*
X83500000Y-107178571D02*
X84357143Y-107178571D01*
X83928572Y-108678571D02*
X83928572Y-107178571D01*
X167500001Y-114678571D02*
X167500001Y-113178571D01*
X167500001Y-114607143D02*
X167357144Y-114678571D01*
X167071430Y-114678571D01*
X166928572Y-114607143D01*
X166857144Y-114535714D01*
X166785715Y-114392857D01*
X166785715Y-113964286D01*
X166857144Y-113821429D01*
X166928572Y-113750000D01*
X167071430Y-113678571D01*
X167357144Y-113678571D01*
X167500001Y-113750000D01*
X168785715Y-114607143D02*
X168642858Y-114678571D01*
X168357144Y-114678571D01*
X168214287Y-114607143D01*
X168142858Y-114464286D01*
X168142858Y-113892857D01*
X168214287Y-113750000D01*
X168357144Y-113678571D01*
X168642858Y-113678571D01*
X168785715Y-113750000D01*
X168857144Y-113892857D01*
X168857144Y-114035714D01*
X168142858Y-114178571D01*
X169428572Y-114607143D02*
X169571429Y-114678571D01*
X169857144Y-114678571D01*
X170000001Y-114607143D01*
X170071429Y-114464286D01*
X170071429Y-114392857D01*
X170000001Y-114250000D01*
X169857144Y-114178571D01*
X169642858Y-114178571D01*
X169500001Y-114107143D01*
X169428572Y-113964286D01*
X169428572Y-113892857D01*
X169500001Y-113750000D01*
X169642858Y-113678571D01*
X169857144Y-113678571D01*
X170000001Y-113750000D01*
X170714287Y-114678571D02*
X170714287Y-113678571D01*
X170714287Y-113178571D02*
X170642858Y-113250000D01*
X170714287Y-113321429D01*
X170785715Y-113250000D01*
X170714287Y-113178571D01*
X170714287Y-113321429D01*
X172071430Y-113678571D02*
X172071430Y-114892857D01*
X172000001Y-115035714D01*
X171928573Y-115107143D01*
X171785716Y-115178571D01*
X171571430Y-115178571D01*
X171428573Y-115107143D01*
X172071430Y-114607143D02*
X171928573Y-114678571D01*
X171642859Y-114678571D01*
X171500001Y-114607143D01*
X171428573Y-114535714D01*
X171357144Y-114392857D01*
X171357144Y-113964286D01*
X171428573Y-113821429D01*
X171500001Y-113750000D01*
X171642859Y-113678571D01*
X171928573Y-113678571D01*
X172071430Y-113750000D01*
X172785716Y-113678571D02*
X172785716Y-114678571D01*
X172785716Y-113821429D02*
X172857144Y-113750000D01*
X173000002Y-113678571D01*
X173214287Y-113678571D01*
X173357144Y-113750000D01*
X173428573Y-113892857D01*
X173428573Y-114678571D01*
X174714287Y-114607143D02*
X174571430Y-114678571D01*
X174285716Y-114678571D01*
X174142859Y-114607143D01*
X174071430Y-114464286D01*
X174071430Y-113892857D01*
X174142859Y-113750000D01*
X174285716Y-113678571D01*
X174571430Y-113678571D01*
X174714287Y-113750000D01*
X174785716Y-113892857D01*
X174785716Y-114035714D01*
X174071430Y-114178571D01*
X176071430Y-114678571D02*
X176071430Y-113178571D01*
X176071430Y-114607143D02*
X175928573Y-114678571D01*
X175642859Y-114678571D01*
X175500001Y-114607143D01*
X175428573Y-114535714D01*
X175357144Y-114392857D01*
X175357144Y-113964286D01*
X175428573Y-113821429D01*
X175500001Y-113750000D01*
X175642859Y-113678571D01*
X175928573Y-113678571D01*
X176071430Y-113750000D01*
X177928573Y-114678571D02*
X177928573Y-113178571D01*
X177928573Y-113750000D02*
X178071430Y-113678571D01*
X178357144Y-113678571D01*
X178500001Y-113750000D01*
X178571430Y-113821429D01*
X178642859Y-113964286D01*
X178642859Y-114392857D01*
X178571430Y-114535714D01*
X178500001Y-114607143D01*
X178357144Y-114678571D01*
X178071430Y-114678571D01*
X177928573Y-114607143D01*
X179142859Y-113678571D02*
X179500002Y-114678571D01*
X179857144Y-113678571D02*
X179500002Y-114678571D01*
X179357144Y-115035714D01*
X179285716Y-115107143D01*
X179142859Y-115178571D01*
X182428573Y-114678571D02*
X181928573Y-113964286D01*
X181571430Y-114678571D02*
X181571430Y-113178571D01*
X182142858Y-113178571D01*
X182285716Y-113250000D01*
X182357144Y-113321429D01*
X182428573Y-113464286D01*
X182428573Y-113678571D01*
X182357144Y-113821429D01*
X182285716Y-113892857D01*
X182142858Y-113964286D01*
X181571430Y-113964286D01*
X183071430Y-114535714D02*
X183142858Y-114607143D01*
X183071430Y-114678571D01*
X183000001Y-114607143D01*
X183071430Y-114535714D01*
X183071430Y-114678571D01*
X184571430Y-113250000D02*
X184428573Y-113178571D01*
X184214287Y-113178571D01*
X184000002Y-113250000D01*
X183857144Y-113392857D01*
X183785716Y-113535714D01*
X183714287Y-113821429D01*
X183714287Y-114035714D01*
X183785716Y-114321429D01*
X183857144Y-114464286D01*
X184000002Y-114607143D01*
X184214287Y-114678571D01*
X184357144Y-114678571D01*
X184571430Y-114607143D01*
X184642859Y-114535714D01*
X184642859Y-114035714D01*
X184357144Y-114035714D01*
X185285716Y-114535714D02*
X185357144Y-114607143D01*
X185285716Y-114678571D01*
X185214287Y-114607143D01*
X185285716Y-114535714D01*
X185285716Y-114678571D01*
X187071430Y-113321429D02*
X187142859Y-113250000D01*
X187285716Y-113178571D01*
X187642859Y-113178571D01*
X187785716Y-113250000D01*
X187857145Y-113321429D01*
X187928573Y-113464286D01*
X187928573Y-113607143D01*
X187857145Y-113821429D01*
X187000002Y-114678571D01*
X187928573Y-114678571D01*
X188857144Y-113178571D02*
X189000001Y-113178571D01*
X189142858Y-113250000D01*
X189214287Y-113321429D01*
X189285716Y-113464286D01*
X189357144Y-113750000D01*
X189357144Y-114107143D01*
X189285716Y-114392857D01*
X189214287Y-114535714D01*
X189142858Y-114607143D01*
X189000001Y-114678571D01*
X188857144Y-114678571D01*
X188714287Y-114607143D01*
X188642858Y-114535714D01*
X188571430Y-114392857D01*
X188500001Y-114107143D01*
X188500001Y-113750000D01*
X188571430Y-113464286D01*
X188642858Y-113321429D01*
X188714287Y-113250000D01*
X188857144Y-113178571D01*
X190785715Y-114678571D02*
X189928572Y-114678571D01*
X190357144Y-114678571D02*
X190357144Y-113178571D01*
X190214287Y-113392857D01*
X190071429Y-113535714D01*
X189928572Y-113607143D01*
X191500000Y-114678571D02*
X191785715Y-114678571D01*
X191928572Y-114607143D01*
X192000000Y-114535714D01*
X192142858Y-114321429D01*
X192214286Y-114035714D01*
X192214286Y-113464286D01*
X192142858Y-113321429D01*
X192071429Y-113250000D01*
X191928572Y-113178571D01*
X191642858Y-113178571D01*
X191500000Y-113250000D01*
X191428572Y-113321429D01*
X191357143Y-113464286D01*
X191357143Y-113821429D01*
X191428572Y-113964286D01*
X191500000Y-114035714D01*
X191642858Y-114107143D01*
X191928572Y-114107143D01*
X192071429Y-114035714D01*
X192142858Y-113964286D01*
X192214286Y-113821429D01*
X190750000Y-72478571D02*
X190750000Y-70978571D01*
X190750000Y-71550000D02*
X190892857Y-71478571D01*
X191178571Y-71478571D01*
X191321428Y-71550000D01*
X191392857Y-71621429D01*
X191464286Y-71764286D01*
X191464286Y-72192857D01*
X191392857Y-72335714D01*
X191321428Y-72407143D01*
X191178571Y-72478571D01*
X190892857Y-72478571D01*
X190750000Y-72407143D01*
X191964286Y-71478571D02*
X192321429Y-72478571D01*
X192678571Y-71478571D02*
X192321429Y-72478571D01*
X192178571Y-72835714D01*
X192107143Y-72907143D01*
X191964286Y-72978571D01*
X195250000Y-72478571D02*
X194750000Y-71764286D01*
X194392857Y-72478571D02*
X194392857Y-70978571D01*
X194964285Y-70978571D01*
X195107143Y-71050000D01*
X195178571Y-71121429D01*
X195250000Y-71264286D01*
X195250000Y-71478571D01*
X195178571Y-71621429D01*
X195107143Y-71692857D01*
X194964285Y-71764286D01*
X194392857Y-71764286D01*
X195892857Y-71692857D02*
X196392857Y-71692857D01*
X196607143Y-72478571D02*
X195892857Y-72478571D01*
X195892857Y-70978571D01*
X196607143Y-70978571D01*
X197035714Y-70978571D02*
X197892857Y-70978571D01*
X197464286Y-72478571D02*
X197464286Y-70978571D01*
X199250000Y-72478571D02*
X198750000Y-71764286D01*
X198392857Y-72478571D02*
X198392857Y-70978571D01*
X198964285Y-70978571D01*
X199107143Y-71050000D01*
X199178571Y-71121429D01*
X199250000Y-71264286D01*
X199250000Y-71478571D01*
X199178571Y-71621429D01*
X199107143Y-71692857D01*
X198964285Y-71764286D01*
X198392857Y-71764286D01*
X200178571Y-70978571D02*
X200464285Y-70978571D01*
X200607143Y-71050000D01*
X200750000Y-71192857D01*
X200821428Y-71478571D01*
X200821428Y-71978571D01*
X200750000Y-72264286D01*
X200607143Y-72407143D01*
X200464285Y-72478571D01*
X200178571Y-72478571D01*
X200035714Y-72407143D01*
X199892857Y-72264286D01*
X199821428Y-71978571D01*
X199821428Y-71478571D01*
X199892857Y-71192857D01*
X200035714Y-71050000D01*
X200178571Y-70978571D01*
X201964286Y-71692857D02*
X202178572Y-71764286D01*
X202250000Y-71835714D01*
X202321429Y-71978571D01*
X202321429Y-72192857D01*
X202250000Y-72335714D01*
X202178572Y-72407143D01*
X202035714Y-72478571D01*
X201464286Y-72478571D01*
X201464286Y-70978571D01*
X201964286Y-70978571D01*
X202107143Y-71050000D01*
X202178572Y-71121429D01*
X202250000Y-71264286D01*
X202250000Y-71407143D01*
X202178572Y-71550000D01*
X202107143Y-71621429D01*
X201964286Y-71692857D01*
X201464286Y-71692857D01*
X202964286Y-72478571D02*
X202964286Y-70978571D01*
X203464286Y-70978571D02*
X204321429Y-70978571D01*
X203892858Y-72478571D02*
X203892858Y-70978571D01*
X206678572Y-72478571D02*
X205964286Y-72478571D01*
X205964286Y-70978571D01*
X207107143Y-72050000D02*
X207821429Y-72050000D01*
X206964286Y-72478571D02*
X207464286Y-70978571D01*
X207964286Y-72478571D01*
X208964286Y-71692857D02*
X209178572Y-71764286D01*
X209250000Y-71835714D01*
X209321429Y-71978571D01*
X209321429Y-72192857D01*
X209250000Y-72335714D01*
X209178572Y-72407143D01*
X209035714Y-72478571D01*
X208464286Y-72478571D01*
X208464286Y-70978571D01*
X208964286Y-70978571D01*
X209107143Y-71050000D01*
X209178572Y-71121429D01*
X209250000Y-71264286D01*
X209250000Y-71407143D01*
X209178572Y-71550000D01*
X209107143Y-71621429D01*
X208964286Y-71692857D01*
X208464286Y-71692857D01*
D11*
X192858096Y-58348571D02*
X193000953Y-58396190D01*
X193048572Y-58443810D01*
X193096191Y-58539048D01*
X193096191Y-58681905D01*
X193048572Y-58777143D01*
X193000953Y-58824762D01*
X192905715Y-58872381D01*
X192524762Y-58872381D01*
X192524762Y-57872381D01*
X192858096Y-57872381D01*
X192953334Y-57920000D01*
X193000953Y-57967619D01*
X193048572Y-58062857D01*
X193048572Y-58158095D01*
X193000953Y-58253333D01*
X192953334Y-58300952D01*
X192858096Y-58348571D01*
X192524762Y-58348571D01*
X193715238Y-57872381D02*
X193905715Y-57872381D01*
X194000953Y-57920000D01*
X194096191Y-58015238D01*
X194143810Y-58205714D01*
X194143810Y-58539048D01*
X194096191Y-58729524D01*
X194000953Y-58824762D01*
X193905715Y-58872381D01*
X193715238Y-58872381D01*
X193620000Y-58824762D01*
X193524762Y-58729524D01*
X193477143Y-58539048D01*
X193477143Y-58205714D01*
X193524762Y-58015238D01*
X193620000Y-57920000D01*
X193715238Y-57872381D01*
X194524762Y-58586667D02*
X195000953Y-58586667D01*
X194429524Y-58872381D02*
X194762857Y-57872381D01*
X195096191Y-58872381D01*
X196000953Y-58872381D02*
X195667619Y-58396190D01*
X195429524Y-58872381D02*
X195429524Y-57872381D01*
X195810477Y-57872381D01*
X195905715Y-57920000D01*
X195953334Y-57967619D01*
X196000953Y-58062857D01*
X196000953Y-58205714D01*
X195953334Y-58300952D01*
X195905715Y-58348571D01*
X195810477Y-58396190D01*
X195429524Y-58396190D01*
X196429524Y-58872381D02*
X196429524Y-57872381D01*
X196667619Y-57872381D01*
X196810477Y-57920000D01*
X196905715Y-58015238D01*
X196953334Y-58110476D01*
X197000953Y-58300952D01*
X197000953Y-58443810D01*
X196953334Y-58634286D01*
X196905715Y-58729524D01*
X196810477Y-58824762D01*
X196667619Y-58872381D01*
X196429524Y-58872381D01*
X198191429Y-58872381D02*
X198191429Y-57872381D01*
X198429524Y-57872381D01*
X198572382Y-57920000D01*
X198667620Y-58015238D01*
X198715239Y-58110476D01*
X198762858Y-58300952D01*
X198762858Y-58443810D01*
X198715239Y-58634286D01*
X198667620Y-58729524D01*
X198572382Y-58824762D01*
X198429524Y-58872381D01*
X198191429Y-58872381D01*
X199191429Y-58872381D02*
X199191429Y-57872381D01*
X199620000Y-58824762D02*
X199762857Y-58872381D01*
X200000953Y-58872381D01*
X200096191Y-58824762D01*
X200143810Y-58777143D01*
X200191429Y-58681905D01*
X200191429Y-58586667D01*
X200143810Y-58491429D01*
X200096191Y-58443810D01*
X200000953Y-58396190D01*
X199810476Y-58348571D01*
X199715238Y-58300952D01*
X199667619Y-58253333D01*
X199620000Y-58158095D01*
X199620000Y-58062857D01*
X199667619Y-57967619D01*
X199715238Y-57920000D01*
X199810476Y-57872381D01*
X200048572Y-57872381D01*
X200191429Y-57920000D01*
X200572381Y-58586667D02*
X201048572Y-58586667D01*
X200477143Y-58872381D02*
X200810476Y-57872381D01*
X201143810Y-58872381D01*
X201810477Y-58348571D02*
X201953334Y-58396190D01*
X202000953Y-58443810D01*
X202048572Y-58539048D01*
X202048572Y-58681905D01*
X202000953Y-58777143D01*
X201953334Y-58824762D01*
X201858096Y-58872381D01*
X201477143Y-58872381D01*
X201477143Y-57872381D01*
X201810477Y-57872381D01*
X201905715Y-57920000D01*
X201953334Y-57967619D01*
X202000953Y-58062857D01*
X202000953Y-58158095D01*
X201953334Y-58253333D01*
X201905715Y-58300952D01*
X201810477Y-58348571D01*
X201477143Y-58348571D01*
X202953334Y-58872381D02*
X202477143Y-58872381D01*
X202477143Y-57872381D01*
X203286667Y-58348571D02*
X203620001Y-58348571D01*
X203762858Y-58872381D02*
X203286667Y-58872381D01*
X203286667Y-57872381D01*
X203762858Y-57872381D01*
D13*
X198933333Y-86061905D02*
X199200000Y-86861905D01*
X199466667Y-86061905D01*
X200190476Y-86785714D02*
X200152381Y-86823810D01*
X200038095Y-86861905D01*
X199961905Y-86861905D01*
X199847619Y-86823810D01*
X199771428Y-86747619D01*
X199733333Y-86671429D01*
X199695238Y-86519048D01*
X199695238Y-86404762D01*
X199733333Y-86252381D01*
X199771428Y-86176190D01*
X199847619Y-86100000D01*
X199961905Y-86061905D01*
X200038095Y-86061905D01*
X200152381Y-86100000D01*
X200190476Y-86138095D01*
X200990476Y-86785714D02*
X200952381Y-86823810D01*
X200838095Y-86861905D01*
X200761905Y-86861905D01*
X200647619Y-86823810D01*
X200571428Y-86747619D01*
X200533333Y-86671429D01*
X200495238Y-86519048D01*
X200495238Y-86404762D01*
X200533333Y-86252381D01*
X200571428Y-86176190D01*
X200647619Y-86100000D01*
X200761905Y-86061905D01*
X200838095Y-86061905D01*
X200952381Y-86100000D01*
X200990476Y-86138095D01*
X196790476Y-84323810D02*
X196904762Y-84361905D01*
X197095238Y-84361905D01*
X197171428Y-84323810D01*
X197209524Y-84285714D01*
X197247619Y-84209524D01*
X197247619Y-84133333D01*
X197209524Y-84057143D01*
X197171428Y-84019048D01*
X197095238Y-83980952D01*
X196942857Y-83942857D01*
X196866666Y-83904762D01*
X196828571Y-83866667D01*
X196790476Y-83790476D01*
X196790476Y-83714286D01*
X196828571Y-83638095D01*
X196866666Y-83600000D01*
X196942857Y-83561905D01*
X197133333Y-83561905D01*
X197247619Y-83600000D01*
X197514286Y-83561905D02*
X197704762Y-84361905D01*
X197857143Y-83790476D01*
X198009524Y-84361905D01*
X198200000Y-83561905D01*
X198504762Y-84361905D02*
X198504762Y-83561905D01*
X198695238Y-83561905D01*
X198809524Y-83600000D01*
X198885715Y-83676190D01*
X198923810Y-83752381D01*
X198961905Y-83904762D01*
X198961905Y-84019048D01*
X198923810Y-84171429D01*
X198885715Y-84247619D01*
X198809524Y-84323810D01*
X198695238Y-84361905D01*
X198504762Y-84361905D01*
X199761905Y-84285714D02*
X199723810Y-84323810D01*
X199609524Y-84361905D01*
X199533334Y-84361905D01*
X199419048Y-84323810D01*
X199342857Y-84247619D01*
X199304762Y-84171429D01*
X199266667Y-84019048D01*
X199266667Y-83904762D01*
X199304762Y-83752381D01*
X199342857Y-83676190D01*
X199419048Y-83600000D01*
X199533334Y-83561905D01*
X199609524Y-83561905D01*
X199723810Y-83600000D01*
X199761905Y-83638095D01*
X200485715Y-84361905D02*
X200104762Y-84361905D01*
X200104762Y-83561905D01*
X200752381Y-84361905D02*
X200752381Y-83561905D01*
X201209524Y-84361905D02*
X200866667Y-83904762D01*
X201209524Y-83561905D02*
X200752381Y-84019048D01*
X197804762Y-81823810D02*
X197919048Y-81861905D01*
X198109524Y-81861905D01*
X198185714Y-81823810D01*
X198223810Y-81785714D01*
X198261905Y-81709524D01*
X198261905Y-81633333D01*
X198223810Y-81557143D01*
X198185714Y-81519048D01*
X198109524Y-81480952D01*
X197957143Y-81442857D01*
X197880952Y-81404762D01*
X197842857Y-81366667D01*
X197804762Y-81290476D01*
X197804762Y-81214286D01*
X197842857Y-81138095D01*
X197880952Y-81100000D01*
X197957143Y-81061905D01*
X198147619Y-81061905D01*
X198261905Y-81100000D01*
X198528572Y-81061905D02*
X198719048Y-81861905D01*
X198871429Y-81290476D01*
X199023810Y-81861905D01*
X199214286Y-81061905D01*
X199519048Y-81861905D02*
X199519048Y-81061905D01*
X199709524Y-81061905D01*
X199823810Y-81100000D01*
X199900001Y-81176190D01*
X199938096Y-81252381D01*
X199976191Y-81404762D01*
X199976191Y-81519048D01*
X199938096Y-81671429D01*
X199900001Y-81747619D01*
X199823810Y-81823810D01*
X199709524Y-81861905D01*
X199519048Y-81861905D01*
X200319048Y-81861905D02*
X200319048Y-81061905D01*
X200852381Y-81061905D02*
X201004762Y-81061905D01*
X201080953Y-81100000D01*
X201157143Y-81176190D01*
X201195238Y-81328571D01*
X201195238Y-81595238D01*
X201157143Y-81747619D01*
X201080953Y-81823810D01*
X201004762Y-81861905D01*
X200852381Y-81861905D01*
X200776191Y-81823810D01*
X200700000Y-81747619D01*
X200661905Y-81595238D01*
X200661905Y-81328571D01*
X200700000Y-81176190D01*
X200776191Y-81100000D01*
X200852381Y-81061905D01*
X199390477Y-78600000D02*
X199314286Y-78561905D01*
X199200001Y-78561905D01*
X199085715Y-78600000D01*
X199009524Y-78676190D01*
X198971429Y-78752381D01*
X198933334Y-78904762D01*
X198933334Y-79019048D01*
X198971429Y-79171429D01*
X199009524Y-79247619D01*
X199085715Y-79323810D01*
X199200001Y-79361905D01*
X199276191Y-79361905D01*
X199390477Y-79323810D01*
X199428572Y-79285714D01*
X199428572Y-79019048D01*
X199276191Y-79019048D01*
X199771429Y-79361905D02*
X199771429Y-78561905D01*
X200228572Y-79361905D01*
X200228572Y-78561905D01*
X200609524Y-79361905D02*
X200609524Y-78561905D01*
X200800000Y-78561905D01*
X200914286Y-78600000D01*
X200990477Y-78676190D01*
X201028572Y-78752381D01*
X201066667Y-78904762D01*
X201066667Y-79019048D01*
X201028572Y-79171429D01*
X200990477Y-79247619D01*
X200914286Y-79323810D01*
X200800000Y-79361905D01*
X200609524Y-79361905D01*
X195890476Y-103061905D02*
X196347619Y-103061905D01*
X196119048Y-103861905D02*
X196119048Y-103061905D01*
X196538096Y-103061905D02*
X197071429Y-103861905D01*
X197071429Y-103061905D02*
X196538096Y-103861905D01*
X196366667Y-101361905D02*
X196100000Y-100980952D01*
X195909524Y-101361905D02*
X195909524Y-100561905D01*
X196214286Y-100561905D01*
X196290477Y-100600000D01*
X196328572Y-100638095D01*
X196366667Y-100714286D01*
X196366667Y-100828571D01*
X196328572Y-100904762D01*
X196290477Y-100942857D01*
X196214286Y-100980952D01*
X195909524Y-100980952D01*
X196633334Y-100561905D02*
X197166667Y-101361905D01*
X197166667Y-100561905D02*
X196633334Y-101361905D01*
D14*
X81958571Y-104034286D02*
X80458571Y-104034286D01*
X81530000Y-103534286D01*
X80458571Y-103034286D01*
X81958571Y-103034286D01*
X81172857Y-102320000D02*
X81172857Y-101820000D01*
X81958571Y-101605714D02*
X81958571Y-102320000D01*
X80458571Y-102320000D01*
X80458571Y-101605714D01*
X81958571Y-100962857D02*
X80458571Y-100962857D01*
X81530000Y-100462857D01*
X80458571Y-99962857D01*
X81958571Y-99962857D01*
X80458571Y-98962857D02*
X80458571Y-98677143D01*
X80530000Y-98534285D01*
X80672857Y-98391428D01*
X80958571Y-98320000D01*
X81458571Y-98320000D01*
X81744286Y-98391428D01*
X81887143Y-98534285D01*
X81958571Y-98677143D01*
X81958571Y-98962857D01*
X81887143Y-99105714D01*
X81744286Y-99248571D01*
X81458571Y-99320000D01*
X80958571Y-99320000D01*
X80672857Y-99248571D01*
X80530000Y-99105714D01*
X80458571Y-98962857D01*
X81958571Y-96819999D02*
X81244286Y-97319999D01*
X81958571Y-97677142D02*
X80458571Y-97677142D01*
X80458571Y-97105714D01*
X80530000Y-96962856D01*
X80601429Y-96891428D01*
X80744286Y-96819999D01*
X80958571Y-96819999D01*
X81101429Y-96891428D01*
X81172857Y-96962856D01*
X81244286Y-97105714D01*
X81244286Y-97677142D01*
X81244286Y-95891428D02*
X81958571Y-95891428D01*
X80458571Y-96391428D02*
X81244286Y-95891428D01*
X80458571Y-95391428D01*
X81172857Y-93748571D02*
X81172857Y-93248571D01*
X81958571Y-93034285D02*
X81958571Y-93748571D01*
X80458571Y-93748571D01*
X80458571Y-93034285D01*
X80458571Y-92534285D02*
X81958571Y-91534285D01*
X80458571Y-91534285D02*
X81958571Y-92534285D01*
X81958571Y-90962857D02*
X80458571Y-90962857D01*
X80458571Y-90391429D01*
X80530000Y-90248571D01*
X80601429Y-90177143D01*
X80744286Y-90105714D01*
X80958571Y-90105714D01*
X81101429Y-90177143D01*
X81172857Y-90248571D01*
X81244286Y-90391429D01*
X81244286Y-90962857D01*
X81530000Y-89534286D02*
X81530000Y-88820000D01*
X81958571Y-89677143D02*
X80458571Y-89177143D01*
X81958571Y-88677143D01*
X81958571Y-88177143D02*
X80458571Y-88177143D01*
X81958571Y-87320000D01*
X80458571Y-87320000D01*
X81887143Y-86677143D02*
X81958571Y-86462857D01*
X81958571Y-86105714D01*
X81887143Y-85962857D01*
X81815714Y-85891428D01*
X81672857Y-85820000D01*
X81530000Y-85820000D01*
X81387143Y-85891428D01*
X81315714Y-85962857D01*
X81244286Y-86105714D01*
X81172857Y-86391428D01*
X81101429Y-86534286D01*
X81030000Y-86605714D01*
X80887143Y-86677143D01*
X80744286Y-86677143D01*
X80601429Y-86605714D01*
X80530000Y-86534286D01*
X80458571Y-86391428D01*
X80458571Y-86034286D01*
X80530000Y-85820000D01*
X81958571Y-85177143D02*
X80458571Y-85177143D01*
X80458571Y-84177143D02*
X80458571Y-83891429D01*
X80530000Y-83748571D01*
X80672857Y-83605714D01*
X80958571Y-83534286D01*
X81458571Y-83534286D01*
X81744286Y-83605714D01*
X81887143Y-83748571D01*
X81958571Y-83891429D01*
X81958571Y-84177143D01*
X81887143Y-84320000D01*
X81744286Y-84462857D01*
X81458571Y-84534286D01*
X80958571Y-84534286D01*
X80672857Y-84462857D01*
X80530000Y-84320000D01*
X80458571Y-84177143D01*
X81958571Y-82891428D02*
X80458571Y-82891428D01*
X81958571Y-82034285D01*
X80458571Y-82034285D01*
X81958571Y-80177142D02*
X80458571Y-80177142D01*
X81530000Y-79677142D01*
X80458571Y-79177142D01*
X81958571Y-79177142D01*
X80458571Y-78177142D02*
X80458571Y-77891428D01*
X80530000Y-77748570D01*
X80672857Y-77605713D01*
X80958571Y-77534285D01*
X81458571Y-77534285D01*
X81744286Y-77605713D01*
X81887143Y-77748570D01*
X81958571Y-77891428D01*
X81958571Y-78177142D01*
X81887143Y-78319999D01*
X81744286Y-78462856D01*
X81458571Y-78534285D01*
X80958571Y-78534285D01*
X80672857Y-78462856D01*
X80530000Y-78319999D01*
X80458571Y-78177142D01*
X81958571Y-76891427D02*
X80458571Y-76891427D01*
X80458571Y-76534284D01*
X80530000Y-76319999D01*
X80672857Y-76177141D01*
X80815714Y-76105713D01*
X81101429Y-76034284D01*
X81315714Y-76034284D01*
X81601429Y-76105713D01*
X81744286Y-76177141D01*
X81887143Y-76319999D01*
X81958571Y-76534284D01*
X81958571Y-76891427D01*
X80458571Y-75391427D02*
X81672857Y-75391427D01*
X81815714Y-75319999D01*
X81887143Y-75248570D01*
X81958571Y-75105713D01*
X81958571Y-74819999D01*
X81887143Y-74677141D01*
X81815714Y-74605713D01*
X81672857Y-74534284D01*
X80458571Y-74534284D01*
X81958571Y-73105712D02*
X81958571Y-73819998D01*
X80458571Y-73819998D01*
X81172857Y-72605712D02*
X81172857Y-72105712D01*
X81958571Y-71891426D02*
X81958571Y-72605712D01*
X80458571Y-72605712D01*
X80458571Y-71891426D01*
X81958571Y-69319998D02*
X81958571Y-70177141D01*
X81958571Y-69748569D02*
X80458571Y-69748569D01*
X80672857Y-69891426D01*
X80815714Y-70034284D01*
X80887143Y-70177141D01*
X80458571Y-68391427D02*
X80458571Y-68248570D01*
X80530000Y-68105713D01*
X80601429Y-68034284D01*
X80744286Y-67962855D01*
X81030000Y-67891427D01*
X81387143Y-67891427D01*
X81672857Y-67962855D01*
X81815714Y-68034284D01*
X81887143Y-68105713D01*
X81958571Y-68248570D01*
X81958571Y-68391427D01*
X81887143Y-68534284D01*
X81815714Y-68605713D01*
X81672857Y-68677141D01*
X81387143Y-68748570D01*
X81030000Y-68748570D01*
X80744286Y-68677141D01*
X80601429Y-68605713D01*
X80530000Y-68534284D01*
X80458571Y-68391427D01*
X80601429Y-67319999D02*
X80530000Y-67248570D01*
X80458571Y-67105713D01*
X80458571Y-66748570D01*
X80530000Y-66605713D01*
X80601429Y-66534284D01*
X80744286Y-66462856D01*
X80887143Y-66462856D01*
X81101429Y-66534284D01*
X81958571Y-67391427D01*
X81958571Y-66462856D01*
X80958571Y-65177142D02*
X81958571Y-65177142D01*
X80387143Y-65534285D02*
X81458571Y-65891428D01*
X81458571Y-64962856D01*
X81958571Y-64391428D02*
X80458571Y-64391428D01*
X81958571Y-63534285D02*
X81101429Y-64177142D01*
X80458571Y-63534285D02*
X81315714Y-64391428D01*
D15*
X151172000Y-125466000D02*
X165172000Y-125466000D01*
X165172000Y-125466000D02*
X165172000Y-119666000D01*
X165172000Y-119666000D02*
X151172000Y-119666000D01*
X142172000Y-119666000D02*
X142172000Y-116466000D01*
X142172000Y-116466000D02*
X143972000Y-116466000D01*
X143972000Y-116466000D02*
X143972000Y-119666000D01*
X130872000Y-119666000D02*
X142172000Y-119666000D01*
X142172000Y-119666000D02*
X142172000Y-125466000D01*
X142172000Y-125466000D02*
X130872000Y-125466000D01*
X130872000Y-125466000D02*
X130872000Y-119666000D01*
X151272000Y-119666000D02*
X143972000Y-119666000D01*
X143972000Y-125466000D02*
X151272000Y-125466000D01*
X143972000Y-119666000D02*
X143972000Y-125466000D01*
D13*
X170000000Y-105925000D02*
X172000000Y-105925000D01*
X172000000Y-108075000D02*
X170000000Y-108075000D01*
X131000000Y-64075000D02*
X129000000Y-64075000D01*
X129000000Y-61925000D02*
X131000000Y-61925000D01*
X140000000Y-64075000D02*
X138000000Y-64075000D01*
X138000000Y-61925000D02*
X140000000Y-61925000D01*
X114000000Y-56925000D02*
X116000000Y-56925000D01*
X116000000Y-59075000D02*
X114000000Y-59075000D01*
X179000000Y-59075000D02*
X177000000Y-59075000D01*
X177000000Y-56925000D02*
X179000000Y-56925000D01*
X201900000Y-77190000D02*
X201900000Y-78740000D01*
X203200000Y-77190000D02*
X201900000Y-77190000D01*
X207391000Y-78613000D02*
X213233000Y-78613000D01*
X213233000Y-78613000D02*
X213233000Y-78867000D01*
X213233000Y-78867000D02*
X207391000Y-78867000D01*
X207391000Y-78867000D02*
X207391000Y-78740000D01*
X207391000Y-78740000D02*
X213233000Y-78740000D01*
X204724000Y-78486000D02*
X204343000Y-78486000D01*
X204724000Y-78994000D02*
X204343000Y-78994000D01*
X204724000Y-81026000D02*
X204343000Y-81026000D01*
X204724000Y-81534000D02*
X204343000Y-81534000D01*
X204724000Y-83566000D02*
X204343000Y-83566000D01*
X204724000Y-84074000D02*
X204343000Y-84074000D01*
X204724000Y-86614000D02*
X204343000Y-86614000D01*
X204724000Y-86106000D02*
X204343000Y-86106000D01*
X204724000Y-77470000D02*
X207264000Y-77470000D01*
X204724000Y-80010000D02*
X207264000Y-80010000D01*
X204724000Y-80010000D02*
X204724000Y-82550000D01*
X204724000Y-82550000D02*
X207264000Y-82550000D01*
X207264000Y-81026000D02*
X213360000Y-81026000D01*
X213360000Y-81026000D02*
X213360000Y-81534000D01*
X213360000Y-81534000D02*
X207264000Y-81534000D01*
X207264000Y-82550000D02*
X207264000Y-80010000D01*
X207264000Y-80010000D02*
X207264000Y-77470000D01*
X213360000Y-78994000D02*
X207264000Y-78994000D01*
X213360000Y-78486000D02*
X213360000Y-78994000D01*
X207264000Y-78486000D02*
X213360000Y-78486000D01*
X204724000Y-80010000D02*
X207264000Y-80010000D01*
X204724000Y-77470000D02*
X204724000Y-80010000D01*
X204724000Y-85090000D02*
X207264000Y-85090000D01*
X204724000Y-85090000D02*
X204724000Y-87630000D01*
X204724000Y-87630000D02*
X207264000Y-87630000D01*
X207264000Y-86106000D02*
X213360000Y-86106000D01*
X213360000Y-86106000D02*
X213360000Y-86614000D01*
X213360000Y-86614000D02*
X207264000Y-86614000D01*
X207264000Y-87630000D02*
X207264000Y-85090000D01*
X207264000Y-85090000D02*
X207264000Y-82550000D01*
X213360000Y-84074000D02*
X207264000Y-84074000D01*
X213360000Y-83566000D02*
X213360000Y-84074000D01*
X207264000Y-83566000D02*
X213360000Y-83566000D01*
X204724000Y-85090000D02*
X207264000Y-85090000D01*
X204724000Y-82550000D02*
X204724000Y-85090000D01*
X204724000Y-82550000D02*
X207264000Y-82550000D01*
X199390000Y-59690000D02*
X201930000Y-59690000D01*
X196570000Y-59410000D02*
X198120000Y-59410000D01*
X199390000Y-59690000D02*
X199390000Y-62230000D01*
X198120000Y-62510000D02*
X196570000Y-62510000D01*
X196570000Y-62510000D02*
X196570000Y-59410000D01*
X199390000Y-62230000D02*
X201930000Y-62230000D01*
X201930000Y-62230000D02*
X201930000Y-59690000D01*
X192730000Y-99770000D02*
X192730000Y-104850000D01*
X192730000Y-104850000D02*
X195270000Y-104850000D01*
X195270000Y-104850000D02*
X195270000Y-99770000D01*
X195550000Y-96950000D02*
X195550000Y-98500000D01*
X195270000Y-99770000D02*
X192730000Y-99770000D01*
X192450000Y-98500000D02*
X192450000Y-96950000D01*
X192450000Y-96950000D02*
X195550000Y-96950000D01*
X125025000Y-79000000D02*
X125025000Y-77000000D01*
X122975000Y-77000000D02*
X122975000Y-79000000D01*
X122975000Y-98000000D02*
X122975000Y-100000000D01*
X125025000Y-100000000D02*
X125025000Y-98000000D01*
X117000000Y-104025000D02*
X119000000Y-104025000D01*
X119000000Y-101975000D02*
X117000000Y-101975000D01*
X127000000Y-102975000D02*
X125000000Y-102975000D01*
X125000000Y-105025000D02*
X127000000Y-105025000D01*
X135000000Y-106025000D02*
X137000000Y-106025000D01*
X137000000Y-103975000D02*
X135000000Y-103975000D01*
X145000000Y-103975000D02*
X143000000Y-103975000D01*
X143000000Y-106025000D02*
X145000000Y-106025000D01*
X151000000Y-106025000D02*
X153000000Y-106025000D01*
X153000000Y-103975000D02*
X151000000Y-103975000D01*
X147000000Y-108975000D02*
X145000000Y-108975000D01*
X145000000Y-111025000D02*
X147000000Y-111025000D01*
X166025000Y-79000000D02*
X166025000Y-77000000D01*
X163975000Y-77000000D02*
X163975000Y-79000000D01*
X125730000Y-111270000D02*
X123190000Y-111270000D01*
X128550000Y-111550000D02*
X127000000Y-111550000D01*
X125730000Y-111270000D02*
X125730000Y-108730000D01*
X127000000Y-108450000D02*
X128550000Y-108450000D01*
X128550000Y-108450000D02*
X128550000Y-111550000D01*
X125730000Y-108730000D02*
X123190000Y-108730000D01*
X123190000Y-108730000D02*
X123190000Y-111270000D01*
X151730000Y-59270000D02*
X149190000Y-59270000D01*
X154550000Y-59550000D02*
X153000000Y-59550000D01*
X151730000Y-59270000D02*
X151730000Y-56730000D01*
X153000000Y-56450000D02*
X154550000Y-56450000D01*
X154550000Y-56450000D02*
X154550000Y-59550000D01*
X151730000Y-56730000D02*
X149190000Y-56730000D01*
X149190000Y-56730000D02*
X149190000Y-59270000D01*
X95075000Y-110000000D02*
X95075000Y-112000000D01*
X92925000Y-112000000D02*
X92925000Y-110000000D01*
X92000000Y-64925000D02*
X94000000Y-64925000D01*
X94000000Y-67075000D02*
X92000000Y-67075000D01*
X92000000Y-60925000D02*
X94000000Y-60925000D01*
X94000000Y-63075000D02*
X92000000Y-63075000D01*
X92000000Y-56925000D02*
X94000000Y-56925000D01*
X94000000Y-59075000D02*
X92000000Y-59075000D01*
X114000000Y-60925000D02*
X116000000Y-60925000D01*
X116000000Y-63075000D02*
X114000000Y-63075000D01*
X114000000Y-64925000D02*
X116000000Y-64925000D01*
X116000000Y-67075000D02*
X114000000Y-67075000D01*
X168000000Y-62975000D02*
X166000000Y-62975000D01*
X166000000Y-65025000D02*
X168000000Y-65025000D01*
X184000000Y-73025000D02*
X186000000Y-73025000D01*
X186000000Y-70975000D02*
X184000000Y-70975000D01*
X101000000Y-72025000D02*
X103000000Y-72025000D01*
X103000000Y-69975000D02*
X101000000Y-69975000D01*
X109975000Y-91000000D02*
X109975000Y-93000000D01*
X112025000Y-93000000D02*
X112025000Y-91000000D01*
X112025000Y-85000000D02*
X112025000Y-83000000D01*
X109975000Y-83000000D02*
X109975000Y-85000000D01*
X125025000Y-93000000D02*
X125025000Y-91000000D01*
X122975000Y-91000000D02*
X122975000Y-93000000D01*
X118000000Y-72975000D02*
X116000000Y-72975000D01*
X116000000Y-75025000D02*
X118000000Y-75025000D01*
X126000000Y-68975000D02*
X124000000Y-68975000D01*
X124000000Y-71025000D02*
X126000000Y-71025000D01*
X135000000Y-66975000D02*
X133000000Y-66975000D01*
X133000000Y-69025000D02*
X135000000Y-69025000D01*
X144000000Y-66975000D02*
X142000000Y-66975000D01*
X142000000Y-69025000D02*
X144000000Y-69025000D01*
X150000000Y-69025000D02*
X152000000Y-69025000D01*
X152000000Y-66975000D02*
X150000000Y-66975000D01*
X159000000Y-71025000D02*
X161000000Y-71025000D01*
X161000000Y-68975000D02*
X159000000Y-68975000D01*
X158975000Y-77000000D02*
X158975000Y-79000000D01*
X161025000Y-79000000D02*
X161025000Y-77000000D01*
X161025000Y-87000000D02*
X161025000Y-85000000D01*
X158975000Y-85000000D02*
X158975000Y-87000000D01*
X161025000Y-95000000D02*
X161025000Y-93000000D01*
X158975000Y-93000000D02*
X158975000Y-95000000D01*
X161000000Y-99975000D02*
X159000000Y-99975000D01*
X159000000Y-102025000D02*
X161000000Y-102025000D01*
X180150000Y-105950000D02*
X176550000Y-105950000D01*
X180150000Y-108050000D02*
X176550000Y-108050000D01*
X178100000Y-107300000D02*
X178100000Y-106700000D01*
X178100000Y-106700000D02*
X178400000Y-107000000D01*
X178400000Y-107000000D02*
X178200000Y-107200000D01*
X178200000Y-107200000D02*
X178200000Y-106950000D01*
X178200000Y-106950000D02*
X178250000Y-107000000D01*
X178500000Y-107500000D02*
X178500000Y-106500000D01*
X178000000Y-107000000D02*
X177500000Y-107000000D01*
X178500000Y-107000000D02*
X178000000Y-107500000D01*
X178000000Y-107500000D02*
X178000000Y-106500000D01*
X178000000Y-106500000D02*
X178500000Y-107000000D01*
X116000000Y-96925000D02*
X118000000Y-96925000D01*
X118000000Y-99075000D02*
X116000000Y-99075000D01*
X116000000Y-77925000D02*
X118000000Y-77925000D01*
X118000000Y-80075000D02*
X116000000Y-80075000D01*
X137000000Y-59075000D02*
X135000000Y-59075000D01*
X135000000Y-56925000D02*
X137000000Y-56925000D01*
X145000000Y-59075000D02*
X143000000Y-59075000D01*
X143000000Y-56925000D02*
X145000000Y-56925000D01*
X125075000Y-84000000D02*
X125075000Y-86000000D01*
X122925000Y-86000000D02*
X122925000Y-84000000D01*
X201000000Y-102925000D02*
X203000000Y-102925000D01*
X203000000Y-105075000D02*
X201000000Y-105075000D01*
X116075000Y-109000000D02*
X116075000Y-111000000D01*
X113925000Y-111000000D02*
X113925000Y-109000000D01*
X117925000Y-111000000D02*
X117925000Y-109000000D01*
X120075000Y-109000000D02*
X120075000Y-111000000D01*
X201000000Y-96925000D02*
X203000000Y-96925000D01*
X203000000Y-99075000D02*
X201000000Y-99075000D01*
D15*
X163940000Y-56190000D02*
X170060000Y-56190000D01*
X170060000Y-56190000D02*
X170060000Y-59810000D01*
X170060000Y-59810000D02*
X163940000Y-59810000D01*
X163940000Y-59810000D02*
X163940000Y-56190000D01*
X99050000Y-57040000D02*
X108950000Y-57040000D01*
X99050000Y-66960000D02*
X108950000Y-66960000D01*
X99050000Y-57040000D02*
X99050000Y-58660000D01*
X99050000Y-60260000D02*
X99050000Y-61200000D01*
X99050000Y-62800000D02*
X99050000Y-63740000D01*
X99050000Y-65340000D02*
X99050000Y-66960000D01*
X108950000Y-65340000D02*
X108950000Y-66960000D01*
X108950000Y-62800000D02*
X108950000Y-63740000D01*
X108950000Y-57040000D02*
X108950000Y-58660000D01*
X108950000Y-60260000D02*
X108950000Y-61200000D01*
X98810000Y-56800000D02*
X100194000Y-56800000D01*
X98810000Y-56800000D02*
X98810000Y-58183000D01*
X101970000Y-58825000D02*
X101970000Y-60095000D01*
X101970000Y-60095000D02*
X106030000Y-60095000D01*
X106030000Y-60095000D02*
X106030000Y-58825000D01*
X106030000Y-58825000D02*
X101970000Y-58825000D01*
X101970000Y-58945000D02*
X103323333Y-58945000D01*
X101970000Y-59065000D02*
X103323333Y-59065000D01*
X101970000Y-59185000D02*
X103323333Y-59185000D01*
X101970000Y-59305000D02*
X103323333Y-59305000D01*
X101970000Y-59425000D02*
X103323333Y-59425000D01*
X101970000Y-59545000D02*
X103323333Y-59545000D01*
X101970000Y-59665000D02*
X103323333Y-59665000D01*
X101970000Y-59785000D02*
X103323333Y-59785000D01*
X101970000Y-59905000D02*
X103323333Y-59905000D01*
X101970000Y-60025000D02*
X103323333Y-60025000D01*
X103323333Y-58825000D02*
X103323333Y-60095000D01*
X101970000Y-61365000D02*
X101970000Y-62635000D01*
X101970000Y-62635000D02*
X106030000Y-62635000D01*
X106030000Y-62635000D02*
X106030000Y-61365000D01*
X106030000Y-61365000D02*
X101970000Y-61365000D01*
X101970000Y-61485000D02*
X103323333Y-61485000D01*
X101970000Y-61605000D02*
X103323333Y-61605000D01*
X101970000Y-61725000D02*
X103323333Y-61725000D01*
X101970000Y-61845000D02*
X103323333Y-61845000D01*
X101970000Y-61965000D02*
X103323333Y-61965000D01*
X101970000Y-62085000D02*
X103323333Y-62085000D01*
X101970000Y-62205000D02*
X103323333Y-62205000D01*
X101970000Y-62325000D02*
X103323333Y-62325000D01*
X101970000Y-62445000D02*
X103323333Y-62445000D01*
X101970000Y-62565000D02*
X103323333Y-62565000D01*
X103323333Y-61365000D02*
X103323333Y-62635000D01*
X101970000Y-63905000D02*
X101970000Y-65175000D01*
X101970000Y-65175000D02*
X106030000Y-65175000D01*
X106030000Y-65175000D02*
X106030000Y-63905000D01*
X106030000Y-63905000D02*
X101970000Y-63905000D01*
X101970000Y-64025000D02*
X103323333Y-64025000D01*
X101970000Y-64145000D02*
X103323333Y-64145000D01*
X101970000Y-64265000D02*
X103323333Y-64265000D01*
X101970000Y-64385000D02*
X103323333Y-64385000D01*
X101970000Y-64505000D02*
X103323333Y-64505000D01*
X101970000Y-64625000D02*
X103323333Y-64625000D01*
X101970000Y-64745000D02*
X103323333Y-64745000D01*
X101970000Y-64865000D02*
X103323333Y-64865000D01*
X101970000Y-64985000D02*
X103323333Y-64985000D01*
X101970000Y-65105000D02*
X103323333Y-65105000D01*
X103323333Y-63905000D02*
X103323333Y-65175000D01*
D13*
X173481600Y-75713000D02*
G75*
G03X173481600Y-75713000I-25400J0D01*
G01*
X174421400Y-75738400D02*
X173430800Y-76754400D01*
X188560600Y-75724600D02*
X174420600Y-75724600D01*
X188568400Y-75750000D02*
X188568400Y-96250000D01*
X173430000Y-96250000D02*
X188570000Y-96250000D01*
X173431600Y-96250000D02*
X173431600Y-76750000D01*
X90481600Y-74713000D02*
G75*
G03X90481600Y-74713000I-25400J0D01*
G01*
X91421400Y-74738400D02*
X90430800Y-75754400D01*
X105560600Y-74724600D02*
X91420600Y-74724600D01*
X105568400Y-74750000D02*
X105568400Y-95250000D01*
X90430000Y-95250000D02*
X105570000Y-95250000D01*
X90431600Y-95250000D02*
X90431600Y-75750000D01*
X128825000Y-74825000D02*
X128825000Y-75875000D01*
X153175000Y-74825000D02*
X153175000Y-75875000D01*
X153175000Y-99175000D02*
X153175000Y-98125000D01*
X128825000Y-99175000D02*
X128825000Y-98125000D01*
X128825000Y-74825000D02*
X129875000Y-74825000D01*
X128825000Y-99175000D02*
X129875000Y-99175000D01*
X153175000Y-99175000D02*
X152125000Y-99175000D01*
X153175000Y-74825000D02*
X152125000Y-74825000D01*
X128825000Y-75875000D02*
X127820000Y-75875000D01*
D15*
X114475000Y-91760000D02*
X114475000Y-85360000D01*
X119525000Y-91760000D02*
X119525000Y-85360000D01*
X119525000Y-91760000D02*
G75*
G02X114475000Y-91760000I-2525000J0D01*
G01*
X119525000Y-85360000D02*
G75*
G03X114475000Y-85360000I-2525000J0D01*
G01*
D16*
G36*
X110006667Y-107503333D02*
X87993334Y-107503333D01*
X87993334Y-102677333D01*
X91464667Y-102677333D01*
X91464667Y-106826000D01*
X94851334Y-106826000D01*
X94851334Y-106487333D01*
X94859481Y-106270559D01*
X94916510Y-106174236D01*
X95071304Y-106149481D01*
X95190000Y-106148667D01*
X95528667Y-106148667D01*
X95528667Y-104794000D01*
X94851334Y-104794000D01*
X94851334Y-104032000D01*
X95190000Y-104032000D01*
X95406774Y-104023853D01*
X95503098Y-103966823D01*
X95527852Y-103812029D01*
X95528667Y-103693333D01*
X95520520Y-103476559D01*
X95463490Y-103380236D01*
X95308696Y-103355481D01*
X95190000Y-103354667D01*
X94973226Y-103346519D01*
X94876903Y-103289490D01*
X94852148Y-103134696D01*
X94851334Y-103016000D01*
X94851334Y-102677333D01*
X96968000Y-102677333D01*
X96968000Y-106826000D01*
X101032000Y-106826000D01*
X101032000Y-103693333D01*
X102471334Y-103693333D01*
X102479481Y-103910107D01*
X102536510Y-104006431D01*
X102691304Y-104031185D01*
X102810000Y-104032000D01*
X103148667Y-104032000D01*
X103148667Y-104794000D01*
X105180667Y-104794000D01*
X105180667Y-106148667D01*
X103148667Y-106148667D01*
X103148667Y-106826000D01*
X105858000Y-106826000D01*
X105858000Y-106487333D01*
X105866147Y-106270559D01*
X105923177Y-106174236D01*
X106077971Y-106149481D01*
X106196667Y-106148667D01*
X106535334Y-106148667D01*
X106535334Y-104794000D01*
X105858000Y-104794000D01*
X105858000Y-104032000D01*
X103826000Y-104032000D01*
X103826000Y-103354667D01*
X105858000Y-103354667D01*
X105858000Y-102677333D01*
X103148667Y-102677333D01*
X103148667Y-103016000D01*
X103140520Y-103232774D01*
X103083490Y-103329097D01*
X102928696Y-103353852D01*
X102810000Y-103354667D01*
X102593226Y-103362814D01*
X102496903Y-103419843D01*
X102472148Y-103574637D01*
X102471334Y-103693333D01*
X101032000Y-103693333D01*
X101032000Y-102677333D01*
X99677334Y-102677333D01*
X99677334Y-106148667D01*
X98322667Y-106148667D01*
X98322667Y-102677333D01*
X96968000Y-102677333D01*
X94851334Y-102677333D01*
X91464667Y-102677333D01*
X87993334Y-102677333D01*
X87993334Y-98528667D01*
X88670667Y-98528667D01*
X88670667Y-101322667D01*
X90025334Y-101322667D01*
X90025334Y-100645333D01*
X91464667Y-100645333D01*
X91464667Y-101322667D01*
X92819334Y-101322667D01*
X92819334Y-98528667D01*
X92480667Y-98528667D01*
X92263893Y-98520519D01*
X92167569Y-98463490D01*
X92142815Y-98308696D01*
X92142000Y-98190000D01*
X92133853Y-97973226D01*
X92076824Y-97876902D01*
X91922030Y-97852148D01*
X91803334Y-97851333D01*
X91586559Y-97843186D01*
X91490236Y-97786157D01*
X91465481Y-97631363D01*
X91464667Y-97512667D01*
X91464667Y-97174000D01*
X94174000Y-97174000D01*
X94174000Y-101322667D01*
X97645334Y-101322667D01*
X97645334Y-100984000D01*
X97653481Y-100767226D01*
X97710510Y-100670902D01*
X97865304Y-100646148D01*
X97984000Y-100645333D01*
X98322667Y-100645333D01*
X98322667Y-99290667D01*
X97645334Y-99290667D01*
X97645334Y-98528667D01*
X97984000Y-98528667D01*
X98200774Y-98520519D01*
X98297098Y-98463490D01*
X98321852Y-98308696D01*
X98322667Y-98190000D01*
X98314520Y-97973226D01*
X98257490Y-97876902D01*
X98102696Y-97852148D01*
X97984000Y-97851333D01*
X97767226Y-97843186D01*
X97670903Y-97786157D01*
X97646148Y-97631363D01*
X97645334Y-97512667D01*
X97645334Y-97174000D01*
X99677334Y-97174000D01*
X99677334Y-101322667D01*
X103826000Y-101322667D01*
X103826000Y-100645333D01*
X101032000Y-100645333D01*
X101032000Y-99290667D01*
X102471334Y-99290667D01*
X102471334Y-98528667D01*
X101032000Y-98528667D01*
X101032000Y-97851333D01*
X103826000Y-97851333D01*
X103826000Y-97174000D01*
X105180667Y-97174000D01*
X105180667Y-98528667D01*
X105858000Y-98528667D01*
X105858000Y-99968000D01*
X105180667Y-99968000D01*
X105180667Y-101322667D01*
X106535334Y-101322667D01*
X106535334Y-99968000D01*
X107974667Y-99968000D01*
X107974667Y-101322667D01*
X109329334Y-101322667D01*
X109329334Y-99968000D01*
X108652000Y-99968000D01*
X108652000Y-98528667D01*
X109329334Y-98528667D01*
X109329334Y-97174000D01*
X107974667Y-97174000D01*
X107974667Y-98528667D01*
X106535334Y-98528667D01*
X106535334Y-97174000D01*
X105180667Y-97174000D01*
X103826000Y-97174000D01*
X99677334Y-97174000D01*
X97645334Y-97174000D01*
X94174000Y-97174000D01*
X91464667Y-97174000D01*
X90025334Y-97174000D01*
X90025334Y-97512667D01*
X90017186Y-97729441D01*
X89960157Y-97825764D01*
X89805363Y-97850519D01*
X89686667Y-97851333D01*
X89469893Y-97859480D01*
X89373569Y-97916510D01*
X89348815Y-98071304D01*
X89348000Y-98190000D01*
X89339853Y-98406774D01*
X89282824Y-98503097D01*
X89128030Y-98527852D01*
X89009334Y-98528667D01*
X88670667Y-98528667D01*
X87993334Y-98528667D01*
X87993334Y-96496667D01*
X110006667Y-96496667D01*
X110006667Y-107503333D01*
X110006667Y-107503333D01*
G37*
X110006667Y-107503333D02*
X87993334Y-107503333D01*
X87993334Y-102677333D01*
X91464667Y-102677333D01*
X91464667Y-106826000D01*
X94851334Y-106826000D01*
X94851334Y-106487333D01*
X94859481Y-106270559D01*
X94916510Y-106174236D01*
X95071304Y-106149481D01*
X95190000Y-106148667D01*
X95528667Y-106148667D01*
X95528667Y-104794000D01*
X94851334Y-104794000D01*
X94851334Y-104032000D01*
X95190000Y-104032000D01*
X95406774Y-104023853D01*
X95503098Y-103966823D01*
X95527852Y-103812029D01*
X95528667Y-103693333D01*
X95520520Y-103476559D01*
X95463490Y-103380236D01*
X95308696Y-103355481D01*
X95190000Y-103354667D01*
X94973226Y-103346519D01*
X94876903Y-103289490D01*
X94852148Y-103134696D01*
X94851334Y-103016000D01*
X94851334Y-102677333D01*
X96968000Y-102677333D01*
X96968000Y-106826000D01*
X101032000Y-106826000D01*
X101032000Y-103693333D01*
X102471334Y-103693333D01*
X102479481Y-103910107D01*
X102536510Y-104006431D01*
X102691304Y-104031185D01*
X102810000Y-104032000D01*
X103148667Y-104032000D01*
X103148667Y-104794000D01*
X105180667Y-104794000D01*
X105180667Y-106148667D01*
X103148667Y-106148667D01*
X103148667Y-106826000D01*
X105858000Y-106826000D01*
X105858000Y-106487333D01*
X105866147Y-106270559D01*
X105923177Y-106174236D01*
X106077971Y-106149481D01*
X106196667Y-106148667D01*
X106535334Y-106148667D01*
X106535334Y-104794000D01*
X105858000Y-104794000D01*
X105858000Y-104032000D01*
X103826000Y-104032000D01*
X103826000Y-103354667D01*
X105858000Y-103354667D01*
X105858000Y-102677333D01*
X103148667Y-102677333D01*
X103148667Y-103016000D01*
X103140520Y-103232774D01*
X103083490Y-103329097D01*
X102928696Y-103353852D01*
X102810000Y-103354667D01*
X102593226Y-103362814D01*
X102496903Y-103419843D01*
X102472148Y-103574637D01*
X102471334Y-103693333D01*
X101032000Y-103693333D01*
X101032000Y-102677333D01*
X99677334Y-102677333D01*
X99677334Y-106148667D01*
X98322667Y-106148667D01*
X98322667Y-102677333D01*
X96968000Y-102677333D01*
X94851334Y-102677333D01*
X91464667Y-102677333D01*
X87993334Y-102677333D01*
X87993334Y-98528667D01*
X88670667Y-98528667D01*
X88670667Y-101322667D01*
X90025334Y-101322667D01*
X90025334Y-100645333D01*
X91464667Y-100645333D01*
X91464667Y-101322667D01*
X92819334Y-101322667D01*
X92819334Y-98528667D01*
X92480667Y-98528667D01*
X92263893Y-98520519D01*
X92167569Y-98463490D01*
X92142815Y-98308696D01*
X92142000Y-98190000D01*
X92133853Y-97973226D01*
X92076824Y-97876902D01*
X91922030Y-97852148D01*
X91803334Y-97851333D01*
X91586559Y-97843186D01*
X91490236Y-97786157D01*
X91465481Y-97631363D01*
X91464667Y-97512667D01*
X91464667Y-97174000D01*
X94174000Y-97174000D01*
X94174000Y-101322667D01*
X97645334Y-101322667D01*
X97645334Y-100984000D01*
X97653481Y-100767226D01*
X97710510Y-100670902D01*
X97865304Y-100646148D01*
X97984000Y-100645333D01*
X98322667Y-100645333D01*
X98322667Y-99290667D01*
X97645334Y-99290667D01*
X97645334Y-98528667D01*
X97984000Y-98528667D01*
X98200774Y-98520519D01*
X98297098Y-98463490D01*
X98321852Y-98308696D01*
X98322667Y-98190000D01*
X98314520Y-97973226D01*
X98257490Y-97876902D01*
X98102696Y-97852148D01*
X97984000Y-97851333D01*
X97767226Y-97843186D01*
X97670903Y-97786157D01*
X97646148Y-97631363D01*
X97645334Y-97512667D01*
X97645334Y-97174000D01*
X99677334Y-97174000D01*
X99677334Y-101322667D01*
X103826000Y-101322667D01*
X103826000Y-100645333D01*
X101032000Y-100645333D01*
X101032000Y-99290667D01*
X102471334Y-99290667D01*
X102471334Y-98528667D01*
X101032000Y-98528667D01*
X101032000Y-97851333D01*
X103826000Y-97851333D01*
X103826000Y-97174000D01*
X105180667Y-97174000D01*
X105180667Y-98528667D01*
X105858000Y-98528667D01*
X105858000Y-99968000D01*
X105180667Y-99968000D01*
X105180667Y-101322667D01*
X106535334Y-101322667D01*
X106535334Y-99968000D01*
X107974667Y-99968000D01*
X107974667Y-101322667D01*
X109329334Y-101322667D01*
X109329334Y-99968000D01*
X108652000Y-99968000D01*
X108652000Y-98528667D01*
X109329334Y-98528667D01*
X109329334Y-97174000D01*
X107974667Y-97174000D01*
X107974667Y-98528667D01*
X106535334Y-98528667D01*
X106535334Y-97174000D01*
X105180667Y-97174000D01*
X103826000Y-97174000D01*
X99677334Y-97174000D01*
X97645334Y-97174000D01*
X94174000Y-97174000D01*
X91464667Y-97174000D01*
X90025334Y-97174000D01*
X90025334Y-97512667D01*
X90017186Y-97729441D01*
X89960157Y-97825764D01*
X89805363Y-97850519D01*
X89686667Y-97851333D01*
X89469893Y-97859480D01*
X89373569Y-97916510D01*
X89348815Y-98071304D01*
X89348000Y-98190000D01*
X89339853Y-98406774D01*
X89282824Y-98503097D01*
X89128030Y-98527852D01*
X89009334Y-98528667D01*
X88670667Y-98528667D01*
X87993334Y-98528667D01*
X87993334Y-96496667D01*
X110006667Y-96496667D01*
X110006667Y-107503333D01*
G36*
X94174000Y-106148667D02*
X92819334Y-106148667D01*
X92819334Y-104794000D01*
X94174000Y-104794000D01*
X94174000Y-106148667D01*
X94174000Y-106148667D01*
G37*
X94174000Y-106148667D02*
X92819334Y-106148667D01*
X92819334Y-104794000D01*
X94174000Y-104794000D01*
X94174000Y-106148667D01*
G36*
X94174000Y-104032000D02*
X92819334Y-104032000D01*
X92819334Y-103354667D01*
X94174000Y-103354667D01*
X94174000Y-104032000D01*
X94174000Y-104032000D01*
G37*
X94174000Y-104032000D02*
X92819334Y-104032000D01*
X92819334Y-103354667D01*
X94174000Y-103354667D01*
X94174000Y-104032000D01*
G36*
X91464667Y-99968000D02*
X90025334Y-99968000D01*
X90025334Y-98528667D01*
X91464667Y-98528667D01*
X91464667Y-99968000D01*
X91464667Y-99968000D01*
G37*
X91464667Y-99968000D02*
X90025334Y-99968000D01*
X90025334Y-98528667D01*
X91464667Y-98528667D01*
X91464667Y-99968000D01*
G36*
X96968000Y-100645333D02*
X95528667Y-100645333D01*
X95528667Y-99290667D01*
X96968000Y-99290667D01*
X96968000Y-100645333D01*
X96968000Y-100645333D01*
G37*
X96968000Y-100645333D02*
X95528667Y-100645333D01*
X95528667Y-99290667D01*
X96968000Y-99290667D01*
X96968000Y-100645333D01*
G36*
X96968000Y-98528667D02*
X95528667Y-98528667D01*
X95528667Y-97851333D01*
X96968000Y-97851333D01*
X96968000Y-98528667D01*
X96968000Y-98528667D01*
G37*
X96968000Y-98528667D02*
X95528667Y-98528667D01*
X95528667Y-97851333D01*
X96968000Y-97851333D01*
X96968000Y-98528667D01*
D13*
X135883905Y-118808381D02*
X135883905Y-117808381D01*
X136264858Y-117808381D01*
X136360096Y-117856000D01*
X136407715Y-117903619D01*
X136455334Y-117998857D01*
X136455334Y-118141714D01*
X136407715Y-118236952D01*
X136360096Y-118284571D01*
X136264858Y-118332190D01*
X135883905Y-118332190D01*
X137407715Y-118808381D02*
X136836286Y-118808381D01*
X137122000Y-118808381D02*
X137122000Y-117808381D01*
X137026762Y-117951238D01*
X136931524Y-118046476D01*
X136836286Y-118094095D01*
X164522000Y-118882667D02*
X164555333Y-118782667D01*
X164588667Y-118749334D01*
X164655333Y-118716000D01*
X164755333Y-118716000D01*
X164822000Y-118749334D01*
X164855333Y-118782667D01*
X164888667Y-118849334D01*
X164888667Y-119116000D01*
X164188667Y-119116000D01*
X164188667Y-118882667D01*
X164222000Y-118816000D01*
X164255333Y-118782667D01*
X164322000Y-118749334D01*
X164388667Y-118749334D01*
X164455333Y-118782667D01*
X164488667Y-118816000D01*
X164522000Y-118882667D01*
X164522000Y-119116000D01*
X164188667Y-118482667D02*
X164188667Y-118049334D01*
X164455333Y-118282667D01*
X164455333Y-118182667D01*
X164488667Y-118116000D01*
X164522000Y-118082667D01*
X164588667Y-118049334D01*
X164755333Y-118049334D01*
X164822000Y-118082667D01*
X164855333Y-118116000D01*
X164888667Y-118182667D01*
X164888667Y-118382667D01*
X164855333Y-118449334D01*
X164822000Y-118482667D01*
X164255333Y-117782667D02*
X164222000Y-117749333D01*
X164188667Y-117682667D01*
X164188667Y-117516000D01*
X164222000Y-117449333D01*
X164255333Y-117416000D01*
X164322000Y-117382667D01*
X164388667Y-117382667D01*
X164488667Y-117416000D01*
X164888667Y-117816000D01*
X164888667Y-117382667D01*
X144522000Y-118882667D02*
X144555333Y-118782667D01*
X144588667Y-118749334D01*
X144655333Y-118716000D01*
X144755333Y-118716000D01*
X144822000Y-118749334D01*
X144855333Y-118782667D01*
X144888667Y-118849334D01*
X144888667Y-119116000D01*
X144188667Y-119116000D01*
X144188667Y-118882667D01*
X144222000Y-118816000D01*
X144255333Y-118782667D01*
X144322000Y-118749334D01*
X144388667Y-118749334D01*
X144455333Y-118782667D01*
X144488667Y-118816000D01*
X144522000Y-118882667D01*
X144522000Y-119116000D01*
X144888667Y-118049334D02*
X144888667Y-118449334D01*
X144888667Y-118249334D02*
X144188667Y-118249334D01*
X144288667Y-118316000D01*
X144355333Y-118382667D01*
X144388667Y-118449334D01*
X144255333Y-117782667D02*
X144222000Y-117749333D01*
X144188667Y-117682667D01*
X144188667Y-117516000D01*
X144222000Y-117449333D01*
X144255333Y-117416000D01*
X144322000Y-117382667D01*
X144388667Y-117382667D01*
X144488667Y-117416000D01*
X144888667Y-117816000D01*
X144888667Y-117382667D01*
X141522000Y-118882667D02*
X141555333Y-118782667D01*
X141588667Y-118749334D01*
X141655333Y-118716000D01*
X141755333Y-118716000D01*
X141822000Y-118749334D01*
X141855333Y-118782667D01*
X141888667Y-118849334D01*
X141888667Y-119116000D01*
X141188667Y-119116000D01*
X141188667Y-118882667D01*
X141222000Y-118816000D01*
X141255333Y-118782667D01*
X141322000Y-118749334D01*
X141388667Y-118749334D01*
X141455333Y-118782667D01*
X141488667Y-118816000D01*
X141522000Y-118882667D01*
X141522000Y-119116000D01*
X141888667Y-118049334D02*
X141888667Y-118449334D01*
X141888667Y-118249334D02*
X141188667Y-118249334D01*
X141288667Y-118316000D01*
X141355333Y-118382667D01*
X141388667Y-118449334D01*
X141888667Y-117382667D02*
X141888667Y-117782667D01*
X141888667Y-117582667D02*
X141188667Y-117582667D01*
X141288667Y-117649333D01*
X141355333Y-117716000D01*
X141388667Y-117782667D01*
X131522000Y-118949333D02*
X131555333Y-118849333D01*
X131588667Y-118816000D01*
X131655333Y-118782666D01*
X131755333Y-118782666D01*
X131822000Y-118816000D01*
X131855333Y-118849333D01*
X131888667Y-118916000D01*
X131888667Y-119182666D01*
X131188667Y-119182666D01*
X131188667Y-118949333D01*
X131222000Y-118882666D01*
X131255333Y-118849333D01*
X131322000Y-118816000D01*
X131388667Y-118816000D01*
X131455333Y-118849333D01*
X131488667Y-118882666D01*
X131522000Y-118949333D01*
X131522000Y-119182666D01*
X131888667Y-118116000D02*
X131888667Y-118516000D01*
X131888667Y-118316000D02*
X131188667Y-118316000D01*
X131288667Y-118382666D01*
X131355333Y-118449333D01*
X131388667Y-118516000D01*
X170357143Y-109452381D02*
X170023809Y-108976190D01*
X169785714Y-109452381D02*
X169785714Y-108452381D01*
X170166667Y-108452381D01*
X170261905Y-108500000D01*
X170309524Y-108547619D01*
X170357143Y-108642857D01*
X170357143Y-108785714D01*
X170309524Y-108880952D01*
X170261905Y-108928571D01*
X170166667Y-108976190D01*
X169785714Y-108976190D01*
X170738095Y-108547619D02*
X170785714Y-108500000D01*
X170880952Y-108452381D01*
X171119048Y-108452381D01*
X171214286Y-108500000D01*
X171261905Y-108547619D01*
X171309524Y-108642857D01*
X171309524Y-108738095D01*
X171261905Y-108880952D01*
X170690476Y-109452381D01*
X171309524Y-109452381D01*
X171928571Y-108452381D02*
X172023810Y-108452381D01*
X172119048Y-108500000D01*
X172166667Y-108547619D01*
X172214286Y-108642857D01*
X172261905Y-108833333D01*
X172261905Y-109071429D01*
X172214286Y-109261905D01*
X172166667Y-109357143D01*
X172119048Y-109404762D01*
X172023810Y-109452381D01*
X171928571Y-109452381D01*
X171833333Y-109404762D01*
X171785714Y-109357143D01*
X171738095Y-109261905D01*
X171690476Y-109071429D01*
X171690476Y-108833333D01*
X171738095Y-108642857D01*
X171785714Y-108547619D01*
X171833333Y-108500000D01*
X171928571Y-108452381D01*
X129357143Y-61152381D02*
X129023809Y-60676190D01*
X128785714Y-61152381D02*
X128785714Y-60152381D01*
X129166667Y-60152381D01*
X129261905Y-60200000D01*
X129309524Y-60247619D01*
X129357143Y-60342857D01*
X129357143Y-60485714D01*
X129309524Y-60580952D01*
X129261905Y-60628571D01*
X129166667Y-60676190D01*
X128785714Y-60676190D01*
X130309524Y-61152381D02*
X129738095Y-61152381D01*
X130023809Y-61152381D02*
X130023809Y-60152381D01*
X129928571Y-60295238D01*
X129833333Y-60390476D01*
X129738095Y-60438095D01*
X130785714Y-61152381D02*
X130976190Y-61152381D01*
X131071429Y-61104762D01*
X131119048Y-61057143D01*
X131214286Y-60914286D01*
X131261905Y-60723810D01*
X131261905Y-60342857D01*
X131214286Y-60247619D01*
X131166667Y-60200000D01*
X131071429Y-60152381D01*
X130880952Y-60152381D01*
X130785714Y-60200000D01*
X130738095Y-60247619D01*
X130690476Y-60342857D01*
X130690476Y-60580952D01*
X130738095Y-60676190D01*
X130785714Y-60723810D01*
X130880952Y-60771429D01*
X131071429Y-60771429D01*
X131166667Y-60723810D01*
X131214286Y-60676190D01*
X131261905Y-60580952D01*
X138357143Y-61152381D02*
X138023809Y-60676190D01*
X137785714Y-61152381D02*
X137785714Y-60152381D01*
X138166667Y-60152381D01*
X138261905Y-60200000D01*
X138309524Y-60247619D01*
X138357143Y-60342857D01*
X138357143Y-60485714D01*
X138309524Y-60580952D01*
X138261905Y-60628571D01*
X138166667Y-60676190D01*
X137785714Y-60676190D01*
X139309524Y-61152381D02*
X138738095Y-61152381D01*
X139023809Y-61152381D02*
X139023809Y-60152381D01*
X138928571Y-60295238D01*
X138833333Y-60390476D01*
X138738095Y-60438095D01*
X139880952Y-60580952D02*
X139785714Y-60533333D01*
X139738095Y-60485714D01*
X139690476Y-60390476D01*
X139690476Y-60342857D01*
X139738095Y-60247619D01*
X139785714Y-60200000D01*
X139880952Y-60152381D01*
X140071429Y-60152381D01*
X140166667Y-60200000D01*
X140214286Y-60247619D01*
X140261905Y-60342857D01*
X140261905Y-60390476D01*
X140214286Y-60485714D01*
X140166667Y-60533333D01*
X140071429Y-60580952D01*
X139880952Y-60580952D01*
X139785714Y-60628571D01*
X139738095Y-60676190D01*
X139690476Y-60771429D01*
X139690476Y-60961905D01*
X139738095Y-61057143D01*
X139785714Y-61104762D01*
X139880952Y-61152381D01*
X140071429Y-61152381D01*
X140166667Y-61104762D01*
X140214286Y-61057143D01*
X140261905Y-60961905D01*
X140261905Y-60771429D01*
X140214286Y-60676190D01*
X140166667Y-60628571D01*
X140071429Y-60580952D01*
X114833334Y-60452381D02*
X114500000Y-59976190D01*
X114261905Y-60452381D02*
X114261905Y-59452381D01*
X114642858Y-59452381D01*
X114738096Y-59500000D01*
X114785715Y-59547619D01*
X114833334Y-59642857D01*
X114833334Y-59785714D01*
X114785715Y-59880952D01*
X114738096Y-59928571D01*
X114642858Y-59976190D01*
X114261905Y-59976190D01*
X115690477Y-59452381D02*
X115500000Y-59452381D01*
X115404762Y-59500000D01*
X115357143Y-59547619D01*
X115261905Y-59690476D01*
X115214286Y-59880952D01*
X115214286Y-60261905D01*
X115261905Y-60357143D01*
X115309524Y-60404762D01*
X115404762Y-60452381D01*
X115595239Y-60452381D01*
X115690477Y-60404762D01*
X115738096Y-60357143D01*
X115785715Y-60261905D01*
X115785715Y-60023810D01*
X115738096Y-59928571D01*
X115690477Y-59880952D01*
X115595239Y-59833333D01*
X115404762Y-59833333D01*
X115309524Y-59880952D01*
X115261905Y-59928571D01*
X115214286Y-60023810D01*
X177833334Y-56152381D02*
X177500000Y-55676190D01*
X177261905Y-56152381D02*
X177261905Y-55152381D01*
X177642858Y-55152381D01*
X177738096Y-55200000D01*
X177785715Y-55247619D01*
X177833334Y-55342857D01*
X177833334Y-55485714D01*
X177785715Y-55580952D01*
X177738096Y-55628571D01*
X177642858Y-55676190D01*
X177261905Y-55676190D01*
X178785715Y-56152381D02*
X178214286Y-56152381D01*
X178500000Y-56152381D02*
X178500000Y-55152381D01*
X178404762Y-55295238D01*
X178309524Y-55390476D01*
X178214286Y-55438095D01*
X207541905Y-59372381D02*
X207541905Y-58372381D01*
X207922858Y-58372381D01*
X208018096Y-58420000D01*
X208065715Y-58467619D01*
X208113334Y-58562857D01*
X208113334Y-58705714D01*
X208065715Y-58800952D01*
X208018096Y-58848571D01*
X207922858Y-58896190D01*
X207541905Y-58896190D01*
X209018096Y-58372381D02*
X208541905Y-58372381D01*
X208494286Y-58848571D01*
X208541905Y-58800952D01*
X208637143Y-58753333D01*
X208875239Y-58753333D01*
X208970477Y-58800952D01*
X209018096Y-58848571D01*
X209065715Y-58943810D01*
X209065715Y-59181905D01*
X209018096Y-59277143D01*
X208970477Y-59324762D01*
X208875239Y-59372381D01*
X208637143Y-59372381D01*
X208541905Y-59324762D01*
X208494286Y-59277143D01*
X83081905Y-112712381D02*
X83081905Y-111712381D01*
X83462858Y-111712381D01*
X83558096Y-111760000D01*
X83605715Y-111807619D01*
X83653334Y-111902857D01*
X83653334Y-112045714D01*
X83605715Y-112140952D01*
X83558096Y-112188571D01*
X83462858Y-112236190D01*
X83081905Y-112236190D01*
X84510477Y-112045714D02*
X84510477Y-112712381D01*
X84272381Y-111664762D02*
X84034286Y-112379048D01*
X84653334Y-112379048D01*
X207541905Y-110172381D02*
X207541905Y-109172381D01*
X207922858Y-109172381D01*
X208018096Y-109220000D01*
X208065715Y-109267619D01*
X208113334Y-109362857D01*
X208113334Y-109505714D01*
X208065715Y-109600952D01*
X208018096Y-109648571D01*
X207922858Y-109696190D01*
X207541905Y-109696190D01*
X208446667Y-109172381D02*
X209065715Y-109172381D01*
X208732381Y-109553333D01*
X208875239Y-109553333D01*
X208970477Y-109600952D01*
X209018096Y-109648571D01*
X209065715Y-109743810D01*
X209065715Y-109981905D01*
X209018096Y-110077143D01*
X208970477Y-110124762D01*
X208875239Y-110172381D01*
X208589524Y-110172381D01*
X208494286Y-110124762D01*
X208446667Y-110077143D01*
X83081905Y-59372381D02*
X83081905Y-58372381D01*
X83462858Y-58372381D01*
X83558096Y-58420000D01*
X83605715Y-58467619D01*
X83653334Y-58562857D01*
X83653334Y-58705714D01*
X83605715Y-58800952D01*
X83558096Y-58848571D01*
X83462858Y-58896190D01*
X83081905Y-58896190D01*
X84034286Y-58467619D02*
X84081905Y-58420000D01*
X84177143Y-58372381D01*
X84415239Y-58372381D01*
X84510477Y-58420000D01*
X84558096Y-58467619D01*
X84605715Y-58562857D01*
X84605715Y-58658095D01*
X84558096Y-58800952D01*
X83986667Y-59372381D01*
X84605715Y-59372381D01*
X202239667Y-75017381D02*
X202239667Y-75731667D01*
X202192047Y-75874524D01*
X202096809Y-75969762D01*
X201953952Y-76017381D01*
X201858714Y-76017381D01*
X202715857Y-76017381D02*
X202715857Y-75017381D01*
X203096810Y-75017381D01*
X203192048Y-75065000D01*
X203239667Y-75112619D01*
X203287286Y-75207857D01*
X203287286Y-75350714D01*
X203239667Y-75445952D01*
X203192048Y-75493571D01*
X203096810Y-75541190D01*
X202715857Y-75541190D01*
X203668238Y-75112619D02*
X203715857Y-75065000D01*
X203811095Y-75017381D01*
X204049191Y-75017381D01*
X204144429Y-75065000D01*
X204192048Y-75112619D01*
X204239667Y-75207857D01*
X204239667Y-75303095D01*
X204192048Y-75445952D01*
X203620619Y-76017381D01*
X204239667Y-76017381D01*
X194452381Y-61833333D02*
X195166667Y-61833333D01*
X195309524Y-61880953D01*
X195404762Y-61976191D01*
X195452381Y-62119048D01*
X195452381Y-62214286D01*
X195452381Y-61357143D02*
X194452381Y-61357143D01*
X194452381Y-60976190D01*
X194500000Y-60880952D01*
X194547619Y-60833333D01*
X194642857Y-60785714D01*
X194785714Y-60785714D01*
X194880952Y-60833333D01*
X194928571Y-60880952D01*
X194976190Y-60976190D01*
X194976190Y-61357143D01*
X195452381Y-59833333D02*
X195452381Y-60404762D01*
X195452381Y-60119048D02*
X194452381Y-60119048D01*
X194595238Y-60214286D01*
X194690476Y-60309524D01*
X194738095Y-60404762D01*
X189928571Y-104619047D02*
X189928571Y-104952381D01*
X190452381Y-104952381D02*
X189452381Y-104952381D01*
X189452381Y-104476190D01*
X189452381Y-104238095D02*
X189452381Y-103666666D01*
X190452381Y-103952381D02*
X189452381Y-103952381D01*
X189547619Y-103380952D02*
X189500000Y-103333333D01*
X189452381Y-103238095D01*
X189452381Y-102999999D01*
X189500000Y-102904761D01*
X189547619Y-102857142D01*
X189642857Y-102809523D01*
X189738095Y-102809523D01*
X189880952Y-102857142D01*
X190452381Y-103428571D01*
X190452381Y-102809523D01*
X189452381Y-102476190D02*
X189452381Y-101857142D01*
X189833333Y-102190476D01*
X189833333Y-102047618D01*
X189880952Y-101952380D01*
X189928571Y-101904761D01*
X190023810Y-101857142D01*
X190261905Y-101857142D01*
X190357143Y-101904761D01*
X190404762Y-101952380D01*
X190452381Y-102047618D01*
X190452381Y-102333333D01*
X190404762Y-102428571D01*
X190357143Y-102476190D01*
X189547619Y-101476190D02*
X189500000Y-101428571D01*
X189452381Y-101333333D01*
X189452381Y-101095237D01*
X189500000Y-100999999D01*
X189547619Y-100952380D01*
X189642857Y-100904761D01*
X189738095Y-100904761D01*
X189880952Y-100952380D01*
X190452381Y-101523809D01*
X190452381Y-100904761D01*
X190452381Y-99904761D02*
X189976190Y-100238095D01*
X190452381Y-100476190D02*
X189452381Y-100476190D01*
X189452381Y-100095237D01*
X189500000Y-99999999D01*
X189547619Y-99952380D01*
X189642857Y-99904761D01*
X189785714Y-99904761D01*
X189880952Y-99952380D01*
X189928571Y-99999999D01*
X189976190Y-100095237D01*
X189976190Y-100476190D01*
X190452381Y-99476190D02*
X189452381Y-99476190D01*
X189452381Y-99095237D01*
X189500000Y-98999999D01*
X189547619Y-98952380D01*
X189642857Y-98904761D01*
X189785714Y-98904761D01*
X189880952Y-98952380D01*
X189928571Y-98999999D01*
X189976190Y-99095237D01*
X189976190Y-99476190D01*
X190452381Y-98476190D02*
X189785714Y-98476190D01*
X189452381Y-98476190D02*
X189500000Y-98523809D01*
X189547619Y-98476190D01*
X189500000Y-98428571D01*
X189452381Y-98476190D01*
X189547619Y-98476190D01*
X190357143Y-98000000D02*
X190404762Y-97952381D01*
X190452381Y-98000000D01*
X190404762Y-98047619D01*
X190357143Y-98000000D01*
X190452381Y-98000000D01*
X190452381Y-97000000D02*
X190452381Y-97571429D01*
X190452381Y-97285715D02*
X189452381Y-97285715D01*
X189595238Y-97380953D01*
X189690476Y-97476191D01*
X189738095Y-97571429D01*
X122357143Y-78642857D02*
X122404762Y-78690476D01*
X122452381Y-78833333D01*
X122452381Y-78928571D01*
X122404762Y-79071429D01*
X122309524Y-79166667D01*
X122214286Y-79214286D01*
X122023810Y-79261905D01*
X121880952Y-79261905D01*
X121690476Y-79214286D01*
X121595238Y-79166667D01*
X121500000Y-79071429D01*
X121452381Y-78928571D01*
X121452381Y-78833333D01*
X121500000Y-78690476D01*
X121547619Y-78642857D01*
X121547619Y-78261905D02*
X121500000Y-78214286D01*
X121452381Y-78119048D01*
X121452381Y-77880952D01*
X121500000Y-77785714D01*
X121547619Y-77738095D01*
X121642857Y-77690476D01*
X121738095Y-77690476D01*
X121880952Y-77738095D01*
X122452381Y-78309524D01*
X122452381Y-77690476D01*
X121452381Y-76785714D02*
X121452381Y-77261905D01*
X121928571Y-77309524D01*
X121880952Y-77261905D01*
X121833333Y-77166667D01*
X121833333Y-76928571D01*
X121880952Y-76833333D01*
X121928571Y-76785714D01*
X122023810Y-76738095D01*
X122261905Y-76738095D01*
X122357143Y-76785714D01*
X122404762Y-76833333D01*
X122452381Y-76928571D01*
X122452381Y-77166667D01*
X122404762Y-77261905D01*
X122357143Y-77309524D01*
X122057143Y-99642857D02*
X122104762Y-99690476D01*
X122152381Y-99833333D01*
X122152381Y-99928571D01*
X122104762Y-100071429D01*
X122009524Y-100166667D01*
X121914286Y-100214286D01*
X121723810Y-100261905D01*
X121580952Y-100261905D01*
X121390476Y-100214286D01*
X121295238Y-100166667D01*
X121200000Y-100071429D01*
X121152381Y-99928571D01*
X121152381Y-99833333D01*
X121200000Y-99690476D01*
X121247619Y-99642857D01*
X121247619Y-99261905D02*
X121200000Y-99214286D01*
X121152381Y-99119048D01*
X121152381Y-98880952D01*
X121200000Y-98785714D01*
X121247619Y-98738095D01*
X121342857Y-98690476D01*
X121438095Y-98690476D01*
X121580952Y-98738095D01*
X122152381Y-99309524D01*
X122152381Y-98690476D01*
X121485714Y-97833333D02*
X122152381Y-97833333D01*
X121104762Y-98071429D02*
X121819048Y-98309524D01*
X121819048Y-97690476D01*
X117357143Y-101357143D02*
X117309524Y-101404762D01*
X117166667Y-101452381D01*
X117071429Y-101452381D01*
X116928571Y-101404762D01*
X116833333Y-101309524D01*
X116785714Y-101214286D01*
X116738095Y-101023810D01*
X116738095Y-100880952D01*
X116785714Y-100690476D01*
X116833333Y-100595238D01*
X116928571Y-100500000D01*
X117071429Y-100452381D01*
X117166667Y-100452381D01*
X117309524Y-100500000D01*
X117357143Y-100547619D01*
X117738095Y-100547619D02*
X117785714Y-100500000D01*
X117880952Y-100452381D01*
X118119048Y-100452381D01*
X118214286Y-100500000D01*
X118261905Y-100547619D01*
X118309524Y-100642857D01*
X118309524Y-100738095D01*
X118261905Y-100880952D01*
X117690476Y-101452381D01*
X118309524Y-101452381D01*
X118642857Y-100452381D02*
X119261905Y-100452381D01*
X118928571Y-100833333D01*
X119071429Y-100833333D01*
X119166667Y-100880952D01*
X119214286Y-100928571D01*
X119261905Y-101023810D01*
X119261905Y-101261905D01*
X119214286Y-101357143D01*
X119166667Y-101404762D01*
X119071429Y-101452381D01*
X118785714Y-101452381D01*
X118690476Y-101404762D01*
X118642857Y-101357143D01*
X125357143Y-102057143D02*
X125309524Y-102104762D01*
X125166667Y-102152381D01*
X125071429Y-102152381D01*
X124928571Y-102104762D01*
X124833333Y-102009524D01*
X124785714Y-101914286D01*
X124738095Y-101723810D01*
X124738095Y-101580952D01*
X124785714Y-101390476D01*
X124833333Y-101295238D01*
X124928571Y-101200000D01*
X125071429Y-101152381D01*
X125166667Y-101152381D01*
X125309524Y-101200000D01*
X125357143Y-101247619D01*
X125738095Y-101247619D02*
X125785714Y-101200000D01*
X125880952Y-101152381D01*
X126119048Y-101152381D01*
X126214286Y-101200000D01*
X126261905Y-101247619D01*
X126309524Y-101342857D01*
X126309524Y-101438095D01*
X126261905Y-101580952D01*
X125690476Y-102152381D01*
X126309524Y-102152381D01*
X126690476Y-101247619D02*
X126738095Y-101200000D01*
X126833333Y-101152381D01*
X127071429Y-101152381D01*
X127166667Y-101200000D01*
X127214286Y-101247619D01*
X127261905Y-101342857D01*
X127261905Y-101438095D01*
X127214286Y-101580952D01*
X126642857Y-102152381D01*
X127261905Y-102152381D01*
X135357143Y-103357143D02*
X135309524Y-103404762D01*
X135166667Y-103452381D01*
X135071429Y-103452381D01*
X134928571Y-103404762D01*
X134833333Y-103309524D01*
X134785714Y-103214286D01*
X134738095Y-103023810D01*
X134738095Y-102880952D01*
X134785714Y-102690476D01*
X134833333Y-102595238D01*
X134928571Y-102500000D01*
X135071429Y-102452381D01*
X135166667Y-102452381D01*
X135309524Y-102500000D01*
X135357143Y-102547619D01*
X135738095Y-102547619D02*
X135785714Y-102500000D01*
X135880952Y-102452381D01*
X136119048Y-102452381D01*
X136214286Y-102500000D01*
X136261905Y-102547619D01*
X136309524Y-102642857D01*
X136309524Y-102738095D01*
X136261905Y-102880952D01*
X135690476Y-103452381D01*
X136309524Y-103452381D01*
X137261905Y-103452381D02*
X136690476Y-103452381D01*
X136976190Y-103452381D02*
X136976190Y-102452381D01*
X136880952Y-102595238D01*
X136785714Y-102690476D01*
X136690476Y-102738095D01*
X143357143Y-103057143D02*
X143309524Y-103104762D01*
X143166667Y-103152381D01*
X143071429Y-103152381D01*
X142928571Y-103104762D01*
X142833333Y-103009524D01*
X142785714Y-102914286D01*
X142738095Y-102723810D01*
X142738095Y-102580952D01*
X142785714Y-102390476D01*
X142833333Y-102295238D01*
X142928571Y-102200000D01*
X143071429Y-102152381D01*
X143166667Y-102152381D01*
X143309524Y-102200000D01*
X143357143Y-102247619D01*
X143738095Y-102247619D02*
X143785714Y-102200000D01*
X143880952Y-102152381D01*
X144119048Y-102152381D01*
X144214286Y-102200000D01*
X144261905Y-102247619D01*
X144309524Y-102342857D01*
X144309524Y-102438095D01*
X144261905Y-102580952D01*
X143690476Y-103152381D01*
X144309524Y-103152381D01*
X144928571Y-102152381D02*
X145023810Y-102152381D01*
X145119048Y-102200000D01*
X145166667Y-102247619D01*
X145214286Y-102342857D01*
X145261905Y-102533333D01*
X145261905Y-102771429D01*
X145214286Y-102961905D01*
X145166667Y-103057143D01*
X145119048Y-103104762D01*
X145023810Y-103152381D01*
X144928571Y-103152381D01*
X144833333Y-103104762D01*
X144785714Y-103057143D01*
X144738095Y-102961905D01*
X144690476Y-102771429D01*
X144690476Y-102533333D01*
X144738095Y-102342857D01*
X144785714Y-102247619D01*
X144833333Y-102200000D01*
X144928571Y-102152381D01*
X151357143Y-103357143D02*
X151309524Y-103404762D01*
X151166667Y-103452381D01*
X151071429Y-103452381D01*
X150928571Y-103404762D01*
X150833333Y-103309524D01*
X150785714Y-103214286D01*
X150738095Y-103023810D01*
X150738095Y-102880952D01*
X150785714Y-102690476D01*
X150833333Y-102595238D01*
X150928571Y-102500000D01*
X151071429Y-102452381D01*
X151166667Y-102452381D01*
X151309524Y-102500000D01*
X151357143Y-102547619D01*
X152309524Y-103452381D02*
X151738095Y-103452381D01*
X152023809Y-103452381D02*
X152023809Y-102452381D01*
X151928571Y-102595238D01*
X151833333Y-102690476D01*
X151738095Y-102738095D01*
X152785714Y-103452381D02*
X152976190Y-103452381D01*
X153071429Y-103404762D01*
X153119048Y-103357143D01*
X153214286Y-103214286D01*
X153261905Y-103023810D01*
X153261905Y-102642857D01*
X153214286Y-102547619D01*
X153166667Y-102500000D01*
X153071429Y-102452381D01*
X152880952Y-102452381D01*
X152785714Y-102500000D01*
X152738095Y-102547619D01*
X152690476Y-102642857D01*
X152690476Y-102880952D01*
X152738095Y-102976190D01*
X152785714Y-103023810D01*
X152880952Y-103071429D01*
X153071429Y-103071429D01*
X153166667Y-103023810D01*
X153214286Y-102976190D01*
X153261905Y-102880952D01*
X145833334Y-108057143D02*
X145785715Y-108104762D01*
X145642858Y-108152381D01*
X145547620Y-108152381D01*
X145404762Y-108104762D01*
X145309524Y-108009524D01*
X145261905Y-107914286D01*
X145214286Y-107723810D01*
X145214286Y-107580952D01*
X145261905Y-107390476D01*
X145309524Y-107295238D01*
X145404762Y-107200000D01*
X145547620Y-107152381D01*
X145642858Y-107152381D01*
X145785715Y-107200000D01*
X145833334Y-107247619D01*
X146738096Y-107152381D02*
X146261905Y-107152381D01*
X146214286Y-107628571D01*
X146261905Y-107580952D01*
X146357143Y-107533333D01*
X146595239Y-107533333D01*
X146690477Y-107580952D01*
X146738096Y-107628571D01*
X146785715Y-107723810D01*
X146785715Y-107961905D01*
X146738096Y-108057143D01*
X146690477Y-108104762D01*
X146595239Y-108152381D01*
X146357143Y-108152381D01*
X146261905Y-108104762D01*
X146214286Y-108057143D01*
X163357143Y-78166666D02*
X163404762Y-78214285D01*
X163452381Y-78357142D01*
X163452381Y-78452380D01*
X163404762Y-78595238D01*
X163309524Y-78690476D01*
X163214286Y-78738095D01*
X163023810Y-78785714D01*
X162880952Y-78785714D01*
X162690476Y-78738095D01*
X162595238Y-78690476D01*
X162500000Y-78595238D01*
X162452381Y-78452380D01*
X162452381Y-78357142D01*
X162500000Y-78214285D01*
X162547619Y-78166666D01*
X162785714Y-77309523D02*
X163452381Y-77309523D01*
X162404762Y-77547619D02*
X163119048Y-77785714D01*
X163119048Y-77166666D01*
X121714286Y-112928571D02*
X121857143Y-112976190D01*
X121904762Y-113023810D01*
X121952381Y-113119048D01*
X121952381Y-113261905D01*
X121904762Y-113357143D01*
X121857143Y-113404762D01*
X121761905Y-113452381D01*
X121380952Y-113452381D01*
X121380952Y-112452381D01*
X121714286Y-112452381D01*
X121809524Y-112500000D01*
X121857143Y-112547619D01*
X121904762Y-112642857D01*
X121904762Y-112738095D01*
X121857143Y-112833333D01*
X121809524Y-112880952D01*
X121714286Y-112928571D01*
X121380952Y-112928571D01*
X122571428Y-112452381D02*
X122761905Y-112452381D01*
X122857143Y-112500000D01*
X122952381Y-112595238D01*
X123000000Y-112785714D01*
X123000000Y-113119048D01*
X122952381Y-113309524D01*
X122857143Y-113404762D01*
X122761905Y-113452381D01*
X122571428Y-113452381D01*
X122476190Y-113404762D01*
X122380952Y-113309524D01*
X122333333Y-113119048D01*
X122333333Y-112785714D01*
X122380952Y-112595238D01*
X122476190Y-112500000D01*
X122571428Y-112452381D01*
X123619047Y-112452381D02*
X123809524Y-112452381D01*
X123904762Y-112500000D01*
X124000000Y-112595238D01*
X124047619Y-112785714D01*
X124047619Y-113119048D01*
X124000000Y-113309524D01*
X123904762Y-113404762D01*
X123809524Y-113452381D01*
X123619047Y-113452381D01*
X123523809Y-113404762D01*
X123428571Y-113309524D01*
X123380952Y-113119048D01*
X123380952Y-112785714D01*
X123428571Y-112595238D01*
X123523809Y-112500000D01*
X123619047Y-112452381D01*
X124333333Y-112452381D02*
X124904762Y-112452381D01*
X124619047Y-113452381D02*
X124619047Y-112452381D01*
X125761905Y-113452381D02*
X125190476Y-113452381D01*
X125476190Y-113452381D02*
X125476190Y-112452381D01*
X125380952Y-112595238D01*
X125285714Y-112690476D01*
X125190476Y-112738095D01*
X125952381Y-113547619D02*
X126714286Y-113547619D01*
X126952381Y-113452381D02*
X126952381Y-112452381D01*
X127285715Y-113166667D01*
X127619048Y-112452381D01*
X127619048Y-113452381D01*
X128095238Y-112928571D02*
X128428572Y-112928571D01*
X128571429Y-113452381D02*
X128095238Y-113452381D01*
X128095238Y-112452381D01*
X128571429Y-112452381D01*
X129000000Y-113452381D02*
X129000000Y-112452381D01*
X129333334Y-113166667D01*
X129666667Y-112452381D01*
X129666667Y-113452381D01*
X130666667Y-113452381D02*
X130095238Y-113452381D01*
X130380952Y-113452381D02*
X130380952Y-112452381D01*
X130285714Y-112595238D01*
X130190476Y-112690476D01*
X130095238Y-112738095D01*
X147714286Y-60928571D02*
X147857143Y-60976190D01*
X147904762Y-61023810D01*
X147952381Y-61119048D01*
X147952381Y-61261905D01*
X147904762Y-61357143D01*
X147857143Y-61404762D01*
X147761905Y-61452381D01*
X147380952Y-61452381D01*
X147380952Y-60452381D01*
X147714286Y-60452381D01*
X147809524Y-60500000D01*
X147857143Y-60547619D01*
X147904762Y-60642857D01*
X147904762Y-60738095D01*
X147857143Y-60833333D01*
X147809524Y-60880952D01*
X147714286Y-60928571D01*
X147380952Y-60928571D01*
X148571428Y-60452381D02*
X148761905Y-60452381D01*
X148857143Y-60500000D01*
X148952381Y-60595238D01*
X149000000Y-60785714D01*
X149000000Y-61119048D01*
X148952381Y-61309524D01*
X148857143Y-61404762D01*
X148761905Y-61452381D01*
X148571428Y-61452381D01*
X148476190Y-61404762D01*
X148380952Y-61309524D01*
X148333333Y-61119048D01*
X148333333Y-60785714D01*
X148380952Y-60595238D01*
X148476190Y-60500000D01*
X148571428Y-60452381D01*
X149619047Y-60452381D02*
X149809524Y-60452381D01*
X149904762Y-60500000D01*
X150000000Y-60595238D01*
X150047619Y-60785714D01*
X150047619Y-61119048D01*
X150000000Y-61309524D01*
X149904762Y-61404762D01*
X149809524Y-61452381D01*
X149619047Y-61452381D01*
X149523809Y-61404762D01*
X149428571Y-61309524D01*
X149380952Y-61119048D01*
X149380952Y-60785714D01*
X149428571Y-60595238D01*
X149523809Y-60500000D01*
X149619047Y-60452381D01*
X150333333Y-60452381D02*
X150904762Y-60452381D01*
X150619047Y-61452381D02*
X150619047Y-60452381D01*
X151428571Y-60452381D02*
X151523810Y-60452381D01*
X151619048Y-60500000D01*
X151666667Y-60547619D01*
X151714286Y-60642857D01*
X151761905Y-60833333D01*
X151761905Y-61071429D01*
X151714286Y-61261905D01*
X151666667Y-61357143D01*
X151619048Y-61404762D01*
X151523810Y-61452381D01*
X151428571Y-61452381D01*
X151333333Y-61404762D01*
X151285714Y-61357143D01*
X151238095Y-61261905D01*
X151190476Y-61071429D01*
X151190476Y-60833333D01*
X151238095Y-60642857D01*
X151285714Y-60547619D01*
X151333333Y-60500000D01*
X151428571Y-60452381D01*
X151952381Y-61547619D02*
X152714286Y-61547619D01*
X152952381Y-61452381D02*
X152952381Y-60452381D01*
X153285715Y-61166667D01*
X153619048Y-60452381D01*
X153619048Y-61452381D01*
X154095238Y-60928571D02*
X154428572Y-60928571D01*
X154571429Y-61452381D02*
X154095238Y-61452381D01*
X154095238Y-60452381D01*
X154571429Y-60452381D01*
X155000000Y-61452381D02*
X155000000Y-60452381D01*
X155333334Y-61166667D01*
X155666667Y-60452381D01*
X155666667Y-61452381D01*
X156666667Y-61452381D02*
X156095238Y-61452381D01*
X156380952Y-61452381D02*
X156380952Y-60452381D01*
X156285714Y-60595238D01*
X156190476Y-60690476D01*
X156095238Y-60738095D01*
X92152381Y-111166666D02*
X91676190Y-111500000D01*
X92152381Y-111738095D02*
X91152381Y-111738095D01*
X91152381Y-111357142D01*
X91200000Y-111261904D01*
X91247619Y-111214285D01*
X91342857Y-111166666D01*
X91485714Y-111166666D01*
X91580952Y-111214285D01*
X91628571Y-111261904D01*
X91676190Y-111357142D01*
X91676190Y-111738095D01*
X91247619Y-110785714D02*
X91200000Y-110738095D01*
X91152381Y-110642857D01*
X91152381Y-110404761D01*
X91200000Y-110309523D01*
X91247619Y-110261904D01*
X91342857Y-110214285D01*
X91438095Y-110214285D01*
X91580952Y-110261904D01*
X92152381Y-110833333D01*
X92152381Y-110214285D01*
X92833334Y-68752381D02*
X92500000Y-68276190D01*
X92261905Y-68752381D02*
X92261905Y-67752381D01*
X92642858Y-67752381D01*
X92738096Y-67800000D01*
X92785715Y-67847619D01*
X92833334Y-67942857D01*
X92833334Y-68085714D01*
X92785715Y-68180952D01*
X92738096Y-68228571D01*
X92642858Y-68276190D01*
X92261905Y-68276190D01*
X93166667Y-67752381D02*
X93785715Y-67752381D01*
X93452381Y-68133333D01*
X93595239Y-68133333D01*
X93690477Y-68180952D01*
X93738096Y-68228571D01*
X93785715Y-68323810D01*
X93785715Y-68561905D01*
X93738096Y-68657143D01*
X93690477Y-68704762D01*
X93595239Y-68752381D01*
X93309524Y-68752381D01*
X93214286Y-68704762D01*
X93166667Y-68657143D01*
X92833334Y-64752381D02*
X92500000Y-64276190D01*
X92261905Y-64752381D02*
X92261905Y-63752381D01*
X92642858Y-63752381D01*
X92738096Y-63800000D01*
X92785715Y-63847619D01*
X92833334Y-63942857D01*
X92833334Y-64085714D01*
X92785715Y-64180952D01*
X92738096Y-64228571D01*
X92642858Y-64276190D01*
X92261905Y-64276190D01*
X93690477Y-64085714D02*
X93690477Y-64752381D01*
X93452381Y-63704762D02*
X93214286Y-64419048D01*
X93833334Y-64419048D01*
X92833334Y-60752381D02*
X92500000Y-60276190D01*
X92261905Y-60752381D02*
X92261905Y-59752381D01*
X92642858Y-59752381D01*
X92738096Y-59800000D01*
X92785715Y-59847619D01*
X92833334Y-59942857D01*
X92833334Y-60085714D01*
X92785715Y-60180952D01*
X92738096Y-60228571D01*
X92642858Y-60276190D01*
X92261905Y-60276190D01*
X93738096Y-59752381D02*
X93261905Y-59752381D01*
X93214286Y-60228571D01*
X93261905Y-60180952D01*
X93357143Y-60133333D01*
X93595239Y-60133333D01*
X93690477Y-60180952D01*
X93738096Y-60228571D01*
X93785715Y-60323810D01*
X93785715Y-60561905D01*
X93738096Y-60657143D01*
X93690477Y-60704762D01*
X93595239Y-60752381D01*
X93357143Y-60752381D01*
X93261905Y-60704762D01*
X93214286Y-60657143D01*
X114833334Y-64752381D02*
X114500000Y-64276190D01*
X114261905Y-64752381D02*
X114261905Y-63752381D01*
X114642858Y-63752381D01*
X114738096Y-63800000D01*
X114785715Y-63847619D01*
X114833334Y-63942857D01*
X114833334Y-64085714D01*
X114785715Y-64180952D01*
X114738096Y-64228571D01*
X114642858Y-64276190D01*
X114261905Y-64276190D01*
X115166667Y-63752381D02*
X115833334Y-63752381D01*
X115404762Y-64752381D01*
X114833334Y-68752381D02*
X114500000Y-68276190D01*
X114261905Y-68752381D02*
X114261905Y-67752381D01*
X114642858Y-67752381D01*
X114738096Y-67800000D01*
X114785715Y-67847619D01*
X114833334Y-67942857D01*
X114833334Y-68085714D01*
X114785715Y-68180952D01*
X114738096Y-68228571D01*
X114642858Y-68276190D01*
X114261905Y-68276190D01*
X115404762Y-68180952D02*
X115309524Y-68133333D01*
X115261905Y-68085714D01*
X115214286Y-67990476D01*
X115214286Y-67942857D01*
X115261905Y-67847619D01*
X115309524Y-67800000D01*
X115404762Y-67752381D01*
X115595239Y-67752381D01*
X115690477Y-67800000D01*
X115738096Y-67847619D01*
X115785715Y-67942857D01*
X115785715Y-67990476D01*
X115738096Y-68085714D01*
X115690477Y-68133333D01*
X115595239Y-68180952D01*
X115404762Y-68180952D01*
X115309524Y-68228571D01*
X115261905Y-68276190D01*
X115214286Y-68371429D01*
X115214286Y-68561905D01*
X115261905Y-68657143D01*
X115309524Y-68704762D01*
X115404762Y-68752381D01*
X115595239Y-68752381D01*
X115690477Y-68704762D01*
X115738096Y-68657143D01*
X115785715Y-68561905D01*
X115785715Y-68371429D01*
X115738096Y-68276190D01*
X115690477Y-68228571D01*
X115595239Y-68180952D01*
X166833334Y-62057143D02*
X166785715Y-62104762D01*
X166642858Y-62152381D01*
X166547620Y-62152381D01*
X166404762Y-62104762D01*
X166309524Y-62009524D01*
X166261905Y-61914286D01*
X166214286Y-61723810D01*
X166214286Y-61580952D01*
X166261905Y-61390476D01*
X166309524Y-61295238D01*
X166404762Y-61200000D01*
X166547620Y-61152381D01*
X166642858Y-61152381D01*
X166785715Y-61200000D01*
X166833334Y-61247619D01*
X167785715Y-62152381D02*
X167214286Y-62152381D01*
X167500000Y-62152381D02*
X167500000Y-61152381D01*
X167404762Y-61295238D01*
X167309524Y-61390476D01*
X167214286Y-61438095D01*
X184833334Y-70357143D02*
X184785715Y-70404762D01*
X184642858Y-70452381D01*
X184547620Y-70452381D01*
X184404762Y-70404762D01*
X184309524Y-70309524D01*
X184261905Y-70214286D01*
X184214286Y-70023810D01*
X184214286Y-69880952D01*
X184261905Y-69690476D01*
X184309524Y-69595238D01*
X184404762Y-69500000D01*
X184547620Y-69452381D01*
X184642858Y-69452381D01*
X184785715Y-69500000D01*
X184833334Y-69547619D01*
X185214286Y-69547619D02*
X185261905Y-69500000D01*
X185357143Y-69452381D01*
X185595239Y-69452381D01*
X185690477Y-69500000D01*
X185738096Y-69547619D01*
X185785715Y-69642857D01*
X185785715Y-69738095D01*
X185738096Y-69880952D01*
X185166667Y-70452381D01*
X185785715Y-70452381D01*
X101833334Y-69357143D02*
X101785715Y-69404762D01*
X101642858Y-69452381D01*
X101547620Y-69452381D01*
X101404762Y-69404762D01*
X101309524Y-69309524D01*
X101261905Y-69214286D01*
X101214286Y-69023810D01*
X101214286Y-68880952D01*
X101261905Y-68690476D01*
X101309524Y-68595238D01*
X101404762Y-68500000D01*
X101547620Y-68452381D01*
X101642858Y-68452381D01*
X101785715Y-68500000D01*
X101833334Y-68547619D01*
X102166667Y-68452381D02*
X102785715Y-68452381D01*
X102452381Y-68833333D01*
X102595239Y-68833333D01*
X102690477Y-68880952D01*
X102738096Y-68928571D01*
X102785715Y-69023810D01*
X102785715Y-69261905D01*
X102738096Y-69357143D01*
X102690477Y-69404762D01*
X102595239Y-69452381D01*
X102309524Y-69452381D01*
X102214286Y-69404762D01*
X102166667Y-69357143D01*
X109057143Y-92166666D02*
X109104762Y-92214285D01*
X109152381Y-92357142D01*
X109152381Y-92452380D01*
X109104762Y-92595238D01*
X109009524Y-92690476D01*
X108914286Y-92738095D01*
X108723810Y-92785714D01*
X108580952Y-92785714D01*
X108390476Y-92738095D01*
X108295238Y-92690476D01*
X108200000Y-92595238D01*
X108152381Y-92452380D01*
X108152381Y-92357142D01*
X108200000Y-92214285D01*
X108247619Y-92166666D01*
X108152381Y-91309523D02*
X108152381Y-91500000D01*
X108200000Y-91595238D01*
X108247619Y-91642857D01*
X108390476Y-91738095D01*
X108580952Y-91785714D01*
X108961905Y-91785714D01*
X109057143Y-91738095D01*
X109104762Y-91690476D01*
X109152381Y-91595238D01*
X109152381Y-91404761D01*
X109104762Y-91309523D01*
X109057143Y-91261904D01*
X108961905Y-91214285D01*
X108723810Y-91214285D01*
X108628571Y-91261904D01*
X108580952Y-91309523D01*
X108533333Y-91404761D01*
X108533333Y-91595238D01*
X108580952Y-91690476D01*
X108628571Y-91738095D01*
X108723810Y-91785714D01*
X113657143Y-84166666D02*
X113704762Y-84214285D01*
X113752381Y-84357142D01*
X113752381Y-84452380D01*
X113704762Y-84595238D01*
X113609524Y-84690476D01*
X113514286Y-84738095D01*
X113323810Y-84785714D01*
X113180952Y-84785714D01*
X112990476Y-84738095D01*
X112895238Y-84690476D01*
X112800000Y-84595238D01*
X112752381Y-84452380D01*
X112752381Y-84357142D01*
X112800000Y-84214285D01*
X112847619Y-84166666D01*
X112752381Y-83833333D02*
X112752381Y-83166666D01*
X113752381Y-83595238D01*
X122357143Y-92166666D02*
X122404762Y-92214285D01*
X122452381Y-92357142D01*
X122452381Y-92452380D01*
X122404762Y-92595238D01*
X122309524Y-92690476D01*
X122214286Y-92738095D01*
X122023810Y-92785714D01*
X121880952Y-92785714D01*
X121690476Y-92738095D01*
X121595238Y-92690476D01*
X121500000Y-92595238D01*
X121452381Y-92452380D01*
X121452381Y-92357142D01*
X121500000Y-92214285D01*
X121547619Y-92166666D01*
X121880952Y-91595238D02*
X121833333Y-91690476D01*
X121785714Y-91738095D01*
X121690476Y-91785714D01*
X121642857Y-91785714D01*
X121547619Y-91738095D01*
X121500000Y-91690476D01*
X121452381Y-91595238D01*
X121452381Y-91404761D01*
X121500000Y-91309523D01*
X121547619Y-91261904D01*
X121642857Y-91214285D01*
X121690476Y-91214285D01*
X121785714Y-91261904D01*
X121833333Y-91309523D01*
X121880952Y-91404761D01*
X121880952Y-91595238D01*
X121928571Y-91690476D01*
X121976190Y-91738095D01*
X122071429Y-91785714D01*
X122261905Y-91785714D01*
X122357143Y-91738095D01*
X122404762Y-91690476D01*
X122452381Y-91595238D01*
X122452381Y-91404761D01*
X122404762Y-91309523D01*
X122357143Y-91261904D01*
X122261905Y-91214285D01*
X122071429Y-91214285D01*
X121976190Y-91261904D01*
X121928571Y-91309523D01*
X121880952Y-91404761D01*
X116833334Y-72057143D02*
X116785715Y-72104762D01*
X116642858Y-72152381D01*
X116547620Y-72152381D01*
X116404762Y-72104762D01*
X116309524Y-72009524D01*
X116261905Y-71914286D01*
X116214286Y-71723810D01*
X116214286Y-71580952D01*
X116261905Y-71390476D01*
X116309524Y-71295238D01*
X116404762Y-71200000D01*
X116547620Y-71152381D01*
X116642858Y-71152381D01*
X116785715Y-71200000D01*
X116833334Y-71247619D01*
X117309524Y-72152381D02*
X117500000Y-72152381D01*
X117595239Y-72104762D01*
X117642858Y-72057143D01*
X117738096Y-71914286D01*
X117785715Y-71723810D01*
X117785715Y-71342857D01*
X117738096Y-71247619D01*
X117690477Y-71200000D01*
X117595239Y-71152381D01*
X117404762Y-71152381D01*
X117309524Y-71200000D01*
X117261905Y-71247619D01*
X117214286Y-71342857D01*
X117214286Y-71580952D01*
X117261905Y-71676190D01*
X117309524Y-71723810D01*
X117404762Y-71771429D01*
X117595239Y-71771429D01*
X117690477Y-71723810D01*
X117738096Y-71676190D01*
X117785715Y-71580952D01*
X124357143Y-68057143D02*
X124309524Y-68104762D01*
X124166667Y-68152381D01*
X124071429Y-68152381D01*
X123928571Y-68104762D01*
X123833333Y-68009524D01*
X123785714Y-67914286D01*
X123738095Y-67723810D01*
X123738095Y-67580952D01*
X123785714Y-67390476D01*
X123833333Y-67295238D01*
X123928571Y-67200000D01*
X124071429Y-67152381D01*
X124166667Y-67152381D01*
X124309524Y-67200000D01*
X124357143Y-67247619D01*
X125309524Y-68152381D02*
X124738095Y-68152381D01*
X125023809Y-68152381D02*
X125023809Y-67152381D01*
X124928571Y-67295238D01*
X124833333Y-67390476D01*
X124738095Y-67438095D01*
X125928571Y-67152381D02*
X126023810Y-67152381D01*
X126119048Y-67200000D01*
X126166667Y-67247619D01*
X126214286Y-67342857D01*
X126261905Y-67533333D01*
X126261905Y-67771429D01*
X126214286Y-67961905D01*
X126166667Y-68057143D01*
X126119048Y-68104762D01*
X126023810Y-68152381D01*
X125928571Y-68152381D01*
X125833333Y-68104762D01*
X125785714Y-68057143D01*
X125738095Y-67961905D01*
X125690476Y-67771429D01*
X125690476Y-67533333D01*
X125738095Y-67342857D01*
X125785714Y-67247619D01*
X125833333Y-67200000D01*
X125928571Y-67152381D01*
X133357143Y-66057143D02*
X133309524Y-66104762D01*
X133166667Y-66152381D01*
X133071429Y-66152381D01*
X132928571Y-66104762D01*
X132833333Y-66009524D01*
X132785714Y-65914286D01*
X132738095Y-65723810D01*
X132738095Y-65580952D01*
X132785714Y-65390476D01*
X132833333Y-65295238D01*
X132928571Y-65200000D01*
X133071429Y-65152381D01*
X133166667Y-65152381D01*
X133309524Y-65200000D01*
X133357143Y-65247619D01*
X134309524Y-66152381D02*
X133738095Y-66152381D01*
X134023809Y-66152381D02*
X134023809Y-65152381D01*
X133928571Y-65295238D01*
X133833333Y-65390476D01*
X133738095Y-65438095D01*
X135261905Y-66152381D02*
X134690476Y-66152381D01*
X134976190Y-66152381D02*
X134976190Y-65152381D01*
X134880952Y-65295238D01*
X134785714Y-65390476D01*
X134690476Y-65438095D01*
X142357143Y-66057143D02*
X142309524Y-66104762D01*
X142166667Y-66152381D01*
X142071429Y-66152381D01*
X141928571Y-66104762D01*
X141833333Y-66009524D01*
X141785714Y-65914286D01*
X141738095Y-65723810D01*
X141738095Y-65580952D01*
X141785714Y-65390476D01*
X141833333Y-65295238D01*
X141928571Y-65200000D01*
X142071429Y-65152381D01*
X142166667Y-65152381D01*
X142309524Y-65200000D01*
X142357143Y-65247619D01*
X143309524Y-66152381D02*
X142738095Y-66152381D01*
X143023809Y-66152381D02*
X143023809Y-65152381D01*
X142928571Y-65295238D01*
X142833333Y-65390476D01*
X142738095Y-65438095D01*
X143690476Y-65247619D02*
X143738095Y-65200000D01*
X143833333Y-65152381D01*
X144071429Y-65152381D01*
X144166667Y-65200000D01*
X144214286Y-65247619D01*
X144261905Y-65342857D01*
X144261905Y-65438095D01*
X144214286Y-65580952D01*
X143642857Y-66152381D01*
X144261905Y-66152381D01*
X150357143Y-66357143D02*
X150309524Y-66404762D01*
X150166667Y-66452381D01*
X150071429Y-66452381D01*
X149928571Y-66404762D01*
X149833333Y-66309524D01*
X149785714Y-66214286D01*
X149738095Y-66023810D01*
X149738095Y-65880952D01*
X149785714Y-65690476D01*
X149833333Y-65595238D01*
X149928571Y-65500000D01*
X150071429Y-65452381D01*
X150166667Y-65452381D01*
X150309524Y-65500000D01*
X150357143Y-65547619D01*
X151309524Y-66452381D02*
X150738095Y-66452381D01*
X151023809Y-66452381D02*
X151023809Y-65452381D01*
X150928571Y-65595238D01*
X150833333Y-65690476D01*
X150738095Y-65738095D01*
X151642857Y-65452381D02*
X152261905Y-65452381D01*
X151928571Y-65833333D01*
X152071429Y-65833333D01*
X152166667Y-65880952D01*
X152214286Y-65928571D01*
X152261905Y-66023810D01*
X152261905Y-66261905D01*
X152214286Y-66357143D01*
X152166667Y-66404762D01*
X152071429Y-66452381D01*
X151785714Y-66452381D01*
X151690476Y-66404762D01*
X151642857Y-66357143D01*
X160357143Y-68357143D02*
X160309524Y-68404762D01*
X160166667Y-68452381D01*
X160071429Y-68452381D01*
X159928571Y-68404762D01*
X159833333Y-68309524D01*
X159785714Y-68214286D01*
X159738095Y-68023810D01*
X159738095Y-67880952D01*
X159785714Y-67690476D01*
X159833333Y-67595238D01*
X159928571Y-67500000D01*
X160071429Y-67452381D01*
X160166667Y-67452381D01*
X160309524Y-67500000D01*
X160357143Y-67547619D01*
X161309524Y-68452381D02*
X160738095Y-68452381D01*
X161023809Y-68452381D02*
X161023809Y-67452381D01*
X160928571Y-67595238D01*
X160833333Y-67690476D01*
X160738095Y-67738095D01*
X162166667Y-67785714D02*
X162166667Y-68452381D01*
X161928571Y-67404762D02*
X161690476Y-68119048D01*
X162309524Y-68119048D01*
X158057143Y-78642857D02*
X158104762Y-78690476D01*
X158152381Y-78833333D01*
X158152381Y-78928571D01*
X158104762Y-79071429D01*
X158009524Y-79166667D01*
X157914286Y-79214286D01*
X157723810Y-79261905D01*
X157580952Y-79261905D01*
X157390476Y-79214286D01*
X157295238Y-79166667D01*
X157200000Y-79071429D01*
X157152381Y-78928571D01*
X157152381Y-78833333D01*
X157200000Y-78690476D01*
X157247619Y-78642857D01*
X158152381Y-77690476D02*
X158152381Y-78261905D01*
X158152381Y-77976191D02*
X157152381Y-77976191D01*
X157295238Y-78071429D01*
X157390476Y-78166667D01*
X157438095Y-78261905D01*
X157152381Y-76785714D02*
X157152381Y-77261905D01*
X157628571Y-77309524D01*
X157580952Y-77261905D01*
X157533333Y-77166667D01*
X157533333Y-76928571D01*
X157580952Y-76833333D01*
X157628571Y-76785714D01*
X157723810Y-76738095D01*
X157961905Y-76738095D01*
X158057143Y-76785714D01*
X158104762Y-76833333D01*
X158152381Y-76928571D01*
X158152381Y-77166667D01*
X158104762Y-77261905D01*
X158057143Y-77309524D01*
X158357143Y-86642857D02*
X158404762Y-86690476D01*
X158452381Y-86833333D01*
X158452381Y-86928571D01*
X158404762Y-87071429D01*
X158309524Y-87166667D01*
X158214286Y-87214286D01*
X158023810Y-87261905D01*
X157880952Y-87261905D01*
X157690476Y-87214286D01*
X157595238Y-87166667D01*
X157500000Y-87071429D01*
X157452381Y-86928571D01*
X157452381Y-86833333D01*
X157500000Y-86690476D01*
X157547619Y-86642857D01*
X158452381Y-85690476D02*
X158452381Y-86261905D01*
X158452381Y-85976191D02*
X157452381Y-85976191D01*
X157595238Y-86071429D01*
X157690476Y-86166667D01*
X157738095Y-86261905D01*
X157452381Y-84833333D02*
X157452381Y-85023810D01*
X157500000Y-85119048D01*
X157547619Y-85166667D01*
X157690476Y-85261905D01*
X157880952Y-85309524D01*
X158261905Y-85309524D01*
X158357143Y-85261905D01*
X158404762Y-85214286D01*
X158452381Y-85119048D01*
X158452381Y-84928571D01*
X158404762Y-84833333D01*
X158357143Y-84785714D01*
X158261905Y-84738095D01*
X158023810Y-84738095D01*
X157928571Y-84785714D01*
X157880952Y-84833333D01*
X157833333Y-84928571D01*
X157833333Y-85119048D01*
X157880952Y-85214286D01*
X157928571Y-85261905D01*
X158023810Y-85309524D01*
X158357143Y-94642857D02*
X158404762Y-94690476D01*
X158452381Y-94833333D01*
X158452381Y-94928571D01*
X158404762Y-95071429D01*
X158309524Y-95166667D01*
X158214286Y-95214286D01*
X158023810Y-95261905D01*
X157880952Y-95261905D01*
X157690476Y-95214286D01*
X157595238Y-95166667D01*
X157500000Y-95071429D01*
X157452381Y-94928571D01*
X157452381Y-94833333D01*
X157500000Y-94690476D01*
X157547619Y-94642857D01*
X158452381Y-93690476D02*
X158452381Y-94261905D01*
X158452381Y-93976191D02*
X157452381Y-93976191D01*
X157595238Y-94071429D01*
X157690476Y-94166667D01*
X157738095Y-94261905D01*
X157452381Y-93357143D02*
X157452381Y-92690476D01*
X158452381Y-93119048D01*
X159357143Y-99057143D02*
X159309524Y-99104762D01*
X159166667Y-99152381D01*
X159071429Y-99152381D01*
X158928571Y-99104762D01*
X158833333Y-99009524D01*
X158785714Y-98914286D01*
X158738095Y-98723810D01*
X158738095Y-98580952D01*
X158785714Y-98390476D01*
X158833333Y-98295238D01*
X158928571Y-98200000D01*
X159071429Y-98152381D01*
X159166667Y-98152381D01*
X159309524Y-98200000D01*
X159357143Y-98247619D01*
X160309524Y-99152381D02*
X159738095Y-99152381D01*
X160023809Y-99152381D02*
X160023809Y-98152381D01*
X159928571Y-98295238D01*
X159833333Y-98390476D01*
X159738095Y-98438095D01*
X160880952Y-98580952D02*
X160785714Y-98533333D01*
X160738095Y-98485714D01*
X160690476Y-98390476D01*
X160690476Y-98342857D01*
X160738095Y-98247619D01*
X160785714Y-98200000D01*
X160880952Y-98152381D01*
X161071429Y-98152381D01*
X161166667Y-98200000D01*
X161214286Y-98247619D01*
X161261905Y-98342857D01*
X161261905Y-98390476D01*
X161214286Y-98485714D01*
X161166667Y-98533333D01*
X161071429Y-98580952D01*
X160880952Y-98580952D01*
X160785714Y-98628571D01*
X160738095Y-98676190D01*
X160690476Y-98771429D01*
X160690476Y-98961905D01*
X160738095Y-99057143D01*
X160785714Y-99104762D01*
X160880952Y-99152381D01*
X161071429Y-99152381D01*
X161166667Y-99104762D01*
X161214286Y-99057143D01*
X161261905Y-98961905D01*
X161261905Y-98771429D01*
X161214286Y-98676190D01*
X161166667Y-98628571D01*
X161071429Y-98580952D01*
X177261905Y-109452381D02*
X177261905Y-108452381D01*
X177500000Y-108452381D01*
X177642858Y-108500000D01*
X177738096Y-108595238D01*
X177785715Y-108690476D01*
X177833334Y-108880952D01*
X177833334Y-109023810D01*
X177785715Y-109214286D01*
X177738096Y-109309524D01*
X177642858Y-109404762D01*
X177500000Y-109452381D01*
X177261905Y-109452381D01*
X178785715Y-109452381D02*
X178214286Y-109452381D01*
X178500000Y-109452381D02*
X178500000Y-108452381D01*
X178404762Y-108595238D01*
X178309524Y-108690476D01*
X178214286Y-108738095D01*
X111833334Y-98452381D02*
X111500000Y-97976190D01*
X111261905Y-98452381D02*
X111261905Y-97452381D01*
X111642858Y-97452381D01*
X111738096Y-97500000D01*
X111785715Y-97547619D01*
X111833334Y-97642857D01*
X111833334Y-97785714D01*
X111785715Y-97880952D01*
X111738096Y-97928571D01*
X111642858Y-97976190D01*
X111261905Y-97976190D01*
X112309524Y-98452381D02*
X112500000Y-98452381D01*
X112595239Y-98404762D01*
X112642858Y-98357143D01*
X112738096Y-98214286D01*
X112785715Y-98023810D01*
X112785715Y-97642857D01*
X112738096Y-97547619D01*
X112690477Y-97500000D01*
X112595239Y-97452381D01*
X112404762Y-97452381D01*
X112309524Y-97500000D01*
X112261905Y-97547619D01*
X112214286Y-97642857D01*
X112214286Y-97880952D01*
X112261905Y-97976190D01*
X112309524Y-98023810D01*
X112404762Y-98071429D01*
X112595239Y-98071429D01*
X112690477Y-98023810D01*
X112738096Y-97976190D01*
X112785715Y-97880952D01*
X116357143Y-81752381D02*
X116023809Y-81276190D01*
X115785714Y-81752381D02*
X115785714Y-80752381D01*
X116166667Y-80752381D01*
X116261905Y-80800000D01*
X116309524Y-80847619D01*
X116357143Y-80942857D01*
X116357143Y-81085714D01*
X116309524Y-81180952D01*
X116261905Y-81228571D01*
X116166667Y-81276190D01*
X115785714Y-81276190D01*
X117309524Y-81752381D02*
X116738095Y-81752381D01*
X117023809Y-81752381D02*
X117023809Y-80752381D01*
X116928571Y-80895238D01*
X116833333Y-80990476D01*
X116738095Y-81038095D01*
X117928571Y-80752381D02*
X118023810Y-80752381D01*
X118119048Y-80800000D01*
X118166667Y-80847619D01*
X118214286Y-80942857D01*
X118261905Y-81133333D01*
X118261905Y-81371429D01*
X118214286Y-81561905D01*
X118166667Y-81657143D01*
X118119048Y-81704762D01*
X118023810Y-81752381D01*
X117928571Y-81752381D01*
X117833333Y-81704762D01*
X117785714Y-81657143D01*
X117738095Y-81561905D01*
X117690476Y-81371429D01*
X117690476Y-81133333D01*
X117738095Y-80942857D01*
X117785714Y-80847619D01*
X117833333Y-80800000D01*
X117928571Y-80752381D01*
X135357143Y-56152381D02*
X135023809Y-55676190D01*
X134785714Y-56152381D02*
X134785714Y-55152381D01*
X135166667Y-55152381D01*
X135261905Y-55200000D01*
X135309524Y-55247619D01*
X135357143Y-55342857D01*
X135357143Y-55485714D01*
X135309524Y-55580952D01*
X135261905Y-55628571D01*
X135166667Y-55676190D01*
X134785714Y-55676190D01*
X136309524Y-56152381D02*
X135738095Y-56152381D01*
X136023809Y-56152381D02*
X136023809Y-55152381D01*
X135928571Y-55295238D01*
X135833333Y-55390476D01*
X135738095Y-55438095D01*
X137261905Y-56152381D02*
X136690476Y-56152381D01*
X136976190Y-56152381D02*
X136976190Y-55152381D01*
X136880952Y-55295238D01*
X136785714Y-55390476D01*
X136690476Y-55438095D01*
X143357143Y-56152381D02*
X143023809Y-55676190D01*
X142785714Y-56152381D02*
X142785714Y-55152381D01*
X143166667Y-55152381D01*
X143261905Y-55200000D01*
X143309524Y-55247619D01*
X143357143Y-55342857D01*
X143357143Y-55485714D01*
X143309524Y-55580952D01*
X143261905Y-55628571D01*
X143166667Y-55676190D01*
X142785714Y-55676190D01*
X144309524Y-56152381D02*
X143738095Y-56152381D01*
X144023809Y-56152381D02*
X144023809Y-55152381D01*
X143928571Y-55295238D01*
X143833333Y-55390476D01*
X143738095Y-55438095D01*
X144690476Y-55247619D02*
X144738095Y-55200000D01*
X144833333Y-55152381D01*
X145071429Y-55152381D01*
X145166667Y-55200000D01*
X145214286Y-55247619D01*
X145261905Y-55342857D01*
X145261905Y-55438095D01*
X145214286Y-55580952D01*
X144642857Y-56152381D01*
X145261905Y-56152381D01*
X122152381Y-85642857D02*
X121676190Y-85976191D01*
X122152381Y-86214286D02*
X121152381Y-86214286D01*
X121152381Y-85833333D01*
X121200000Y-85738095D01*
X121247619Y-85690476D01*
X121342857Y-85642857D01*
X121485714Y-85642857D01*
X121580952Y-85690476D01*
X121628571Y-85738095D01*
X121676190Y-85833333D01*
X121676190Y-86214286D01*
X122152381Y-84690476D02*
X122152381Y-85261905D01*
X122152381Y-84976191D02*
X121152381Y-84976191D01*
X121295238Y-85071429D01*
X121390476Y-85166667D01*
X121438095Y-85261905D01*
X121152381Y-84357143D02*
X121152381Y-83738095D01*
X121533333Y-84071429D01*
X121533333Y-83928571D01*
X121580952Y-83833333D01*
X121628571Y-83785714D01*
X121723810Y-83738095D01*
X121961905Y-83738095D01*
X122057143Y-83785714D01*
X122104762Y-83833333D01*
X122152381Y-83928571D01*
X122152381Y-84214286D01*
X122104762Y-84309524D01*
X122057143Y-84357143D01*
X201357143Y-106752381D02*
X201023809Y-106276190D01*
X200785714Y-106752381D02*
X200785714Y-105752381D01*
X201166667Y-105752381D01*
X201261905Y-105800000D01*
X201309524Y-105847619D01*
X201357143Y-105942857D01*
X201357143Y-106085714D01*
X201309524Y-106180952D01*
X201261905Y-106228571D01*
X201166667Y-106276190D01*
X200785714Y-106276190D01*
X202309524Y-106752381D02*
X201738095Y-106752381D01*
X202023809Y-106752381D02*
X202023809Y-105752381D01*
X201928571Y-105895238D01*
X201833333Y-105990476D01*
X201738095Y-106038095D01*
X203166667Y-106085714D02*
X203166667Y-106752381D01*
X202928571Y-105704762D02*
X202690476Y-106419048D01*
X203309524Y-106419048D01*
X113152381Y-110642857D02*
X112676190Y-110976191D01*
X113152381Y-111214286D02*
X112152381Y-111214286D01*
X112152381Y-110833333D01*
X112200000Y-110738095D01*
X112247619Y-110690476D01*
X112342857Y-110642857D01*
X112485714Y-110642857D01*
X112580952Y-110690476D01*
X112628571Y-110738095D01*
X112676190Y-110833333D01*
X112676190Y-111214286D01*
X113152381Y-109690476D02*
X113152381Y-110261905D01*
X113152381Y-109976191D02*
X112152381Y-109976191D01*
X112295238Y-110071429D01*
X112390476Y-110166667D01*
X112438095Y-110261905D01*
X112152381Y-108785714D02*
X112152381Y-109261905D01*
X112628571Y-109309524D01*
X112580952Y-109261905D01*
X112533333Y-109166667D01*
X112533333Y-108928571D01*
X112580952Y-108833333D01*
X112628571Y-108785714D01*
X112723810Y-108738095D01*
X112961905Y-108738095D01*
X113057143Y-108785714D01*
X113104762Y-108833333D01*
X113152381Y-108928571D01*
X113152381Y-109166667D01*
X113104762Y-109261905D01*
X113057143Y-109309524D01*
X121752381Y-110642857D02*
X121276190Y-110976191D01*
X121752381Y-111214286D02*
X120752381Y-111214286D01*
X120752381Y-110833333D01*
X120800000Y-110738095D01*
X120847619Y-110690476D01*
X120942857Y-110642857D01*
X121085714Y-110642857D01*
X121180952Y-110690476D01*
X121228571Y-110738095D01*
X121276190Y-110833333D01*
X121276190Y-111214286D01*
X121752381Y-109690476D02*
X121752381Y-110261905D01*
X121752381Y-109976191D02*
X120752381Y-109976191D01*
X120895238Y-110071429D01*
X120990476Y-110166667D01*
X121038095Y-110261905D01*
X120752381Y-108833333D02*
X120752381Y-109023810D01*
X120800000Y-109119048D01*
X120847619Y-109166667D01*
X120990476Y-109261905D01*
X121180952Y-109309524D01*
X121561905Y-109309524D01*
X121657143Y-109261905D01*
X121704762Y-109214286D01*
X121752381Y-109119048D01*
X121752381Y-108928571D01*
X121704762Y-108833333D01*
X121657143Y-108785714D01*
X121561905Y-108738095D01*
X121323810Y-108738095D01*
X121228571Y-108785714D01*
X121180952Y-108833333D01*
X121133333Y-108928571D01*
X121133333Y-109119048D01*
X121180952Y-109214286D01*
X121228571Y-109261905D01*
X121323810Y-109309524D01*
X201357143Y-100752381D02*
X201023809Y-100276190D01*
X200785714Y-100752381D02*
X200785714Y-99752381D01*
X201166667Y-99752381D01*
X201261905Y-99800000D01*
X201309524Y-99847619D01*
X201357143Y-99942857D01*
X201357143Y-100085714D01*
X201309524Y-100180952D01*
X201261905Y-100228571D01*
X201166667Y-100276190D01*
X200785714Y-100276190D01*
X202309524Y-100752381D02*
X201738095Y-100752381D01*
X202023809Y-100752381D02*
X202023809Y-99752381D01*
X201928571Y-99895238D01*
X201833333Y-99990476D01*
X201738095Y-100038095D01*
X202642857Y-99752381D02*
X203309524Y-99752381D01*
X202880952Y-100752381D01*
X165666667Y-55804762D02*
X165809524Y-55852381D01*
X166047620Y-55852381D01*
X166142858Y-55804762D01*
X166190477Y-55757143D01*
X166238096Y-55661905D01*
X166238096Y-55566667D01*
X166190477Y-55471429D01*
X166142858Y-55423810D01*
X166047620Y-55376190D01*
X165857143Y-55328571D01*
X165761905Y-55280952D01*
X165714286Y-55233333D01*
X165666667Y-55138095D01*
X165666667Y-55042857D01*
X165714286Y-54947619D01*
X165761905Y-54900000D01*
X165857143Y-54852381D01*
X166095239Y-54852381D01*
X166238096Y-54900000D01*
X166571429Y-54852381D02*
X166809524Y-55852381D01*
X167000001Y-55138095D01*
X167190477Y-55852381D01*
X167428572Y-54852381D01*
X168333334Y-55852381D02*
X167761905Y-55852381D01*
X168047619Y-55852381D02*
X168047619Y-54852381D01*
X167952381Y-54995238D01*
X167857143Y-55090476D01*
X167761905Y-55138095D01*
X102666667Y-56444762D02*
X102809524Y-56492381D01*
X103047620Y-56492381D01*
X103142858Y-56444762D01*
X103190477Y-56397143D01*
X103238096Y-56301905D01*
X103238096Y-56206667D01*
X103190477Y-56111429D01*
X103142858Y-56063810D01*
X103047620Y-56016190D01*
X102857143Y-55968571D01*
X102761905Y-55920952D01*
X102714286Y-55873333D01*
X102666667Y-55778095D01*
X102666667Y-55682857D01*
X102714286Y-55587619D01*
X102761905Y-55540000D01*
X102857143Y-55492381D01*
X103095239Y-55492381D01*
X103238096Y-55540000D01*
X103571429Y-55492381D02*
X103809524Y-56492381D01*
X104000001Y-55778095D01*
X104190477Y-56492381D01*
X104428572Y-55492381D01*
X104761905Y-55587619D02*
X104809524Y-55540000D01*
X104904762Y-55492381D01*
X105142858Y-55492381D01*
X105238096Y-55540000D01*
X105285715Y-55587619D01*
X105333334Y-55682857D01*
X105333334Y-55778095D01*
X105285715Y-55920952D01*
X104714286Y-56492381D01*
X105333334Y-56492381D01*
X180085714Y-73892857D02*
X180085714Y-74864286D01*
X180142857Y-74978571D01*
X180200000Y-75035714D01*
X180314286Y-75092857D01*
X180542857Y-75092857D01*
X180657143Y-75035714D01*
X180714286Y-74978571D01*
X180771429Y-74864286D01*
X180771429Y-73892857D01*
X181971429Y-75092857D02*
X181285714Y-75092857D01*
X181628572Y-75092857D02*
X181628572Y-73892857D01*
X181514286Y-74064286D01*
X181400000Y-74178571D01*
X181285714Y-74235714D01*
X97085714Y-72892857D02*
X97085714Y-73864286D01*
X97142857Y-73978571D01*
X97200000Y-74035714D01*
X97314286Y-74092857D01*
X97542857Y-74092857D01*
X97657143Y-74035714D01*
X97714286Y-73978571D01*
X97771429Y-73864286D01*
X97771429Y-72892857D01*
X98285714Y-73007143D02*
X98342857Y-72950000D01*
X98457143Y-72892857D01*
X98742857Y-72892857D01*
X98857143Y-72950000D01*
X98914286Y-73007143D01*
X98971429Y-73121429D01*
X98971429Y-73235714D01*
X98914286Y-73407143D01*
X98228572Y-74092857D01*
X98971429Y-74092857D01*
X140238095Y-72272381D02*
X140238095Y-73081905D01*
X140285714Y-73177143D01*
X140333333Y-73224762D01*
X140428571Y-73272381D01*
X140619048Y-73272381D01*
X140714286Y-73224762D01*
X140761905Y-73177143D01*
X140809524Y-73081905D01*
X140809524Y-72272381D01*
X141190476Y-72272381D02*
X141809524Y-72272381D01*
X141476190Y-72653333D01*
X141619048Y-72653333D01*
X141714286Y-72700952D01*
X141761905Y-72748571D01*
X141809524Y-72843810D01*
X141809524Y-73081905D01*
X141761905Y-73177143D01*
X141714286Y-73224762D01*
X141619048Y-73272381D01*
X141333333Y-73272381D01*
X141238095Y-73224762D01*
X141190476Y-73177143D01*
X112927381Y-89750476D02*
X113927381Y-89083809D01*
X112927381Y-89083809D02*
X113927381Y-89750476D01*
X112927381Y-88845714D02*
X112927381Y-88274285D01*
X113927381Y-88560000D02*
X112927381Y-88560000D01*
X113927381Y-87417142D02*
X113927381Y-87988571D01*
X113927381Y-87702857D02*
X112927381Y-87702857D01*
X113070238Y-87798095D01*
X113165476Y-87893333D01*
X113213095Y-87988571D01*
M02*
