G04 #@! TF.FileFunction,Soldermask,Bot*
%FSLAX46Y46*%
G04 Gerber Fmt 4.6, Leading zero omitted, Abs format (unit mm)*
G04 Created by KiCad (PCBNEW 4.0.2+dfsg1-stable) date Sat 25 May 2019 15:12:45 CEST*
%MOMM*%
G01*
G04 APERTURE LIST*
%ADD10C,0.100000*%
%ADD11R,2.032000X2.032000*%
%ADD12O,2.032000X2.032000*%
%ADD13R,2.032000X1.727200*%
%ADD14O,2.032000X1.727200*%
%ADD15C,4.000000*%
%ADD16C,1.500000*%
%ADD17C,0.650000*%
%ADD18O,0.650000X0.650000*%
%ADD19R,0.650000X4.600000*%
%ADD20C,0.400000*%
G04 APERTURE END LIST*
D10*
D11*
X127000000Y-68580000D03*
D12*
X124460000Y-68580000D03*
D11*
X127000000Y-60960000D03*
D12*
X124460000Y-60960000D03*
D13*
X194000000Y-98500000D03*
D14*
X194000000Y-101040000D03*
X194000000Y-103580000D03*
D11*
X198120000Y-60960000D03*
D12*
X200660000Y-60960000D03*
D13*
X203200000Y-78740000D03*
D14*
X203200000Y-81280000D03*
X203200000Y-83820000D03*
X203200000Y-86360000D03*
D15*
X83820000Y-58928000D03*
X208280000Y-109728000D03*
X83820000Y-112268000D03*
X208280000Y-58928000D03*
D16*
X137160000Y-63500000D03*
X137160000Y-68380000D03*
D17*
X131572000Y-124466000D03*
D18*
X151572000Y-124466000D03*
D19*
X151572000Y-122166000D03*
X131572000Y-122166000D03*
X132572000Y-122166000D03*
X133572000Y-122166000D03*
X134572000Y-122166000D03*
X135572000Y-122166000D03*
X136572000Y-122166000D03*
X137572000Y-122166000D03*
X138572000Y-122166000D03*
X139572000Y-122166000D03*
X140572000Y-122166000D03*
X141572000Y-122166000D03*
X146572000Y-122166000D03*
X147572000Y-122166000D03*
X148572000Y-122166000D03*
X149572000Y-122166000D03*
X150572000Y-122166000D03*
X144572000Y-122166000D03*
X145572000Y-122166000D03*
D18*
X134572000Y-124466000D03*
X135572000Y-124466000D03*
X136572000Y-124466000D03*
X137572000Y-124466000D03*
X138572000Y-124466000D03*
X139572000Y-124466000D03*
X140572000Y-124466000D03*
X146572000Y-124466000D03*
X147572000Y-124466000D03*
X133572000Y-124466000D03*
X145572000Y-124466000D03*
X148572000Y-124466000D03*
X141572000Y-124466000D03*
X144572000Y-124466000D03*
X149572000Y-124466000D03*
X150572000Y-124466000D03*
X132572000Y-124466000D03*
D19*
X152572000Y-122166000D03*
X153572000Y-122166000D03*
X154572000Y-122166000D03*
X155572000Y-122166000D03*
X156572000Y-122166000D03*
X157572000Y-122166000D03*
X158572000Y-122166000D03*
X159572000Y-122166000D03*
X160572000Y-122166000D03*
X161572000Y-122166000D03*
X162572000Y-122166000D03*
X163572000Y-122166000D03*
X164572000Y-122166000D03*
D18*
X152572000Y-124466000D03*
X153572000Y-124466000D03*
X154572000Y-124466000D03*
X155572000Y-124466000D03*
X156572000Y-124466000D03*
X157572000Y-124466000D03*
X158572000Y-124466000D03*
X159572000Y-124466000D03*
X160572000Y-124466000D03*
X161572000Y-124466000D03*
X162572000Y-124466000D03*
X163572000Y-124466000D03*
X164572000Y-124466000D03*
D20*
X153572000Y-119427700D03*
X124132600Y-77362600D03*
X157540000Y-119251700D03*
X145972800Y-119266500D03*
X149296800Y-119071300D03*
X138725900Y-107088600D03*
X153950300Y-118345700D03*
X162771100Y-115926700D03*
X161191700Y-118433000D03*
X138599500Y-102826400D03*
X96479900Y-105063400D03*
X92567400Y-73660000D03*
X103657300Y-78122400D03*
X100276300Y-93740700D03*
X108368300Y-109429800D03*
X142158700Y-109633700D03*
X150257000Y-106563300D03*
X119774800Y-105798100D03*
X106112300Y-94215800D03*
X147533000Y-114144400D03*
X110572500Y-112437700D03*
X99728800Y-80035900D03*
X149820500Y-117520000D03*
X149194700Y-111344300D03*
X104796200Y-110859900D03*
X99140000Y-79705800D03*
X142975900Y-113793800D03*
X106234400Y-113331600D03*
X95285100Y-82877300D03*
X128057600Y-114723600D03*
X108269600Y-114936200D03*
X94777400Y-84762100D03*
X138004100Y-115982200D03*
X109872000Y-114525000D03*
X97882200Y-84300700D03*
X161178500Y-116707200D03*
X107579400Y-80029700D03*
X132271400Y-85426000D03*
X103303900Y-99131400D03*
X165358600Y-116231200D03*
X163341900Y-114214500D03*
X164214700Y-83374000D03*
X163390400Y-118069500D03*
X161453500Y-116132600D03*
X164824400Y-84794000D03*
X104985500Y-95429300D03*
X115606100Y-104129300D03*
X161577100Y-104067300D03*
X171674300Y-87511600D03*
X146657700Y-86095000D03*
X143660100Y-107613900D03*
X109136200Y-108165000D03*
X101640000Y-97752100D03*
X120422500Y-87915400D03*
X102140000Y-95448500D03*
X155077800Y-88473800D03*
X150159200Y-88677800D03*
X154536400Y-115065200D03*
X118489100Y-111393500D03*
X102669700Y-98310600D03*
X150976400Y-89906700D03*
X125303300Y-90892100D03*
X121827100Y-98814000D03*
X150717600Y-91175000D03*
X104428900Y-97799000D03*
X132600500Y-91925700D03*
X150468700Y-118813100D03*
X149249600Y-108694700D03*
X121317900Y-108402600D03*
X104306800Y-95441700D03*
X149726000Y-92381000D03*
X129618600Y-91111300D03*
X105379600Y-84828100D03*
X148664600Y-118373400D03*
X148526900Y-90544900D03*
X119405900Y-90196100D03*
X103221800Y-85353400D03*
X148577300Y-89270000D03*
X148135800Y-117961800D03*
X142485300Y-115750900D03*
X118316800Y-88152000D03*
X107021500Y-85924600D03*
X142308900Y-86255500D03*
X150203400Y-86381900D03*
X119484100Y-88635000D03*
X106561300Y-86463300D03*
X140400300Y-118885200D03*
X140086300Y-88493600D03*
X141865600Y-114372600D03*
X145883000Y-93715000D03*
X106827900Y-114093400D03*
X95232500Y-86948800D03*
X138794500Y-99694800D03*
X164538000Y-99728500D03*
X165368900Y-92303800D03*
X136052800Y-116490500D03*
X137839600Y-92374500D03*
X130244100Y-91551800D03*
X109052900Y-87433500D03*
X133096400Y-116732800D03*
X98191300Y-88043800D03*
X128811800Y-115045200D03*
X98153800Y-88703700D03*
X104823900Y-82660300D03*
X130281700Y-93715000D03*
X140985300Y-93984100D03*
X140985300Y-103992200D03*
X114846800Y-86256600D03*
X155540000Y-115689400D03*
X156087800Y-119179500D03*
X154719200Y-116991600D03*
X120293600Y-111987400D03*
X105531700Y-97756800D03*
X158572000Y-117306900D03*
X113817500Y-87288800D03*
X160426400Y-117387900D03*
X113357600Y-74064200D03*
X147945000Y-119167700D03*
X146238800Y-82613100D03*
X150703400Y-81281900D03*
X145896600Y-76475100D03*
X117637600Y-76475100D03*
X108326300Y-82960300D03*
X103841900Y-80031500D03*
X123179300Y-85511900D03*
X146083400Y-116485100D03*
X145605200Y-82609700D03*
X165505200Y-80717600D03*
X168822100Y-80700300D03*
X139834900Y-117028600D03*
X144905100Y-81186600D03*
X138449300Y-89213700D03*
X119395500Y-90813400D03*
X102640000Y-82420900D03*
X139278500Y-116075000D03*
X138770300Y-81212500D03*
X125202200Y-78338300D03*
X102657800Y-79680400D03*
X135445200Y-115144700D03*
X137255500Y-81251900D03*
X126661900Y-79127100D03*
X103287600Y-79321400D03*
X132184600Y-79791100D03*
X123622200Y-81167600D03*
X107537000Y-83562100D03*
X152735000Y-81242900D03*
X132530600Y-114934800D03*
X133117600Y-86602100D03*
X128987000Y-83911700D03*
X134596400Y-118342000D03*
X134509100Y-82285000D03*
X135243300Y-106706000D03*
X102659500Y-103296800D03*
X100850500Y-83942500D03*
X130297100Y-115511700D03*
X133071800Y-115632500D03*
X134192400Y-85446400D03*
X131889300Y-119455800D03*
X99028200Y-82938600D03*
X155176300Y-89118200D03*
X157020300Y-105774700D03*
X146333300Y-101367900D03*
X144186500Y-105200900D03*
X125511200Y-105200900D03*
X106605800Y-92422000D03*
X100276300Y-91594000D03*
X115225800Y-103580200D03*
X113376000Y-95848400D03*
X110215900Y-94956800D03*
X105742400Y-80032900D03*
X160992100Y-108510300D03*
X106419200Y-94782900D03*
X115364800Y-102979800D03*
X139550300Y-96056600D03*
X155152100Y-96202400D03*
X107665300Y-91647600D03*
X131737500Y-96499000D03*
X100588100Y-98205800D03*
X115612700Y-96533200D03*
X104327600Y-89900000D03*
X115171200Y-97755700D03*
X112170300Y-95939600D03*
X120859100Y-104628400D03*
X163962000Y-105262400D03*
X165523600Y-84890200D03*
X148610500Y-85457100D03*
X154166500Y-108713700D03*
X128596100Y-107952300D03*
X124748500Y-85590300D03*
X127654300Y-83825600D03*
X115025600Y-69994600D03*
X128357900Y-83876300D03*
X110171300Y-87536900D03*
X115444300Y-74997400D03*
X113134000Y-88467200D03*
X123658300Y-82026800D03*
X106950900Y-99001000D03*
X104569900Y-101094300D03*
X106112600Y-98287600D03*
X109067300Y-100798900D03*
X107375500Y-99425600D03*
X111542800Y-105402500D03*
X155252900Y-119459800D03*
X151572000Y-119447500D03*
X121661300Y-100384200D03*
X152087500Y-97497700D03*
X141804300Y-115864400D03*
X156039500Y-117920100D03*
X145115200Y-115012800D03*
X119127800Y-94056200D03*
X133752500Y-101600000D03*
X154118800Y-116812200D03*
X152003100Y-116812200D03*
X138285200Y-113922300D03*
X107098300Y-91080800D03*
X114547400Y-74997400D03*
X110664400Y-86998600D03*
X113941300Y-87889200D03*
X180822200Y-78074600D03*
X165184700Y-98885400D03*
X137611400Y-101839600D03*
X156800100Y-114363900D03*
X122460900Y-108852900D03*
X105555100Y-92586700D03*
X171313100Y-104716900D03*
X146333300Y-103542000D03*
X142944600Y-110566600D03*
M02*
