G04 #@! TF.FileFunction,Soldermask,Bot*
%FSLAX46Y46*%
G04 Gerber Fmt 4.6, Leading zero omitted, Abs format (unit mm)*
G04 Created by KiCad (PCBNEW 4.0.2+dfsg1-stable) date Sun 02 Jun 2019 18:20:28 CEST*
%MOMM*%
G01*
G04 APERTURE LIST*
%ADD10C,0.100000*%
%ADD11C,0.650000*%
%ADD12O,0.650000X0.650000*%
%ADD13R,0.650000X4.600000*%
%ADD14C,1.500000*%
%ADD15C,4.000000*%
%ADD16R,2.032000X1.727200*%
%ADD17O,2.032000X1.727200*%
%ADD18R,2.032000X2.032000*%
%ADD19O,2.032000X2.032000*%
%ADD20C,0.400000*%
G04 APERTURE END LIST*
D10*
D11*
X131572000Y-124466000D03*
D12*
X151572000Y-124466000D03*
D13*
X151572000Y-122166000D03*
X131572000Y-122166000D03*
X132572000Y-122166000D03*
X133572000Y-122166000D03*
X134572000Y-122166000D03*
X135572000Y-122166000D03*
X136572000Y-122166000D03*
X137572000Y-122166000D03*
X138572000Y-122166000D03*
X139572000Y-122166000D03*
X140572000Y-122166000D03*
X141572000Y-122166000D03*
X146572000Y-122166000D03*
X147572000Y-122166000D03*
X148572000Y-122166000D03*
X149572000Y-122166000D03*
X150572000Y-122166000D03*
X144572000Y-122166000D03*
X145572000Y-122166000D03*
D12*
X134572000Y-124466000D03*
X135572000Y-124466000D03*
X136572000Y-124466000D03*
X137572000Y-124466000D03*
X138572000Y-124466000D03*
X139572000Y-124466000D03*
X140572000Y-124466000D03*
X146572000Y-124466000D03*
X147572000Y-124466000D03*
X133572000Y-124466000D03*
X145572000Y-124466000D03*
X148572000Y-124466000D03*
X141572000Y-124466000D03*
X144572000Y-124466000D03*
X149572000Y-124466000D03*
X150572000Y-124466000D03*
X132572000Y-124466000D03*
D13*
X152572000Y-122166000D03*
X153572000Y-122166000D03*
X154572000Y-122166000D03*
X155572000Y-122166000D03*
X156572000Y-122166000D03*
X157572000Y-122166000D03*
X158572000Y-122166000D03*
X159572000Y-122166000D03*
X160572000Y-122166000D03*
X161572000Y-122166000D03*
X162572000Y-122166000D03*
X163572000Y-122166000D03*
X164572000Y-122166000D03*
D12*
X152572000Y-124466000D03*
X153572000Y-124466000D03*
X154572000Y-124466000D03*
X155572000Y-124466000D03*
X156572000Y-124466000D03*
X157572000Y-124466000D03*
X158572000Y-124466000D03*
X159572000Y-124466000D03*
X160572000Y-124466000D03*
X161572000Y-124466000D03*
X162572000Y-124466000D03*
X163572000Y-124466000D03*
X164572000Y-124466000D03*
D14*
X137160000Y-63500000D03*
X137160000Y-68380000D03*
D15*
X208280000Y-58928000D03*
X83820000Y-112268000D03*
X208280000Y-109728000D03*
X83820000Y-58928000D03*
D16*
X203200000Y-78740000D03*
D17*
X203200000Y-81280000D03*
X203200000Y-83820000D03*
X203200000Y-86360000D03*
D18*
X198120000Y-60960000D03*
D19*
X200660000Y-60960000D03*
D16*
X194000000Y-98500000D03*
D17*
X194000000Y-101040000D03*
X194000000Y-103580000D03*
D18*
X127000000Y-60960000D03*
D19*
X124460000Y-60960000D03*
D18*
X127000000Y-68580000D03*
D19*
X124460000Y-68580000D03*
D20*
X118290400Y-88274300D03*
X145827900Y-105658500D03*
X145426200Y-111839800D03*
X171166600Y-101600000D03*
X165111100Y-110836900D03*
X165157000Y-116757900D03*
X149495200Y-119463900D03*
X135749400Y-113314500D03*
X128705800Y-112976600D03*
X109816200Y-91834900D03*
X109188300Y-94537400D03*
X120640300Y-91559700D03*
X109640000Y-82628500D03*
X140779500Y-112874000D03*
X150433000Y-118150700D03*
X153471700Y-119440400D03*
X153468900Y-114306400D03*
X157464000Y-119455700D03*
X102488000Y-74247600D03*
X105140000Y-82378900D03*
X109915800Y-98287700D03*
X126686100Y-111363100D03*
X141792400Y-111588400D03*
X146911900Y-109336900D03*
X99639900Y-80025200D03*
X105161200Y-113992600D03*
X148112200Y-119162500D03*
X98107500Y-84131900D03*
X152171000Y-119161000D03*
X147413500Y-108886600D03*
X107019300Y-110651500D03*
X94777700Y-87805000D03*
X106326100Y-114740500D03*
X145388200Y-113360900D03*
X109102500Y-95430400D03*
X113344700Y-97055400D03*
X130503800Y-97822700D03*
X109140000Y-97762300D03*
X126271900Y-111953200D03*
X138997300Y-112038700D03*
X107941300Y-80030200D03*
X111161900Y-71680300D03*
X148743800Y-58412300D03*
X163546900Y-115089700D03*
X178268900Y-83555000D03*
X157545800Y-83378100D03*
X169853700Y-83468000D03*
X140789900Y-106216500D03*
X107814700Y-109295700D03*
X100084800Y-97905000D03*
X168772700Y-88386500D03*
X142792100Y-84852900D03*
X135270800Y-108671900D03*
X104558200Y-111102300D03*
X97104400Y-98771300D03*
X165049300Y-89189200D03*
X144709100Y-86095000D03*
X135855800Y-104568200D03*
X109390000Y-107209300D03*
X101640000Y-97963100D03*
X129745000Y-89621900D03*
X126633500Y-100091300D03*
X117712100Y-101638900D03*
X104159300Y-98425000D03*
X162726700Y-90609500D03*
X150024900Y-91460100D03*
X147265000Y-88635000D03*
X161479100Y-91304200D03*
X164800700Y-91738200D03*
X102533100Y-95442100D03*
X159376400Y-92995400D03*
X159204000Y-90136000D03*
X159984600Y-92995400D03*
X103181000Y-95424500D03*
X150043500Y-89492100D03*
X174001700Y-91428200D03*
X168330300Y-96810200D03*
X158490200Y-96810200D03*
X156138200Y-94266900D03*
X156270000Y-90923700D03*
X103612100Y-97768100D03*
X121058500Y-104263600D03*
X153205900Y-103030800D03*
X141061500Y-106886900D03*
X108173400Y-100791300D03*
X105965100Y-97757000D03*
X149024400Y-117576500D03*
X150809100Y-93948900D03*
X172896300Y-90468900D03*
X175501100Y-92542200D03*
X152223000Y-116054500D03*
X155638200Y-95535700D03*
X114514100Y-97044600D03*
X110553000Y-93122500D03*
X100387900Y-89137200D03*
X98092600Y-84872400D03*
X160351100Y-89905000D03*
X158104200Y-92691900D03*
X110575800Y-89015200D03*
X106957500Y-88976800D03*
X104901400Y-85400000D03*
X127845600Y-114140000D03*
X128981300Y-90147200D03*
X150744800Y-85194300D03*
X149185600Y-86735600D03*
X114549500Y-89688200D03*
X109360800Y-85683000D03*
X137496300Y-116139600D03*
X153628300Y-88521000D03*
X139882000Y-105124600D03*
X110062900Y-108185000D03*
X100515200Y-86426000D03*
X140225300Y-118292000D03*
X146420800Y-88722900D03*
X131586200Y-93579500D03*
X128895500Y-99938100D03*
X117749400Y-103322100D03*
X98576300Y-86934600D03*
X129827600Y-107142900D03*
X136042900Y-107142900D03*
X136876800Y-117644700D03*
X95288100Y-87452300D03*
X106938700Y-115521100D03*
X155294300Y-92165500D03*
X145292600Y-93663800D03*
X142250900Y-92445000D03*
X136136200Y-119219900D03*
X108460600Y-86237000D03*
X126935200Y-115624100D03*
X109394200Y-88016300D03*
X124201600Y-103482800D03*
X131604800Y-102657500D03*
X133211800Y-118468600D03*
X145040900Y-107159400D03*
X162134400Y-93589000D03*
X161097800Y-105774700D03*
X144592800Y-94450100D03*
X142193700Y-104960100D03*
X132111600Y-93255700D03*
X109940000Y-84850800D03*
X114315900Y-86900000D03*
X130825800Y-111363200D03*
X155432800Y-114964000D03*
X155157000Y-118482300D03*
X105310900Y-95439100D03*
X108988900Y-101461900D03*
X156990000Y-109208300D03*
X156440700Y-118844700D03*
X109605200Y-87400000D03*
X126648200Y-107605900D03*
X152230200Y-117136400D03*
X148943700Y-108918400D03*
X101223600Y-70899000D03*
X161053800Y-119033300D03*
X101223600Y-76803300D03*
X168184500Y-82285000D03*
X164587800Y-82628100D03*
X104340800Y-82359400D03*
X114810600Y-74213700D03*
X136607500Y-76066100D03*
X142558900Y-82017500D03*
X148358700Y-113663200D03*
X137209400Y-81015000D03*
X134419100Y-115190700D03*
X131265900Y-74312500D03*
X120338200Y-71911400D03*
X103487400Y-80017500D03*
X137482600Y-79745000D03*
X131586100Y-75237400D03*
X115589200Y-74238300D03*
X107301700Y-83054600D03*
X134987000Y-116256700D03*
X151953000Y-78624400D03*
X146482800Y-78440400D03*
X115979500Y-76607600D03*
X109109500Y-84848000D03*
X154854100Y-78624400D03*
X140221500Y-117622700D03*
X107929700Y-84638200D03*
X118096000Y-75000400D03*
X130518600Y-75035800D03*
X133049600Y-79745000D03*
X136294300Y-118273100D03*
X119522900Y-103403100D03*
X101049100Y-82378200D03*
X167755800Y-81015000D03*
X157918100Y-82835300D03*
X135251100Y-82920000D03*
X134272700Y-99300700D03*
X128142400Y-101768700D03*
X130306700Y-115115700D03*
X103068900Y-79344700D03*
X133389600Y-119462400D03*
X133276700Y-84011700D03*
X136429700Y-59859700D03*
X104840600Y-58795900D03*
X100934300Y-116060500D03*
X98442700Y-83021500D03*
X146387900Y-83555000D03*
X165500900Y-83555000D03*
X164708600Y-84465200D03*
X153839800Y-84407800D03*
X152799100Y-87439500D03*
X151104800Y-88522700D03*
X157450700Y-105484400D03*
X158956700Y-87439500D03*
X185279600Y-109760400D03*
X123121900Y-111427600D03*
X97768200Y-91938100D03*
X119265700Y-95975500D03*
X113702800Y-90900000D03*
X124969100Y-110473200D03*
X105665400Y-80043000D03*
X178254900Y-97559100D03*
X174513100Y-104930800D03*
X117214000Y-104782600D03*
X99551700Y-95410400D03*
X110911900Y-96470400D03*
X110459800Y-93891400D03*
X153620300Y-96255000D03*
X147199900Y-97679600D03*
X173575700Y-96255000D03*
X167918700Y-104291800D03*
X138577300Y-96255000D03*
X134711300Y-109111700D03*
X97613000Y-104268800D03*
X96616500Y-98149800D03*
X114449700Y-98665300D03*
X104540200Y-94671800D03*
X151603400Y-94985000D03*
X149203000Y-96890000D03*
X137424400Y-95300000D03*
X138034400Y-96890000D03*
X132711900Y-93061300D03*
X129059400Y-100538500D03*
X116946100Y-103377600D03*
X100361000Y-89900000D03*
X152742900Y-84933100D03*
X143731800Y-90549000D03*
X132121000Y-90830400D03*
X115257600Y-91139400D03*
X142603900Y-98840700D03*
X134878400Y-98158900D03*
X134524800Y-84864900D03*
X119734300Y-71277100D03*
X109589400Y-101302900D03*
X127721200Y-84395900D03*
X117113800Y-74916800D03*
X113518800Y-88839400D03*
X109363200Y-100411100D03*
X106610400Y-95436600D03*
X108896700Y-100028500D03*
X107273200Y-95385800D03*
X155068700Y-59000000D03*
X156500000Y-62734000D03*
X156500000Y-67734100D03*
X145973200Y-114394000D03*
X151473800Y-119442500D03*
X156349200Y-115983000D03*
X143212200Y-113888100D03*
X163201200Y-116516300D03*
X163276800Y-119044900D03*
X95619300Y-100365200D03*
X95262000Y-94956200D03*
X158928700Y-101698200D03*
X139010900Y-113990000D03*
X108831200Y-79675400D03*
X111631400Y-76113000D03*
X106911100Y-87355900D03*
X108749000Y-90016800D03*
X110401200Y-92400000D03*
X132578200Y-100995000D03*
X132912600Y-114412800D03*
X149764900Y-117149800D03*
X155572000Y-119431900D03*
X120445000Y-62681200D03*
X121776700Y-57824600D03*
X107940400Y-72007200D03*
X106957500Y-88209000D03*
X133639100Y-84875600D03*
X153546500Y-81570200D03*
X161257200Y-107161300D03*
X184115100Y-107230300D03*
X108013700Y-113269500D03*
X97592200Y-93400000D03*
X170871800Y-85476200D03*
X102355700Y-93913300D03*
X146755900Y-65636800D03*
X116589000Y-82363900D03*
X132577800Y-65241500D03*
X115609900Y-82488800D03*
M02*
