G04 #@! TF.FileFunction,Soldermask,Bot*
%FSLAX46Y46*%
G04 Gerber Fmt 4.6, Leading zero omitted, Abs format (unit mm)*
G04 Created by KiCad (PCBNEW 4.0.2+dfsg1-stable) date sab 20 lug 2019 18:23:04 CEST*
%MOMM*%
G01*
G04 APERTURE LIST*
%ADD10C,0.100000*%
%ADD11C,0.650000*%
%ADD12O,0.650000X0.650000*%
%ADD13R,0.650000X4.600000*%
%ADD14C,4.000000*%
%ADD15R,2.032000X1.727200*%
%ADD16O,2.032000X1.727200*%
%ADD17R,2.032000X2.032000*%
%ADD18O,2.032000X2.032000*%
%ADD19C,1.500000*%
%ADD20C,0.400000*%
G04 APERTURE END LIST*
D10*
D11*
X131572000Y-124466000D03*
D12*
X151572000Y-124466000D03*
D13*
X151572000Y-122166000D03*
X131572000Y-122166000D03*
X132572000Y-122166000D03*
X133572000Y-122166000D03*
X134572000Y-122166000D03*
X135572000Y-122166000D03*
X136572000Y-122166000D03*
X137572000Y-122166000D03*
X138572000Y-122166000D03*
X139572000Y-122166000D03*
X140572000Y-122166000D03*
X141572000Y-122166000D03*
X146572000Y-122166000D03*
X147572000Y-122166000D03*
X148572000Y-122166000D03*
X149572000Y-122166000D03*
X150572000Y-122166000D03*
X144572000Y-122166000D03*
X145572000Y-122166000D03*
D12*
X134572000Y-124466000D03*
X135572000Y-124466000D03*
X136572000Y-124466000D03*
X137572000Y-124466000D03*
X138572000Y-124466000D03*
X139572000Y-124466000D03*
X140572000Y-124466000D03*
X146572000Y-124466000D03*
X147572000Y-124466000D03*
X133572000Y-124466000D03*
X145572000Y-124466000D03*
X148572000Y-124466000D03*
X141572000Y-124466000D03*
X144572000Y-124466000D03*
X149572000Y-124466000D03*
X150572000Y-124466000D03*
X132572000Y-124466000D03*
D13*
X152572000Y-122166000D03*
X153572000Y-122166000D03*
X154572000Y-122166000D03*
X155572000Y-122166000D03*
X156572000Y-122166000D03*
X157572000Y-122166000D03*
X158572000Y-122166000D03*
X159572000Y-122166000D03*
X160572000Y-122166000D03*
X161572000Y-122166000D03*
X162572000Y-122166000D03*
X163572000Y-122166000D03*
X164572000Y-122166000D03*
D12*
X152572000Y-124466000D03*
X153572000Y-124466000D03*
X154572000Y-124466000D03*
X155572000Y-124466000D03*
X156572000Y-124466000D03*
X157572000Y-124466000D03*
X158572000Y-124466000D03*
X159572000Y-124466000D03*
X160572000Y-124466000D03*
X161572000Y-124466000D03*
X162572000Y-124466000D03*
X163572000Y-124466000D03*
X164572000Y-124466000D03*
D14*
X208280000Y-58928000D03*
X83820000Y-112268000D03*
X208280000Y-109728000D03*
X83820000Y-58928000D03*
D15*
X203200000Y-78740000D03*
D16*
X203200000Y-81280000D03*
X203200000Y-83820000D03*
X203200000Y-86360000D03*
D17*
X198120000Y-60960000D03*
D18*
X200660000Y-60960000D03*
D15*
X194000000Y-98500000D03*
D16*
X194000000Y-101040000D03*
X194000000Y-103580000D03*
D17*
X127000000Y-110000000D03*
D18*
X124460000Y-110000000D03*
D17*
X153000000Y-58000000D03*
D18*
X150460000Y-58000000D03*
D19*
X117000000Y-91000000D03*
X117000000Y-86120000D03*
D20*
X158243100Y-98550900D03*
X157920800Y-105000000D03*
X161203200Y-80000000D03*
X161451000Y-82040200D03*
X117581700Y-73531500D03*
X120450600Y-74613200D03*
X163792000Y-76000000D03*
X160061000Y-71963900D03*
X141913900Y-110000000D03*
X142234500Y-106410500D03*
X158391800Y-84604800D03*
X150702300Y-66921900D03*
X157642400Y-119465100D03*
X153454000Y-119437300D03*
X149688200Y-119452900D03*
X144334100Y-73410300D03*
X146256500Y-89956400D03*
X149730000Y-111657100D03*
X144136900Y-71908800D03*
X143303200Y-79602700D03*
X149940800Y-115512100D03*
X152755700Y-115791100D03*
X135197300Y-106290200D03*
X142936800Y-98642300D03*
X145672300Y-111311800D03*
X157890800Y-116306200D03*
X163248300Y-118148700D03*
X163090200Y-116575000D03*
X116050800Y-69947200D03*
X146551500Y-71600900D03*
X121029700Y-69970200D03*
X124976700Y-106290200D03*
X126767500Y-82022700D03*
X126144500Y-83205800D03*
X124624600Y-88598800D03*
X142234500Y-102872800D03*
X137025200Y-73393100D03*
X142110800Y-92048000D03*
X141477800Y-92048000D03*
X143357800Y-95875500D03*
X143345400Y-96926200D03*
X155573700Y-77399100D03*
X162321800Y-106028100D03*
X161185400Y-106028100D03*
X160810600Y-117166600D03*
X150848800Y-118818200D03*
X140992800Y-76275600D03*
X133030600Y-73410400D03*
X137137000Y-78449000D03*
X149180300Y-78770300D03*
X154256900Y-118468600D03*
X145672300Y-98657000D03*
X129588500Y-103299700D03*
X139115900Y-72801500D03*
X145028300Y-95005800D03*
X136240900Y-95003900D03*
X132394200Y-73410900D03*
X144865200Y-113545000D03*
X126901400Y-91750000D03*
X130058700Y-113411700D03*
X164140900Y-115156000D03*
X162934700Y-113779200D03*
X168905700Y-110932200D03*
X166419200Y-107428200D03*
X149938500Y-106677700D03*
X145125900Y-90441900D03*
X160190500Y-108677200D03*
X147583400Y-107784700D03*
X142376200Y-92863400D03*
X143217800Y-93419200D03*
X148104500Y-103662000D03*
X158555000Y-105193100D03*
X156141900Y-101751300D03*
X149455300Y-101751300D03*
X148251100Y-96330100D03*
X135083400Y-95947600D03*
X134867600Y-98581800D03*
X134477500Y-101134800D03*
X135012500Y-92361400D03*
X151072800Y-92775400D03*
X156588800Y-91046400D03*
X156854700Y-113809300D03*
X152611000Y-114308300D03*
X145337500Y-91480800D03*
X149344900Y-118924000D03*
X152457600Y-83750000D03*
X152312700Y-87177200D03*
X150703600Y-89010900D03*
X155650100Y-116190900D03*
X147736400Y-81284900D03*
X151112400Y-114462300D03*
X146478500Y-114445600D03*
X146614800Y-118923500D03*
X149218500Y-77541700D03*
X151239800Y-116654200D03*
X140033200Y-118311500D03*
X141300700Y-108838200D03*
X161103100Y-110273700D03*
X157146800Y-78344500D03*
X148724000Y-76548200D03*
X146198300Y-82457200D03*
X138572000Y-118786200D03*
X136874000Y-82596500D03*
X127403600Y-79725600D03*
X131037400Y-114495500D03*
X127406000Y-80474200D03*
X130990200Y-115309700D03*
X129403800Y-80750000D03*
X131706600Y-86551700D03*
X132922600Y-86551700D03*
X132790000Y-118333000D03*
X131322600Y-72930500D03*
X155431100Y-76798700D03*
X161395600Y-111321000D03*
X157601400Y-111006100D03*
X156842900Y-114564100D03*
X153384600Y-114833700D03*
X154220800Y-119117100D03*
X141883600Y-75796800D03*
X146557500Y-91955400D03*
X151114200Y-91955400D03*
X155564000Y-118574100D03*
X154830700Y-76776600D03*
X158858700Y-119323800D03*
X137598800Y-100905200D03*
X138049200Y-107942200D03*
X160914800Y-119446800D03*
X161374500Y-116003700D03*
X146882100Y-116087100D03*
X145955400Y-107997200D03*
X149098300Y-117763400D03*
X150269300Y-96437600D03*
X150572600Y-117206200D03*
X150180300Y-110998300D03*
X156100400Y-110998300D03*
X155691600Y-99402900D03*
X149455300Y-98043000D03*
X148261500Y-95597400D03*
X142585900Y-115255400D03*
X142149100Y-96473000D03*
X131050800Y-100581800D03*
X132577000Y-106611400D03*
X139119500Y-106266200D03*
X138572500Y-117958400D03*
X137440400Y-97200500D03*
X137660100Y-114876700D03*
X132466600Y-100701200D03*
X132796500Y-115051300D03*
X134169800Y-98645200D03*
X133378300Y-118955700D03*
X126385600Y-105839900D03*
X129907000Y-115625300D03*
X198585500Y-98000000D03*
X196638200Y-104687100D03*
X135936500Y-98632200D03*
X135910200Y-102695400D03*
X139212400Y-102695400D03*
X140289200Y-103999700D03*
X161755900Y-82692200D03*
X162086000Y-81330100D03*
X146572900Y-100585100D03*
X146572900Y-110037300D03*
X136250000Y-73231400D03*
X138953500Y-64844700D03*
X134844700Y-75358000D03*
X130582900Y-63000000D03*
X112281100Y-75475000D03*
X186743800Y-75848800D03*
X188427800Y-72000000D03*
X160985900Y-98937300D03*
X160232700Y-106885900D03*
X161025000Y-89362400D03*
X162398200Y-73974800D03*
X159841500Y-70433500D03*
X171860200Y-76129400D03*
X112873200Y-71167000D03*
X129505500Y-87250000D03*
X180580100Y-59268600D03*
X155572000Y-119448000D03*
X151644400Y-119455400D03*
X155448700Y-78777900D03*
X157243900Y-74936800D03*
X158776900Y-76000000D03*
X130111800Y-104647100D03*
X143295800Y-114898800D03*
X148104500Y-105000000D03*
X154677500Y-85292000D03*
X142979300Y-68432300D03*
X142999000Y-75346600D03*
X137384900Y-116171600D03*
X147424000Y-115211900D03*
X151992000Y-115068700D03*
X156177500Y-118413100D03*
X132250700Y-111816300D03*
X114803000Y-104197000D03*
X115290400Y-110587700D03*
X118423300Y-62754700D03*
X115038000Y-66530800D03*
X129099200Y-98467400D03*
X129812600Y-83250000D03*
X138450900Y-62658900D03*
X139439000Y-103866200D03*
X138706800Y-98647300D03*
X143633800Y-83564800D03*
X166403200Y-64152400D03*
X149485400Y-83564800D03*
X153536500Y-111531500D03*
X163456200Y-112361300D03*
X152631900Y-77538700D03*
X151604800Y-82876900D03*
X132970100Y-88159200D03*
X132731300Y-116367100D03*
X133748200Y-117473200D03*
X135636200Y-114118600D03*
X189493600Y-82468900D03*
X183703300Y-86322600D03*
X166626200Y-85548400D03*
X165983700Y-85423000D03*
X158527300Y-83483100D03*
X149902400Y-76234500D03*
X152843900Y-109262200D03*
X162997300Y-109036500D03*
X132893400Y-75820800D03*
X124745900Y-64200300D03*
X116408100Y-98000000D03*
X126312200Y-77919600D03*
X124946900Y-77661400D03*
X127389500Y-87601200D03*
X120407300Y-98081900D03*
X135250000Y-73246200D03*
X135034600Y-61233800D03*
X120722000Y-71632500D03*
X130246100Y-71090100D03*
X152318400Y-92250000D03*
X156561800Y-72958600D03*
X155212100Y-88011800D03*
X157559400Y-86571400D03*
X161338600Y-86614000D03*
X179270200Y-79552500D03*
X178160000Y-86054200D03*
X162389300Y-86767600D03*
X180650200Y-78172500D03*
X163327100Y-60869700D03*
X120778200Y-63487700D03*
X113370400Y-75948300D03*
X119860000Y-71919400D03*
X124482900Y-68337900D03*
X164732700Y-68454600D03*
X176184100Y-77745000D03*
X154581100Y-92750000D03*
X156226900Y-85286800D03*
X155084600Y-84144500D03*
X161244300Y-84573700D03*
X175834900Y-83544600D03*
X154588400Y-91750000D03*
X156116000Y-73435800D03*
X150806500Y-84731700D03*
X139318300Y-87137700D03*
X119010500Y-76818500D03*
X152225300Y-88250000D03*
X164366900Y-83339800D03*
X110846700Y-73527700D03*
X132317100Y-88684500D03*
X151286600Y-86080300D03*
X144854400Y-77463400D03*
X177922600Y-80285000D03*
X131956700Y-78250800D03*
X112713500Y-78465400D03*
X164547200Y-81506800D03*
X152524200Y-89250000D03*
X151318200Y-81850900D03*
X136633400Y-81850900D03*
X120280600Y-76057200D03*
X155806600Y-88750000D03*
X158063300Y-88206200D03*
X178515400Y-94863300D03*
X181361600Y-81555000D03*
X105378000Y-78545300D03*
X140969300Y-61539000D03*
X163261500Y-61539000D03*
X139156600Y-100598700D03*
X118264600Y-75361600D03*
X135912500Y-81555500D03*
X144480700Y-81284900D03*
X170623100Y-81533300D03*
X140975200Y-101235300D03*
X111494300Y-79566400D03*
X135099300Y-78725400D03*
X144876000Y-79036000D03*
X158336000Y-72435800D03*
X115832000Y-83659300D03*
X134690300Y-87303800D03*
X144487900Y-84339400D03*
X169916300Y-82825000D03*
X135670800Y-97898900D03*
X139448100Y-98658300D03*
X137516000Y-112260600D03*
X161337400Y-112735200D03*
X187864000Y-84730000D03*
X115203600Y-83201100D03*
X129351900Y-86275300D03*
X124822400Y-78386100D03*
X130412400Y-80187400D03*
X145847300Y-75867400D03*
X172463100Y-84208800D03*
X183651200Y-84311400D03*
X163756400Y-104433300D03*
X162713000Y-54795900D03*
X114381600Y-54795900D03*
X103265900Y-84381400D03*
X139785500Y-83579200D03*
X139692400Y-66714000D03*
X167143100Y-69983200D03*
X175738600Y-85448300D03*
X126351200Y-85801500D03*
X108469100Y-86185400D03*
X145164600Y-73409400D03*
X143780500Y-69148000D03*
X150470500Y-69061900D03*
X180269300Y-82708600D03*
X106347600Y-85426700D03*
X145019700Y-83010000D03*
X171472200Y-86635000D03*
X126069600Y-85234100D03*
X122007100Y-87231300D03*
X176984000Y-79156000D03*
X148489500Y-71051400D03*
X155065300Y-72985500D03*
X145232700Y-88190300D03*
X136739100Y-90523200D03*
X138075700Y-108658700D03*
X123822900Y-108587200D03*
X106836200Y-86820300D03*
X138040800Y-97195400D03*
X126520800Y-75198800D03*
X162934200Y-71212300D03*
X173358000Y-88092100D03*
X112753300Y-87455300D03*
X125547400Y-84261200D03*
X113457500Y-92659600D03*
X132056400Y-82464700D03*
X172228500Y-89175000D03*
X151787800Y-80196600D03*
X180434300Y-90449300D03*
X170132200Y-105333800D03*
X146172400Y-101800600D03*
X146122600Y-107172700D03*
X115841700Y-105135800D03*
X105618100Y-89445000D03*
X127407200Y-83791200D03*
X122188100Y-89506500D03*
X171428800Y-88022100D03*
X152265000Y-80568700D03*
X166399600Y-102401900D03*
X177086500Y-91715000D03*
X142977900Y-100966900D03*
X141613400Y-111074800D03*
X129125200Y-111074800D03*
X109031000Y-90474900D03*
X146842200Y-90538100D03*
X146073500Y-88763800D03*
X131523600Y-91048500D03*
X129404700Y-99324300D03*
X143076600Y-89466200D03*
X139848300Y-65663300D03*
X163614600Y-65012700D03*
X175730800Y-91715000D03*
X185942200Y-92512800D03*
X177866300Y-103668900D03*
X143320500Y-102147400D03*
X141639000Y-112853000D03*
X103344700Y-92481900D03*
X108016300Y-113834000D03*
X155762100Y-89750000D03*
X158014800Y-103863100D03*
X163756400Y-103832900D03*
X171214500Y-92931700D03*
X152518600Y-105046900D03*
X152164000Y-111791000D03*
X129639600Y-110525500D03*
X120992300Y-96984400D03*
X104250800Y-92620000D03*
X135750700Y-56454000D03*
X161187500Y-56240900D03*
X185273500Y-94121700D03*
X141530500Y-98639500D03*
X140912600Y-107408900D03*
X112185600Y-106199300D03*
X147724700Y-73230300D03*
X173521800Y-94337900D03*
X148642100Y-72161700D03*
X129698400Y-71696600D03*
X120332900Y-72874600D03*
X102913700Y-74939600D03*
X92997700Y-93021100D03*
X185491900Y-95391700D03*
X146143200Y-73113600D03*
X105484200Y-94479700D03*
X142250000Y-73251000D03*
X105677900Y-88457500D03*
M02*
