M48
;DRILL file {KiCad 4.0.2+dfsg1-stable} date ven 19 lug 2019 14:22:55 CEST
;FORMAT={-:-/ absolute / inch / decimal}
FMAT,2
INCH,TZ
T1C0.012
T2C0.031
T3C0.040
T4C0.118
%
G90
G05
M72
T1
X3.6956Y-2.9
X3.751Y-3.4029
X3.751Y-3.2638
X3.8424Y-3.6772
X3.8528Y-3.4606
X3.8575Y-3.4221
X3.8602Y-3.3819
X3.8808Y-3.8491
X3.9064Y-3.2543
X3.9246Y-4.468
X3.9419Y-3.7197
X3.9543Y-3.7576
X3.9635Y-3.3301
X3.9827Y-3.703
X3.9854Y-3.8533
X3.9935Y-4.1131
X3.9941Y-3.0959
X3.995Y-3.7254
X4.0007Y-3.7499
X4.002Y-3.3218
X4.009Y-3.8882
X4.009Y-3.8489
X4.0149Y-4.4016
X4.0231Y-3.4901
X4.0447Y-3.4163
X4.0471Y-3.2583
X4.0532Y-3.5609
X4.0574Y-4.1417
X4.0681Y-3.8502
X4.0872Y-3.4547
X4.092Y-3.2428
X4.1037Y-4.3834
X4.1112Y-4.089
X4.113Y-3.7567
X4.1236Y-3.5693
X4.1326Y-3.5394
X4.1574Y-3.2431
X4.1674Y-3.7345
X4.1739Y-4.3588
X4.1761Y-3.0233
X4.1815Y-3.7556
X4.183Y-3.3986
X4.1903Y-2.649
X4.1992Y-3.9491
X4.2019Y-3.2426
X4.2042Y-4.4473
X4.2057Y-3.3011
X4.2081Y-3.624
X4.2121Y-3.5984
X4.2171Y-3.1512
X4.2184Y-3.4547
X4.2199Y-4.338
X4.2234Y-4.3039
X4.2287Y-3.3864
X4.2483Y-4.2993
X4.2517Y-3.8636
X4.2604Y-3.1034
X4.2664Y-3.429
X4.2702Y-3.6072
X4.2712Y-3.8858
X4.2806Y-3.4901
X4.2811Y-3.2424
X4.2812Y-3.5179
X4.2815Y-2.8688
X4.2878Y-4.4554
X4.2922Y-3.4366
X4.2966Y-3.9002
X4.3052Y-3.0725
X4.3093Y-3.3339
X4.3126Y-3.7572
X4.3185Y-4.0117
X4.335Y-3.9217
X4.3376Y-3.3571
X4.3413Y-3.4239
X4.3483Y-3.7057
X4.3568Y-3.4803
X4.3589Y-3.1969
X4.3669Y-4.5005
X4.3871Y-3.9237
X4.3872Y-4.1097
X4.4002Y-4.1499
X4.4453Y-3.8481
X4.4487Y-3.2606
X4.4584Y-3.344
X4.4637Y-2.8688
X4.4685Y-3.6235
X4.4736Y-3.4409
X4.488Y-3.5814
X4.4971Y-4.5696
X4.5019Y-3.5
X4.5029Y-3.9892
X4.5089Y-3.3044
X4.5275Y-3.4171
X4.5296Y-3.4723
X4.5356Y-3.7787
X4.543Y-3.5949
X4.5512Y-3.6582
X4.5526Y-3.2835
X4.5769Y-3.012
X4.599Y-2.9498
X4.599Y-4.5291
X4.6138Y-4.0499
X4.6313Y-4.0969
X4.6443Y-3.5279
X4.6519Y-3.9917
X4.6597Y-3.3251
X4.6737Y-3.4089
X4.675Y-4.2818
X4.6797Y-3.4879
X4.6828Y-4.0717
X4.6931Y-4.2603
X4.7369Y-4.2063
X4.7502Y-3.6213
X4.7522Y-3.6692
X4.7599Y-3.3227
X4.7666Y-4.027
X4.7787Y-3.0514
X4.785Y-4.146
X4.8187Y-3.4504
X4.8413Y-3.2978
X4.844Y-4.2231
X4.8482Y-3.6869
X4.85Y-3.2247
X4.8612Y-3.7088
X4.9436Y-3.054
X4.945Y-3.2771
X4.9607Y-4.3861
X4.9626Y-2.2625
X4.992Y-4.1411
X5.0017Y-4.4571
X5.0271Y-4.4752
X5.0294Y-4.2104
X5.0496Y-3.3787
X5.0703Y-3.1618
X5.0738Y-3.8797
X5.084Y-4.5449
X5.106Y-3.1897
X5.1097Y-3.4879
X5.1237Y-4.1286
X5.1289Y-3.7026
X5.1351Y-4.5242
X5.1896Y-4.1113
X5.1922Y-3.3896
X5.1978Y-4.6883
X5.1981Y-3.5679
X5.2011Y-4.6367
X5.2072Y-3.7835
X5.2259Y-4.7028
X5.227Y-4.6591
X5.233Y-3.2499
X5.2457Y-3.2122
X5.2513Y-3.8714
X5.2624Y-4.6334
X5.2649Y-4.0234
X5.266Y-2.7485
X5.2665Y-4.5743
X5.2696Y-3.63
X5.2709Y-3.0956
X5.2779Y-4.4975
X5.2786Y-3.2791
X5.2863Y-3.1897
X5.2895Y-3.2341
X5.3323Y-3.5146
X5.3759Y-4.1428
X5.3807Y-3.6213
X5.3807Y-3.8577
X5.3807Y-4.
X5.3898Y-3.6943
X5.3985Y-3.9556
X5.3985Y-4.5217
X5.4004Y-4.6044
X5.4149Y-3.0867
X5.42Y-2.2802
X5.423Y-4.0647
X5.4248Y-3.1911
X5.4376Y-4.6666
X5.4393Y-4.2675
X5.4398Y-4.1422
X5.4404Y-3.3375
X5.4417Y-3.8577
X5.462Y-3.2154
X5.4635Y-3.1805
X5.4851Y-4.6011
X5.5133Y-4.6559
X5.5181Y-4.2126
X5.5218Y-4.2557
X5.5339Y-3.5013
X5.5344Y-3.8388
X5.5346Y-4.1263
X5.5419Y-4.6846
X5.5522Y-4.5633
X5.5578Y-4.6548
X5.5759Y-4.1103
X5.5779Y-3.5396
X5.5785Y-4.6413
X5.5817Y-3.6896
X5.5986Y-4.5512
X5.6028Y-3.9915
X5.6038Y-3.8714
X5.6369Y-4.3798
X5.6508Y-4.2472
X5.6659Y-4.2282
X5.6692Y-4.5609
X5.6826Y-4.1069
X5.6841Y-3.3362
X5.6841Y-3.436
X5.6884Y-3.6112
X5.717Y-4.1309
X5.7256Y-4.7029
X5.7283Y-4.6541
X5.7296Y-3.0397
X5.733Y-4.679
X5.7378Y-4.2649
X5.7542Y-3.3807
X5.7546Y-3.7896
X5.7551Y-4.4005
X5.7563Y-4.2941
X5.7737Y-4.2413
X5.776Y-3.1845
X5.7907Y-3.2396
X5.7909Y-3.8146
X5.7917Y-4.3146
X5.8019Y-3.0213
X5.8107Y-4.6231
X5.8309Y-3.4146
X5.8439Y-4.6849
X5.8499Y-4.1641
X5.8554Y-4.5195
X5.8682Y-3.5646
X5.8719Y-4.5365
X5.8733Y-4.6405
X5.8932Y-4.7025
X5.8974Y-4.3355
X5.9064Y-4.649
X5.907Y-4.1871
X5.9074Y-3.1834
X5.9199Y-3.2645
X5.9208Y-3.5896
X5.9306Y-3.6367
X5.9438Y-3.2547
X5.9468Y-2.7628
X5.949Y-4.6813
X5.9552Y-3.4797
X5.9699Y-4.7024
X5.9864Y-4.6165
X6.003Y-4.6415
X6.0067Y-3.1949
X6.0195Y-3.5258
X6.0261Y-4.3835
X6.0361Y-4.7033
X6.0665Y-4.6943
X6.1147Y-3.3591
X6.1185Y-3.3146
X6.1249Y-4.6165
X6.1249Y-4.7031
X6.1357Y-4.1215
X6.1398Y-4.502
X6.1545Y-3.6396
X6.1554Y-3.9206
X6.1761Y-3.4785
X6.1894Y-4.3813
X6.1917Y-4.7033
X6.1968Y-4.1612
X6.2006Y-3.4502
X6.2219Y-3.4291
X6.2319Y-4.6849
X6.2698Y-2.2411
X6.2754Y-4.6233
X6.2827Y-3.9809
X6.2827Y-4.1644
X6.3059Y-4.4905
X6.352Y-4.5513
X6.3903Y-4.5781
X6.4092Y-4.6233
X6.4137Y-4.5144
X6.4141Y-4.6883
X6.476Y-3.574
X6.4967Y-3.6896
X6.5678Y-3.5646
X6.58Y-3.9394
X7.0397Y-3.8895
X7.1022Y-3.5086
X7.2407Y-3.4781
X7.2669Y-3.4542
X7.4213Y-4.0474
X7.4274Y-3.0167
X7.4274Y-3.1022
T2
X5.4Y-2.5
X5.4Y-2.6921
T3
X4.9Y-2.4
X4.9Y-2.7
X5.Y-2.4
X5.Y-2.7
X7.6378Y-3.878
X7.6378Y-3.978
X7.6378Y-4.078
X7.8Y-2.4
X7.9Y-2.4
X8.Y-3.1
X8.Y-3.2
X8.Y-3.3
X8.Y-3.4
T4
X3.3Y-2.32
X3.3Y-4.42
X8.2Y-2.32
X8.2Y-4.32
T0
M30
